<?xml version="1.0" encoding="iso-8859-1"?>
<!-- Generator: Adobe Illustrator 19.0.0, SVG Export Plug-In . SVG Version: 6.00 Build 0)  -->
<svg version="1.1" id="Layer_1" xmlns="http://www.w3.org/2000/svg" xmlns:xlink="http://www.w3.org/1999/xlink" x="0px" y="0px"
	 viewBox="0 0 512 512" style="enable-background:new 0 0 512 512;" xml:space="preserve">
<rect x="38.661" y="10.449" style="fill:#ECF0F1;" width="41.796" height="491.102"/>
<g>
	<rect x="80.98" y="26.122" style="fill:#3EBD91;" width="391.837" height="41.796"/>
	<rect x="80.98" y="266.449" style="fill:#3EBD91;" width="391.837" height="41.796"/>
</g>
<rect x="80.98" y="67.918" style="fill:#F8C660;" width="391.837" height="198.531"/>
<path style="fill:#231F20;" d="M472.816,15.673H91.429v-5.224C91.429,4.679,86.751,0,80.98,0H39.184
	c-5.771,0-10.449,4.679-10.449,10.449v491.102c0,5.77,4.678,10.449,10.449,10.449H80.98c5.771,0,10.449-4.679,10.449-10.449V318.694
	h381.388c5.771,0,10.449-4.679,10.449-10.449V26.122C483.265,20.353,478.587,15.673,472.816,15.673z M91.429,78.367h370.939V256
	H91.429V78.367z M462.367,36.571v20.898H91.429V36.571H462.367z M70.531,491.102H49.633V20.898h20.898V491.102z M462.367,297.796
	H91.429v-20.898h370.939V297.796z"/>
<g>
</g>
<g>
</g>
<g>
</g>
<g>
</g>
<g>
</g>
<g>
</g>
<g>
</g>
<g>
</g>
<g>
</g>
<g>
</g>
<g>
</g>
<g>
</g>
<g>
</g>
<g>
</g>
<g>
</g>
</svg>
