<?xml version="1.0" encoding="UTF-8" standalone="no"?>
<!DOCTYPE svg PUBLIC "-//W3C//DTD SVG 1.1//EN" "http://www.w3.org/Graphics/SVG/1.1/DTD/svg11.dtd">
<svg version="1.1" xmlns="http://www.w3.org/2000/svg" xmlns:xlink="http://www.w3.org/1999/xlink" preserveAspectRatio="xMidYMid meet" viewBox="-0.9956471507976272 -0.8270479532311019 222.58593282018253 406.65645133125713" width="218.59" height="402.66"><defs><path d="M67.18 383.15C67.27 382.32 67.33 381.45 67.35 380.45C67.37 378.86 67.34 376.88 67.23 374.47C67.05 370.27 66.65 364.72 66.07 358.03C65.13 347.12 63.74 333.43 62.43 321.82C61.79 316.11 56.84 312.05 51.37 312.72C45.91 313.41 42 318.59 42.65 324.29C43.94 335.72 45.31 349.23 46.23 359.92C46.78 366.34 47.16 371.64 47.33 375.48C47.42 377.45 47.45 378.98 47.43 380C47.43 380.08 47.43 380.16 47.43 380.22C46.34 384.64 48.14 389.44 52.11 391.81C56.88 394.67 62.97 392.94 65.71 387.95C66.64 386.26 66.97 384.87 67.18 383.15Z" id="b6Nlo9ETGH"></path><path d="M67.18 383.15C67.27 382.32 67.33 381.45 67.35 380.45C67.37 378.86 67.34 376.88 67.23 374.47C67.05 370.27 66.65 364.72 66.07 358.03C65.13 347.12 63.74 333.43 62.43 321.82C61.79 316.11 56.84 312.05 51.37 312.72C45.91 313.41 42 318.59 42.65 324.29C43.94 335.72 45.31 349.23 46.23 359.92C46.78 366.34 47.16 371.64 47.33 375.48C47.42 377.45 47.45 378.98 47.43 380C47.43 380.08 47.43 380.16 47.43 380.22C46.34 384.64 48.14 389.44 52.11 391.81C56.88 394.67 62.97 392.94 65.71 387.95C66.64 386.26 66.97 384.87 67.18 383.15Z" id="cP0zNy9tm"></path><path d="M86.35 374.12C86.76 373.24 87.35 372.34 88.26 371.48C89.8 370.01 91.85 369.03 94.17 368.91C90.7 369.09 87.72 371.1 86.07 374C86.03 374.51 85.99 374.91 85.94 375.2C85.93 375.24 85.93 375.23 85.95 375.15C86.03 374.88 86.15 374.55 86.35 374.12ZM101.7 386.8C102.84 385.72 103.62 384.53 104.23 383.25C104.9 381.81 105.29 380.38 105.56 378.75C105.91 376.67 106.08 374.11 106.12 370.93C106.19 365.73 105.92 358.7 105.36 350.16C104.49 336.84 102.92 320 101.48 307.27C100.84 301.57 95.89 297.5 90.42 298.19C84.96 298.87 81.05 304.04 81.7 309.75C83.1 322.17 84.64 338.68 85.49 351.62C86.01 359.64 86.26 366.16 86.2 370.68C86.18 372.03 86.14 373.16 86.07 374C85.11 375.69 84.59 377.69 84.68 379.79C84.93 385.53 89.59 389.96 95.08 389.7C97.66 389.57 99.95 388.48 101.7 386.8Z" id="czG2LigCX"></path><path d="M86.35 374.12C86.76 373.24 87.35 372.34 88.26 371.48C89.8 370.01 91.85 369.03 94.17 368.91C90.7 369.09 87.72 371.1 86.07 374C86.03 374.51 85.99 374.91 85.94 375.2C85.93 375.24 85.93 375.23 85.95 375.15C86.03 374.88 86.15 374.55 86.35 374.12ZM101.7 386.8C102.84 385.72 103.62 384.53 104.23 383.25C104.9 381.81 105.29 380.38 105.56 378.75C105.91 376.67 106.08 374.11 106.12 370.93C106.19 365.73 105.92 358.7 105.36 350.16C104.49 336.84 102.92 320 101.48 307.27C100.84 301.57 95.89 297.5 90.42 298.19C84.96 298.87 81.05 304.04 81.7 309.75C83.1 322.17 84.64 338.68 85.49 351.62C86.01 359.64 86.26 366.16 86.2 370.68C86.18 372.03 86.14 373.16 86.07 374C85.11 375.69 84.59 377.69 84.68 379.79C84.93 385.53 89.59 389.96 95.08 389.7C97.66 389.57 99.95 388.48 101.7 386.8Z" id="c6LlmoQpgx"></path><path d="M68.93 364.87L43.94 366.09L28.77 261.16L64.54 262.76L68.93 364.87Z" id="f1jcIxRu90"></path><path d="M68.93 364.87L43.94 366.09L28.77 261.16L64.54 262.76L68.93 364.87Z" id="c49TWclDyX"></path><path d="M70.47 286.48C52.12 287.38 36.91 280.11 36.48 270.24C36.06 260.37 50.59 251.65 68.93 250.75C87.27 249.86 102.5 257.13 102.92 266.99C103.35 276.86 88.81 285.59 70.47 286.48Z" id="a2IhIeXb"></path><path d="M70.47 286.48C52.12 287.38 36.91 280.11 36.48 270.24C36.06 260.37 50.59 251.65 68.93 250.75C87.27 249.86 102.5 257.13 102.92 266.99C103.35 276.86 88.81 285.59 70.47 286.48Z" id="aVnbiAzEc"></path><path d="M109.41 363.56L83.8 364.82L69.93 262.73L108.4 260.85L109.41 363.56Z" id="a37Ok8mRyJ"></path><path d="M109.41 363.56L83.8 364.82L69.93 262.73L108.4 260.85L109.41 363.56Z" id="a15GgcAUrI"></path><path d="M96.46 327.32L92.1 329.23L92.97 331.4L101.25 327.76L100.95 325.52L94.83 324.76L101.01 321.89L100.51 319.64L90.4 320.13L90.5 322.48L94.62 322.29L90.18 324.34L90.49 326.58L96.46 327.32Z" id="an7RhGX8c"></path><path d="M96.46 327.32L92.1 329.23L92.97 331.4L101.25 327.76L100.95 325.52L94.83 324.76L101.01 321.89L100.51 319.64L90.4 320.13L90.5 322.48L94.62 322.29L90.18 324.34L90.49 326.58L96.46 327.32Z" id="a3Irf2TcRE"></path><path d="M56.13 333.2L56.81 330.96L52.3 329.48L58.17 328.16L58.3 325.89L53.69 324.28L57.81 324.08L57.71 321.74L47.6 322.23L47.3 324.52L53.7 326.76L47.67 328.12L47.57 330.39L56.13 333.2Z" id="jVYmhbFCw"></path><path d="M56.13 333.2L56.81 330.96L52.3 329.48L58.17 328.16L58.3 325.89L53.69 324.28L57.81 324.08L57.71 321.74L47.6 322.23L47.3 324.52L53.7 326.76L47.67 328.12L47.57 330.39L56.13 333.2Z" id="aMq2gbJw"></path><path d="M109.74 357.58L109.43 363.47L84.15 364.71L83.06 358.88L109.74 357.58Z" id="b19InE9QmD"></path><path d="M109.74 357.58L109.43 363.47L84.15 364.71L83.06 358.88L109.74 357.58Z" id="e1BAZI0gAW"></path><path d="M68.73 359.29L68.98 365.16L43.99 366.38L42.89 360.56L68.73 359.29Z" id="b6py7KPTnQ"></path><path d="M68.73 359.29L68.98 365.16L43.99 366.38L42.89 360.56L68.73 359.29Z" id="dglcTcXq"></path><path d="M99.35 387.14C93.25 386.96 80.7 384.63 80.02 388.09C77.67 399.88 85.22 399.51 90.05 399.27C96.69 398.95 97.39 397.08 101.76 397.44C104.03 397.63 107.42 399.05 122.65 398.31C134.87 397.72 135.72 396.25 136.79 393.36C137.28 392.06 136.77 389.25 136.46 388.79C136.13 388.34 106.77 387.47 99.35 387.14Z" id="b11PDHcsiW"></path><path d="M99.35 387.14C93.25 386.96 80.7 384.63 80.02 388.09C77.67 399.88 85.22 399.51 90.05 399.27C96.69 398.95 97.39 397.08 101.76 397.44C104.03 397.63 107.42 399.05 122.65 398.31C134.87 397.72 135.72 396.25 136.79 393.36C137.28 392.06 136.77 389.25 136.46 388.79C136.13 388.34 106.77 387.47 99.35 387.14Z" id="e1Y5xHaAV"></path><path d="M84.82 369.38C83.23 371.37 83.94 372.32 83.41 375.55C82.68 379.86 81.89 379.29 81.15 383.29C80.64 386.06 80.69 390.18 82.3 392.39C84.8 395.82 87.72 395.32 92.7 395.08C95.57 394.94 100.36 393.95 104.79 394.95C110.97 396.35 127.84 396.42 132.01 394.85C139.11 392.15 136.59 385.46 133.46 383.02C127.97 378.74 117.75 379.55 115.02 376.14C112.79 373.35 111.5 371.31 110.13 368.73C110.02 366.38 106.09 366.58 105.89 368.35C106.65 371.97 105.43 374.63 97.73 374.86C91.57 375.03 88.75 373.32 86.16 369.31C86.03 369.32 84.96 369.37 84.82 369.38Z" id="aKqCGX0YH"></path><path d="M84.82 369.38C83.23 371.37 83.94 372.32 83.41 375.55C82.68 379.86 81.89 379.29 81.15 383.29C80.64 386.06 80.69 390.18 82.3 392.39C84.8 395.82 87.72 395.32 92.7 395.08C95.57 394.94 100.36 393.95 104.79 394.95C110.97 396.35 127.84 396.42 132.01 394.85C139.11 392.15 136.59 385.46 133.46 383.02C127.97 378.74 117.75 379.55 115.02 376.14C112.79 373.35 111.5 371.31 110.13 368.73C110.02 366.38 106.09 366.58 105.89 368.35C106.65 371.97 105.43 374.63 97.73 374.86C91.57 375.03 88.75 373.32 86.16 369.31C86.03 369.32 84.96 369.37 84.82 369.38Z" id="dVnZC8BXq"></path><path d="M116.94 379.6C117 381.17 117.04 382.03 117.05 382.2C117.08 382.92 117.83 383.34 118.42 382.97C118.65 382.82 119.78 382.11 121.81 380.84C122.62 382.98 123.08 384.18 123.17 384.42C123.43 385.12 124.35 385.22 124.76 384.6C125.01 384.21 127.01 381.1 127.26 380.71C127.54 380.27 127.43 379.68 127.01 379.39C126.61 379.1 126.04 379.22 125.76 379.65C125.66 379.81 125.14 380.61 124.21 382.04C123.54 380.28 123.18 379.29 123.11 379.1C122.9 378.55 122.27 378.34 121.79 378.64C121.59 378.76 120.59 379.39 118.79 380.53C118.73 378.92 118.69 378.04 118.68 377.86C118.65 377.12 117.86 376.71 117.27 377.11C117.08 377.24 116.14 377.89 114.43 379.06C114.44 376.29 114.44 374.75 114.44 374.44C114.44 373.65 113.56 373.21 112.98 373.7C112.6 374.02 109.61 376.51 109.23 376.82C108.84 377.15 108.78 377.75 109.09 378.16C109.4 378.56 109.97 378.62 110.36 378.31C110.51 378.18 111.27 377.55 112.63 376.41C112.63 376.85 112.62 380.38 112.62 380.82C113.16 381.62 113.61 381.88 114.02 381.61C114.21 381.48 115.19 380.81 116.94 379.6Z" id="kaFbp1k6I"></path><path d="M116.94 379.6C117 381.17 117.04 382.03 117.05 382.2C117.08 382.92 117.83 383.34 118.42 382.97C118.65 382.82 119.78 382.11 121.81 380.84C122.62 382.98 123.08 384.18 123.17 384.42C123.43 385.12 124.35 385.22 124.76 384.6C125.01 384.21 127.01 381.1 127.26 380.71C127.54 380.27 127.43 379.68 127.01 379.39C126.61 379.1 126.04 379.22 125.76 379.65C125.66 379.81 125.14 380.61 124.21 382.04C123.54 380.28 123.18 379.29 123.11 379.1C122.9 378.55 122.27 378.34 121.79 378.64C121.59 378.76 120.59 379.39 118.79 380.53C118.73 378.92 118.69 378.04 118.68 377.86C118.65 377.12 117.86 376.71 117.27 377.11C117.08 377.24 116.14 377.89 114.43 379.06C114.44 376.29 114.44 374.75 114.44 374.44C114.44 373.65 113.56 373.21 112.98 373.7C112.6 374.02 109.61 376.51 109.23 376.82C108.84 377.15 108.78 377.75 109.09 378.16C109.4 378.56 109.97 378.62 110.36 378.31C110.51 378.18 111.27 377.55 112.63 376.41C112.63 376.85 112.62 380.38 112.62 380.82C113.16 381.62 113.61 381.88 114.02 381.61C114.21 381.48 115.19 380.81 116.94 379.6Z" id="gaHefG5kF"></path><path d="M55.34 389.29C61.4 388.52 73.7 384.97 74.68 388.34C78.02 399.86 70.48 400.23 65.65 400.47C59.01 400.79 58.14 398.99 53.83 399.78C51.58 400.19 48.33 401.94 33.1 402.69C20.88 403.29 19.92 401.91 18.58 399.14C17.99 397.9 18.26 395.04 18.54 394.57C18.82 394.08 47.98 390.35 55.34 389.29Z" id="cFXtvjO6X"></path><path d="M55.34 389.29C61.4 388.52 73.7 384.97 74.68 388.34C78.02 399.86 70.48 400.23 65.65 400.47C59.01 400.79 58.14 398.99 53.83 399.78C51.58 400.19 48.33 401.94 33.1 402.69C20.88 403.29 19.92 401.91 18.58 399.14C17.99 397.9 18.26 395.04 18.54 394.57C18.82 394.08 47.98 390.35 55.34 389.29Z" id="c2OD7CktKe"></path><path d="M68.29 370.19C70.05 372.01 69.41 373.03 70.23 376.19C71.31 380.42 72.06 379.77 73.13 383.68C73.88 386.39 74.18 390.5 72.77 392.85C70.58 396.52 67.62 396.31 62.65 396.55C59.78 396.69 54.91 396.17 50.6 397.61C44.55 399.6 27.77 401.32 23.49 400.15C16.18 398.17 18.11 391.26 21.02 388.51C26.12 383.72 36.36 383.53 38.79 379.87C40.79 376.87 41.89 374.71 43.04 372.01C42.94 369.66 46.87 369.47 47.23 371.22C46.78 374.91 48.21 377.43 55.9 376.9C62.05 376.47 64.71 374.5 66.95 370.25C67.09 370.25 68.15 370.19 68.29 370.19Z" id="kaJBbZ4goC"></path><path d="M68.29 370.19C70.05 372.01 69.41 373.03 70.23 376.19C71.31 380.42 72.06 379.77 73.13 383.68C73.88 386.39 74.18 390.5 72.77 392.85C70.58 396.52 67.62 396.31 62.65 396.55C59.78 396.69 54.91 396.17 50.6 397.61C44.55 399.6 27.77 401.32 23.49 400.15C16.18 398.17 18.11 391.26 21.02 388.51C26.12 383.72 36.36 383.53 38.79 379.87C40.79 376.87 41.89 374.71 43.04 372.01C42.94 369.66 46.87 369.47 47.23 371.22C46.78 374.91 48.21 377.43 55.9 376.9C62.05 376.47 64.71 374.5 66.95 370.25C67.09 370.25 68.15 370.19 68.29 370.19Z" id="aP2ualP1p"></path><path d="M37.18 383.5C37.25 385.06 37.29 385.93 37.3 386.1C37.33 386.82 36.61 387.31 35.99 387C35.76 386.88 34.57 386.28 32.44 385.2C31.81 387.42 31.46 388.65 31.39 388.9C31.19 389.63 30.29 389.82 29.83 389.23C29.54 388.87 27.28 385.97 27 385.61C26.68 385.2 26.74 384.61 27.13 384.28C27.52 383.95 28.08 384.01 28.4 384.41C28.52 384.56 29.1 385.3 30.15 386.64C30.66 384.82 30.95 383.81 31.01 383.6C31.16 383.04 31.76 382.76 32.26 383.01C32.48 383.12 33.53 383.65 35.41 384.61C35.34 383 35.31 382.11 35.3 381.93C35.27 381.2 36.01 380.71 36.63 381.05C36.83 381.17 37.83 381.72 39.63 382.71C39.39 379.96 39.25 378.43 39.23 378.12C39.16 377.33 40 376.8 40.63 377.24C41.02 377.51 44.22 379.71 44.61 379.98C45.03 380.27 45.15 380.86 44.87 381.3C44.6 381.73 44.04 381.85 43.62 381.57C43.46 381.46 42.65 380.9 41.2 379.9C41.24 380.34 41.55 383.85 41.58 384.29C41.12 385.13 40.69 385.44 40.26 385.21C40.06 385.09 39.03 384.53 37.18 383.5Z" id="a16BFtsMkc"></path><path d="M37.18 383.5C37.25 385.06 37.29 385.93 37.3 386.1C37.33 386.82 36.61 387.31 35.99 387C35.76 386.88 34.57 386.28 32.44 385.2C31.81 387.42 31.46 388.65 31.39 388.9C31.19 389.63 30.29 389.82 29.83 389.23C29.54 388.87 27.28 385.97 27 385.61C26.68 385.2 26.74 384.61 27.13 384.28C27.52 383.95 28.08 384.01 28.4 384.41C28.52 384.56 29.1 385.3 30.15 386.64C30.66 384.82 30.95 383.81 31.01 383.6C31.16 383.04 31.76 382.76 32.26 383.01C32.48 383.12 33.53 383.65 35.41 384.61C35.34 383 35.31 382.11 35.3 381.93C35.27 381.2 36.01 380.71 36.63 381.05C36.83 381.17 37.83 381.72 39.63 382.71C39.39 379.96 39.25 378.43 39.23 378.12C39.16 377.33 40 376.8 40.63 377.24C41.02 377.51 44.22 379.71 44.61 379.98C45.03 380.27 45.15 380.86 44.87 381.3C44.6 381.73 44.04 381.85 43.62 381.57C43.46 381.46 42.65 380.9 41.2 379.9C41.24 380.34 41.55 383.85 41.58 384.29C41.12 385.13 40.69 385.44 40.26 385.21C40.06 385.09 39.03 384.53 37.18 383.5Z" id="a2VNKwmhib"></path><path d="M65.98 275.65C68.39 275.77 70.8 275.66 73.2 275.32C76.03 274.92 98.65 271.72 101.48 271.32C104.34 270.92 106.42 268.25 106.2 265.24C105.44 254.5 99.33 168.59 98.57 157.84C98.35 154.77 95.83 152.44 92.88 152.59C87.19 152.87 41.7 155.09 36.02 155.37C33.01 155.51 30.68 158.18 30.81 161.32C31.12 168.5 32.66 204.35 35.43 268.9C37.01 272.42 38.73 274.23 40.61 274.32C43.14 274.45 63.45 275.51 65.98 275.65Z" id="b8RP2ZZh0"></path><path d="M65.98 275.65C68.39 275.77 70.8 275.66 73.2 275.32C76.03 274.92 98.65 271.72 101.48 271.32C104.34 270.92 106.42 268.25 106.2 265.24C105.44 254.5 99.33 168.59 98.57 157.84C98.35 154.77 95.83 152.44 92.88 152.59C87.19 152.87 41.7 155.09 36.02 155.37C33.01 155.51 30.68 158.18 30.81 161.32C31.12 168.5 32.66 204.35 35.43 268.9C37.01 272.42 38.73 274.23 40.61 274.32C43.14 274.45 63.45 275.51 65.98 275.65Z" id="b3BMnnhZ7f"></path><path d="M92.73 189.82L45.29 192.14L45.92 206.66L93.36 204.34L92.73 189.82Z" id="b1qSSEb2WC"></path><path d="M92.73 189.82L45.29 192.14L45.92 206.66L93.36 204.34L92.73 189.82Z" id="j1p0y2yMk1"></path><path d="M90.85 216.16L43.42 218.48L44.05 233L91.48 230.68L90.85 216.16Z" id="d15pyNhyZ"></path><path d="M90.85 216.16L43.42 218.48L44.05 233L91.48 230.68L90.85 216.16Z" id="a1FclTSJz5"></path><path d="M91.98 242.35L44.54 244.67L45.17 259.19L92.61 256.87L91.98 242.35Z" id="ckvYHyqnV"></path><path d="M91.98 242.35L44.54 244.67L45.17 259.19L92.61 256.87L91.98 242.35Z" id="bmUCKB35L"></path><path d="M63.76 177.62C53.21 178.13 44.28 169.52 43.8 158.37C43.32 147.23 51.47 137.78 62.02 137.27C72.56 136.75 81.5 145.36 81.98 156.51C82.46 167.66 74.29 177.11 63.76 177.62Z" id="a1A7S8lVi3"></path><path d="M63.76 177.62C53.21 178.13 44.28 169.52 43.8 158.37C43.32 147.23 51.47 137.78 62.02 137.27C72.56 136.75 81.5 145.36 81.98 156.51C82.46 167.66 74.29 177.11 63.76 177.62Z" id="g15eXsMbnF"></path><path d="M73.1 143.13C73.39 149.69 73.54 153.34 73.58 154.07C73.89 161.36 70.55 165.17 63.57 165.52C63.57 165.52 63.57 165.52 63.57 165.52C56.58 165.86 52.93 162.38 52.62 155.09C52.34 148.52 52.18 144.88 52.15 144.15C51.83 136.86 55.17 133.04 62.15 132.7C62.15 132.7 62.15 132.7 62.15 132.7C69.14 132.35 72.79 135.83 73.1 143.13Z" id="bUG4mYgM"></path><path d="M73.1 143.13C73.39 149.69 73.54 153.34 73.58 154.07C73.89 161.36 70.55 165.17 63.57 165.52C63.57 165.52 63.57 165.52 63.57 165.52C56.58 165.86 52.93 162.38 52.62 155.09C52.34 148.52 52.18 144.88 52.15 144.15C51.83 136.86 55.17 133.04 62.15 132.7C62.15 132.7 62.15 132.7 62.15 132.7C69.14 132.35 72.79 135.83 73.1 143.13Z" id="e6tLrjflQ3"></path><path d="M131.57 264.56C133.16 242.18 130.36 214.69 124.81 186.45C124.66 186.05 123.44 182.85 123.29 182.44C120.1 177.06 116.68 172.85 109.63 165.02C103.47 158.19 101.53 155.94 99.48 152.94C95.68 147.37 88.26 146.08 82.93 150.07C77.58 154.06 76.34 161.79 80.15 167.37C83.08 171.65 85.33 174.29 92.33 182.05C97.3 187.56 100.04 190.81 102 193.77C106.85 219.16 109.24 243.67 107.89 262.79C107.41 269.62 112.32 275.55 118.86 276.05C125.4 276.53 131.09 271.39 131.57 264.56Z" id="aXyE2Ui20"></path><path d="M131.57 264.56C133.16 242.18 130.36 214.69 124.81 186.45C124.66 186.05 123.44 182.85 123.29 182.44C120.1 177.06 116.68 172.85 109.63 165.02C103.47 158.19 101.53 155.94 99.48 152.94C95.68 147.37 88.26 146.08 82.93 150.07C77.58 154.06 76.34 161.79 80.15 167.37C83.08 171.65 85.33 174.29 92.33 182.05C97.3 187.56 100.04 190.81 102 193.77C106.85 219.16 109.24 243.67 107.89 262.79C107.41 269.62 112.32 275.55 118.86 276.05C125.4 276.53 131.09 271.39 131.57 264.56Z" id="b1YPYZy8py"></path><path d="M52.69 150.91C53.59 152.62 60.74 166.37 61.63 168.09C61.63 168.09 57.13 202.93 57.85 219.9C58.47 234.17 57.13 268.83 56.69 279.47C56.62 281.18 55.17 282.48 53.54 282.3C50.71 281.98 28.04 279.5 25.21 279.19C23.77 279.03 22.67 277.76 22.66 276.25C22.64 272.83 22.53 255.72 22.35 224.91C22.48 219.6 23.52 177.09 23.65 171.77C30.58 155.89 38.22 147.75 46.61 147.34C49.12 147.22 51.49 148.6 52.69 150.91Z" id="fmTV7H4l3"></path><path d="M52.69 150.91C53.59 152.62 60.74 166.37 61.63 168.09C61.63 168.09 57.13 202.93 57.85 219.9C58.47 234.17 57.13 268.83 56.69 279.47C56.62 281.18 55.17 282.48 53.54 282.3C50.71 281.98 28.04 279.5 25.21 279.19C23.77 279.03 22.67 277.76 22.66 276.25C22.64 272.83 22.53 255.72 22.35 224.91C22.48 219.6 23.52 177.09 23.65 171.77C30.58 155.89 38.22 147.75 46.61 147.34C49.12 147.22 51.49 148.6 52.69 150.91Z" id="gQFdudzWF"></path><path d="M57.43 279.6C56.76 264.14 58.5 213.59 61.78 168.61C61.53 168.59 60.31 168.5 58.08 168.32C54.72 232.2 53.27 269.36 53.72 279.77C54.09 279.76 57.05 279.62 57.43 279.6Z" id="b1LO4DB6vL"></path><path d="M57.43 279.6C56.76 264.14 58.5 213.59 61.78 168.61C61.53 168.59 60.31 168.5 58.08 168.32C54.72 232.2 53.27 269.36 53.72 279.77C54.09 279.76 57.05 279.62 57.43 279.6Z" id="a6oef5AQDp"></path><path d="M49.64 188.57C48.47 195.69 48.48 205.78 48.48 210.82C32.73 218.88 34.15 216.51 28.25 207.62C28.25 205.49 28.24 200.15 28.23 191.61C41.07 189.79 48.21 188.77 49.64 188.57Z" id="c3KhWMBpoN"></path><path d="M49.64 188.57C48.47 195.69 48.48 205.78 48.48 210.82C32.73 218.88 34.15 216.51 28.25 207.62C28.25 205.49 28.24 200.15 28.23 191.61C41.07 189.79 48.21 188.77 49.64 188.57Z" id="b1OOLDftR2"></path><path d="M25.58 193.19L34.48 200.02L46.41 194.61L48.98 188.64L26.98 186.63L25.58 193.19Z" id="f1a3nrjKvG"></path><path d="M25.58 193.19L34.48 200.02L46.41 194.61L48.98 188.64L26.98 186.63L25.58 193.19Z" id="cnBHEHANg"></path><path d="M22.44 280.26C22.43 279.91 22.35 278.18 22.22 275.05C25.75 275.26 53.93 276.94 57.46 277.15C57.58 280.12 57.65 281.78 57.67 282.11C57.7 282.98 57.01 283.71 56.16 283.66C49.69 283.26 27.02 281.88 23.79 281.68C23.06 281.64 22.48 281.02 22.44 280.26Z" id="d6JDHaVZdY"></path><path d="M22.44 280.26C22.43 279.91 22.35 278.18 22.22 275.05C25.75 275.26 53.93 276.94 57.46 277.15C57.58 280.12 57.65 281.78 57.67 282.11C57.7 282.98 57.01 283.71 56.16 283.66C49.69 283.26 27.02 281.88 23.79 281.68C23.06 281.64 22.48 281.02 22.44 280.26Z" id="aTfr8PDb9"></path><path d="M130.61 213.63C130.61 213.63 126.49 194.13 121.01 176.43C117.41 164.75 108.97 156.27 103.63 151.83C100.65 149.36 97 148.05 93.23 147.5C92.36 147.37 88.04 146.74 80.26 145.59C79.91 149.49 77.13 180.66 76.79 184.55C92.31 214.63 100.93 231.35 102.66 234.69C108.25 230.48 122.96 221.76 130.61 213.63Z" id="jaSNAwmJG"></path><path d="M130.61 213.63C130.61 213.63 126.49 194.13 121.01 176.43C117.41 164.75 108.97 156.27 103.63 151.83C100.65 149.36 97 148.05 93.23 147.5C92.36 147.37 88.04 146.74 80.26 145.59C79.91 149.49 77.13 180.66 76.79 184.55C92.31 214.63 100.93 231.35 102.66 234.69C108.25 230.48 122.96 221.76 130.61 213.63Z" id="a4YrPypZ4a"></path><path d="M109.43 211.7C105.74 213.09 103.42 216.93 103.8 221C103.81 221.11 103.9 222.03 103.91 222.15C103.95 222.6 104.02 223.04 104.13 223.48C104.88 226.54 110.84 251.08 111.59 254.15C112.24 256.8 114.53 258.66 117.15 258.63C118.56 258.62 129.76 258.53 131.16 258.52C134.68 258.49 137.34 255.18 136.75 251.55C136.35 249.01 134.28 236.3 130.57 213.41C126.91 208.32 123.64 206.33 120.74 207.42C119.61 207.85 110.55 211.27 109.43 211.7Z" id="b1qVwkuMRR"></path><path d="M109.43 211.7C105.74 213.09 103.42 216.93 103.8 221C103.81 221.11 103.9 222.03 103.91 222.15C103.95 222.6 104.02 223.04 104.13 223.48C104.88 226.54 110.84 251.08 111.59 254.15C112.24 256.8 114.53 258.66 117.15 258.63C118.56 258.62 129.76 258.53 131.16 258.52C134.68 258.49 137.34 255.18 136.75 251.55C136.35 249.01 134.28 236.3 130.57 213.41C126.91 208.32 123.64 206.33 120.74 207.42C119.61 207.85 110.55 211.27 109.43 211.7Z" id="c3izdD8rsz"></path><path d="M110.69 248.92C110.88 249.99 112.4 258.5 112.58 259.57C112.58 259.57 120.03 260.09 124.6 259.88C129.16 259.66 136.53 258.4 136.53 258.4C136.71 255.82 137.32 246.81 137.41 245.52C128.21 244.3 115.77 247.27 110.69 248.92Z" id="a1ba8R6rVD"></path><path d="M110.69 248.92C110.88 249.99 112.4 258.5 112.58 259.57C112.58 259.57 120.03 260.09 124.6 259.88C129.16 259.66 136.53 258.4 136.53 258.4C136.71 255.82 137.32 246.81 137.41 245.52C128.21 244.3 115.77 247.27 110.69 248.92Z" id="a3yfv1Qgf"></path><path d="M74.48 150.15C73.74 151.97 67.7 166.58 66.95 168.4C66.95 168.4 74.42 202.65 75.15 219.62C75.76 233.9 80.07 268.28 81.42 278.83C81.64 280.53 83.19 281.67 84.8 281.34C87.59 280.75 109.95 276.07 112.75 275.48C114.16 275.18 115.15 273.81 115.03 272.3C114.76 268.89 113.4 251.84 110.93 221.15C110.14 215.65 103.76 171.61 102.97 166.1C95.17 152.51 87.46 145.91 79.84 146.29C77.49 146.4 75.42 147.91 74.48 150.15Z" id="a3BXNcPh6r"></path><path d="M74.48 150.15C73.74 151.97 67.7 166.58 66.95 168.4C66.95 168.4 74.42 202.65 75.15 219.62C75.76 233.9 80.07 268.28 81.42 278.83C81.64 280.53 83.19 281.67 84.8 281.34C87.59 280.75 109.95 276.07 112.75 275.48C114.16 275.18 115.15 273.81 115.03 272.3C114.76 268.89 113.4 251.84 110.93 221.15C110.14 215.65 103.76 171.61 102.97 166.1C95.17 152.51 87.46 145.91 79.84 146.29C77.49 146.4 75.42 147.91 74.48 150.15Z" id="b3JyUPJdi"></path><path d="M84.4 278.85C83.74 263.2 77.64 212.9 70.51 168.29C70.26 168.33 69.04 168.55 66.84 168.94C75.64 232.03 80.26 268.73 80.7 279.03C81.07 279.01 84.03 278.87 84.4 278.85Z" id="dzArEgz7Z"></path><path d="M84.4 278.85C83.74 263.2 77.64 212.9 70.51 168.29C70.26 168.33 69.04 168.55 66.84 168.94C75.64 232.03 80.26 268.73 80.7 279.03C81.07 279.01 84.03 278.87 84.4 278.85Z" id="a3oqMxGuM"></path><path d="M80.64 187.62C82.42 194.6 83.28 204.65 83.7 209.67C100.08 216.16 98.47 213.92 103.57 204.51C103.4 202.39 102.95 197.07 102.22 188.56C89.28 188 82.09 187.69 80.64 187.62Z" id="b1EBlVBXU"></path><path d="M80.64 187.62C82.42 194.6 83.28 204.65 83.7 209.67C100.08 216.16 98.47 213.92 103.57 204.51C103.4 202.39 102.95 197.07 102.22 188.56C89.28 188 82.09 187.69 80.64 187.62Z" id="aHK6aJnV"></path><path d="M105 189.88L96.72 197.54L84.37 193.33L81.31 187.63L103.05 183.48L105 189.88Z" id="b5RskQGZXC"></path><path d="M105 189.88L96.72 197.54L84.37 193.33L81.31 187.63L103.05 183.48L105 189.88Z" id="c1uxtMKY60"></path><path d="M115.59 276.29C115.57 275.94 115.5 274.19 115.36 271.07C111.87 271.62 83.95 276.05 80.46 276.6C80.58 279.58 80.65 281.22 80.66 281.55C80.7 282.44 81.47 283.08 82.31 282.95C88.72 281.93 111.17 278.34 114.37 277.82C115.1 277.71 115.62 277.04 115.59 276.29Z" id="asvl4SipR"></path><path d="M115.59 276.29C115.57 275.94 115.5 274.19 115.36 271.07C111.87 271.62 83.95 276.05 80.46 276.6C80.58 279.58 80.65 281.22 80.66 281.55C80.7 282.44 81.47 283.08 82.31 282.95C88.72 281.93 111.17 278.34 114.37 277.82C115.1 277.71 115.62 277.04 115.59 276.29Z" id="a38EZiydhq"></path><path d="M87.64 144.57L88.98 175.68L66.84 168.94L73.52 143.26L87.64 144.57Z" id="azhceWSU"></path><path d="M87.64 144.57L88.98 175.68L66.84 168.94L73.52 143.26L87.64 144.57Z" id="a1yNV5HorT"></path><path d="M16.52 109.5C7.78 109.93 0.39 103.25 0.02 94.6C-0.36 85.93 6.43 78.57 15.17 78.14C23.92 77.71 31.3 84.39 31.67 93.04C32.05 101.71 25.26 109.07 16.52 109.5Z" id="fi5ewS5oS"></path><path d="M16.52 109.5C7.78 109.93 0.39 103.25 0.02 94.6C-0.36 85.93 6.43 78.57 15.17 78.14C23.92 77.71 31.3 84.39 31.67 93.04C32.05 101.71 25.26 109.07 16.52 109.5Z" id="c2dAjSo3XI"></path><path d="M105.74 106.36C96.99 106.79 89.61 100.11 89.23 91.46C88.86 82.79 95.65 75.43 104.39 75C113.14 74.57 120.52 81.25 120.89 89.9C121.26 98.56 114.48 105.93 105.74 106.36Z" id="a26RySug1N"></path><path d="M105.74 106.36C96.99 106.79 89.61 100.11 89.23 91.46C88.86 82.79 95.65 75.43 104.39 75C113.14 74.57 120.52 81.25 120.89 89.9C121.26 98.56 114.48 105.93 105.74 106.36Z" id="c1sr25Y9tJ"></path><path d="M105.38 63.29C105.39 67.01 105.44 96.78 105.45 100.51C105.5 125.61 86.6 146.33 62.58 147.51C38.5 148.68 17.88 129.8 15.85 104.73C15.64 102.25 14.65 89.89 12.85 67.65C24.72 33.48 39.43 15.98 56.96 15.12C83.31 13.83 105.33 35.75 105.38 63.29Z" id="bvaXYaG1j"></path><path d="M105.38 63.29C105.39 67.01 105.44 96.78 105.45 100.51C105.5 125.61 86.6 146.33 62.58 147.51C38.5 148.68 17.88 129.8 15.85 104.73C15.64 102.25 14.65 89.89 12.85 67.65C24.72 33.48 39.43 15.98 56.96 15.12C83.31 13.83 105.33 35.75 105.38 63.29Z" id="bstjkXtKa"></path><path d="M76.95 119.66C77.7 118.71 77.57 117.3 76.67 116.51C76.03 115.96 75.51 114.85 75.39 114.08C75.19 112.86 74.08 112.04 72.92 112.25C71.75 112.46 70.96 113.62 71.16 114.84C71.45 116.57 72.41 118.64 73.93 119.96C74.84 120.75 76.19 120.62 76.95 119.66Z" id="bPKV1UCAh"></path><path d="M76.95 119.66C77.7 118.71 77.57 117.3 76.67 116.51C76.03 115.96 75.51 114.85 75.39 114.08C75.19 112.86 74.08 112.04 72.92 112.25C71.75 112.46 70.96 113.62 71.16 114.84C71.45 116.57 72.41 118.64 73.93 119.96C74.84 120.75 76.19 120.62 76.95 119.66Z" id="a8URqxNzT"></path><path d="M61.49 122.79C64.95 122.62 68.01 121.89 70.67 120.74C72.61 119.89 74.17 118.89 75.28 117.94C76.2 117.15 76.33 115.74 75.58 114.8C74.82 113.84 73.48 113.71 72.57 114.49C71.77 115.17 70.58 115.94 69.03 116.61C66.83 117.57 64.25 118.18 61.3 118.32C58.36 118.46 55.87 118.17 53.7 117.5C52.12 117.01 50.91 116.42 49.45 115.53C48.42 114.92 47.12 115.27 46.52 116.34C45.92 117.41 46.27 118.78 47.29 119.4C49.03 120.46 50.53 121.19 52.48 121.78C55.11 122.59 58.07 122.96 61.49 122.79Z" id="a1SL7Qa3N4"></path><path d="M61.49 122.79C64.95 122.62 68.01 121.89 70.67 120.74C72.61 119.89 74.17 118.89 75.28 117.94C76.2 117.15 76.33 115.74 75.58 114.8C74.82 113.84 73.48 113.71 72.57 114.49C71.77 115.17 70.58 115.94 69.03 116.61C66.83 117.57 64.25 118.18 61.3 118.32C58.36 118.46 55.87 118.17 53.7 117.5C52.12 117.01 50.91 116.42 49.45 115.53C48.42 114.92 47.12 115.27 46.52 116.34C45.92 117.41 46.27 118.78 47.29 119.4C49.03 120.46 50.53 121.19 52.48 121.78C55.11 122.59 58.07 122.96 61.49 122.79Z" id="a52pyXK7OG"></path><path d="M30.73 67.17C30.41 67.67 27.89 71.7 27.58 72.2C27.34 72.57 27.61 73.08 28.04 73.07C30.08 73.05 46.39 72.86 48.43 72.83C49.09 72.83 49.6 72.21 49.5 71.53C49.46 71.25 49.14 69.03 49.1 68.76C49.02 68.22 48.59 67.82 48.07 67.79C44.7 67.61 32.89 67 31.2 66.91C31.02 66.9 30.83 67 30.73 67.17Z" id="b6HvXbiZb0"></path><path d="M30.73 67.17C30.41 67.67 27.89 71.7 27.58 72.2C27.34 72.57 27.61 73.08 28.04 73.07C30.08 73.05 46.39 72.86 48.43 72.83C49.09 72.83 49.6 72.21 49.5 71.53C49.46 71.25 49.14 69.03 49.1 68.76C49.02 68.22 48.59 67.82 48.07 67.79C44.7 67.61 32.89 67 31.2 66.91C31.02 66.9 30.83 67 30.73 67.17Z" id="a3I4VbjWPT"></path><path d="M85.53 64.49C85.89 64.96 88.73 68.72 89.09 69.19C89.36 69.54 89.14 70.07 88.71 70.11C86.68 70.29 70.42 71.69 68.38 71.86C67.72 71.92 67.17 71.35 67.21 70.66C67.22 70.38 67.35 68.15 67.36 67.87C67.39 67.32 67.78 66.88 68.3 66.8C71.64 66.29 83.35 64.53 85.02 64.28C85.21 64.25 85.41 64.33 85.53 64.49Z" id="e5K2M4OXC"></path><path d="M85.53 64.49C85.89 64.96 88.73 68.72 89.09 69.19C89.36 69.54 89.14 70.07 88.71 70.11C86.68 70.29 70.42 71.69 68.38 71.86C67.72 71.92 67.17 71.35 67.21 70.66C67.22 70.38 67.35 68.15 67.36 67.87C67.39 67.32 67.78 66.88 68.3 66.8C71.64 66.29 83.35 64.53 85.02 64.28C85.21 64.25 85.41 64.33 85.53 64.49Z" id="d1414L3aWM"></path><path d="M42.55 92.03C44.35 91.89 45.7 90.24 45.56 88.36C45.53 87.98 45.31 84.93 45.28 84.54C45.14 82.66 43.58 81.25 41.77 81.4C39.97 81.55 38.61 83.19 38.75 85.08C38.81 85.84 39 88.52 39.03 88.89C39.17 90.78 40.75 92.18 42.55 92.03Z" id="hbsq53B8s"></path><path d="M42.55 92.03C44.35 91.89 45.7 90.24 45.56 88.36C45.53 87.98 45.31 84.93 45.28 84.54C45.14 82.66 43.58 81.25 41.77 81.4C39.97 81.55 38.61 83.19 38.75 85.08C38.81 85.84 39 88.52 39.03 88.89C39.17 90.78 40.75 92.18 42.55 92.03Z" id="f5pTGVJReA"></path><path d="M78.23 90.29C80.04 90.25 81.47 88.67 81.43 86.79C81.42 86.41 81.35 83.34 81.35 82.96C81.31 81.07 79.81 79.58 78 79.62C76.2 79.67 74.76 81.24 74.8 83.12C74.81 83.89 74.87 86.57 74.88 86.96C74.92 88.84 76.42 90.34 78.23 90.29Z" id="d1l1IqSUz"></path><path d="M78.23 90.29C80.04 90.25 81.47 88.67 81.43 86.79C81.42 86.41 81.35 83.34 81.35 82.96C81.31 81.07 79.81 79.58 78 79.62C76.2 79.67 74.76 81.24 74.8 83.12C74.81 83.89 74.87 86.57 74.88 86.96C74.92 88.84 76.42 90.34 78.23 90.29Z" id="eyPIrggyM"></path><path d="M15.98 57.78C16.83 77.42 17.3 88.34 17.39 90.52C17.48 92.7 16.48 93.84 14.4 93.95C14.4 93.95 14.4 93.95 14.4 93.95C12.3 94.05 11.22 93.01 11.12 90.83C10.27 71.18 9.8 60.27 9.71 58.09C9.62 55.9 10.62 54.76 12.7 54.66C12.7 54.66 12.7 54.66 12.7 54.66C14.79 54.56 15.89 55.6 15.98 57.78Z" id="f3mUmI8HI6"></path><path d="M15.98 57.78C16.83 77.42 17.3 88.34 17.39 90.52C17.48 92.7 16.48 93.84 14.4 93.95C14.4 93.95 14.4 93.95 14.4 93.95C12.3 94.05 11.22 93.01 11.12 90.83C10.27 71.18 9.8 60.27 9.71 58.09C9.62 55.9 10.62 54.76 12.7 54.66C12.7 54.66 12.7 54.66 12.7 54.66C14.79 54.56 15.89 55.6 15.98 57.78Z" id="c1bzgjjWXl"></path><path d="M107.26 58.74C107.99 75.64 108.4 85.05 108.48 86.92C108.57 89.1 107.57 90.25 105.49 90.35C105.49 90.35 105.49 90.35 105.49 90.35C103.4 90.45 102.3 89.41 102.21 87.23C101.48 70.32 101.08 60.92 100.99 59.04C100.9 56.86 101.9 55.72 103.99 55.62C103.99 55.62 103.99 55.62 103.99 55.62C106.08 55.52 107.17 56.55 107.26 58.74Z" id="ajWuPL07N"></path><path d="M107.26 58.74C107.99 75.64 108.4 85.05 108.48 86.92C108.57 89.1 107.57 90.25 105.49 90.35C105.49 90.35 105.49 90.35 105.49 90.35C103.4 90.45 102.3 89.41 102.21 87.23C101.48 70.32 101.08 60.92 100.99 59.04C100.9 56.86 101.9 55.72 103.99 55.62C103.99 55.62 103.99 55.62 103.99 55.62C106.08 55.52 107.17 56.55 107.26 58.74Z" id="a3KoTPo9Up"></path><path d="M53.63 97.46C52.96 98.77 52.51 99.87 52.24 100.95C51.87 102.47 51.91 103.88 52.52 105.15C53.83 107.86 57.03 108.83 62.28 108.58C62.26 108.1 62.1 104.23 62.07 103.74C60.02 103.84 58.5 103.72 57.52 103.42C57.17 103.31 56.93 103.19 56.77 103.07C56.7 103.02 56.68 102.99 56.67 102.97C56.52 102.66 56.79 101.56 57.72 99.72C57.92 99.32 58.14 98.91 58.45 98.36C58.5 98.26 58.56 98.16 58.64 98.02C58.66 97.99 58.81 97.71 58.83 97.68C58.98 97.4 59.09 97.19 59.2 96.99C59.49 96.46 59.72 96.02 59.92 95.6C60.48 94.45 60.79 93.51 60.88 92.57C60.58 92.54 59.03 92.4 56.26 92.14C56 92.92 55.39 94.2 54.42 95.95C54.11 96.55 53.86 97 53.63 97.46Z" id="a1jKLeaLFI"></path><path d="M53.63 97.46C52.96 98.77 52.51 99.87 52.24 100.95C51.87 102.47 51.91 103.88 52.52 105.15C53.83 107.86 57.03 108.83 62.28 108.58C62.26 108.1 62.1 104.23 62.07 103.74C60.02 103.84 58.5 103.72 57.52 103.42C57.17 103.31 56.93 103.19 56.77 103.07C56.7 103.02 56.68 102.99 56.67 102.97C56.52 102.66 56.79 101.56 57.72 99.72C57.92 99.32 58.14 98.91 58.45 98.36C58.5 98.26 58.56 98.16 58.64 98.02C58.66 97.99 58.81 97.71 58.83 97.68C58.98 97.4 59.09 97.19 59.2 96.99C59.49 96.46 59.72 96.02 59.92 95.6C60.48 94.45 60.79 93.51 60.88 92.57C60.58 92.54 59.03 92.4 56.26 92.14C56 92.92 55.39 94.2 54.42 95.95C54.11 96.55 53.86 97 53.63 97.46Z" id="b1MQk7YIIm"></path><path d="M55.49 87.88C55.5 87.87 55.52 87.85 55.54 87.83C55.65 87.74 55.8 87.65 56 87.55C56.66 87.22 57.6 86.98 58.89 86.92C60.2 86.86 61.22 87 62 87.27C62.26 87.35 62.46 87.44 62.61 87.53C62.66 87.56 62.69 87.58 62.72 87.6C62.72 87.6 62.72 87.6 62.71 87.59C63.18 87.99 63.86 87.91 64.24 87.42C64.62 86.93 64.55 86.21 64.08 85.81C64 85.74 63.86 85.64 63.68 85.53C63.4 85.38 63.07 85.23 62.69 85.1C61.65 84.75 60.36 84.57 58.8 84.65C57.23 84.72 55.99 85.03 55.06 85.48C54.43 85.79 54.04 86.13 53.82 86.42C53.44 86.91 53.52 87.63 53.99 88.02C54.45 88.41 55.12 88.34 55.5 87.86C55.5 87.86 55.5 87.86 55.5 87.86C55.5 87.87 55.49 87.88 55.49 87.88C55.49 87.88 55.49 87.88 55.49 87.88Z" id="e32cbORQDQ"></path><path d="M55.49 87.88C55.5 87.87 55.52 87.85 55.54 87.83C55.65 87.74 55.8 87.65 56 87.55C56.66 87.22 57.6 86.98 58.89 86.92C60.2 86.86 61.22 87 62 87.27C62.26 87.35 62.46 87.44 62.61 87.53C62.66 87.56 62.69 87.58 62.72 87.6C62.72 87.6 62.72 87.6 62.71 87.59C63.18 87.99 63.86 87.91 64.24 87.42C64.62 86.93 64.55 86.21 64.08 85.81C64 85.74 63.86 85.64 63.68 85.53C63.4 85.38 63.07 85.23 62.69 85.1C61.65 84.75 60.36 84.57 58.8 84.65C57.23 84.72 55.99 85.03 55.06 85.48C54.43 85.79 54.04 86.13 53.82 86.42C53.44 86.91 53.52 87.63 53.99 88.02C54.45 88.41 55.12 88.34 55.5 87.86C55.5 87.86 55.5 87.86 55.5 87.86C55.5 87.87 55.49 87.88 55.49 87.88C55.49 87.88 55.49 87.88 55.49 87.88Z" id="f2aqVNmv8z"></path><path d="M62.89 89.23C62.89 89.67 62.89 89.87 62.89 90.1C62.89 91.19 62.96 91.97 63.14 92.76C63.59 94.75 64.78 96.62 67.2 98.92C69.84 101.44 71.41 102.53 73.05 102.97C73.82 103.17 74.6 103.24 75.69 103.22C76.21 103.21 76.64 103.19 77.69 103.13C77.7 103.13 77.81 103.12 77.82 103.12C78.43 103.08 78.8 103.06 79.23 103.04C79.43 103.03 79.6 103.03 79.93 103.01C83.54 102.84 84.67 102.72 86.11 102.29C87.98 101.72 89.54 100.63 91.35 98.55C93.79 95.75 94.91 93.71 95.23 91.67C95.36 90.83 95.37 90 95.28 88.85C95.26 88.6 95.24 88.36 95.2 87.88C95.1 86.82 95.06 86.29 95.04 85.63C94.84 81.03 93.88 78.43 91.56 76.82C89.1 75.11 84.96 74.52 78.02 74.86C71.71 75.17 67.61 76.61 65.3 79.07C63.4 81.1 62.72 83.71 62.87 87.21C62.89 87.75 62.9 88.24 62.89 89.05C62.89 89.14 62.89 89.14 62.89 89.23ZM78.11 77.14C84.63 76.82 88.38 77.36 90.36 78.72C91.97 79.84 92.69 81.79 92.86 85.74C92.89 86.45 92.93 87 93.03 88.09C93.07 88.57 93.09 88.78 93.11 89.03C93.18 90.01 93.18 90.67 93.08 91.3C92.83 92.84 91.92 94.52 89.75 97.01C88.18 98.79 86.97 99.65 85.5 100.1C84.3 100.47 83.25 100.57 79.83 100.73C79.5 100.75 79.33 100.76 79.13 100.77C78.69 100.79 78.31 100.81 77.7 100.85C77.69 100.85 77.58 100.85 77.57 100.86C76.55 100.92 76.13 100.94 75.65 100.95C74.75 100.96 74.14 100.91 73.6 100.76C72.39 100.44 71.06 99.52 68.67 97.24C66.56 95.23 65.6 93.72 65.26 92.23C65.13 91.64 65.07 91.01 65.07 90.08C65.06 89.86 65.07 89.67 65.07 89.24C65.07 89.15 65.07 89.15 65.07 89.06C65.08 88.22 65.07 87.69 65.05 87.11C64.92 84.18 65.44 82.16 66.86 80.67C68.72 78.69 72.31 77.42 78.11 77.14Z" id="a3y14Y5Q8"></path><path d="M62.89 89.23C62.89 89.67 62.89 89.87 62.89 90.1C62.89 91.19 62.96 91.97 63.14 92.76C63.59 94.75 64.78 96.62 67.2 98.92C69.84 101.44 71.41 102.53 73.05 102.97C73.82 103.17 74.6 103.24 75.69 103.22C76.21 103.21 76.64 103.19 77.69 103.13C77.7 103.13 77.81 103.12 77.82 103.12C78.43 103.08 78.8 103.06 79.23 103.04C79.43 103.03 79.6 103.03 79.93 103.01C83.54 102.84 84.67 102.72 86.11 102.29C87.98 101.72 89.54 100.63 91.35 98.55C93.79 95.75 94.91 93.71 95.23 91.67C95.36 90.83 95.37 90 95.28 88.85C95.26 88.6 95.24 88.36 95.2 87.88C95.1 86.82 95.06 86.29 95.04 85.63C94.84 81.03 93.88 78.43 91.56 76.82C89.1 75.11 84.96 74.52 78.02 74.86C71.71 75.17 67.61 76.61 65.3 79.07C63.4 81.1 62.72 83.71 62.87 87.21C62.89 87.75 62.9 88.24 62.89 89.05C62.89 89.14 62.89 89.14 62.89 89.23ZM78.11 77.14C84.63 76.82 88.38 77.36 90.36 78.72C91.97 79.84 92.69 81.79 92.86 85.74C92.89 86.45 92.93 87 93.03 88.09C93.07 88.57 93.09 88.78 93.11 89.03C93.18 90.01 93.18 90.67 93.08 91.3C92.83 92.84 91.92 94.52 89.75 97.01C88.18 98.79 86.97 99.65 85.5 100.1C84.3 100.47 83.25 100.57 79.83 100.73C79.5 100.75 79.33 100.76 79.13 100.77C78.69 100.79 78.31 100.81 77.7 100.85C77.69 100.85 77.58 100.85 77.57 100.86C76.55 100.92 76.13 100.94 75.65 100.95C74.75 100.96 74.14 100.91 73.6 100.76C72.39 100.44 71.06 99.52 68.67 97.24C66.56 95.23 65.6 93.72 65.26 92.23C65.13 91.64 65.07 91.01 65.07 90.08C65.06 89.86 65.07 89.67 65.07 89.24C65.07 89.15 65.07 89.15 65.07 89.06C65.08 88.22 65.07 87.69 65.05 87.11C64.92 84.18 65.44 82.16 66.86 80.67C68.72 78.69 72.31 77.42 78.11 77.14Z" id="aE437P2wf"></path><path d="M54.69 89.63C54.73 90.07 54.74 90.27 54.76 90.5C54.85 91.58 54.85 92.36 54.74 93.17C54.46 95.19 53.44 97.18 51.23 99.7C48.81 102.47 47.34 103.71 45.75 104.31C45 104.59 44.23 104.73 43.15 104.82C42.63 104.86 42.19 104.88 41.14 104.92C41.12 104.92 41.01 104.93 41 104.93C40.41 104.95 40.03 104.96 39.6 104.99C39.4 105 39.23 105 38.9 105.02C35.29 105.19 34.16 105.19 32.69 104.91C30.77 104.52 29.13 103.58 27.14 101.69C24.48 99.14 23.19 97.21 22.69 95.21C22.49 94.39 22.41 93.57 22.4 92.41C22.39 92.15 22.39 91.92 22.39 91.44C22.39 91.33 22.39 91.33 22.4 91.22C22.4 90.34 22.39 89.79 22.36 89.19C22.17 84.58 22.89 81.9 25.06 80.07C27.38 78.13 31.44 77.14 38.39 76.8C44.69 76.49 48.9 77.53 51.41 79.75C53.49 81.58 54.38 84.12 54.53 87.62C54.55 88.16 54.59 88.65 54.67 89.45C54.68 89.54 54.68 89.54 54.69 89.63ZM38.48 79.07C31.97 79.39 28.28 80.29 26.44 81.85C24.92 83.11 24.38 85.13 24.54 89.08C24.57 89.73 24.58 90.31 24.57 91.22C24.57 91.33 24.57 91.33 24.57 91.44C24.57 91.92 24.57 92.13 24.58 92.38C24.59 93.37 24.65 94.02 24.8 94.64C25.18 96.15 26.23 97.73 28.61 99.99C30.32 101.63 31.6 102.36 33.11 102.66C34.34 102.91 35.39 102.91 38.8 102.74C39.13 102.72 39.3 102.71 39.5 102.7C39.95 102.68 40.32 102.66 40.93 102.64C40.95 102.64 41.05 102.64 41.06 102.64C42.09 102.6 42.5 102.58 42.99 102.54C43.89 102.47 44.48 102.35 45.01 102.16C46.19 101.73 47.43 100.68 49.62 98.17C51.55 95.95 52.37 94.37 52.58 92.85C52.66 92.24 52.66 91.62 52.59 90.69C52.57 90.48 52.56 90.28 52.52 89.86C52.51 89.77 52.51 89.77 52.5 89.68C52.42 88.83 52.38 88.31 52.35 87.73C52.23 84.8 51.54 82.85 50.01 81.5C47.97 79.7 44.3 78.8 38.48 79.07Z" id="o1aAi4UV45"></path><path d="M54.69 89.63C54.73 90.07 54.74 90.27 54.76 90.5C54.85 91.58 54.85 92.36 54.74 93.17C54.46 95.19 53.44 97.18 51.23 99.7C48.81 102.47 47.34 103.71 45.75 104.31C45 104.59 44.23 104.73 43.15 104.82C42.63 104.86 42.19 104.88 41.14 104.92C41.12 104.92 41.01 104.93 41 104.93C40.41 104.95 40.03 104.96 39.6 104.99C39.4 105 39.23 105 38.9 105.02C35.29 105.19 34.16 105.19 32.69 104.91C30.77 104.52 29.13 103.58 27.14 101.69C24.48 99.14 23.19 97.21 22.69 95.21C22.49 94.39 22.41 93.57 22.4 92.41C22.39 92.15 22.39 91.92 22.39 91.44C22.39 91.33 22.39 91.33 22.4 91.22C22.4 90.34 22.39 89.79 22.36 89.19C22.17 84.58 22.89 81.9 25.06 80.07C27.38 78.13 31.44 77.14 38.39 76.8C44.69 76.49 48.9 77.53 51.41 79.75C53.49 81.58 54.38 84.12 54.53 87.62C54.55 88.16 54.59 88.65 54.67 89.45C54.68 89.54 54.68 89.54 54.69 89.63ZM38.48 79.07C31.97 79.39 28.28 80.29 26.44 81.85C24.92 83.11 24.38 85.13 24.54 89.08C24.57 89.73 24.58 90.31 24.57 91.22C24.57 91.33 24.57 91.33 24.57 91.44C24.57 91.92 24.57 92.13 24.58 92.38C24.59 93.37 24.65 94.02 24.8 94.64C25.18 96.15 26.23 97.73 28.61 99.99C30.32 101.63 31.6 102.36 33.11 102.66C34.34 102.91 35.39 102.91 38.8 102.74C39.13 102.72 39.3 102.71 39.5 102.7C39.95 102.68 40.32 102.66 40.93 102.64C40.95 102.64 41.05 102.64 41.06 102.64C42.09 102.6 42.5 102.58 42.99 102.54C43.89 102.47 44.48 102.35 45.01 102.16C46.19 101.73 47.43 100.68 49.62 98.17C51.55 95.95 52.37 94.37 52.58 92.85C52.66 92.24 52.66 91.62 52.59 90.69C52.57 90.48 52.56 90.28 52.52 89.86C52.51 89.77 52.51 89.77 52.5 89.68C52.42 88.83 52.38 88.31 52.35 87.73C52.23 84.8 51.54 82.85 50.01 81.5C47.97 79.7 44.3 78.8 38.48 79.07Z" id="evgx7thT"></path><path d="M10.21 82.45C7.15 82.91 3.26 73.19 2.86 63.98C1.57 34.09 16.91 14.8 41.99 13.57C50.22 13.16 80.05 3.72 81.12 28.78C69.16 36.49 32.28 30.21 23.04 37.61C15.11 43.95 17.87 52.98 15.84 60.78C16.24 70.17 13.64 81.94 10.21 82.45Z" id="bxRmvR4n"></path><path d="M10.21 82.45C7.15 82.91 3.26 73.19 2.86 63.98C1.57 34.09 16.91 14.8 41.99 13.57C50.22 13.16 80.05 3.72 81.12 28.78C69.16 36.49 32.28 30.21 23.04 37.61C15.11 43.95 17.87 52.98 15.84 60.78C16.24 70.17 13.64 81.94 10.21 82.45Z" id="aj6gBH1mn"></path><path d="M109.91 75.58C115.9 75.29 113.64 47.13 112.83 41.92C107.15 5.43 67.18 -0.85 43.89 7.77C29.63 13.05 19.94 34.91 43.09 33.77C66.23 32.65 89.38 37.36 94.25 42.82C97.15 54.97 96.55 76.23 109.91 75.58Z" id="b5HHluVPV4"></path><path d="M109.91 75.58C115.9 75.29 113.64 47.13 112.83 41.92C107.15 5.43 67.18 -0.85 43.89 7.77C29.63 13.05 19.94 34.91 43.09 33.77C66.23 32.65 89.38 37.36 94.25 42.82C97.15 54.97 96.55 76.23 109.91 75.58Z" id="b219FG0XVi"></path><path d="M62.27 3.88C63.25 3.84 64.02 2.99 63.99 1.96C63.96 0.94 63.14 0.14 62.15 0.17C53.54 0.49 46.68 2.46 41.62 5.67C37.59 8.24 34.89 11.53 34.03 14.48C33.75 15.46 34.27 16.49 35.2 16.79C36.14 17.09 37.14 16.53 37.43 15.56C38.01 13.54 40.13 10.95 43.47 8.84C47.97 5.97 54.23 4.17 62.27 3.88Z" id="cAiKKsfgN"></path><path d="M62.27 3.88C63.25 3.84 64.02 2.99 63.99 1.96C63.96 0.94 63.14 0.14 62.15 0.17C53.54 0.49 46.68 2.46 41.62 5.67C37.59 8.24 34.89 11.53 34.03 14.48C33.75 15.46 34.27 16.49 35.2 16.79C36.14 17.09 37.14 16.53 37.43 15.56C38.01 13.54 40.13 10.95 43.47 8.84C47.97 5.97 54.23 4.17 62.27 3.88Z" id="b65YwjlVg"></path><path d="M36.47 16.1C37.16 14.87 36.76 13.29 35.59 12.59C30.29 9.36 23.08 10.36 15.04 14.53C13.83 15.17 13.33 16.7 13.94 17.97C14.54 19.25 16.01 19.76 17.23 19.13C23.93 15.65 29.57 14.86 33.11 17.01C34.29 17.73 35.78 17.31 36.47 16.1Z" id="araXzxtcO"></path><path d="M36.47 16.1C37.16 14.87 36.76 13.29 35.59 12.59C30.29 9.36 23.08 10.36 15.04 14.53C13.83 15.17 13.33 16.7 13.94 17.97C14.54 19.25 16.01 19.76 17.23 19.13C23.93 15.65 29.57 14.86 33.11 17.01C34.29 17.73 35.78 17.31 36.47 16.1Z" id="bkTxAbrj"></path><path d="M77.48 27.8C66.49 39.85 65.04 50.01 58.46 55.73C65.22 59.63 72.31 59.06 76.1 58.14C89.66 54.83 96.76 46.42 103 37.95C108.42 30.59 100.14 21.59 106.19 22.35C87.3 19.36 91.23 12.74 77.48 27.8Z" id="aj97LIkup"></path><path d="M77.48 27.8C66.49 39.85 65.04 50.01 58.46 55.73C65.22 59.63 72.31 59.06 76.1 58.14C89.66 54.83 96.76 46.42 103 37.95C108.42 30.59 100.14 21.59 106.19 22.35C87.3 19.36 91.23 12.74 77.48 27.8Z" id="c5svSLuMGO"></path><path d="M59.88 35.52C47.87 43.13 41.87 50.12 39.4 57.21C32.72 54.4 30.12 49.31 29.31 46.31C26.45 35.57 31.24 26.89 36.49 18.78C41.03 11.73 45.83 13.95 55.01 17.87C70.05 24.28 64.02 32.88 59.88 35.52Z" id="ca4YHZLyD"></path><path d="M59.88 35.52C47.87 43.13 41.87 50.12 39.4 57.21C32.72 54.4 30.12 49.31 29.31 46.31C26.45 35.57 31.24 26.89 36.49 18.78C41.03 11.73 45.83 13.95 55.01 17.87C70.05 24.28 64.02 32.88 59.88 35.52Z" id="f95uD4cKPc"></path><path d="M78.21 30.01C90.12 37.75 98.34 36.61 103.43 38.24C108.51 39.86 111.19 23.93 92.97 11.07C81.75 -1.83 65.36 10.35 58.08 25.58C51.76 38.79 37.37 51.97 31.42 47.46C49.88 62.82 62.63 55.8 78.21 30.01Z" id="ae8K3PSO6"></path><path d="M78.21 30.01C90.12 37.75 98.34 36.61 103.43 38.24C108.51 39.86 111.19 23.93 92.97 11.07C81.75 -1.83 65.36 10.35 58.08 25.58C51.76 38.79 37.37 51.97 31.42 47.46C49.88 62.82 62.63 55.8 78.21 30.01Z" id="eBgUFjbh"></path><path d="M40.19 27.74C48.54 31.33 46.56 42.55 35.83 47.07C30.46 49.32 26.74 51.79 30.04 58.48C19.96 58.06 12.56 53.05 14.11 43.85C16.72 28.32 31.83 24.15 40.19 27.74Z" id="a86WuuoC"></path><path d="M40.19 27.74C48.54 31.33 46.56 42.55 35.83 47.07C30.46 49.32 26.74 51.79 30.04 58.48C19.96 58.06 12.56 53.05 14.11 43.85C16.72 28.32 31.83 24.15 40.19 27.74Z" id="hSGWCV7R1"></path><path d="M74.8 28.78C66.8 33.16 72.43 43.44 83.51 46.89C89.04 48.63 90.26 51.42 87.55 58.4C97.54 56.99 103.94 47.8 104.1 43.03C100.17 27.82 82.81 24.39 74.8 28.78Z" id="crkL7bRDC"></path><path d="M74.8 28.78C66.8 33.16 72.43 43.44 83.51 46.89C89.04 48.63 90.26 51.42 87.55 58.4C97.54 56.99 103.94 47.8 104.1 43.03C100.17 27.82 82.81 24.39 74.8 28.78Z" id="a3CKovJPY1"></path><path d="M109.21 173.21L94.09 181.24L94.09 181.24L109.21 173.21Z" id="a1rLBiLGCE"></path><path d="M63.58 299.09C71.63 313.03 206.76 307.43 216.87 296.08C226.98 284.73 190.96 172.88 148.74 163.83C106.53 154.8 46.7 269.84 63.58 299.09Z" id="aXfWW0uvT"></path><path d="M152.39 150.32C162.19 144.73 177.56 137.32 185.36 142.54C193.28 147.85 180.3 155.34 183.92 164.66C184.72 173.67 180.39 180.94 176.48 177.59C176.48 177.59 165.6 164.32 157.88 161.65C153.97 160.3 147.2 166.43 145.49 162.18C143.33 156.83 147.05 153.32 152.39 150.32Z" id="jIj2FT2KM"></path><path d="M126.95 172.85C129.2 176.75 107.06 193.66 99.53 206.79C95.91 213.09 88.2 227.49 90.39 228.08C93.12 228.81 109.93 196.78 108.43 200.28C108.43 200.28 94.36 225.7 97.15 226.45C100.54 227.36 133.49 168.3 137.97 165.71C141.12 163.89 130.48 166.28 127.33 168.09C111.67 177.05 89.94 207.66 89.94 207.66C89.94 207.66 125.84 170.92 126.95 172.85Z" id="l1BP7U6j2p"></path><path d="M111.8 229.46C111.77 229.69 111.93 229.75 111.93 229.75C113.18 229.45 122.07 215.11 123.07 217.81C123.88 220.03 121.45 227.62 124.95 229.33C126.36 230.02 128.87 225.52 129.08 227.08C130.47 237.33 126.27 250.19 129.33 249.37C134.36 248.02 142.34 207.6 143.61 191.01C143.81 188.28 137.76 198.68 137.09 196.02C135.68 190.43 148.52 170.62 146.71 169.61C144.9 168.6 138.78 183.8 136.97 182C135.72 180.74 144.56 161.25 141.98 164.71C130.23 180.46 115.4 197.58 111.8 229.46Z" id="b16jP5EsAg"></path><path d="M158.51 243.73C158.33 255.58 157.62 194.83 162.4 208.42C164.75 215.11 164.29 247.2 167.93 251.26C170.55 254.18 169.29 216.06 166.03 198.9C164.11 188.81 159.94 175.53 155.76 169.85C154.12 167.63 159.63 178.57 156.96 179.26C153.32 180.21 152.02 165.8 151.33 169.5C150.21 175.49 158.61 237.24 158.51 243.73Z" id="fihIdmcnm"></path><path d="M182.42 219.44C190.11 226.11 179.43 197.69 175.29 189.76C171.14 181.83 156.4 165.59 159.88 172.48C161.43 175.53 179.91 217.26 182.42 219.44Z" id="b2EcZgNE68"></path><path d="M182.06 148.31C183.47 148.52 182.19 153.11 180.93 152.44C175.92 149.77 168.7 151.53 169.66 147.56C170.62 143.53 179.74 147.96 182.06 148.31Z" id="bbncqKisf"></path><path d="M179.8 161.58C173.99 161.92 148.72 149.59 157.38 150.94C170.15 152.93 179.69 147.7 179.8 161.58Z" id="apEqnH1iD"></path><path d="M182.18 167.97C184 169.92 176.65 173.38 174.91 171.35C173.79 170.03 163.39 162.11 160.89 158.58C158.23 154.82 179.28 164.87 182.18 167.97Z" id="h1luwssFl"></path><path d="M146.99 157.57C146.83 158.49 147.42 159.64 148.24 160.08C149.79 160.92 153.15 161.18 153.5 159.45C153.8 157.95 149.53 158.73 149.49 157.2C149.46 156.11 151.86 156.46 152.25 155.45C152.53 154.72 152.37 153.4 151.62 153.19C149.57 152.62 147.36 155.48 146.99 157.57Z" id="btD4ZpJ9t"></path><path d="M109.21 173.21L94.09 181.24L94.09 181.24L109.21 173.21Z" id="a7Hv8gEVr"></path><path d="M44.49 202.02C45.62 199.03 46.28 197.07 46.86 194.66C47.66 191.37 48.05 188.06 47.98 184.53C47.84 177.75 42.36 172.17 35.74 172.06C29.11 171.95 23.86 177.36 23.99 184.14C24.04 186.57 23.6 188.4 22.07 192.44C22.02 192.55 21.98 192.67 21.92 192.82C21.89 192.91 21.85 193.01 21.77 193.21C20.4 196.85 19.74 198.78 19.13 201.47C18.26 205.27 17.95 209.1 18.31 213.22C18.42 213.64 19.29 216.97 19.4 217.37C31.22 243.68 44.84 267.73 59.06 285.06C63.4 290.35 70.97 291.19 75.98 286.95C80.99 282.71 81.53 274.98 77.2 269.7C65.09 254.94 52.9 233.59 42.17 210.11C42.27 208.26 42.83 206.41 44.19 202.82C44.27 202.63 44.3 202.51 44.33 202.43C44.39 202.27 44.44 202.14 44.49 202.02Z" id="e1w1QHn7IU"></path><path d="M44.49 202.02C45.62 199.03 46.28 197.07 46.86 194.66C47.66 191.37 48.05 188.06 47.98 184.53C47.84 177.75 42.36 172.17 35.74 172.06C29.11 171.95 23.86 177.36 23.99 184.14C24.04 186.57 23.6 188.4 22.07 192.44C22.02 192.55 21.98 192.67 21.92 192.82C21.89 192.91 21.85 193.01 21.77 193.21C20.4 196.85 19.74 198.78 19.13 201.47C18.26 205.27 17.95 209.1 18.31 213.22C18.42 213.64 19.29 216.97 19.4 217.37C31.22 243.68 44.84 267.73 59.06 285.06C63.4 290.35 70.97 291.19 75.98 286.95C80.99 282.71 81.53 274.98 77.2 269.7C65.09 254.94 52.9 233.59 42.17 210.11C42.27 208.26 42.83 206.41 44.19 202.82C44.27 202.63 44.3 202.51 44.33 202.43C44.39 202.27 44.44 202.14 44.49 202.02Z" id="a7gEMC4fr"></path><path d="M44.57 227.23C48.25 225.86 52.49 227.24 54.85 230.59C54.92 230.68 55.45 231.44 55.52 231.53C55.78 231.9 56.01 232.29 56.21 232.69C57.64 235.51 69.11 258.07 70.55 260.89C71.79 263.33 71.26 266.26 69.28 267.97C68.21 268.89 59.73 276.21 58.67 277.12C56 279.43 51.84 278.66 49.93 275.53C48.58 273.32 41.86 262.31 29.78 242.49C29.22 236.22 30.39 232.54 33.28 231.46C34.42 231.03 43.45 227.66 44.57 227.23Z" id="a5arqsPyiv"></path><path d="M44.57 227.23C48.25 225.86 52.49 227.24 54.85 230.59C54.92 230.68 55.45 231.44 55.52 231.53C55.78 231.9 56.01 232.29 56.21 232.69C57.64 235.51 69.11 258.07 70.55 260.89C71.79 263.33 71.26 266.26 69.28 267.97C68.21 268.89 59.73 276.21 58.67 277.12C56 279.43 51.84 278.66 49.93 275.53C48.58 273.32 41.86 262.31 29.78 242.49C29.22 236.22 30.39 232.54 33.28 231.46C34.42 231.03 43.45 227.66 44.57 227.23Z" id="e2hobFj6p"></path><path d="M29.62 242.54C29.62 242.54 21.69 224.21 15.89 206.56C12.52 196.31 13.62 185.88 15.12 178.92C16.33 173.35 19.59 168.66 23.58 164.76C24.08 164.28 26.58 161.83 31.08 157.45C33.61 160.42 53.87 184.2 56.4 187.18C61.2 220.84 63.89 239.54 64.41 243.28C57.46 243.13 40.51 244.67 29.62 242.54Z" id="f6qKaOJkJ"></path><path d="M29.62 242.54C29.62 242.54 21.69 224.21 15.89 206.56C12.52 196.31 13.62 185.88 15.12 178.92C16.33 173.35 19.59 168.66 23.58 164.76C24.08 164.28 26.58 161.83 31.08 157.45C33.61 160.42 53.87 184.2 56.4 187.18C61.2 220.84 63.89 239.54 64.41 243.28C57.46 243.13 40.51 244.67 29.62 242.54Z" id="d11PBKYKg"></path><path d="M70.14 257.51C70.6 258.49 74.3 266.33 74.76 267.3C74.76 267.3 69.04 272.12 65.21 274.62C61.39 277.12 54.69 280.43 54.69 280.43C53.07 278.44 47.37 271.45 46.55 270.44C53.29 264.04 65.08 259.16 70.14 257.51Z" id="b3hM3muK"></path><path d="M70.14 257.51C70.6 258.49 74.3 266.33 74.76 267.3C74.76 267.3 69.04 272.12 65.21 274.62C61.39 277.12 54.69 280.43 54.69 280.43C53.07 278.44 47.37 271.45 46.55 270.44C53.29 264.04 65.08 259.16 70.14 257.51Z" id="c4bFvanFbm"></path><path d="M39.07 148.36L40.32 177.49L61.79 168.71L50.88 144.06L39.07 148.36Z" id="h1umrWXII"></path><path d="M39.07 148.36L40.32 177.49L61.79 168.71L50.88 144.06L39.07 148.36Z" id="a1nAW8494L"></path></defs><g><g><use xlink:href="#b6Nlo9ETGH" opacity="1" fill="#4a4e52" fill-opacity="1"></use><g><use xlink:href="#b6Nlo9ETGH" opacity="1" fill-opacity="0" stroke="#000000" stroke-width="1" stroke-opacity="0"></use></g></g><g><use xlink:href="#cP0zNy9tm" opacity="1" fill="#000000" fill-opacity="0"></use><g><use xlink:href="#cP0zNy9tm" opacity="1" fill-opacity="0" stroke="#000000" stroke-width="1" stroke-opacity="0"></use></g></g><g><use xlink:href="#czG2LigCX" opacity="1" fill="#4a4e52" fill-opacity="1"></use><g><use xlink:href="#czG2LigCX" opacity="1" fill-opacity="0" stroke="#000000" stroke-width="1" stroke-opacity="0"></use></g></g><g><use xlink:href="#c6LlmoQpgx" opacity="1" fill="#000000" fill-opacity="0"></use><g><use xlink:href="#c6LlmoQpgx" opacity="1" fill-opacity="0" stroke="#000000" stroke-width="1" stroke-opacity="0"></use></g></g><g><use xlink:href="#f1jcIxRu90" opacity="1" fill="#2b353c" fill-opacity="1"></use><g><use xlink:href="#f1jcIxRu90" opacity="1" fill-opacity="0" stroke="#000000" stroke-width="1" stroke-opacity="0"></use></g></g><g><use xlink:href="#c49TWclDyX" opacity="1" fill="#000000" fill-opacity="0"></use><g><use xlink:href="#c49TWclDyX" opacity="1" fill-opacity="0" stroke="#000000" stroke-width="1" stroke-opacity="0"></use></g></g><g><use xlink:href="#a2IhIeXb" opacity="1" fill="#2b353c" fill-opacity="1"></use><g><use xlink:href="#a2IhIeXb" opacity="1" fill-opacity="0" stroke="#000000" stroke-width="1" stroke-opacity="0"></use></g></g><g><use xlink:href="#aVnbiAzEc" opacity="1" fill="#000000" fill-opacity="0"></use><g><use xlink:href="#aVnbiAzEc" opacity="1" fill-opacity="0" stroke="#000000" stroke-width="1" stroke-opacity="0"></use></g></g><g><use xlink:href="#a37Ok8mRyJ" opacity="1" fill="#2b353c" fill-opacity="1"></use><g><use xlink:href="#a37Ok8mRyJ" opacity="1" fill-opacity="0" stroke="#000000" stroke-width="1" stroke-opacity="0"></use></g></g><g><use xlink:href="#a15GgcAUrI" opacity="1" fill="#000000" fill-opacity="0"></use><g><use xlink:href="#a15GgcAUrI" opacity="1" fill-opacity="0" stroke="#000000" stroke-width="1" stroke-opacity="0"></use></g></g><g><use xlink:href="#an7RhGX8c" opacity="1" fill="#5484a0" fill-opacity="1"></use><g><use xlink:href="#an7RhGX8c" opacity="1" fill-opacity="0" stroke="#000000" stroke-width="1" stroke-opacity="0"></use></g></g><g><use xlink:href="#a3Irf2TcRE" opacity="1" fill="#000000" fill-opacity="0"></use><g><use xlink:href="#a3Irf2TcRE" opacity="1" fill-opacity="0" stroke="#000000" stroke-width="1" stroke-opacity="0"></use></g></g><g><use xlink:href="#jVYmhbFCw" opacity="1" fill="#5484a0" fill-opacity="1"></use><g><use xlink:href="#jVYmhbFCw" opacity="1" fill-opacity="0" stroke="#000000" stroke-width="1" stroke-opacity="0"></use></g></g><g><use xlink:href="#aMq2gbJw" opacity="1" fill="#000000" fill-opacity="0"></use><g><use xlink:href="#aMq2gbJw" opacity="1" fill-opacity="0" stroke="#000000" stroke-width="1" stroke-opacity="0"></use></g></g><g><use xlink:href="#b19InE9QmD" opacity="1" fill="#303f4a" fill-opacity="1"></use><g><use xlink:href="#b19InE9QmD" opacity="1" fill-opacity="0" stroke="#000000" stroke-width="1" stroke-opacity="0"></use></g></g><g><use xlink:href="#e1BAZI0gAW" opacity="1" fill="#000000" fill-opacity="0"></use><g><use xlink:href="#e1BAZI0gAW" opacity="1" fill-opacity="0" stroke="#000000" stroke-width="1" stroke-opacity="0"></use></g></g><g><use xlink:href="#b6py7KPTnQ" opacity="1" fill="#303f4a" fill-opacity="1"></use><g><use xlink:href="#b6py7KPTnQ" opacity="1" fill-opacity="0" stroke="#000000" stroke-width="1" stroke-opacity="0"></use></g></g><g><use xlink:href="#dglcTcXq" opacity="1" fill="#000000" fill-opacity="0"></use><g><use xlink:href="#dglcTcXq" opacity="1" fill-opacity="0" stroke="#000000" stroke-width="1" stroke-opacity="0"></use></g></g><g><use xlink:href="#b11PDHcsiW" opacity="1" fill="#29282d" fill-opacity="1"></use><g><use xlink:href="#b11PDHcsiW" opacity="1" fill-opacity="0" stroke="#000000" stroke-width="1" stroke-opacity="0"></use></g></g><g><use xlink:href="#e1Y5xHaAV" opacity="1" fill="#000000" fill-opacity="0"></use><g><use xlink:href="#e1Y5xHaAV" opacity="1" fill-opacity="0" stroke="#000000" stroke-width="1" stroke-opacity="0"></use></g></g><g><use xlink:href="#aKqCGX0YH" opacity="1" fill="#3e3c47" fill-opacity="1"></use><g><use xlink:href="#aKqCGX0YH" opacity="1" fill-opacity="0" stroke="#000000" stroke-width="1" stroke-opacity="0"></use></g></g><g><use xlink:href="#dVnZC8BXq" opacity="1" fill="#000000" fill-opacity="0"></use><g><use xlink:href="#dVnZC8BXq" opacity="1" fill-opacity="0" stroke="#000000" stroke-width="1" stroke-opacity="0"></use></g></g><g><use xlink:href="#kaFbp1k6I" opacity="1" fill="#2a2a2a" fill-opacity="1"></use><g><use xlink:href="#kaFbp1k6I" opacity="1" fill-opacity="0" stroke="#000000" stroke-width="1" stroke-opacity="0"></use></g></g><g><use xlink:href="#gaHefG5kF" opacity="1" fill="#000000" fill-opacity="0"></use><g><use xlink:href="#gaHefG5kF" opacity="1" fill-opacity="0" stroke="#000000" stroke-width="1" stroke-opacity="0"></use></g></g><g><use xlink:href="#cFXtvjO6X" opacity="1" fill="#29282d" fill-opacity="1"></use><g><use xlink:href="#cFXtvjO6X" opacity="1" fill-opacity="0" stroke="#000000" stroke-width="1" stroke-opacity="0"></use></g></g><g><use xlink:href="#c2OD7CktKe" opacity="1" fill="#000000" fill-opacity="0"></use><g><use xlink:href="#c2OD7CktKe" opacity="1" fill-opacity="0" stroke="#000000" stroke-width="1" stroke-opacity="0"></use></g></g><g><use xlink:href="#kaJBbZ4goC" opacity="1" fill="#3e3c47" fill-opacity="1"></use><g><use xlink:href="#kaJBbZ4goC" opacity="1" fill-opacity="0" stroke="#000000" stroke-width="1" stroke-opacity="0"></use></g></g><g><use xlink:href="#aP2ualP1p" opacity="1" fill="#000000" fill-opacity="0"></use><g><use xlink:href="#aP2ualP1p" opacity="1" fill-opacity="0" stroke="#000000" stroke-width="1" stroke-opacity="0"></use></g></g><g><use xlink:href="#a16BFtsMkc" opacity="1" fill="#2a2a2a" fill-opacity="1"></use><g><use xlink:href="#a16BFtsMkc" opacity="1" fill-opacity="0" stroke="#000000" stroke-width="1" stroke-opacity="0"></use></g></g><g><use xlink:href="#a2VNKwmhib" opacity="1" fill="#000000" fill-opacity="0"></use><g><use xlink:href="#a2VNKwmhib" opacity="1" fill-opacity="0" stroke="#000000" stroke-width="1" stroke-opacity="0"></use></g></g><g><use xlink:href="#b8RP2ZZh0" opacity="1" fill="#a82639" fill-opacity="1"></use><g><use xlink:href="#b8RP2ZZh0" opacity="1" fill-opacity="0" stroke="#000000" stroke-width="1" stroke-opacity="0"></use></g></g><g><use xlink:href="#b3BMnnhZ7f" opacity="1" fill="#000000" fill-opacity="0"></use><g><use xlink:href="#b3BMnnhZ7f" opacity="1" fill-opacity="0" stroke="#000000" stroke-width="1" stroke-opacity="0"></use></g></g><g><use xlink:href="#b1qSSEb2WC" opacity="1" fill="#36386d" fill-opacity="1"></use><g><use xlink:href="#b1qSSEb2WC" opacity="1" fill-opacity="0" stroke="#000000" stroke-width="1" stroke-opacity="0"></use></g></g><g><use xlink:href="#j1p0y2yMk1" opacity="1" fill="#000000" fill-opacity="0"></use><g><use xlink:href="#j1p0y2yMk1" opacity="1" fill-opacity="0" stroke="#000000" stroke-width="1" stroke-opacity="0"></use></g></g><g><use xlink:href="#d15pyNhyZ" opacity="1" fill="#36386d" fill-opacity="1"></use><g><use xlink:href="#d15pyNhyZ" opacity="1" fill-opacity="0" stroke="#000000" stroke-width="1" stroke-opacity="0"></use></g></g><g><use xlink:href="#a1FclTSJz5" opacity="1" fill="#000000" fill-opacity="0"></use><g><use xlink:href="#a1FclTSJz5" opacity="1" fill-opacity="0" stroke="#000000" stroke-width="1" stroke-opacity="0"></use></g></g><g><use xlink:href="#ckvYHyqnV" opacity="1" fill="#36386d" fill-opacity="1"></use><g><use xlink:href="#ckvYHyqnV" opacity="1" fill-opacity="0" stroke="#000000" stroke-width="1" stroke-opacity="0"></use></g></g><g><use xlink:href="#bmUCKB35L" opacity="1" fill="#000000" fill-opacity="0"></use><g><use xlink:href="#bmUCKB35L" opacity="1" fill-opacity="0" stroke="#000000" stroke-width="1" stroke-opacity="0"></use></g></g><g><use xlink:href="#a1A7S8lVi3" opacity="1" fill="#682f37" fill-opacity="1"></use><g><use xlink:href="#a1A7S8lVi3" opacity="1" fill-opacity="0" stroke="#000000" stroke-width="1" stroke-opacity="0"></use></g></g><g><use xlink:href="#g15eXsMbnF" opacity="1" fill="#000000" fill-opacity="0"></use><g><use xlink:href="#g15eXsMbnF" opacity="1" fill-opacity="0" stroke="#000000" stroke-width="1" stroke-opacity="0"></use></g></g><g><use xlink:href="#bUG4mYgM" opacity="1" fill="#ebbaaa" fill-opacity="1"></use><g><use xlink:href="#bUG4mYgM" opacity="1" fill-opacity="0" stroke="#000000" stroke-width="1" stroke-opacity="0"></use></g></g><g><use xlink:href="#e6tLrjflQ3" opacity="1" fill="#000000" fill-opacity="0"></use><g><use xlink:href="#e6tLrjflQ3" opacity="1" fill-opacity="0" stroke="#000000" stroke-width="1" stroke-opacity="0"></use></g></g><g><use xlink:href="#aXyE2Ui20" opacity="1" fill="#ebbaaa" fill-opacity="1"></use><g><use xlink:href="#aXyE2Ui20" opacity="1" fill-opacity="0" stroke="#000000" stroke-width="1" stroke-opacity="0"></use></g></g><g><use xlink:href="#b1YPYZy8py" opacity="1" fill="#000000" fill-opacity="0"></use><g><use xlink:href="#b1YPYZy8py" opacity="1" fill-opacity="0" stroke="#000000" stroke-width="1" stroke-opacity="0"></use></g></g><g><use xlink:href="#fmTV7H4l3" opacity="1" fill="#2b4e84" fill-opacity="1"></use><g><use xlink:href="#fmTV7H4l3" opacity="1" fill-opacity="0" stroke="#000000" stroke-width="1" stroke-opacity="0"></use></g></g><g><use xlink:href="#gQFdudzWF" opacity="1" fill="#000000" fill-opacity="0"></use><g><use xlink:href="#gQFdudzWF" opacity="1" fill-opacity="0" stroke="#000000" stroke-width="1" stroke-opacity="0"></use></g></g><g><use xlink:href="#b1LO4DB6vL" opacity="1" fill="#45689f" fill-opacity="1"></use><g><use xlink:href="#b1LO4DB6vL" opacity="1" fill-opacity="0" stroke="#000000" stroke-width="1" stroke-opacity="0"></use></g></g><g><use xlink:href="#a6oef5AQDp" opacity="1" fill="#000000" fill-opacity="0"></use><g><use xlink:href="#a6oef5AQDp" opacity="1" fill-opacity="0" stroke="#000000" stroke-width="1" stroke-opacity="0"></use></g></g><g><use xlink:href="#c3KhWMBpoN" opacity="1" fill="#243f68" fill-opacity="1"></use><g><use xlink:href="#c3KhWMBpoN" opacity="1" fill-opacity="0" stroke="#000000" stroke-width="1" stroke-opacity="0"></use></g></g><g><use xlink:href="#b1OOLDftR2" opacity="1" fill="#000000" fill-opacity="0"></use><g><use xlink:href="#b1OOLDftR2" opacity="1" fill-opacity="0" stroke="#000000" stroke-width="1" stroke-opacity="0"></use></g></g><g><use xlink:href="#f1a3nrjKvG" opacity="1" fill="#45689f" fill-opacity="1"></use><g><use xlink:href="#f1a3nrjKvG" opacity="1" fill-opacity="0" stroke="#000000" stroke-width="1" stroke-opacity="0"></use></g></g><g><use xlink:href="#cnBHEHANg" opacity="1" fill="#000000" fill-opacity="0"></use><g><use xlink:href="#cnBHEHANg" opacity="1" fill-opacity="0" stroke="#000000" stroke-width="1" stroke-opacity="0"></use></g></g><g><use xlink:href="#d6JDHaVZdY" opacity="1" fill="#45689f" fill-opacity="1"></use><g><use xlink:href="#d6JDHaVZdY" opacity="1" fill-opacity="0" stroke="#000000" stroke-width="1" stroke-opacity="0"></use></g></g><g><use xlink:href="#aTfr8PDb9" opacity="1" fill="#000000" fill-opacity="0"></use><g><use xlink:href="#aTfr8PDb9" opacity="1" fill-opacity="0" stroke="#000000" stroke-width="1" stroke-opacity="0"></use></g></g><g><use xlink:href="#jaSNAwmJG" opacity="1" fill="#2d4973" fill-opacity="1"></use><g><use xlink:href="#jaSNAwmJG" opacity="1" fill-opacity="0" stroke="#000000" stroke-width="1" stroke-opacity="0"></use></g></g><g><use xlink:href="#a4YrPypZ4a" opacity="1" fill="#000000" fill-opacity="0"></use><g><use xlink:href="#a4YrPypZ4a" opacity="1" fill-opacity="0" stroke="#000000" stroke-width="1" stroke-opacity="0"></use></g></g><g><use xlink:href="#b1qVwkuMRR" opacity="1" fill="#2d4973" fill-opacity="1"></use><g><use xlink:href="#b1qVwkuMRR" opacity="1" fill-opacity="0" stroke="#000000" stroke-width="1" stroke-opacity="0"></use></g></g><g><use xlink:href="#c3izdD8rsz" opacity="1" fill="#000000" fill-opacity="0"></use><g><use xlink:href="#c3izdD8rsz" opacity="1" fill-opacity="0" stroke="#000000" stroke-width="1" stroke-opacity="0"></use></g></g><g><use xlink:href="#a1ba8R6rVD" opacity="1" fill="#45689f" fill-opacity="1"></use><g><use xlink:href="#a1ba8R6rVD" opacity="1" fill-opacity="0" stroke="#000000" stroke-width="1" stroke-opacity="0"></use></g></g><g><use xlink:href="#a3yfv1Qgf" opacity="1" fill="#000000" fill-opacity="0"></use><g><use xlink:href="#a3yfv1Qgf" opacity="1" fill-opacity="0" stroke="#000000" stroke-width="1" stroke-opacity="0"></use></g></g><g><use xlink:href="#a3BXNcPh6r" opacity="1" fill="#2b4e84" fill-opacity="1"></use><g><use xlink:href="#a3BXNcPh6r" opacity="1" fill-opacity="0" stroke="#000000" stroke-width="1" stroke-opacity="0"></use></g></g><g><use xlink:href="#b3JyUPJdi" opacity="1" fill="#000000" fill-opacity="0"></use><g><use xlink:href="#b3JyUPJdi" opacity="1" fill-opacity="0" stroke="#000000" stroke-width="1" stroke-opacity="0"></use></g></g><g><use xlink:href="#dzArEgz7Z" opacity="1" fill="#45689f" fill-opacity="1"></use><g><use xlink:href="#dzArEgz7Z" opacity="1" fill-opacity="0" stroke="#000000" stroke-width="1" stroke-opacity="0"></use></g></g><g><use xlink:href="#a3oqMxGuM" opacity="1" fill="#000000" fill-opacity="0"></use><g><use xlink:href="#a3oqMxGuM" opacity="1" fill-opacity="0" stroke="#000000" stroke-width="1" stroke-opacity="0"></use></g></g><g><use xlink:href="#b1EBlVBXU" opacity="1" fill="#243f68" fill-opacity="1"></use><g><use xlink:href="#b1EBlVBXU" opacity="1" fill-opacity="0" stroke="#000000" stroke-width="1" stroke-opacity="0"></use></g></g><g><use xlink:href="#aHK6aJnV" opacity="1" fill="#000000" fill-opacity="0"></use><g><use xlink:href="#aHK6aJnV" opacity="1" fill-opacity="0" stroke="#000000" stroke-width="1" stroke-opacity="0"></use></g></g><g><use xlink:href="#b5RskQGZXC" opacity="1" fill="#45689f" fill-opacity="1"></use><g><use xlink:href="#b5RskQGZXC" opacity="1" fill-opacity="0" stroke="#000000" stroke-width="1" stroke-opacity="0"></use></g></g><g><use xlink:href="#c1uxtMKY60" opacity="1" fill="#000000" fill-opacity="0"></use><g><use xlink:href="#c1uxtMKY60" opacity="1" fill-opacity="0" stroke="#000000" stroke-width="1" stroke-opacity="0"></use></g></g><g><use xlink:href="#asvl4SipR" opacity="1" fill="#45689f" fill-opacity="1"></use><g><use xlink:href="#asvl4SipR" opacity="1" fill-opacity="0" stroke="#000000" stroke-width="1" stroke-opacity="0"></use></g></g><g><use xlink:href="#a38EZiydhq" opacity="1" fill="#000000" fill-opacity="0"></use><g><use xlink:href="#a38EZiydhq" opacity="1" fill-opacity="0" stroke="#000000" stroke-width="1" stroke-opacity="0"></use></g></g><g><use xlink:href="#azhceWSU" opacity="1" fill="#45689f" fill-opacity="1"></use><g><use xlink:href="#azhceWSU" opacity="1" fill-opacity="0" stroke="#000000" stroke-width="1" stroke-opacity="0"></use></g></g><g><use xlink:href="#a1yNV5HorT" opacity="1" fill="#000000" fill-opacity="0"></use><g><use xlink:href="#a1yNV5HorT" opacity="1" fill-opacity="0" stroke="#000000" stroke-width="1" stroke-opacity="0"></use></g></g><g><use xlink:href="#fi5ewS5oS" opacity="1" fill="#ebbaaa" fill-opacity="1"></use><g><use xlink:href="#fi5ewS5oS" opacity="1" fill-opacity="0" stroke="#000000" stroke-width="1" stroke-opacity="0"></use></g></g><g><use xlink:href="#c2dAjSo3XI" opacity="1" fill="#000000" fill-opacity="0"></use><g><use xlink:href="#c2dAjSo3XI" opacity="1" fill-opacity="0" stroke="#000000" stroke-width="1" stroke-opacity="0"></use></g></g><g><use xlink:href="#a26RySug1N" opacity="1" fill="#ebbaaa" fill-opacity="1"></use><g><use xlink:href="#a26RySug1N" opacity="1" fill-opacity="0" stroke="#000000" stroke-width="1" stroke-opacity="0"></use></g></g><g><use xlink:href="#c1sr25Y9tJ" opacity="1" fill="#000000" fill-opacity="0"></use><g><use xlink:href="#c1sr25Y9tJ" opacity="1" fill-opacity="0" stroke="#000000" stroke-width="1" stroke-opacity="0"></use></g></g><g><use xlink:href="#bvaXYaG1j" opacity="1" fill="#eed4cc" fill-opacity="1"></use><g><use xlink:href="#bvaXYaG1j" opacity="1" fill-opacity="0" stroke="#000000" stroke-width="1" stroke-opacity="0"></use></g></g><g><use xlink:href="#bstjkXtKa" opacity="1" fill="#000000" fill-opacity="0"></use><g><use xlink:href="#bstjkXtKa" opacity="1" fill-opacity="0" stroke="#000000" stroke-width="1" stroke-opacity="0"></use></g></g><g><use xlink:href="#bPKV1UCAh" opacity="1" fill="#c99584" fill-opacity="1"></use><g><use xlink:href="#bPKV1UCAh" opacity="1" fill-opacity="0" stroke="#000000" stroke-width="1" stroke-opacity="0"></use></g></g><g><use xlink:href="#a8URqxNzT" opacity="1" fill="#000000" fill-opacity="0"></use><g><use xlink:href="#a8URqxNzT" opacity="1" fill-opacity="0" stroke="#000000" stroke-width="1" stroke-opacity="0"></use></g></g><g><use xlink:href="#a1SL7Qa3N4" opacity="1" fill="#c99584" fill-opacity="1"></use><g><use xlink:href="#a1SL7Qa3N4" opacity="1" fill-opacity="0" stroke="#000000" stroke-width="1" stroke-opacity="0"></use></g></g><g><use xlink:href="#a52pyXK7OG" opacity="1" fill="#000000" fill-opacity="0"></use><g><use xlink:href="#a52pyXK7OG" opacity="1" fill-opacity="0" stroke="#000000" stroke-width="1" stroke-opacity="0"></use></g></g><g><use xlink:href="#b6HvXbiZb0" opacity="1" fill="#774f42" fill-opacity="1"></use><g><use xlink:href="#b6HvXbiZb0" opacity="1" fill-opacity="0" stroke="#000000" stroke-width="1" stroke-opacity="0"></use></g></g><g><use xlink:href="#a3I4VbjWPT" opacity="1" fill="#000000" fill-opacity="0"></use><g><use xlink:href="#a3I4VbjWPT" opacity="1" fill-opacity="0" stroke="#000000" stroke-width="1" stroke-opacity="0"></use></g></g><g><use xlink:href="#e5K2M4OXC" opacity="1" fill="#774f42" fill-opacity="1"></use><g><use xlink:href="#e5K2M4OXC" opacity="1" fill-opacity="0" stroke="#000000" stroke-width="1" stroke-opacity="0"></use></g></g><g><use xlink:href="#d1414L3aWM" opacity="1" fill="#000000" fill-opacity="0"></use><g><use xlink:href="#d1414L3aWM" opacity="1" fill-opacity="0" stroke="#000000" stroke-width="1" stroke-opacity="0"></use></g></g><g><use xlink:href="#hbsq53B8s" opacity="1" fill="#49341e" fill-opacity="1"></use><g><use xlink:href="#hbsq53B8s" opacity="1" fill-opacity="0" stroke="#000000" stroke-width="1" stroke-opacity="0"></use></g></g><g><use xlink:href="#f5pTGVJReA" opacity="1" fill="#000000" fill-opacity="0"></use><g><use xlink:href="#f5pTGVJReA" opacity="1" fill-opacity="0" stroke="#000000" stroke-width="1" stroke-opacity="0"></use></g></g><g><use xlink:href="#d1l1IqSUz" opacity="1" fill="#49341e" fill-opacity="1"></use><g><use xlink:href="#d1l1IqSUz" opacity="1" fill-opacity="0" stroke="#000000" stroke-width="1" stroke-opacity="0"></use></g></g><g><use xlink:href="#eyPIrggyM" opacity="1" fill="#000000" fill-opacity="0"></use><g><use xlink:href="#eyPIrggyM" opacity="1" fill-opacity="0" stroke="#000000" stroke-width="1" stroke-opacity="0"></use></g></g><g><use xlink:href="#f3mUmI8HI6" opacity="1" fill="#7b4c1a" fill-opacity="1"></use><g><use xlink:href="#f3mUmI8HI6" opacity="1" fill-opacity="0" stroke="#000000" stroke-width="1" stroke-opacity="0"></use></g></g><g><use xlink:href="#c1bzgjjWXl" opacity="1" fill="#000000" fill-opacity="0"></use><g><use xlink:href="#c1bzgjjWXl" opacity="1" fill-opacity="0" stroke="#000000" stroke-width="1" stroke-opacity="0"></use></g></g><g><use xlink:href="#ajWuPL07N" opacity="1" fill="#7b4c1a" fill-opacity="1"></use><g><use xlink:href="#ajWuPL07N" opacity="1" fill-opacity="0" stroke="#000000" stroke-width="1" stroke-opacity="0"></use></g></g><g><use xlink:href="#a3KoTPo9Up" opacity="1" fill="#000000" fill-opacity="0"></use><g><use xlink:href="#a3KoTPo9Up" opacity="1" fill-opacity="0" stroke="#000000" stroke-width="1" stroke-opacity="0"></use></g></g><g><use xlink:href="#a1jKLeaLFI" opacity="1" fill="#ebbaaa" fill-opacity="1"></use><g><use xlink:href="#a1jKLeaLFI" opacity="1" fill-opacity="0" stroke="#000000" stroke-width="1" stroke-opacity="0"></use></g></g><g><use xlink:href="#b1MQk7YIIm" opacity="1" fill="#000000" fill-opacity="0"></use><g><use xlink:href="#b1MQk7YIIm" opacity="1" fill-opacity="0" stroke="#000000" stroke-width="1" stroke-opacity="0"></use></g></g><g><use xlink:href="#e32cbORQDQ" opacity="1" fill="#f2f6fa" fill-opacity="1"></use><g><use xlink:href="#e32cbORQDQ" opacity="1" fill-opacity="0" stroke="#000000" stroke-width="1" stroke-opacity="0"></use></g></g><g><use xlink:href="#f2aqVNmv8z" opacity="1" fill="#000000" fill-opacity="0"></use><g><use xlink:href="#f2aqVNmv8z" opacity="1" fill-opacity="0" stroke="#000000" stroke-width="1" stroke-opacity="0"></use></g></g><g><use xlink:href="#a3y14Y5Q8" opacity="1" fill="#f2f6fa" fill-opacity="1"></use><g><use xlink:href="#a3y14Y5Q8" opacity="1" fill-opacity="0" stroke="#000000" stroke-width="1" stroke-opacity="0"></use></g></g><g><use xlink:href="#aE437P2wf" opacity="1" fill="#000000" fill-opacity="0"></use><g><use xlink:href="#aE437P2wf" opacity="1" fill-opacity="0" stroke="#000000" stroke-width="1" stroke-opacity="0"></use></g></g><g><use xlink:href="#o1aAi4UV45" opacity="1" fill="#f2f6fa" fill-opacity="1"></use><g><use xlink:href="#o1aAi4UV45" opacity="1" fill-opacity="0" stroke="#000000" stroke-width="1" stroke-opacity="0"></use></g></g><g><use xlink:href="#evgx7thT" opacity="1" fill="#000000" fill-opacity="0"></use><g><use xlink:href="#evgx7thT" opacity="1" fill-opacity="0" stroke="#000000" stroke-width="1" stroke-opacity="0"></use></g></g><g><use xlink:href="#bxRmvR4n" opacity="1" fill="#7b4c1a" fill-opacity="1"></use><g><use xlink:href="#bxRmvR4n" opacity="1" fill-opacity="0" stroke="#000000" stroke-width="1" stroke-opacity="0"></use></g></g><g><use xlink:href="#aj6gBH1mn" opacity="1" fill="#000000" fill-opacity="0"></use><g><use xlink:href="#aj6gBH1mn" opacity="1" fill-opacity="0" stroke="#000000" stroke-width="1" stroke-opacity="0"></use></g></g><g><use xlink:href="#b5HHluVPV4" opacity="1" fill="#aa651b" fill-opacity="1"></use><g><use xlink:href="#b5HHluVPV4" opacity="1" fill-opacity="0" stroke="#000000" stroke-width="1" stroke-opacity="0"></use></g></g><g><use xlink:href="#b219FG0XVi" opacity="1" fill="#000000" fill-opacity="0"></use><g><use xlink:href="#b219FG0XVi" opacity="1" fill-opacity="0" stroke="#000000" stroke-width="1" stroke-opacity="0"></use></g></g><g><use xlink:href="#cAiKKsfgN" opacity="1" fill="#aa651b" fill-opacity="1"></use><g><use xlink:href="#cAiKKsfgN" opacity="1" fill-opacity="0" stroke="#000000" stroke-width="1" stroke-opacity="0"></use></g></g><g><use xlink:href="#b65YwjlVg" opacity="1" fill="#000000" fill-opacity="0"></use><g><use xlink:href="#b65YwjlVg" opacity="1" fill-opacity="0" stroke="#000000" stroke-width="1" stroke-opacity="0"></use></g></g><g><use xlink:href="#araXzxtcO" opacity="1" fill="#aa651b" fill-opacity="1"></use><g><use xlink:href="#araXzxtcO" opacity="1" fill-opacity="0" stroke="#000000" stroke-width="1" stroke-opacity="0"></use></g></g><g><use xlink:href="#bkTxAbrj" opacity="1" fill="#000000" fill-opacity="0"></use><g><use xlink:href="#bkTxAbrj" opacity="1" fill-opacity="0" stroke="#000000" stroke-width="1" stroke-opacity="0"></use></g></g><g><use xlink:href="#aj97LIkup" opacity="1" fill="#aa651b" fill-opacity="1"></use><g><use xlink:href="#aj97LIkup" opacity="1" fill-opacity="0" stroke="#000000" stroke-width="1" stroke-opacity="0"></use></g></g><g><use xlink:href="#c5svSLuMGO" opacity="1" fill="#000000" fill-opacity="0"></use><g><use xlink:href="#c5svSLuMGO" opacity="1" fill-opacity="0" stroke="#000000" stroke-width="1" stroke-opacity="0"></use></g></g><g><use xlink:href="#ca4YHZLyD" opacity="1" fill="#aa651b" fill-opacity="1"></use><g><use xlink:href="#ca4YHZLyD" opacity="1" fill-opacity="0" stroke="#000000" stroke-width="1" stroke-opacity="0"></use></g></g><g><use xlink:href="#f95uD4cKPc" opacity="1" fill="#000000" fill-opacity="0"></use><g><use xlink:href="#f95uD4cKPc" opacity="1" fill-opacity="0" stroke="#000000" stroke-width="1" stroke-opacity="0"></use></g></g><g><use xlink:href="#ae8K3PSO6" opacity="1" fill="#aa651b" fill-opacity="1"></use><g><use xlink:href="#ae8K3PSO6" opacity="1" fill-opacity="0" stroke="#000000" stroke-width="1" stroke-opacity="0"></use></g></g><g><use xlink:href="#eBgUFjbh" opacity="1" fill="#000000" fill-opacity="0"></use><g><use xlink:href="#eBgUFjbh" opacity="1" fill-opacity="0" stroke="#000000" stroke-width="1" stroke-opacity="0"></use></g></g><g><use xlink:href="#a86WuuoC" opacity="1" fill="#aa651b" fill-opacity="1"></use><g><use xlink:href="#a86WuuoC" opacity="1" fill-opacity="0" stroke="#000000" stroke-width="1" stroke-opacity="0"></use></g></g><g><use xlink:href="#hSGWCV7R1" opacity="1" fill="#000000" fill-opacity="0"></use><g><use xlink:href="#hSGWCV7R1" opacity="1" fill-opacity="0" stroke="#000000" stroke-width="1" stroke-opacity="0"></use></g></g><g><use xlink:href="#crkL7bRDC" opacity="1" fill="#aa651b" fill-opacity="1"></use><g><use xlink:href="#crkL7bRDC" opacity="1" fill-opacity="0" stroke="#000000" stroke-width="1" stroke-opacity="0"></use></g></g><g><use xlink:href="#a3CKovJPY1" opacity="1" fill="#000000" fill-opacity="0"></use><g><use xlink:href="#a3CKovJPY1" opacity="1" fill-opacity="0" stroke="#000000" stroke-width="1" stroke-opacity="0"></use></g></g><g><use xlink:href="#a1rLBiLGCE" opacity="1" fill="#ffffff" fill-opacity="1"></use><g><use xlink:href="#a1rLBiLGCE" opacity="1" fill-opacity="0" stroke="#000000" stroke-width="1" stroke-opacity="0"></use></g></g><g><use xlink:href="#aXfWW0uvT" opacity="1" fill="#000000" fill-opacity="1"></use><g><use xlink:href="#aXfWW0uvT" opacity="1" fill-opacity="0" stroke="#000000" stroke-width="1" stroke-opacity="0"></use></g></g><g><use xlink:href="#jIj2FT2KM" opacity="1" fill="#000000" fill-opacity="1"></use><g><use xlink:href="#jIj2FT2KM" opacity="1" fill-opacity="0" stroke="#000000" stroke-width="1" stroke-opacity="0"></use></g></g><g><use xlink:href="#l1BP7U6j2p" opacity="1" fill="#595758" fill-opacity="1"></use><g><use xlink:href="#l1BP7U6j2p" opacity="1" fill-opacity="0" stroke="#000000" stroke-width="1" stroke-opacity="0"></use></g></g><g><use xlink:href="#b16jP5EsAg" opacity="1" fill="#595758" fill-opacity="1"></use><g><use xlink:href="#b16jP5EsAg" opacity="1" fill-opacity="0" stroke="#000000" stroke-width="1" stroke-opacity="0"></use></g></g><g><use xlink:href="#fihIdmcnm" opacity="1" fill="#595758" fill-opacity="1"></use><g><use xlink:href="#fihIdmcnm" opacity="1" fill-opacity="0" stroke="#000000" stroke-width="1" stroke-opacity="0"></use></g></g><g><use xlink:href="#b2EcZgNE68" opacity="1" fill="#595758" fill-opacity="1"></use><g><use xlink:href="#b2EcZgNE68" opacity="1" fill-opacity="0" stroke="#000000" stroke-width="1" stroke-opacity="0"></use></g></g><g><use xlink:href="#bbncqKisf" opacity="1" fill="#595758" fill-opacity="1"></use><g><use xlink:href="#bbncqKisf" opacity="1" fill-opacity="0" stroke="#000000" stroke-width="1" stroke-opacity="0"></use></g></g><g><use xlink:href="#apEqnH1iD" opacity="1" fill="#595758" fill-opacity="1"></use><g><use xlink:href="#apEqnH1iD" opacity="1" fill-opacity="0" stroke="#000000" stroke-width="1" stroke-opacity="0"></use></g></g><g><use xlink:href="#h1luwssFl" opacity="1" fill="#595758" fill-opacity="1"></use><g><use xlink:href="#h1luwssFl" opacity="1" fill-opacity="0" stroke="#000000" stroke-width="1" stroke-opacity="0"></use></g></g><g><use xlink:href="#btD4ZpJ9t" opacity="1" fill="#595758" fill-opacity="1"></use><g><use xlink:href="#btD4ZpJ9t" opacity="1" fill-opacity="0" stroke="#000000" stroke-width="1" stroke-opacity="0"></use></g></g><g><use xlink:href="#a7Hv8gEVr" opacity="1" fill="#000000" fill-opacity="0"></use><g><use xlink:href="#a7Hv8gEVr" opacity="1" fill-opacity="0" stroke="#000000" stroke-width="1" stroke-opacity="0"></use></g></g><g><use xlink:href="#e1w1QHn7IU" opacity="1" fill="#ebbaaa" fill-opacity="1"></use><g><use xlink:href="#e1w1QHn7IU" opacity="1" fill-opacity="0" stroke="#000000" stroke-width="1" stroke-opacity="0"></use></g></g><g><use xlink:href="#a7gEMC4fr" opacity="1" fill="#000000" fill-opacity="0"></use><g><use xlink:href="#a7gEMC4fr" opacity="1" fill-opacity="0" stroke="#000000" stroke-width="1" stroke-opacity="0"></use></g></g><g><use xlink:href="#a5arqsPyiv" opacity="1" fill="#2d4973" fill-opacity="1"></use><g><use xlink:href="#a5arqsPyiv" opacity="1" fill-opacity="0" stroke="#000000" stroke-width="1" stroke-opacity="0"></use></g></g><g><use xlink:href="#e2hobFj6p" opacity="1" fill="#000000" fill-opacity="0"></use><g><use xlink:href="#e2hobFj6p" opacity="1" fill-opacity="0" stroke="#000000" stroke-width="1" stroke-opacity="0"></use></g></g><g><use xlink:href="#f6qKaOJkJ" opacity="1" fill="#2d4973" fill-opacity="1"></use><g><use xlink:href="#f6qKaOJkJ" opacity="1" fill-opacity="0" stroke="#000000" stroke-width="1" stroke-opacity="0"></use></g></g><g><use xlink:href="#d11PBKYKg" opacity="1" fill="#000000" fill-opacity="0"></use><g><use xlink:href="#d11PBKYKg" opacity="1" fill-opacity="0" stroke="#000000" stroke-width="1" stroke-opacity="0"></use></g></g><g><use xlink:href="#b3hM3muK" opacity="1" fill="#45689f" fill-opacity="1"></use><g><use xlink:href="#b3hM3muK" opacity="1" fill-opacity="0" stroke="#000000" stroke-width="1" stroke-opacity="0"></use></g></g><g><use xlink:href="#c4bFvanFbm" opacity="1" fill="#000000" fill-opacity="0"></use><g><use xlink:href="#c4bFvanFbm" opacity="1" fill-opacity="0" stroke="#000000" stroke-width="1" stroke-opacity="0"></use></g></g><g><use xlink:href="#h1umrWXII" opacity="1" fill="#45689f" fill-opacity="1"></use><g><use xlink:href="#h1umrWXII" opacity="1" fill-opacity="0" stroke="#000000" stroke-width="1" stroke-opacity="0"></use></g></g><g><use xlink:href="#a1nAW8494L" opacity="1" fill="#000000" fill-opacity="0"></use><g><use xlink:href="#a1nAW8494L" opacity="1" fill-opacity="0" stroke="#000000" stroke-width="1" stroke-opacity="0"></use></g></g></g></svg>