<?xml version="1.0" encoding="UTF-8" standalone="no"?>
<!DOCTYPE svg PUBLIC "-//W3C//DTD SVG 1.1//EN" "http://www.w3.org/Graphics/SVG/1.1/DTD/svg11.dtd">
<svg version="1.1" xmlns="http://www.w3.org/2000/svg" xmlns:xlink="http://www.w3.org/1999/xlink" preserveAspectRatio="xMidYMid meet" viewBox="174.33047341533427 53.02055656146648 198.60130105463475 403.8741587639051" width="198.6" height="403.87"><defs><path d="M240.24 441.97C241.17 440.28 241.5 438.88 241.71 437.16C241.8 436.33 241.86 435.45 241.88 434.45C241.91 432.86 241.87 430.87 241.76 428.45C241.58 424.24 241.18 418.67 240.6 411.96C239.66 401.02 238.26 387.29 236.95 375.64C236.31 369.92 231.34 365.84 225.86 366.52C220.38 367.21 216.46 372.4 217.11 378.12C218.4 389.59 219.78 403.14 220.7 413.86C221.25 420.3 221.63 425.61 221.8 429.47C221.89 431.44 221.92 432.98 221.9 434C221.9 434.08 221.9 434.16 221.9 434.22C220.81 438.65 222.62 443.47 226.6 445.85C231.38 448.71 237.49 446.98 240.24 441.97Z" id="c3PeJtNm43"></path><path d="M260.54 429.14C260.62 428.86 260.74 428.53 260.94 428.1C261.35 427.22 261.95 426.32 262.86 425.45C264.4 423.98 266.46 423 268.79 422.88C265.31 423.06 262.32 425.07 260.66 427.98C260.62 428.49 260.58 428.89 260.53 429.19C260.52 429.23 260.52 429.22 260.54 429.14ZM269.7 443.73C272.29 443.6 274.58 442.51 276.34 440.82C277.48 439.74 278.27 438.54 278.88 437.26C279.55 435.82 279.94 434.38 280.21 432.75C280.56 430.66 280.73 428.09 280.77 424.9C280.84 419.69 280.57 412.64 280.01 404.07C279.14 390.71 277.56 373.82 276.12 361.05C275.48 355.33 270.51 351.25 265.03 351.94C259.55 352.62 255.63 357.81 256.28 363.54C257.68 375.99 259.23 392.55 260.08 405.53C260.6 413.58 260.85 420.12 260.79 424.65C260.77 426.01 260.73 427.14 260.66 427.98C259.7 429.68 259.18 431.68 259.27 433.79C259.52 439.55 264.19 443.99 269.7 443.73Z" id="a17MWSUdEf"></path><path d="M239.07 316.4L243.47 418.82L218.4 420.05L203.19 314.8L239.07 316.4Z" id="a6sKn98zRa"></path><path d="M277.56 320.65C277.99 330.55 263.41 339.3 245.01 340.2C226.61 341.1 211.35 333.81 210.92 323.91C210.5 314.01 225.07 305.26 243.47 304.36C261.87 303.46 277.14 310.76 277.56 320.65Z" id="g4hsjomquf"></path><path d="M283.06 314.49L284.07 417.51L258.38 418.77L244.47 316.37L283.06 314.49Z" id="b3Tw0Z6O8T"></path><path d="M265.1 380.42L271.08 381.16L266.71 383.08L267.58 385.25L275.89 381.6L275.59 379.35L269.45 378.59L275.65 375.71L275.15 373.46L265.01 373.95L265.11 376.31L269.24 376.11L264.78 378.17L265.1 380.42Z" id="b7ezUskIcc"></path><path d="M222.04 384.24L230.63 387.06L231.31 384.81L226.79 383.33L232.68 382L232.81 379.73L228.18 378.11L232.32 377.91L232.22 375.56L222.08 376.05L221.77 378.35L228.19 380.6L222.15 381.96L222.04 384.24Z" id="cBpuwd88"></path><path d="M257.64 412.82L284.4 411.51L284.09 417.42L258.74 418.66L257.64 412.82Z" id="acw8FUgv5"></path><path d="M217.35 414.5L243.27 413.23L243.52 419.11L218.45 420.34L217.35 414.5Z" id="a1akjb0Z1E"></path><path d="M311.2 442.82C310.87 442.37 273.98 441.16 273.98 441.16C267.86 440.98 255.28 438.64 254.59 442.11C252.24 453.94 259.81 453.57 264.65 453.33C271.31 453.01 272.02 451.13 276.4 451.49C278.68 451.68 282.08 453.11 297.35 452.37C309.61 451.77 310.46 450.3 311.54 447.4C312.03 446.1 311.52 443.28 311.2 442.82Z" id="a1ueJAiakg"></path><path d="M260.75 423.28C260.62 423.29 259.55 423.34 259.41 423.35C257.81 425.34 258.53 426.3 257.99 429.54C257.26 433.86 256.47 433.29 255.73 437.3C255.22 440.08 255.27 444.21 256.88 446.43C259.39 449.87 262.32 449.37 267.31 449.13C270.19 448.99 275 447.99 279.44 449C285.64 450.4 302.56 450.47 306.74 448.89C313.86 446.19 311.34 439.48 308.2 437.03C302.69 432.74 292.44 433.55 289.7 430.13C287.46 427.33 286.17 425.28 284.79 422.7C284.68 420.34 280.74 420.54 280.54 422.31C281.3 425.95 280.08 428.61 272.36 428.84C266.18 429.01 263.35 427.3 260.75 423.28Z" id="a9fC4NMx"></path><path d="M288.7 435.61C288.89 435.48 289.87 434.81 291.63 433.6C291.69 435.17 291.73 436.04 291.74 436.21C291.77 436.93 292.52 437.35 293.11 436.98C293.34 436.83 294.47 436.12 296.51 434.84C297.32 436.99 297.78 438.19 297.87 438.43C298.14 439.14 299.06 439.24 299.47 438.61C299.72 438.22 301.73 435.1 301.98 434.71C302.26 434.27 302.15 433.68 301.73 433.39C301.32 433.1 300.75 433.22 300.47 433.65C300.37 433.81 299.85 434.61 298.92 436.05C298.25 434.28 297.88 433.29 297.81 433.1C297.6 432.55 296.97 432.33 296.49 432.64C296.29 432.76 295.29 433.39 293.48 434.53C293.42 432.92 293.38 432.03 293.37 431.85C293.34 431.11 292.55 430.7 291.96 431.1C291.77 431.23 290.82 431.88 289.11 433.06C289.12 430.28 289.12 428.73 289.12 428.42C289.12 427.63 288.24 427.19 287.65 427.68C287.27 428 284.27 430.5 283.89 430.81C283.5 431.14 283.44 431.74 283.75 432.15C284.06 432.56 284.63 432.62 285.03 432.3C285.18 432.17 285.94 431.54 287.3 430.4L287.29 434.82C287.83 435.62 288.29 435.89 288.7 435.61Z" id="a8lz7QJO7"></path><path d="M192.93 448.61C193.21 448.12 229.84 443.32 229.84 443.32C235.92 442.55 248.25 438.98 249.24 442.37C252.59 453.92 245.02 454.29 240.18 454.53C233.52 454.85 232.65 453.05 228.32 453.84C226.07 454.25 222.81 456.01 207.53 456.76C195.27 457.36 194.31 455.98 192.97 453.2C192.38 451.95 192.65 449.09 192.93 448.61Z" id="b41H6e5TO6"></path><path d="M241.48 424.22C241.62 424.22 242.69 424.16 242.83 424.16C244.59 425.99 243.95 427.01 244.77 430.18C245.86 434.42 246.61 433.77 247.68 437.69C248.43 440.41 248.74 444.53 247.32 446.89C245.12 450.57 242.16 450.36 237.17 450.6C234.29 450.74 229.41 450.22 225.08 451.66C219.02 453.66 202.18 455.38 197.89 454.21C190.56 452.22 192.5 445.29 195.41 442.54C200.53 437.73 210.8 437.54 213.24 433.87C215.24 430.86 216.35 428.69 217.5 425.99C217.4 423.63 221.34 423.44 221.7 425.19C221.25 428.89 222.69 431.42 230.4 430.89C236.57 430.46 239.24 428.48 241.48 424.22Z" id="aDEtpusLm"></path><path d="M214.71 439.23C214.51 439.11 213.48 438.54 211.62 437.51C211.69 439.08 211.73 439.95 211.74 440.12C211.77 440.84 211.05 441.33 210.43 441.02C210.2 440.9 209.01 440.3 206.87 439.22C206.24 441.44 205.89 442.68 205.82 442.93C205.62 443.66 204.71 443.85 204.25 443.26C203.96 442.9 201.69 439.99 201.41 439.63C201.09 439.22 201.15 438.62 201.54 438.29C201.93 437.96 202.5 438.02 202.82 438.42C202.94 438.57 203.52 439.32 204.57 440.66C205.08 438.83 205.37 437.82 205.43 437.61C205.59 437.05 206.19 436.77 206.69 437.02C206.91 437.13 207.96 437.66 209.85 438.62C209.78 437.01 209.75 436.12 209.74 435.94C209.71 435.2 210.45 434.71 211.07 435.05C211.27 435.17 212.28 435.72 214.08 436.72C213.84 433.96 213.7 432.42 213.68 432.11C213.61 431.32 214.45 430.79 215.08 431.23C215.48 431.5 218.68 433.71 219.08 433.98C219.5 434.27 219.62 434.86 219.34 435.3C219.07 435.73 218.5 435.86 218.08 435.57C217.92 435.46 217.11 434.9 215.66 433.9L216.04 438.3C215.58 439.15 215.14 439.46 214.71 439.23Z" id="dbnkjoS2E"></path><path d="M215.06 328C217.6 328.13 237.97 329.19 240.51 329.33C242.93 329.45 245.35 329.34 247.75 329C250.59 328.6 273.28 325.39 276.12 324.99C278.99 324.59 281.07 321.91 280.85 318.89C280.09 308.12 273.96 221.95 273.2 211.17C272.98 208.09 270.45 205.75 267.49 205.9C261.79 206.18 216.16 208.41 210.46 208.69C207.44 208.83 205.1 211.51 205.23 214.66C205.54 221.86 207.09 257.82 209.87 322.56C211.45 326.09 213.18 327.91 215.06 328Z" id="bm4EJfhjj"></path><path d="M267.97 257.81L267.34 243.24L219.76 245.57L220.39 260.13L267.97 257.81Z" id="a36uBZrOSF"></path><path d="M266.09 284.23L265.46 269.66L217.88 271.99L218.51 286.55L266.09 284.23Z" id="c30y7HyneG"></path><path d="M267.22 310.5L266.59 295.93L219.01 298.26L219.64 312.82L267.22 310.5Z" id="b1xs8GBkOl"></path><path d="M256.56 209.83C257.04 221.01 248.85 230.49 238.28 231.01C227.7 231.52 218.74 222.88 218.26 211.7C217.78 200.52 225.96 191.04 236.54 190.53C247.11 190.01 256.08 198.65 256.56 209.83Z" id="b7yPgv82d8"></path><path d="M236.67 185.95C243.68 185.6 247.34 189.09 247.65 196.41C247.94 202.99 248.09 206.65 248.13 207.38C248.44 214.7 245.09 218.52 238.09 218.87C238.09 218.87 238.09 218.87 238.09 218.87C231.08 219.21 227.42 215.72 227.11 208.41C226.83 201.82 226.67 198.17 226.64 197.43C226.32 190.12 229.67 186.29 236.67 185.95C236.67 185.95 236.67 185.95 236.67 185.95Z" id="beSzOY58h"></path><path d="M293.55 329.73C300.11 330.22 305.82 325.06 306.3 318.21C307.89 295.76 305.09 268.19 299.52 239.86C299.37 239.46 298.15 236.25 297.99 235.84C294.8 230.44 291.36 226.22 284.29 218.37C278.11 211.52 276.17 209.26 274.11 206.25C270.3 200.66 262.86 199.37 257.51 203.37C252.15 207.37 250.9 215.13 254.72 220.72C257.66 225.02 259.92 227.66 266.94 235.45C271.93 240.98 274.67 244.24 276.64 247.2C281.5 272.67 283.9 297.26 282.55 316.43C282.07 323.28 286.99 329.23 293.55 329.73Z" id="g4dTlSYmWa"></path><path d="M221.08 200.63C223.6 200.51 225.98 201.9 227.18 204.21C228.08 205.93 235.25 219.72 236.15 221.45C236.15 221.45 231.63 256.39 232.36 273.41C232.98 287.73 231.63 322.49 231.19 333.16C231.12 334.88 229.67 336.18 228.03 336C225.19 335.68 202.46 333.19 199.62 332.88C198.17 332.72 197.07 331.45 197.06 329.93C197.04 326.5 196.93 309.34 196.75 278.44L198.05 225.14C205 209.21 212.67 201.04 221.08 200.63Z" id="c1tDdd9BgI"></path><path d="M228.21 333.47C228.58 333.46 231.55 333.31 231.93 333.29C231.26 317.79 233.01 267.08 236.3 221.97C236.05 221.95 234.82 221.86 232.59 221.68C229.22 285.75 227.76 323.02 228.21 333.47Z" id="d2EwUP2hH0"></path><path d="M202.65 245.04C215.53 243.21 222.69 242.19 224.12 241.99C222.95 249.13 222.96 259.25 222.96 264.31C207.16 272.39 208.58 270.01 202.67 261.1C202.67 258.96 202.66 253.6 202.65 245.04Z" id="eN8anubOC"></path><path d="M201.39 240.04L199.99 246.62L208.92 253.47L220.88 248.05L223.46 242.06L201.39 240.04Z" id="azUaH8est"></path><path d="M198.19 335.38C197.46 335.34 196.88 334.72 196.84 333.96C196.83 333.61 196.75 331.87 196.62 328.73L231.96 330.84C232.09 333.82 232.16 335.48 232.18 335.81C232.21 336.69 231.51 337.42 230.66 337.37C224.17 336.97 201.43 335.58 198.19 335.38Z" id="a12VpaJptO"></path><path d="M277.3 288.25C277.3 288.25 297.66 275.28 305.34 267.12C305.34 267.12 301.2 247.57 295.71 229.81C292.1 218.1 283.63 209.59 278.28 205.14C275.29 202.66 271.63 201.35 267.84 200.79C266.97 200.66 262.64 200.03 254.83 198.88L251.35 237.96C266.92 268.13 275.57 284.9 277.3 288.25Z" id="e3nRgvbqB"></path><path d="M295.44 260.9C294.3 261.33 285.22 264.76 284.09 265.19C280.39 266.58 278.06 270.43 278.45 274.52C278.46 274.63 278.55 275.55 278.56 275.67C278.6 276.12 278.67 276.56 278.78 277C279.53 280.07 285.51 304.69 286.26 307.77C286.91 310.43 289.21 312.29 291.84 312.26C293.25 312.25 304.48 312.16 305.89 312.15C309.42 312.12 312.09 308.8 311.5 305.16C311.09 302.61 309.02 289.86 305.3 266.9C301.63 261.8 298.35 259.8 295.44 260.9Z" id="ei9RulQpX"></path><path d="M312.16 299.11C302.93 297.89 290.45 300.87 285.36 302.52C285.55 303.59 287.07 312.13 287.25 313.2C287.25 313.2 294.73 313.73 299.31 313.51C303.88 313.29 311.28 312.03 311.28 312.03C311.46 309.44 312.07 300.41 312.16 299.11Z" id="a4ud97ID6s"></path><path d="M254.41 199.58C252.06 199.69 249.98 201.2 249.04 203.45C248.29 205.28 242.24 219.93 241.48 221.76C241.48 221.76 248.98 256.11 249.71 273.13C250.32 287.46 254.64 321.94 256 332.52C256.22 334.23 257.77 335.37 259.39 335.04C262.19 334.45 284.61 329.75 287.42 329.16C288.84 328.86 289.83 327.49 289.71 325.97C289.44 322.55 288.07 305.45 285.6 274.67L277.61 219.45C269.79 205.82 262.06 199.2 254.41 199.58Z" id="k5P8NBYwo"></path><path d="M255.28 332.72C255.65 332.7 258.62 332.56 258.99 332.54C258.32 316.85 252.21 266.39 245.05 221.65C244.8 221.69 243.58 221.91 241.37 222.3C250.2 285.58 254.83 322.39 255.28 332.72Z" id="b2piAJVHCi"></path><path d="M276.86 241.98C263.88 241.42 256.67 241.11 255.22 241.04C257 248.04 257.86 258.12 258.28 263.15C274.71 269.66 273.1 267.42 278.22 257.98C278.04 255.85 277.59 250.51 276.86 241.98Z" id="a22EeovHMc"></path><path d="M277.69 236.88L279.65 243.3L271.34 250.99L258.96 246.76L255.89 241.05L277.69 236.88Z" id="a7G2GnYYb6"></path><path d="M289.05 331.51C289.78 331.4 290.3 330.73 290.27 329.97C290.25 329.62 290.18 327.87 290.04 324.74L255.03 330.29C255.16 333.27 255.23 334.92 255.24 335.25C255.28 336.14 256.05 336.79 256.89 336.66C263.32 335.63 285.84 332.03 289.05 331.51Z" id="cKZNDDLIV"></path><path d="M248.07 196.54L262.24 197.85L263.58 229.06L241.37 222.3L248.07 196.54Z" id="bgfBEkZju"></path><path d="M206.1 146.17C206.48 154.86 199.67 162.25 190.9 162.68C182.13 163.11 174.72 156.41 174.35 147.73C173.97 139.04 180.78 131.65 189.55 131.22C198.32 130.79 205.73 137.49 206.1 146.17Z" id="b1XOiEw3z0"></path><path d="M295.59 143.02C295.96 151.71 289.16 159.1 280.39 159.53C271.62 159.96 264.21 153.26 263.83 144.58C263.46 135.89 270.27 128.5 279.04 128.07C287.81 127.64 295.22 134.34 295.59 143.02Z" id="a1BvHHlfRy"></path><path d="M231.46 68.01C257.89 66.72 279.98 88.7 280.03 116.33C280.04 120.06 280.09 149.92 280.1 153.66C280.15 178.84 261.19 199.62 237.1 200.8C212.95 201.98 192.26 183.04 190.23 157.89C190.02 155.41 189.02 143.01 187.22 120.7C199.13 86.43 213.88 68.87 231.46 68.01Z" id="cbSZfgrWU"></path><path d="M248.49 173.17C249.4 173.96 250.75 173.83 251.51 172.87C252.27 171.92 252.14 170.5 251.23 169.71C250.59 169.16 250.07 168.04 249.95 167.27C249.75 166.05 248.64 165.23 247.47 165.44C246.3 165.65 245.51 166.81 245.71 168.03C246 169.77 246.96 171.85 248.49 173.17Z" id="h4xNGSA1"></path><path d="M226.97 175C229.61 175.81 232.58 176.18 236.01 176.01C239.48 175.84 242.55 175.11 245.22 173.95C247.16 173.1 248.73 172.1 249.84 171.14C250.76 170.35 250.89 168.94 250.14 167.99C249.38 167.03 248.03 166.9 247.12 167.68C246.32 168.37 245.12 169.14 243.57 169.81C241.36 170.77 238.78 171.38 235.82 171.53C232.87 171.67 230.37 171.37 228.19 170.7C226.61 170.21 225.4 169.62 223.93 168.73C222.9 168.11 221.59 168.47 220.99 169.54C220.39 170.61 220.74 171.99 221.76 172.61C223.51 173.67 225.01 174.4 226.97 175Z" id="c2j2sGQ53b"></path><path d="M205.63 119.96C205.44 119.95 205.25 120.05 205.15 120.22C204.83 120.72 202.31 124.76 201.99 125.26C201.75 125.64 202.02 126.15 202.46 126.14C204.5 126.12 220.86 125.93 222.91 125.9C223.57 125.9 224.08 125.27 223.98 124.59C223.94 124.31 223.62 122.09 223.58 121.81C223.5 121.27 223.07 120.87 222.55 120.84C219.17 120.66 207.32 120.05 205.63 119.96Z" id="coIjvOLRn"></path><path d="M259.61 117.32C259.8 117.29 260 117.37 260.12 117.53C260.48 118 263.33 121.77 263.69 122.25C263.96 122.6 263.74 123.13 263.31 123.17C261.27 123.35 244.96 124.75 242.92 124.92C242.26 124.98 241.7 124.41 241.74 123.72C241.75 123.44 241.88 121.2 241.9 120.92C241.93 120.37 242.32 119.93 242.84 119.85C246.19 119.34 257.93 117.57 259.61 117.32Z" id="aq4IAP5Vk"></path><path d="M213.48 142.01C213.62 143.9 215.2 145.31 217.01 145.16C218.82 145.01 220.17 143.36 220.03 141.47C220 141.09 219.78 138.03 219.75 137.64C219.61 135.76 218.04 134.34 216.23 134.49C214.42 134.64 213.06 136.29 213.2 138.18C213.26 138.95 213.45 141.63 213.48 142.01Z" id="evSEAjje"></path><path d="M249.44 140.07C249.48 141.96 250.98 143.46 252.8 143.41C254.61 143.37 256.05 141.79 256.01 139.9C256 139.52 255.93 136.44 255.93 136.06C255.89 134.16 254.38 132.67 252.57 132.71C250.76 132.76 249.32 134.33 249.36 136.22C249.37 136.99 249.43 139.68 249.44 140.07Z" id="h2Og7IHXpd"></path><path d="M187.07 107.67C189.17 107.57 190.27 108.61 190.36 110.8C191.21 130.5 191.68 141.45 191.77 143.64C191.86 145.83 190.86 146.97 188.77 147.08C188.77 147.08 188.77 147.08 188.77 147.08C186.67 147.18 185.58 146.14 185.48 143.95C184.63 124.24 184.16 113.3 184.07 111.11C183.98 108.92 184.98 107.77 187.07 107.67C187.07 107.67 187.07 107.67 187.07 107.67Z" id="a2cwNjTbxR"></path><path d="M278.64 108.63C280.73 108.53 281.83 109.57 281.92 111.76C282.65 128.72 283.06 138.15 283.14 140.03C283.23 142.22 282.23 143.37 280.14 143.47C280.14 143.47 280.14 143.47 280.14 143.47C278.04 143.57 276.94 142.53 276.85 140.34C276.12 123.38 275.72 113.95 275.63 112.07C275.54 109.88 276.54 108.73 278.64 108.63C278.64 108.63 278.64 108.63 278.64 108.63Z" id="ahgTrv74i"></path><path d="M228.92 149.09C228.6 149.69 228.35 150.14 228.12 150.6C227.45 151.92 227 153.02 226.73 154.1C226.36 155.63 226.4 157.04 227.01 158.32C228.32 161.03 231.53 162.01 236.8 161.76C236.78 161.27 236.62 157.39 236.59 156.9C234.53 157 233.01 156.88 232.03 156.58C231.67 156.47 231.43 156.35 231.27 156.23C231.2 156.18 231.18 156.15 231.17 156.13C231.02 155.82 231.29 154.71 232.23 152.87C232.43 152.47 232.65 152.06 232.96 151.5C233.01 151.4 233.07 151.3 233.15 151.16C233.17 151.13 233.32 150.85 233.34 150.82C233.49 150.54 233.6 150.33 233.71 150.13C234 149.6 234.23 149.16 234.43 148.74C234.99 147.58 235.31 146.64 235.4 145.7C235.09 145.67 233.54 145.53 230.76 145.27C230.5 146.05 229.89 147.33 228.92 149.09Z" id="aTaD9g8cJ"></path><path d="M229.99 140.99C229.99 140.99 229.99 140.99 229.99 140.99C230 140.98 230.02 140.96 230.04 140.94C230.15 140.85 230.3 140.76 230.5 140.66C231.16 140.33 232.11 140.09 233.4 140.03C234.71 139.97 235.74 140.11 236.52 140.38C236.78 140.46 236.98 140.55 237.13 140.64C237.18 140.67 237.21 140.69 237.24 140.71C237.24 140.71 237.24 140.71 237.23 140.7C237.7 141.1 238.38 141.02 238.77 140.53C239.15 140.04 239.08 139.32 238.61 138.92C238.52 138.85 238.38 138.75 238.2 138.64C237.92 138.48 237.59 138.33 237.21 138.2C236.17 137.85 234.87 137.67 233.31 137.75C231.73 137.82 230.49 138.13 229.56 138.59C228.93 138.9 228.53 139.24 228.31 139.53C227.93 140.02 228.01 140.74 228.48 141.13C228.95 141.52 229.62 141.45 230 140.97C230 140.97 230 140.97 230 140.97C230 140.98 229.99 140.99 229.99 140.99Z" id="bv7FDgV3a"></path><path d="M237.41 142.17C237.41 142.26 237.41 142.26 237.41 142.35C237.41 142.79 237.41 142.99 237.41 143.22C237.41 144.31 237.48 145.1 237.66 145.89C238.11 147.88 239.31 149.76 241.73 152.07C244.38 154.59 245.96 155.69 247.6 156.13C248.37 156.33 249.16 156.4 250.25 156.38C250.77 156.37 251.2 156.35 252.26 156.29C252.27 156.29 252.38 156.28 252.39 156.28C253 156.24 253.37 156.22 253.8 156.2C254 156.19 254.17 156.19 254.5 156.17C258.12 156 259.26 155.88 260.7 155.45C262.58 154.87 264.14 153.78 265.96 151.69C268.41 148.89 269.53 146.84 269.85 144.79C269.98 143.95 269.99 143.12 269.9 141.97C269.88 141.71 269.86 141.47 269.82 140.99C269.72 139.93 269.68 139.4 269.66 138.74C269.46 134.12 268.5 131.51 266.17 129.9C263.7 128.18 259.55 127.59 252.59 127.93C246.26 128.24 242.15 129.69 239.83 132.16C237.92 134.19 237.24 136.81 237.39 140.32C237.41 140.86 237.42 141.35 237.41 142.17ZM241.39 133.76C243.26 131.77 246.86 130.5 252.68 130.22C259.22 129.9 262.98 130.44 264.96 131.8C266.58 132.93 267.3 134.88 267.47 138.85C267.5 139.56 267.54 140.11 267.64 141.2C267.68 141.68 267.7 141.9 267.72 142.15C267.79 143.13 267.79 143.79 267.69 144.42C267.44 145.97 266.53 147.65 264.35 150.15C262.78 151.94 261.56 152.8 260.09 153.25C258.89 153.62 257.83 153.72 254.4 153.88C254.07 153.9 253.9 153.91 253.7 153.92C253.26 153.94 252.88 153.96 252.27 154C252.26 154 252.15 154 252.14 154.01C251.11 154.07 250.69 154.09 250.21 154.1C249.31 154.11 248.7 154.06 248.15 153.91C246.94 153.59 245.61 152.67 243.21 150.38C241.09 148.36 240.13 146.85 239.79 145.36C239.66 144.76 239.6 144.13 239.6 143.2C239.59 142.98 239.6 142.79 239.6 142.36C239.6 142.27 239.6 142.27 239.6 142.18C239.61 141.33 239.6 140.8 239.58 140.22C239.45 137.28 239.97 135.26 241.39 133.76Z" id="cPzqJUajU"></path><path d="M229.17 142.57C229.18 142.66 229.18 142.66 229.19 142.75C229.23 143.19 229.24 143.39 229.26 143.62C229.35 144.7 229.35 145.49 229.24 146.3C228.96 148.32 227.93 150.32 225.72 152.85C223.29 155.63 221.81 156.87 220.22 157.47C219.47 157.75 218.69 157.89 217.61 157.98C217.09 158.02 216.65 158.04 215.6 158.08C215.58 158.08 215.47 158.09 215.46 158.09C214.86 158.11 214.48 158.12 214.05 158.15C213.85 158.16 213.68 158.16 213.35 158.18C209.73 158.36 208.59 158.36 207.12 158.07C205.19 157.68 203.55 156.74 201.55 154.84C198.88 152.29 197.59 150.35 197.09 148.34C196.89 147.52 196.81 146.7 196.8 145.54C196.79 145.28 196.79 145.04 196.79 144.56C196.79 144.45 196.79 144.45 196.8 144.34C196.8 143.46 196.79 142.91 196.76 142.31C196.57 137.68 197.29 134.99 199.47 133.16C201.79 131.21 205.87 130.22 212.84 129.88C219.16 129.57 223.38 130.61 225.9 132.84C227.98 134.67 228.88 137.22 229.03 140.73C229.05 141.27 229.09 141.76 229.17 142.57ZM224.49 134.59C222.45 132.79 218.76 131.88 212.93 132.16C206.4 132.48 202.7 133.38 200.85 134.94C199.33 136.21 198.78 138.23 198.95 142.2C198.98 142.85 198.99 143.43 198.98 144.34C198.98 144.45 198.98 144.45 198.98 144.56C198.98 145.04 198.98 145.26 198.99 145.51C199 146.5 199.06 147.15 199.21 147.77C199.59 149.29 200.64 150.87 203.03 153.14C204.74 154.78 206.03 155.52 207.54 155.82C208.77 156.07 209.83 156.07 213.25 155.9C213.58 155.88 213.75 155.87 213.95 155.86C214.4 155.84 214.77 155.82 215.38 155.8C215.4 155.8 215.51 155.8 215.52 155.8C216.55 155.76 216.96 155.74 217.45 155.7C218.35 155.63 218.95 155.51 219.48 155.32C220.66 154.88 221.9 153.83 224.1 151.31C226.04 149.09 226.86 147.5 227.07 145.98C227.15 145.37 227.15 144.74 227.08 143.81C227.06 143.6 227.05 143.4 227.01 142.98C227 142.89 227 142.89 226.99 142.8C226.91 141.95 226.87 141.42 226.84 140.84C226.72 137.9 226.03 135.95 224.49 134.59Z" id="c6m6Xwade"></path><path d="M190.22 113.81C190.62 123.23 188.01 135.03 184.57 135.55C181.5 136.01 177.6 126.26 177.2 117.02C175.91 87.04 191.29 67.69 216.45 66.46C224.7 66.05 254.62 56.58 255.7 81.71C243.7 89.45 206.71 83.15 197.44 90.57C189.49 96.93 192.25 105.99 190.22 113.81Z" id="haGfcJVNE"></path><path d="M268.87 95.8C271.78 107.98 271.17 129.31 284.57 128.66C290.58 128.36 288.32 100.12 287.5 94.89C281.81 58.29 241.71 51.99 218.35 60.64C204.05 65.94 194.33 87.86 217.55 86.72C240.76 85.59 263.98 90.32 268.87 95.8Z" id="aEkGOIPeK"></path><path d="M217.93 61.71C222.45 58.83 228.73 57.03 236.79 56.74C237.77 56.7 238.54 55.84 238.51 54.81C238.48 53.79 237.66 52.99 236.67 53.02C228.03 53.34 221.15 55.31 216.08 58.53C212.03 61.11 209.33 64.41 208.46 67.37C208.18 68.35 208.7 69.39 209.64 69.69C210.58 69.99 211.58 69.43 211.87 68.45C212.46 66.43 214.58 63.83 217.93 61.71Z" id="a3nMsbtaTG"></path><path d="M207.54 69.91C208.72 70.63 210.22 70.21 210.91 68.99C211.6 67.76 211.2 66.18 210.03 65.47C204.71 62.23 197.48 63.24 189.42 67.42C188.2 68.06 187.7 69.6 188.31 70.87C188.91 72.15 190.39 72.67 191.61 72.03C198.33 68.54 203.99 67.75 207.54 69.91Z" id="baJYbt2fS"></path><path d="M280.84 75.26C261.9 72.26 265.84 65.62 252.05 80.73C241.02 92.82 239.57 103.01 232.97 108.74C239.75 112.66 246.86 112.09 250.66 111.16C264.26 107.84 271.38 99.41 277.64 90.91C283.08 83.53 274.77 74.5 280.84 75.26Z" id="abOJwzOd"></path><path d="M229.51 70.77C244.59 77.2 238.54 85.83 234.39 88.47C222.35 96.11 216.33 103.12 213.85 110.23C207.15 107.41 204.54 102.31 203.73 99.3C200.86 88.52 205.67 79.82 210.93 71.68C215.49 64.61 220.3 66.84 229.51 70.77Z" id="b1WnxPAZkT"></path><path d="M205.85 100.45C224.36 115.86 237.15 108.82 252.78 82.95C264.72 90.71 272.97 89.57 278.07 91.2C283.17 92.83 285.86 76.85 267.58 63.95C256.33 51.01 239.89 63.23 232.59 78.5C226.25 91.75 211.81 104.97 205.85 100.45Z" id="b2V5XEog0"></path><path d="M188.48 96.83C191.1 81.25 206.26 77.07 214.64 80.67C223.02 84.27 221.03 95.52 210.27 100.06C204.88 102.32 201.15 104.79 204.46 111.5C194.35 111.08 186.93 106.06 188.48 96.83Z" id="e4yZEqNQJZ"></path><path d="M278.75 96.01C274.8 80.75 257.39 77.31 249.36 81.71C241.33 86.11 246.98 96.42 258.09 99.88C263.64 101.62 264.86 104.42 262.15 111.42C272.17 110.01 278.59 100.79 278.75 96.01Z" id="a8VvuwUVvn"></path><path d="M284.47 226.22L279.54 231.75L268.71 234.64L241.75 248.96L241.75 319.61L307.22 358.48L371.73 319.61L371.73 248.96L307.22 214.06L284.47 226.22Z" id="a1UeT0nKkd"></path><path d="M331.89 270.63L331.89 285.07L348.02 276.28L348.02 261.72L284.47 226.22L268.71 234.64L331.89 270.63Z" id="a1GOoD4m76"></path><path d="M306.62 359.57C300.07 355.68 247.7 324.58 241.15 320.69C240.79 320.45 240.55 319.97 240.55 319.61C240.55 312.54 240.55 256.03 240.55 248.96C240.55 248.48 240.79 248.12 241.15 247.88C241.51 247.64 241.99 247.64 242.35 247.88C248.9 251.37 301.28 279.29 307.82 282.78C308.42 283.14 308.67 283.87 308.3 284.47C307.94 285.07 307.22 285.31 306.62 285.07C302.37 282.8 281.15 271.45 242.95 251.01L242.95 318.89L307.22 357.04L370.52 318.89C370.52 276.93 370.52 253.63 370.52 248.96C370.52 248.24 371.01 247.76 371.73 247.76C372.45 247.76 372.93 248.24 372.93 248.96C372.93 256.03 372.93 312.54 372.93 319.61C372.93 320.09 372.69 320.45 372.33 320.69C365.88 324.58 314.27 355.68 307.82 359.57C307.7 359.69 307.46 359.69 307.22 359.69C306.98 359.69 306.74 359.69 306.62 359.57Z" id="b2QtlTgY0t"></path><path d="M268.71 234.64L283.87 226.58L268.71 234.64L268.71 234.64Z" id="c5TjQtiBwx"></path><path d="M306.62 359.57C300.07 355.68 247.7 324.58 241.15 320.69C240.79 320.45 240.55 319.97 240.55 319.61C240.55 312.54 240.55 256.03 240.55 248.96C240.55 248.48 240.79 248.12 241.15 247.88C243.84 246.44 265.41 234.88 268.11 233.44C268.71 233.08 269.43 233.32 269.79 233.92C270.15 234.52 269.91 235.24 269.31 235.61C267.55 236.54 258.77 241.24 242.95 249.69L242.95 318.89L307.22 357.04L370.52 318.89L370.52 249.69L307.22 215.39C293.86 222.54 286.44 226.51 284.96 227.3C284.35 227.66 283.63 227.42 283.27 226.82C282.91 226.22 283.15 225.5 283.75 225.13C286.04 223.92 304.33 214.2 306.62 212.98C306.98 212.74 307.46 212.74 307.7 212.98C314.15 216.47 365.76 244.39 372.21 247.88C372.57 248.12 372.81 248.48 372.81 248.96C372.81 256.03 372.81 312.54 372.81 319.61C372.81 320.09 372.57 320.45 372.21 320.69C365.76 324.58 314.15 355.68 307.7 359.57C307.7 359.69 307.46 359.69 307.22 359.69C306.98 359.69 306.74 359.69 306.62 359.57Z" id="c1bYX4uGjG"></path><path d="M331.29 286.15C330.93 285.91 330.69 285.55 330.69 285.07C330.69 284.15 330.69 279.53 330.69 271.23C293.14 249.85 272.28 237.98 268.11 235.61C267.75 235.36 267.51 235 267.51 234.52C267.51 234.04 267.75 233.68 268.11 233.44C269.67 232.61 282.19 225.97 283.75 225.13C284.11 224.89 284.6 224.89 284.96 225.13C291.32 228.69 342.25 257.09 348.62 260.64C348.98 260.88 349.22 261.24 349.22 261.72C349.22 263.18 349.22 274.83 349.22 276.28C349.22 276.76 348.98 277.13 348.62 277.37C347.01 278.25 334.11 285.27 332.49 286.15C332.37 286.27 332.13 286.27 331.89 286.27C331.65 286.27 331.41 286.27 331.29 286.15ZM332.49 269.54C332.86 269.78 333.1 270.15 333.1 270.63C333.1 271.46 333.1 275.63 333.1 283.14L346.82 275.68L346.82 262.44L284.47 227.66L271.24 234.64C307.99 255.58 328.41 267.22 332.49 269.54Z" id="g5uFLXzmif"></path><path d="M306.62 359.57C300.07 355.68 247.7 324.58 241.15 320.69C240.79 320.45 240.55 319.97 240.55 319.61C240.55 312.54 240.55 256.03 240.55 248.96C240.55 248.48 240.79 248.12 241.15 247.88C241.51 247.64 241.99 247.64 242.35 247.88C246.68 250.19 268.3 261.75 307.22 282.54C321.37 274.89 329.24 270.63 330.81 269.78C331.41 269.42 332.13 269.66 332.49 270.27C332.86 270.87 332.61 271.59 332.01 271.95C329.59 273.26 310.24 283.76 307.82 285.07C307.46 285.31 306.98 285.31 306.74 285.07C302.49 282.8 281.23 271.45 242.95 251.01L242.95 318.89L307.22 357.04L370.52 318.89L370.52 251.01C357.45 258.09 350.19 262.02 348.74 262.8C348.14 263.17 347.42 262.92 347.06 262.32C346.7 261.72 346.94 261 347.54 260.64C349.9 259.36 368.77 249.16 371.13 247.88C371.49 247.64 371.97 247.64 372.33 247.88C372.69 248.12 372.93 248.48 372.93 248.96C372.93 256.03 372.93 312.54 372.93 319.61C372.93 320.09 372.69 320.45 372.33 320.69C365.88 324.58 314.27 355.68 307.82 359.57C307.7 359.69 307.46 359.69 307.22 359.69C306.98 359.69 306.74 359.69 306.62 359.57Z" id="b2J3t0kjyP"></path><path d="M267.63 235.24C267.51 235.12 267.51 234.88 267.51 234.64C267.51 234.16 267.75 233.8 268.11 233.56C269.61 232.75 281.65 226.3 283.15 225.5C283.75 225.13 284.47 225.38 284.84 225.98C284.96 226.1 284.96 226.34 284.96 226.58C284.96 227.06 284.72 227.42 284.35 227.66C282.85 228.47 270.82 234.92 269.31 235.73C269.19 235.73 268.95 235.85 268.71 235.85C268.23 235.85 267.87 235.61 267.63 235.24Z" id="a3KCV7ztMF"></path><path d="M218.8 255.89C218.86 255.73 218.91 255.6 218.96 255.48C220.09 252.48 220.75 250.51 221.33 248.1C222.14 244.8 222.53 241.48 222.46 237.94C222.32 231.14 216.82 225.54 210.18 225.43C203.53 225.32 198.26 230.74 198.39 237.54C198.44 239.98 198 241.82 196.47 245.87C196.42 245.98 196.38 246.1 196.32 246.25C196.29 246.34 196.25 246.44 196.17 246.64C194.79 250.29 194.13 252.23 193.52 254.93C192.65 258.74 192.34 262.58 192.7 266.71C192.81 267.13 193.68 270.47 193.79 270.88C205.65 297.27 219.31 321.39 233.57 338.77C237.92 344.08 245.52 344.92 250.54 340.67C255.57 336.41 256.11 328.66 251.76 323.36C239.62 308.56 227.39 287.15 216.63 263.59C216.73 261.74 217.29 259.88 218.65 256.28C218.73 256.09 218.77 255.97 218.8 255.89Z" id="d1KcJA9Aur"></path><path d="M207.71 285.01C208.85 284.58 217.91 281.2 219.04 280.77C222.73 279.39 226.98 280.78 229.35 284.14C229.42 284.23 229.95 284.99 230.02 285.08C230.28 285.45 230.51 285.84 230.71 286.24C232.15 289.07 243.65 311.7 245.09 314.53C246.34 316.98 245.81 319.91 243.82 321.63C242.75 322.55 234.24 329.89 233.18 330.81C230.5 333.12 226.33 332.35 224.41 329.21C223.06 327 216.32 315.95 204.2 296.07C203.64 289.78 204.81 286.09 207.71 285.01Z" id="aQPO5PiqF"></path><path d="M306.02 358.48C306.02 351.03 306.02 291.44 306.02 283.99C306.02 283.26 306.5 282.78 307.22 282.78C307.94 282.78 308.42 283.26 308.42 283.99C308.42 291.44 308.42 351.03 308.42 358.48C308.42 359.2 307.94 359.69 307.22 359.69C306.5 359.69 306.02 359.2 306.02 358.48Z" id="bXdbuZ4A"></path><path d="M238.94 296.86C238.94 296.86 214.96 298.26 204.04 296.12C204.04 296.12 196.09 277.74 190.27 260.03C186.89 249.75 187.99 239.29 189.5 232.31C190.71 226.72 193.98 222.02 197.98 218.11C198.48 217.62 200.99 215.17 205.5 210.77L230.9 240.59C235.72 274.36 238.41 293.11 238.94 296.86Z" id="a6W42ejkj"></path><path d="M221.02 324.11C227.78 317.69 239.61 312.79 244.68 311.14C245.14 312.12 248.86 319.98 249.32 320.96C249.32 320.96 243.58 325.79 239.74 328.3C235.91 330.81 229.19 334.13 229.19 334.13C227.56 332.13 221.84 325.12 221.02 324.11Z" id="bjvVjZXcH"></path><path d="M225.37 197.34L213.52 201.66L214.77 230.87L236.31 222.07L225.37 197.34Z" id="b3hbXrZnxI"></path></defs><g><g><g><use xlink:href="#c3PeJtNm43" opacity="1" fill="#4a4e52" fill-opacity="1"></use><g><use xlink:href="#c3PeJtNm43" opacity="1" fill-opacity="0" stroke="#000000" stroke-width="1" stroke-opacity="0"></use></g></g><g><use xlink:href="#a17MWSUdEf" opacity="1" fill="#4a4e52" fill-opacity="1"></use><g><use xlink:href="#a17MWSUdEf" opacity="1" fill-opacity="0" stroke="#000000" stroke-width="1" stroke-opacity="0"></use></g></g><g><use xlink:href="#a6sKn98zRa" opacity="1" fill="#2b353c" fill-opacity="1"></use><g><use xlink:href="#a6sKn98zRa" opacity="1" fill-opacity="0" stroke="#000000" stroke-width="1" stroke-opacity="0"></use></g></g><g><use xlink:href="#g4hsjomquf" opacity="1" fill="#2b353c" fill-opacity="1"></use><g><use xlink:href="#g4hsjomquf" opacity="1" fill-opacity="0" stroke="#000000" stroke-width="1" stroke-opacity="0"></use></g></g><g><use xlink:href="#b3Tw0Z6O8T" opacity="1" fill="#2b353c" fill-opacity="1"></use><g><use xlink:href="#b3Tw0Z6O8T" opacity="1" fill-opacity="0" stroke="#000000" stroke-width="1" stroke-opacity="0"></use></g></g><g><use xlink:href="#b7ezUskIcc" opacity="1" fill="#5484a0" fill-opacity="1"></use><g><use xlink:href="#b7ezUskIcc" opacity="1" fill-opacity="0" stroke="#000000" stroke-width="1" stroke-opacity="0"></use></g></g><g><use xlink:href="#cBpuwd88" opacity="1" fill="#5484a0" fill-opacity="1"></use><g><use xlink:href="#cBpuwd88" opacity="1" fill-opacity="0" stroke="#000000" stroke-width="1" stroke-opacity="0"></use></g></g><g><use xlink:href="#acw8FUgv5" opacity="1" fill="#303f4a" fill-opacity="1"></use><g><use xlink:href="#acw8FUgv5" opacity="1" fill-opacity="0" stroke="#000000" stroke-width="1" stroke-opacity="0"></use></g></g><g><use xlink:href="#a1akjb0Z1E" opacity="1" fill="#303f4a" fill-opacity="1"></use><g><use xlink:href="#a1akjb0Z1E" opacity="1" fill-opacity="0" stroke="#000000" stroke-width="1" stroke-opacity="0"></use></g></g><g><use xlink:href="#a1ueJAiakg" opacity="1" fill="#29282d" fill-opacity="1"></use><g><use xlink:href="#a1ueJAiakg" opacity="1" fill-opacity="0" stroke="#000000" stroke-width="1" stroke-opacity="0"></use></g></g><g><use xlink:href="#a9fC4NMx" opacity="1" fill="#3e3c47" fill-opacity="1"></use><g><use xlink:href="#a9fC4NMx" opacity="1" fill-opacity="0" stroke="#000000" stroke-width="1" stroke-opacity="0"></use></g></g><g><use xlink:href="#a8lz7QJO7" opacity="1" fill="#2a2a2a" fill-opacity="1"></use><g><use xlink:href="#a8lz7QJO7" opacity="1" fill-opacity="0" stroke="#000000" stroke-width="1" stroke-opacity="0"></use></g></g><g><use xlink:href="#b41H6e5TO6" opacity="1" fill="#29282d" fill-opacity="1"></use><g><use xlink:href="#b41H6e5TO6" opacity="1" fill-opacity="0" stroke="#000000" stroke-width="1" stroke-opacity="0"></use></g></g><g><use xlink:href="#aDEtpusLm" opacity="1" fill="#3e3c47" fill-opacity="1"></use><g><use xlink:href="#aDEtpusLm" opacity="1" fill-opacity="0" stroke="#000000" stroke-width="1" stroke-opacity="0"></use></g></g><g><use xlink:href="#dbnkjoS2E" opacity="1" fill="#2a2a2a" fill-opacity="1"></use><g><use xlink:href="#dbnkjoS2E" opacity="1" fill-opacity="0" stroke="#000000" stroke-width="1" stroke-opacity="0"></use></g></g><g><use xlink:href="#bm4EJfhjj" opacity="1" fill="#a82639" fill-opacity="1"></use><g><use xlink:href="#bm4EJfhjj" opacity="1" fill-opacity="0" stroke="#000000" stroke-width="1" stroke-opacity="0"></use></g></g><g><use xlink:href="#a36uBZrOSF" opacity="1" fill="#36386d" fill-opacity="1"></use><g><use xlink:href="#a36uBZrOSF" opacity="1" fill-opacity="0" stroke="#000000" stroke-width="1" stroke-opacity="0"></use></g></g><g><use xlink:href="#c30y7HyneG" opacity="1" fill="#36386d" fill-opacity="1"></use><g><use xlink:href="#c30y7HyneG" opacity="1" fill-opacity="0" stroke="#000000" stroke-width="1" stroke-opacity="0"></use></g></g><g><use xlink:href="#b1xs8GBkOl" opacity="1" fill="#36386d" fill-opacity="1"></use><g><use xlink:href="#b1xs8GBkOl" opacity="1" fill-opacity="0" stroke="#000000" stroke-width="1" stroke-opacity="0"></use></g></g><g><use xlink:href="#b7yPgv82d8" opacity="1" fill="#682f37" fill-opacity="1"></use><g><use xlink:href="#b7yPgv82d8" opacity="1" fill-opacity="0" stroke="#000000" stroke-width="1" stroke-opacity="0"></use></g></g><g><use xlink:href="#beSzOY58h" opacity="1" fill="#ebbaaa" fill-opacity="1"></use><g><use xlink:href="#beSzOY58h" opacity="1" fill-opacity="0" stroke="#000000" stroke-width="1" stroke-opacity="0"></use></g></g><g><use xlink:href="#g4dTlSYmWa" opacity="1" fill="#ebbaaa" fill-opacity="1"></use><g><use xlink:href="#g4dTlSYmWa" opacity="1" fill-opacity="0" stroke="#000000" stroke-width="1" stroke-opacity="0"></use></g></g><g><use xlink:href="#c1tDdd9BgI" opacity="1" fill="#2b4e84" fill-opacity="1"></use><g><use xlink:href="#c1tDdd9BgI" opacity="1" fill-opacity="0" stroke="#000000" stroke-width="1" stroke-opacity="0"></use></g></g><g><use xlink:href="#d2EwUP2hH0" opacity="1" fill="#45689f" fill-opacity="1"></use><g><use xlink:href="#d2EwUP2hH0" opacity="1" fill-opacity="0" stroke="#000000" stroke-width="1" stroke-opacity="0"></use></g></g><g><use xlink:href="#eN8anubOC" opacity="1" fill="#243f68" fill-opacity="1"></use><g><use xlink:href="#eN8anubOC" opacity="1" fill-opacity="0" stroke="#000000" stroke-width="1" stroke-opacity="0"></use></g></g><g><use xlink:href="#azUaH8est" opacity="1" fill="#45689f" fill-opacity="1"></use><g><use xlink:href="#azUaH8est" opacity="1" fill-opacity="0" stroke="#000000" stroke-width="1" stroke-opacity="0"></use></g></g><g><use xlink:href="#a12VpaJptO" opacity="1" fill="#45689f" fill-opacity="1"></use><g><use xlink:href="#a12VpaJptO" opacity="1" fill-opacity="0" stroke="#000000" stroke-width="1" stroke-opacity="0"></use></g></g><g><use xlink:href="#e3nRgvbqB" opacity="1" fill="#2d4973" fill-opacity="1"></use><g><use xlink:href="#e3nRgvbqB" opacity="1" fill-opacity="0" stroke="#000000" stroke-width="1" stroke-opacity="0"></use></g></g><g><use xlink:href="#ei9RulQpX" opacity="1" fill="#2d4973" fill-opacity="1"></use><g><use xlink:href="#ei9RulQpX" opacity="1" fill-opacity="0" stroke="#000000" stroke-width="1" stroke-opacity="0"></use></g></g><g><use xlink:href="#a4ud97ID6s" opacity="1" fill="#45689f" fill-opacity="1"></use><g><use xlink:href="#a4ud97ID6s" opacity="1" fill-opacity="0" stroke="#000000" stroke-width="1" stroke-opacity="0"></use></g></g><g><use xlink:href="#k5P8NBYwo" opacity="1" fill="#2b4e84" fill-opacity="1"></use><g><use xlink:href="#k5P8NBYwo" opacity="1" fill-opacity="0" stroke="#000000" stroke-width="1" stroke-opacity="0"></use></g></g><g><use xlink:href="#b2piAJVHCi" opacity="1" fill="#45689f" fill-opacity="1"></use><g><use xlink:href="#b2piAJVHCi" opacity="1" fill-opacity="0" stroke="#000000" stroke-width="1" stroke-opacity="0"></use></g></g><g><use xlink:href="#a22EeovHMc" opacity="1" fill="#243f68" fill-opacity="1"></use><g><use xlink:href="#a22EeovHMc" opacity="1" fill-opacity="0" stroke="#000000" stroke-width="1" stroke-opacity="0"></use></g></g><g><use xlink:href="#a7G2GnYYb6" opacity="1" fill="#45689f" fill-opacity="1"></use><g><use xlink:href="#a7G2GnYYb6" opacity="1" fill-opacity="0" stroke="#000000" stroke-width="1" stroke-opacity="0"></use></g></g><g><use xlink:href="#cKZNDDLIV" opacity="1" fill="#45689f" fill-opacity="1"></use><g><use xlink:href="#cKZNDDLIV" opacity="1" fill-opacity="0" stroke="#000000" stroke-width="1" stroke-opacity="0"></use></g></g><g><use xlink:href="#bgfBEkZju" opacity="1" fill="#45689f" fill-opacity="1"></use><g><use xlink:href="#bgfBEkZju" opacity="1" fill-opacity="0" stroke="#000000" stroke-width="1" stroke-opacity="0"></use></g></g><g><use xlink:href="#b1XOiEw3z0" opacity="1" fill="#ebbaaa" fill-opacity="1"></use><g><use xlink:href="#b1XOiEw3z0" opacity="1" fill-opacity="0" stroke="#000000" stroke-width="1" stroke-opacity="0"></use></g></g><g><use xlink:href="#a1BvHHlfRy" opacity="1" fill="#ebbaaa" fill-opacity="1"></use><g><use xlink:href="#a1BvHHlfRy" opacity="1" fill-opacity="0" stroke="#000000" stroke-width="1" stroke-opacity="0"></use></g></g><g><use xlink:href="#cbSZfgrWU" opacity="1" fill="#eed4cc" fill-opacity="1"></use><g><use xlink:href="#cbSZfgrWU" opacity="1" fill-opacity="0" stroke="#000000" stroke-width="1" stroke-opacity="0"></use></g></g><g><use xlink:href="#h4xNGSA1" opacity="1" fill="#c99584" fill-opacity="1"></use><g><use xlink:href="#h4xNGSA1" opacity="1" fill-opacity="0" stroke="#000000" stroke-width="1" stroke-opacity="0"></use></g></g><g><use xlink:href="#c2j2sGQ53b" opacity="1" fill="#c99584" fill-opacity="1"></use><g><use xlink:href="#c2j2sGQ53b" opacity="1" fill-opacity="0" stroke="#000000" stroke-width="1" stroke-opacity="0"></use></g></g><g><use xlink:href="#coIjvOLRn" opacity="1" fill="#774f42" fill-opacity="1"></use><g><use xlink:href="#coIjvOLRn" opacity="1" fill-opacity="0" stroke="#000000" stroke-width="1" stroke-opacity="0"></use></g></g><g><use xlink:href="#aq4IAP5Vk" opacity="1" fill="#774f42" fill-opacity="1"></use><g><use xlink:href="#aq4IAP5Vk" opacity="1" fill-opacity="0" stroke="#000000" stroke-width="1" stroke-opacity="0"></use></g></g><g><use xlink:href="#evSEAjje" opacity="1" fill="#49341e" fill-opacity="1"></use><g><use xlink:href="#evSEAjje" opacity="1" fill-opacity="0" stroke="#000000" stroke-width="1" stroke-opacity="0"></use></g></g><g><use xlink:href="#h2Og7IHXpd" opacity="1" fill="#49341e" fill-opacity="1"></use><g><use xlink:href="#h2Og7IHXpd" opacity="1" fill-opacity="0" stroke="#000000" stroke-width="1" stroke-opacity="0"></use></g></g><g><use xlink:href="#a2cwNjTbxR" opacity="1" fill="#7b4c1a" fill-opacity="1"></use><g><use xlink:href="#a2cwNjTbxR" opacity="1" fill-opacity="0" stroke="#000000" stroke-width="1" stroke-opacity="0"></use></g></g><g><use xlink:href="#ahgTrv74i" opacity="1" fill="#7b4c1a" fill-opacity="1"></use><g><use xlink:href="#ahgTrv74i" opacity="1" fill-opacity="0" stroke="#000000" stroke-width="1" stroke-opacity="0"></use></g></g><g><use xlink:href="#aTaD9g8cJ" opacity="1" fill="#ebbaaa" fill-opacity="1"></use><g><use xlink:href="#aTaD9g8cJ" opacity="1" fill-opacity="0" stroke="#000000" stroke-width="1" stroke-opacity="0"></use></g></g><g><use xlink:href="#bv7FDgV3a" opacity="1" fill="#f2f6fa" fill-opacity="1"></use><g><use xlink:href="#bv7FDgV3a" opacity="1" fill-opacity="0" stroke="#000000" stroke-width="1" stroke-opacity="0"></use></g></g><g><use xlink:href="#cPzqJUajU" opacity="1" fill="#f2f6fa" fill-opacity="1"></use><g><use xlink:href="#cPzqJUajU" opacity="1" fill-opacity="0" stroke="#000000" stroke-width="1" stroke-opacity="0"></use></g></g><g><use xlink:href="#c6m6Xwade" opacity="1" fill="#f2f6fa" fill-opacity="1"></use><g><use xlink:href="#c6m6Xwade" opacity="1" fill-opacity="0" stroke="#000000" stroke-width="1" stroke-opacity="0"></use></g></g><g><use xlink:href="#haGfcJVNE" opacity="1" fill="#7b4c1a" fill-opacity="1"></use><g><use xlink:href="#haGfcJVNE" opacity="1" fill-opacity="0" stroke="#000000" stroke-width="1" stroke-opacity="0"></use></g></g><g><use xlink:href="#aEkGOIPeK" opacity="1" fill="#aa651b" fill-opacity="1"></use><g><use xlink:href="#aEkGOIPeK" opacity="1" fill-opacity="0" stroke="#000000" stroke-width="1" stroke-opacity="0"></use></g></g><g><use xlink:href="#a3nMsbtaTG" opacity="1" fill="#aa651b" fill-opacity="1"></use><g><use xlink:href="#a3nMsbtaTG" opacity="1" fill-opacity="0" stroke="#000000" stroke-width="1" stroke-opacity="0"></use></g></g><g><use xlink:href="#baJYbt2fS" opacity="1" fill="#aa651b" fill-opacity="1"></use><g><use xlink:href="#baJYbt2fS" opacity="1" fill-opacity="0" stroke="#000000" stroke-width="1" stroke-opacity="0"></use></g></g><g><use xlink:href="#abOJwzOd" opacity="1" fill="#aa651b" fill-opacity="1"></use><g><use xlink:href="#abOJwzOd" opacity="1" fill-opacity="0" stroke="#000000" stroke-width="1" stroke-opacity="0"></use></g></g><g><use xlink:href="#b1WnxPAZkT" opacity="1" fill="#aa651b" fill-opacity="1"></use><g><use xlink:href="#b1WnxPAZkT" opacity="1" fill-opacity="0" stroke="#000000" stroke-width="1" stroke-opacity="0"></use></g></g><g><use xlink:href="#b2V5XEog0" opacity="1" fill="#aa651b" fill-opacity="1"></use><g><use xlink:href="#b2V5XEog0" opacity="1" fill-opacity="0" stroke="#000000" stroke-width="1" stroke-opacity="0"></use></g></g><g><use xlink:href="#e4yZEqNQJZ" opacity="1" fill="#aa651b" fill-opacity="1"></use><g><use xlink:href="#e4yZEqNQJZ" opacity="1" fill-opacity="0" stroke="#000000" stroke-width="1" stroke-opacity="0"></use></g></g><g><use xlink:href="#a8VvuwUVvn" opacity="1" fill="#aa651b" fill-opacity="1"></use><g><use xlink:href="#a8VvuwUVvn" opacity="1" fill-opacity="0" stroke="#000000" stroke-width="1" stroke-opacity="0"></use></g></g><g><use xlink:href="#a1UeT0nKkd" opacity="1" fill="#d6ab7f" fill-opacity="1"></use><g><use xlink:href="#a1UeT0nKkd" opacity="1" fill-opacity="0" stroke="#000000" stroke-width="1" stroke-opacity="0"></use></g></g><g><use xlink:href="#a1GOoD4m76" opacity="1" fill="#ffffff" fill-opacity="1"></use><g><use xlink:href="#a1GOoD4m76" opacity="1" fill-opacity="0" stroke="#000000" stroke-width="1" stroke-opacity="0"></use></g></g><g><use xlink:href="#b2QtlTgY0t" opacity="1" fill="#62355c" fill-opacity="1"></use><g><use xlink:href="#b2QtlTgY0t" opacity="1" fill-opacity="0" stroke="#000000" stroke-width="1" stroke-opacity="0"></use></g></g><g><use xlink:href="#c5TjQtiBwx" opacity="1" fill="#ffffff" fill-opacity="1"></use><g><use xlink:href="#c5TjQtiBwx" opacity="1" fill-opacity="0" stroke="#000000" stroke-width="1" stroke-opacity="0"></use></g></g><g><use xlink:href="#c1bYX4uGjG" opacity="1" fill="#62355c" fill-opacity="1"></use><g><use xlink:href="#c1bYX4uGjG" opacity="1" fill-opacity="0" stroke="#000000" stroke-width="1" stroke-opacity="0"></use></g></g><g><use xlink:href="#g5uFLXzmif" opacity="1" fill="#62355c" fill-opacity="1"></use><g><use xlink:href="#g5uFLXzmif" opacity="1" fill-opacity="0" stroke="#000000" stroke-width="1" stroke-opacity="0"></use></g></g><g><use xlink:href="#b2J3t0kjyP" opacity="1" fill="#62355c" fill-opacity="1"></use><g><use xlink:href="#b2J3t0kjyP" opacity="1" fill-opacity="0" stroke="#000000" stroke-width="1" stroke-opacity="0"></use></g></g><g><use xlink:href="#a3KCV7ztMF" opacity="1" fill="#62355c" fill-opacity="1"></use><g><use xlink:href="#a3KCV7ztMF" opacity="1" fill-opacity="0" stroke="#000000" stroke-width="1" stroke-opacity="0"></use></g></g><g><use xlink:href="#d1KcJA9Aur" opacity="1" fill="#ebbaaa" fill-opacity="1"></use><g><use xlink:href="#d1KcJA9Aur" opacity="1" fill-opacity="0" stroke="#000000" stroke-width="1" stroke-opacity="0"></use></g></g><g><use xlink:href="#aQPO5PiqF" opacity="1" fill="#2d4973" fill-opacity="1"></use><g><use xlink:href="#aQPO5PiqF" opacity="1" fill-opacity="0" stroke="#000000" stroke-width="1" stroke-opacity="0"></use></g></g><g><use xlink:href="#bXdbuZ4A" opacity="1" fill="#62355c" fill-opacity="1"></use><g><use xlink:href="#bXdbuZ4A" opacity="1" fill-opacity="0" stroke="#000000" stroke-width="1" stroke-opacity="0"></use></g></g><g><use xlink:href="#a6W42ejkj" opacity="1" fill="#2d4973" fill-opacity="1"></use><g><use xlink:href="#a6W42ejkj" opacity="1" fill-opacity="0" stroke="#000000" stroke-width="1" stroke-opacity="0"></use></g></g><g><use xlink:href="#bjvVjZXcH" opacity="1" fill="#45689f" fill-opacity="1"></use><g><use xlink:href="#bjvVjZXcH" opacity="1" fill-opacity="0" stroke="#000000" stroke-width="1" stroke-opacity="0"></use></g></g><g><use xlink:href="#b3hbXrZnxI" opacity="1" fill="#45689f" fill-opacity="1"></use><g><use xlink:href="#b3hbXrZnxI" opacity="1" fill-opacity="0" stroke="#000000" stroke-width="1" stroke-opacity="0"></use></g></g></g></g></svg>