<svg id="SvgjsSvg1001" width="288" height="288" xmlns="http://www.w3.org/2000/svg" version="1.1" xmlns:xlink="http://www.w3.org/1999/xlink" xmlns:svgjs="http://svgjs.com/svgjs"><defs id="SvgjsDefs1002"></defs><g id="SvgjsG1008" transform="matrix(1,0,0,1,0,0)"><svg xmlns="http://www.w3.org/2000/svg" width="288" height="288" enable-background="new 0 0 24 24" viewBox="0 0 24 24"><path d="M10.485 22.371v-1.967l-.144-.128c-.169.11-.366.179-.582.19-.021 0-.044 0-.066 0-.227 0-.439-.063-.622-.172v1.981c-.714.249-1.23.923-1.23 1.725h3.65C11.491 23.286 11.081 22.667 10.485 22.371L10.485 22.371zM14.952 22.275v-1.985c-.18.113-.392.176-.619.176-.021 0-.048 0-.065 0-.217-.011-.414-.081-.582-.19l-.144.128v1.963c-.597.3-1.007.919-1.007 1.629h3.647C16.183 23.198 15.67 22.521 14.952 22.275L14.952 22.275zM9.071 16.792v1.438c.164-.099.355-.158.556-.168.327-.019.627.095.854.293l-.063-1.563L9.071 16.792zM13.718 16.79l-.063 1.563c.228-.198.527-.312.854-.293.2.011.392.069.556.168v-1.438L13.718 16.79zM10.888 4.716c0 .238-.194.432-.433.432-.242 0-.433-.194-.433-.432s.19-.432.433-.432C10.693 4.284 10.888 4.478 10.888 4.716L10.888 4.716zM14.004 4.716c0 .238-.194.432-.433.432-.237 0-.432-.194-.432-.432s.194-.432.432-.432C13.81 4.284 14.004 4.478 14.004 4.716L14.004 4.716zM14.004 4.716" fill="#66ccff" class="color000 svgShape"></path><path d="M13.85 9.052V8.101h1.212c0 0 1.26-5.409 0-5.409h-1.277c-.176-.238-.699-.425-1.362-.486L12.06 2.186c-.019 0-.033 0-.049 0-.014 0-.028 0-.043 0C11.848 1.798 11.4.638 10.4.352 10.309.146 10.104 0 9.861 0 9.532 0 9.27.267 9.27.594c0 .325.263.593.592.593.275 0 .507-.191.572-.447.677.282 1.032 1.095 1.168 1.468-.663.059-1.19.25-1.366.488H8.962c-1.261 0 0 5.405 0 5.405h1.211v.955H7.679l.093 1.414.388 5.892h.912 1.41 3.058 1.413.912l.384-5.892.096-1.414L13.85 9.052zM10.451 5.673C9.925 5.673 9.5 5.244 9.5 4.716c0-.527.425-.955.951-.955.531 0 .96.428.96.955C11.411 5.244 10.982 5.673 10.451 5.673zM13.136 7.152h-2.248V6.445h1.123 1.125V7.152zM12.616 4.716c0-.527.428-.955.955-.955s.956.428.956.955c0 .528-.429.957-.956.957S12.616 5.244 12.616 4.716zM19.768 16.867c.004-.022-.004-.044-.004-.066s.004-.044.004-.066c0-.352-.286-.641-.638-.637h-.103v-2.281c-.201.146-.442.23-.706.23-.022 0-.044 0-.066 0-.216-.011-.413-.081-.583-.19l-.058.051v2.19h-.088c-.355 0-.641.286-.641.641 0 .004 0 .007 0 .011-.008.04-.015.081-.015.121v.78c0 .286.23.516.517.516.281 0 .516-.23.516-.516v-.271l.839-.004v.275c0 .282.23.513.513.513.285 0 .517-.231.517-.513L19.768 16.867zM16.602 10.693c.301.264.667.734.866 1.303.234-.238.561-.376.919-.355l0 0c.172.008.337.055.487.132-.34-1.2-1.348-2.325-2.181-2.68L16.602 10.693z" fill="#66ccff" class="color000 svgShape"></path><path d="M19.768,16.867c0.004-0.022-0.004-0.044-0.004-0.066s0.004-0.044,0.004-0.066c0-0.352-0.286-0.641-0.638-0.637h-0.103
			v-2.281c-0.201,0.146-0.442,0.23-0.706,0.23c-0.022,0-0.044,0-0.066,0c-0.216-0.011-0.413-0.081-0.583-0.19l-0.058,0.051v2.19
			h-0.088c-0.355,0-0.641,0.286-0.641,0.641c0,0.004,0,0.007,0,0.011c-0.008,0.04-0.015,0.081-0.015,0.121v0.78
			c0,0.286,0.23,0.516,0.517,0.516c0.281,0,0.516-0.23,0.516-0.516v-0.271l0.839-0.004v0.275c0,0.282,0.23,0.513,0.513,0.513
			c0.285,0,0.517-0.231,0.517-0.513L19.768,16.867z M19.768,16.867" fill="#66ccff" class="color000 svgShape"></path><circle cx="18.321" cy="12.791" r=".776" fill="#66ccff" class="color000 svgShape"></circle><g fill="#66ccff" class="color000 svgShape"><path d="M7.307 9.093c-.833.355-1.841 1.48-2.181 2.68.15-.077.315-.125.487-.132l0 0c.358-.021.685.117.919.355.199-.569.565-1.039.866-1.303L7.307 9.093zM4.229 17.65c0 .282.231.513.517.513.282 0 .513-.231.513-.513v-.275l.839.004v.271c0 .286.234.516.516.516.286 0 .517-.23.517-.516v-.78c0-.04-.007-.081-.015-.121 0-.004 0-.007 0-.011 0-.355-.285-.641-.641-.641H6.386v-2.19l-.058-.051c-.17.11-.367.18-.583.19-.022 0-.044 0-.066 0-.264 0-.505-.084-.706-.23v2.281H4.87c-.352-.004-.638.286-.638.637 0 .022.004.044.004.066s-.008.044-.004.066L4.229 17.65zM4.232 16.867" fill="#66ccff" class="color000 svgShape"></path><circle cx="5.679" cy="12.791" r=".776" fill="#66ccff" class="color000 svgShape"></circle></g><circle cx="9.666" cy="19.26" r=".776" fill="#66ccff" class="color000 svgShape"></circle><circle cx="14.359" cy="19.26" r=".776" fill="#66ccff" class="color000 svgShape"></circle></svg></g></svg>