<?xml version="1.0" encoding="UTF-8" standalone="no"?>
<!DOCTYPE svg PUBLIC "-//W3C//DTD SVG 1.1//EN" "http://www.w3.org/Graphics/SVG/1.1/DTD/svg11.dtd">
<svg version="1.1" xmlns="http://www.w3.org/2000/svg" xmlns:xlink="http://www.w3.org/1999/xlink" preserveAspectRatio="xMidYMid meet" viewBox="-1 68.35374999999993 644 479.69249999999994" width="640" height="475.69"><defs><path d="M9.97 209.44C9.97 206.19 12.6 203.56 15.85 203.56C32.52 203.56 165.94 203.56 182.62 203.56C185.86 203.56 188.49 206.19 188.49 209.44C188.49 216.81 188.49 275.84 188.49 283.22C188.49 286.46 185.86 289.1 182.62 289.1C165.94 289.1 32.52 289.1 15.85 289.1C12.6 289.1 9.97 286.46 9.97 283.22C9.97 282.53 9.97 279.07 9.97 272.84L9.97 239.27C9.97 221.37 9.97 211.43 9.97 209.44Z" id="a1ApycpQdi"></path><path d="M156.36 226.16C156.36 226.16 156.36 226.16 156.36 226.16C156.36 250.37 156.36 263.82 156.36 266.5C156.36 266.5 156.36 266.5 156.36 266.5C82.08 266.5 40.82 266.5 32.57 266.5C32.57 266.5 32.57 266.5 32.57 266.5C32.57 242.3 32.57 228.85 32.57 226.16C32.57 226.16 32.57 226.16 32.57 226.16C106.84 226.16 148.11 226.16 156.36 226.16Z" id="d55gYDPQY1"></path><path d="M150.48 203.56C153.73 203.56 156.36 206.19 156.36 209.43C156.36 216.81 156.36 275.84 156.36 283.22C156.36 286.46 153.72 289.09 150.48 289.09C153.69 289.09 179.4 289.09 182.62 289.09C185.86 289.09 188.49 286.46 188.49 283.22C188.49 275.84 188.49 216.81 188.49 209.43C188.49 206.19 185.86 203.56 182.62 203.56C176.19 203.56 153.69 203.56 150.48 203.56Z" id="d1rBRwyfFA"></path><path d="M236.62 289.1C233.37 289.1 230.74 286.46 230.74 283.22C230.74 275.84 230.74 216.82 230.74 209.44C230.74 206.19 233.37 203.56 236.62 203.56C253.29 203.56 386.71 203.56 403.38 203.56C406.63 203.56 409.26 206.19 409.26 209.44C409.26 216.82 409.26 275.84 409.26 283.22C409.26 286.46 406.63 289.1 403.38 289.1C370.03 289.1 253.29 289.1 236.62 289.1Z" id="b3CWsu1B5X"></path><path d="M377.22 226.16C377.21 226.16 377.21 226.16 377.22 226.16C377.21 250.37 377.21 263.82 377.22 266.5C377.21 266.5 377.21 266.5 377.22 266.5C302.88 266.5 261.59 266.5 253.33 266.5C253.33 266.5 253.33 266.5 253.33 266.5C253.33 242.3 253.33 228.85 253.33 226.16C253.33 226.16 253.33 226.16 253.33 226.16C327.66 226.16 368.96 226.16 377.22 226.16Z" id="fiC7z8dKS"></path><path d="M371.26 203.56C374.5 203.56 377.13 206.19 377.13 209.43C377.13 216.81 377.13 275.84 377.13 283.22C377.13 286.46 374.5 289.09 371.26 289.09C374.47 289.09 400.17 289.09 403.38 289.09C406.63 289.09 409.26 286.46 409.26 283.22C409.26 275.84 409.26 216.81 409.26 209.43C409.26 206.19 406.63 203.56 403.38 203.56C396.96 203.56 374.47 203.56 371.26 203.56Z" id="a5XsXInvX6"></path><path d="M457.39 289.1C454.14 289.1 451.51 286.46 451.51 283.22C451.51 275.84 451.51 216.82 451.51 209.44C451.51 206.19 454.14 203.56 457.39 203.56C474.06 203.56 607.48 203.56 624.15 203.56C627.4 203.56 630.03 206.19 630.03 209.44C630.03 216.82 630.03 275.84 630.03 283.22C630.03 286.46 627.4 289.1 624.15 289.1C590.8 289.1 474.06 289.1 457.39 289.1Z" id="h4Bo4UnZc1"></path><path d="M597.69 226.16C597.69 226.16 597.69 226.16 597.69 226.16C597.69 250.37 597.69 263.82 597.69 266.5C597.69 266.5 597.69 266.5 597.69 266.5C523.54 266.5 482.34 266.5 474.11 266.5C474.11 266.5 474.11 266.5 474.11 266.5C474.11 242.3 474.11 228.85 474.11 226.16C474.11 226.16 474.11 226.16 474.11 226.16C548.25 226.16 589.45 226.16 597.69 226.16Z" id="bew7oLLvy"></path><path d="M15.85 535.08C12.6 535.08 9.97 532.44 9.97 529.2C9.97 521.82 9.97 462.79 9.97 455.42C9.97 452.17 12.6 449.54 15.85 449.54C32.52 449.54 165.94 449.54 182.62 449.54C185.86 449.54 188.49 452.17 188.49 455.42C188.49 462.79 188.49 521.82 188.49 529.2C188.49 532.45 185.86 535.08 182.62 535.08C149.26 535.08 32.52 535.08 15.85 535.08Z" id="c1q4dDWQYo"></path><path d="M156.37 472.14C156.37 472.14 156.37 472.14 156.37 472.14C156.37 496.35 156.37 509.79 156.37 512.48C156.37 512.48 156.37 512.48 156.37 512.48C82.09 512.48 40.82 512.48 32.57 512.48C32.57 512.48 32.57 512.48 32.57 512.48C32.57 488.28 32.57 474.83 32.57 472.14C32.57 472.14 32.57 472.14 32.57 472.14C106.85 472.14 148.12 472.14 156.37 472.14Z" id="h5A2WKF1G6"></path><path d="M236.62 535.08C233.37 535.08 230.74 532.44 230.74 529.2C230.74 521.82 230.74 462.79 230.74 455.42C230.74 452.17 233.37 449.54 236.62 449.54C253.29 449.54 386.71 449.54 403.38 449.54C406.63 449.54 409.26 452.17 409.26 455.42C409.26 462.79 409.26 521.82 409.26 529.2C409.26 532.45 406.63 535.08 403.38 535.08C370.03 535.08 253.29 535.08 236.62 535.08Z" id="a1tlgghjkK"></path><path d="M376.88 472.14C376.88 472.14 376.88 472.14 376.88 472.14C376.88 496.35 376.88 509.79 376.88 512.48C376.88 512.48 376.88 512.48 376.88 512.48C302.75 512.48 261.57 512.48 253.33 512.48C253.33 512.48 253.33 512.48 253.33 512.48C253.33 488.28 253.33 474.83 253.33 472.14C253.33 472.14 253.33 472.14 253.33 472.14C327.46 472.14 368.65 472.14 376.88 472.14Z" id="e1SoJupky5"></path><path d="M457.39 535.08C454.14 535.08 451.51 532.44 451.51 529.2C451.51 521.82 451.51 462.79 451.51 455.42C451.51 452.17 454.14 449.54 457.39 449.54C474.06 449.54 607.48 449.54 624.15 449.54C627.4 449.54 630.03 452.17 630.03 455.42C630.03 462.79 630.03 521.82 630.03 529.2C630.03 532.45 627.4 535.08 624.15 535.08C590.8 535.08 474.06 535.08 457.39 535.08Z" id="a1wxBVgxbn"></path><path d="M597.77 472.14C597.77 472.14 597.77 472.14 597.77 472.14C597.77 496.35 597.77 509.79 597.77 512.48C597.77 512.48 597.77 512.48 597.77 512.48C523.57 512.48 482.35 512.48 474.11 512.48C474.11 512.48 474.11 512.48 474.11 512.48C474.11 488.28 474.11 474.83 474.11 472.14C474.11 472.14 474.11 472.14 474.11 472.14C548.3 472.14 589.52 472.14 597.77 472.14Z" id="a1QVuGjpc"></path><path d="M134.23 164.86C130.99 164.86 128.35 162.23 128.35 158.98C128.35 151.61 128.35 92.58 128.35 85.2C128.35 81.95 130.99 79.32 134.23 79.32C150.91 79.32 284.32 79.32 301 79.32C304.25 79.32 306.88 81.96 306.88 85.2C306.88 92.58 306.88 151.61 306.88 158.98C306.88 162.23 304.25 164.86 301 164.86C267.65 164.86 150.91 164.86 134.23 164.86Z" id="ef3yRsBgx"></path><path d="M274.9 101.91C274.9 101.91 274.9 101.91 274.9 101.91C274.9 126.12 274.9 139.57 274.9 142.26C274.9 142.26 274.9 142.26 274.9 142.26C200.53 142.26 159.21 142.26 150.95 142.26C150.95 142.26 150.95 142.26 150.95 142.26C150.95 118.05 150.95 104.6 150.95 101.91C150.95 101.91 150.95 101.91 150.95 101.91C225.32 101.91 266.64 101.91 274.9 101.91Z" id="g4iw5SQuBr"></path><path d="M268.86 79.32C272.11 79.32 274.74 81.96 274.74 85.2C274.74 92.58 274.74 151.61 274.74 158.98C274.74 162.23 272.11 164.86 268.86 164.86C272.08 164.86 297.79 164.86 301 164.86C304.25 164.86 306.88 162.23 306.88 158.98C306.88 151.61 306.88 92.58 306.88 85.2C306.88 81.95 304.25 79.32 301 79.32C294.57 79.32 272.08 79.32 268.86 79.32Z" id="a6Djith5me"></path><path d="M521.77 79.32C525.01 79.32 527.65 81.96 527.65 85.2C527.65 92.58 527.65 151.61 527.65 158.98C527.65 162.23 525.01 164.86 521.77 164.86C505.09 164.86 371.68 164.86 355 164.86C351.75 164.86 349.12 162.23 349.12 158.98C349.12 151.61 349.12 92.58 349.12 85.2C349.12 81.95 351.76 79.32 355 79.32C358.62 79.32 376.7 79.32 409.26 79.32L442.66 79.32C490.12 79.32 516.49 79.32 521.77 79.32Z" id="f2tVXBZ28L"></path><path d="M495.52 101.91C495.52 101.91 495.52 101.91 495.52 101.91C495.52 126.12 495.52 139.57 495.52 142.26C495.52 142.26 495.52 142.26 495.52 142.26C421.24 142.26 379.98 142.26 371.73 142.26C371.73 142.26 371.73 142.26 371.73 142.26C371.73 118.05 371.73 104.6 371.73 101.91C371.73 101.91 371.73 101.91 371.73 101.91C446 101.91 487.27 101.91 495.52 101.91Z" id="k2bap77Xmm"></path><path d="M134.23 413.33C130.99 413.33 128.35 410.7 128.35 407.45C128.35 400.08 128.35 341.05 128.35 333.67C128.35 330.42 130.99 327.79 134.23 327.79C150.91 327.79 284.32 327.79 301 327.79C304.25 327.79 306.88 330.43 306.88 333.67C306.88 341.05 306.88 400.08 306.88 407.45C306.88 410.7 304.25 413.33 301 413.33C267.65 413.33 150.91 413.33 134.23 413.33Z" id="aQgtUucta"></path><path d="M274.8 350.39C274.8 350.39 274.8 350.39 274.8 350.39C274.8 374.6 274.8 388.05 274.8 390.74C274.8 390.74 274.8 390.74 274.8 390.74C200.49 390.74 159.21 390.74 150.95 390.74C150.95 390.74 150.95 390.74 150.95 390.74C150.95 366.53 150.95 353.08 150.95 350.39C150.95 350.39 150.95 350.39 150.95 350.39C225.26 350.39 266.54 350.39 274.8 350.39Z" id="a2UnE8IVGz"></path><path d="M355 413.33C351.75 413.33 349.12 410.7 349.12 407.45C349.12 400.08 349.12 341.05 349.12 333.67C349.12 330.42 351.76 327.79 355 327.79C371.68 327.79 505.09 327.79 521.77 327.79C525.01 327.79 527.65 330.43 527.65 333.67C527.65 341.05 527.65 400.08 527.65 407.45C527.65 410.7 525.01 413.33 521.77 413.33C488.42 413.33 371.68 413.33 355 413.33Z" id="b20WtsI8C"></path><path d="M495.55 350.39C495.55 350.39 495.55 350.39 495.55 350.39C495.55 374.6 495.55 388.05 495.55 390.74C495.55 390.74 495.55 390.74 495.55 390.74C421.25 390.74 379.98 390.74 371.73 390.74C371.73 390.74 371.73 390.74 371.73 390.74C371.73 366.53 371.73 353.08 371.73 350.39C371.73 350.39 371.73 350.39 371.73 350.39C446.02 350.39 487.29 350.39 495.55 350.39Z" id="aUhm2FhLa"></path><path d="M575.77 79.32C572.52 79.32 569.89 81.96 569.89 85.2C569.89 92.58 569.89 151.61 569.89 158.98C569.89 162.23 572.52 164.86 575.77 164.86C580.61 164.86 619.31 164.86 624.15 164.86C627.4 164.86 630.03 162.23 630.03 158.98C630.03 151.61 630.03 92.58 630.03 85.2C630.03 81.95 627.4 79.32 624.15 79.32C614.48 79.32 580.61 79.32 575.77 79.32Z" id="e440PUbLzk"></path><path d="M597.9 101.91C597.9 101.91 597.9 101.91 597.9 101.91C597.9 126.12 597.9 139.57 597.9 142.26C597.9 142.26 597.9 142.26 597.9 142.26C594.65 142.26 592.85 142.26 592.49 142.26C592.49 142.26 592.49 142.26 592.49 142.26C592.49 118.05 592.49 104.6 592.49 101.91C592.49 101.91 592.49 101.91 592.49 101.91C595.73 101.91 597.53 101.91 597.9 101.91Z" id="b3oEDipMX"></path><path d="M575.77 327.79C572.52 327.79 569.89 330.42 569.89 333.67C569.89 341.05 569.89 400.07 569.89 407.45C569.89 410.7 572.52 413.33 575.77 413.33C580.61 413.33 619.31 413.33 624.15 413.33C627.4 413.33 630.03 410.7 630.03 407.45C630.03 400.07 630.03 341.05 630.03 333.67C630.03 330.42 627.4 327.79 624.15 327.79C614.48 327.79 580.61 327.79 575.77 327.79Z" id="bfKyiME3J"></path><path d="M597.9 350.39C597.9 350.39 597.9 350.39 597.9 350.39C597.9 374.6 597.9 388.05 597.9 390.74C597.9 390.74 597.9 390.74 597.9 390.74C594.65 390.74 592.85 390.74 592.49 390.74C592.49 390.74 592.49 390.74 592.49 390.74C592.49 366.53 592.49 353.08 592.49 350.39C592.49 350.39 592.49 350.39 592.49 350.39C595.73 350.39 597.53 350.39 597.9 350.39Z" id="a3kO6c9Py"></path><path d="M9.97 158.98C9.97 162.23 12.6 164.86 15.85 164.86C22.29 164.86 73.79 164.86 80.23 164.86C83.48 164.86 86.11 162.23 86.11 158.98C86.11 151.61 86.11 92.58 86.11 85.2C86.11 81.95 83.48 79.32 80.23 79.32C73.79 79.32 22.29 79.32 15.85 79.32C12.6 79.32 9.97 81.95 9.97 85.2C9.97 99.96 9.97 151.61 9.97 158.98Z" id="b3JmiUHOrL"></path><path d="M53.91 101.91C53.91 101.91 53.91 101.91 53.91 101.91C53.91 126.12 53.91 139.57 53.91 142.26C53.91 142.26 53.91 142.26 53.91 142.26C41.11 142.26 33.99 142.26 32.57 142.26C32.57 142.26 32.57 142.26 32.57 142.26C32.57 118.05 32.57 104.6 32.57 101.91C32.57 101.91 32.57 101.91 32.57 101.91C45.37 101.91 52.49 101.91 53.91 101.91Z" id="a2wpd1qNP"></path><path d="M9.97 407.45C9.97 410.7 12.6 413.33 15.85 413.33C22.29 413.33 73.79 413.33 80.23 413.33C83.48 413.33 86.11 410.7 86.11 407.45C86.11 400.08 86.11 341.05 86.11 333.67C86.11 330.42 83.48 327.79 80.23 327.79C73.79 327.79 22.29 327.79 15.85 327.79C12.6 327.79 9.97 330.42 9.97 333.67C9.97 348.43 9.97 400.08 9.97 407.45Z" id="bIUrGdP10"></path><path d="M53.91 350.39C53.91 350.39 53.91 350.39 53.91 350.39C53.91 374.6 53.91 388.05 53.91 390.74C53.91 390.74 53.91 390.74 53.91 390.74C41.11 390.74 33.99 390.74 32.57 390.74C32.57 390.74 32.57 390.74 32.57 390.74C32.57 366.53 32.57 353.08 32.57 350.39C32.57 350.39 32.57 350.39 32.57 350.39C45.37 350.39 52.49 350.39 53.91 350.39Z" id="eikztnoBl"></path><path d="M268.86 327.79C272.11 327.79 274.74 330.42 274.74 333.67C274.74 341.05 274.74 400.07 274.74 407.45C274.74 410.7 272.11 413.33 268.86 413.33C272.08 413.33 297.79 413.33 301 413.33C304.25 413.33 306.88 410.7 306.88 407.45C306.88 400.07 306.88 341.05 306.88 333.67C306.88 330.42 304.25 327.79 301 327.79C294.57 327.79 272.08 327.79 268.86 327.79Z" id="b9GH2r4j"></path><path d="M48.04 79.32C51.29 79.32 53.92 81.96 53.92 85.2C53.92 92.58 53.92 151.61 53.92 158.98C53.92 162.23 51.28 164.86 48.04 164.86C51.25 164.86 76.96 164.86 80.18 164.86C83.42 164.86 86.05 162.23 86.05 158.98C86.05 151.61 86.05 92.58 86.05 85.2C86.05 81.95 83.42 79.32 80.18 79.32C73.75 79.32 51.25 79.32 48.04 79.32Z" id="a2EwcL05aD"></path><path d="M48.04 327.79C51.29 327.79 53.92 330.42 53.92 333.67C53.92 341.05 53.92 400.07 53.92 407.45C53.92 410.7 51.28 413.33 48.04 413.33C51.25 413.33 76.96 413.33 80.18 413.33C83.42 413.33 86.05 410.7 86.05 407.45C86.05 400.07 86.05 341.05 86.05 333.67C86.05 330.42 83.42 327.79 80.18 327.79C73.75 327.79 51.25 327.79 48.04 327.79Z" id="e1MKAt8J0C"></path><path d="M489.63 327.79C492.88 327.79 495.51 330.42 495.51 333.67C495.51 341.05 495.51 400.07 495.51 407.45C495.51 410.7 492.88 413.33 489.63 413.33C492.85 413.33 518.56 413.33 521.77 413.33C525.02 413.33 527.65 410.7 527.65 407.45C527.65 400.07 527.65 341.05 527.65 333.67C527.65 330.42 525.01 327.79 521.77 327.79C515.34 327.79 492.85 327.79 489.63 327.79Z" id="a5yMZMzOtB"></path><path d="M592.02 203.56C595.26 203.56 597.89 206.19 597.89 209.43C597.89 216.81 597.89 275.84 597.89 283.22C597.89 286.46 595.26 289.09 592.02 289.09C595.23 289.09 620.94 289.09 624.15 289.09C627.4 289.09 630.03 286.46 630.03 283.22C630.03 275.84 630.03 216.81 630.03 209.43C630.03 206.19 627.4 203.56 624.15 203.56C617.73 203.56 595.23 203.56 592.02 203.56Z" id="a1Bo4XjavL"></path><path d="M592.02 79.32C595.26 79.32 597.89 81.96 597.89 85.2C597.89 92.58 597.89 151.61 597.89 158.98C597.89 162.23 595.26 164.86 592.02 164.86C595.23 164.86 620.94 164.86 624.15 164.86C627.4 164.86 630.03 162.23 630.03 158.98C630.03 151.61 630.03 92.58 630.03 85.2C630.03 81.95 627.4 79.32 624.15 79.32C617.73 79.32 595.23 79.32 592.02 79.32Z" id="c4pMVQsOu"></path><path d="M489.64 79.32C492.88 79.32 495.51 81.96 495.51 85.2C495.51 92.58 495.51 151.61 495.51 158.98C495.51 162.23 492.88 164.86 489.64 164.86C492.85 164.86 518.55 164.86 521.77 164.86C525.01 164.86 527.64 162.23 527.64 158.98C527.64 151.61 527.64 92.58 527.64 85.2C527.64 81.95 525.01 79.32 521.77 79.32C515.34 79.32 492.85 79.32 489.64 79.32Z" id="b252d04lsf"></path><path d="M150.48 449.54C153.73 449.54 156.36 452.17 156.36 455.42C156.36 462.79 156.36 521.82 156.36 529.2C156.36 532.45 153.72 535.08 150.48 535.08C153.69 535.08 179.4 535.08 182.62 535.08C185.86 535.08 188.49 532.44 188.49 529.2C188.49 521.82 188.49 462.8 188.49 455.42C188.49 452.17 185.86 449.54 182.62 449.54C176.19 449.54 153.69 449.54 150.48 449.54Z" id="azXWBMlK6"></path><path d="M371.25 449.54C374.5 449.54 377.13 452.17 377.13 455.42C377.13 462.79 377.13 521.82 377.13 529.2C377.13 532.45 374.5 535.08 371.25 535.08C374.46 535.08 400.17 535.08 403.39 535.08C406.63 535.08 409.27 532.44 409.27 529.2C409.27 521.82 409.27 462.8 409.27 455.42C409.27 452.17 406.63 449.54 403.39 449.54C396.96 449.54 374.46 449.54 371.25 449.54Z" id="b56xQJbaKN"></path><path d="M592.02 449.54C595.26 449.54 597.89 452.17 597.89 455.42C597.89 462.79 597.89 521.82 597.89 529.2C597.89 532.45 595.26 535.08 592.02 535.08C595.23 535.08 620.94 535.08 624.15 535.08C627.4 535.08 630.03 532.44 630.03 529.2C630.03 521.82 630.03 462.8 630.03 455.42C630.03 452.17 627.4 449.54 624.15 449.54C617.73 449.54 595.23 449.54 592.02 449.54Z" id="a3lPo7WlW2"></path><path d="M592.02 327.79C595.26 327.79 597.89 330.42 597.89 333.67C597.89 341.05 597.89 400.07 597.89 407.45C597.89 410.7 595.26 413.33 592.02 413.33C595.23 413.33 620.94 413.33 624.15 413.33C627.4 413.33 630.03 410.7 630.03 407.45C630.03 400.07 630.03 341.05 630.03 333.67C630.03 330.42 627.4 327.79 624.15 327.79C617.73 327.79 595.23 327.79 592.02 327.79Z" id="a10Rcbp4Bd"></path><path d="M182.61 299.07C191.35 299.07 198.46 291.96 198.46 283.22C198.46 275.84 198.46 216.82 198.46 209.44C198.46 200.7 191.35 193.59 182.61 193.59C165.94 193.59 32.52 193.59 15.85 193.59C7.11 193.59 0 200.7 0 209.44C0 216.81 0 275.84 0 283.22C0 291.96 7.11 299.07 15.85 299.07C49.2 299.07 165.94 299.07 182.61 299.07ZM178.52 213.53L178.52 279.13L19.94 279.13L19.94 213.53L178.52 213.53Z" id="a51zGr39W"></path><path d="M236.62 193.59C227.88 193.59 220.77 200.7 220.77 209.44C220.77 216.81 220.77 275.84 220.77 283.22C220.77 291.96 227.88 299.06 236.62 299.06C253.29 299.06 386.71 299.06 403.38 299.06C412.12 299.06 419.23 291.96 419.23 283.22C419.23 275.84 419.23 216.81 419.23 209.44C419.23 200.7 412.12 193.59 403.38 193.59C370.03 193.59 253.29 193.59 236.62 193.59ZM240.71 279.13L240.71 213.53L399.29 213.53L399.29 279.13L240.71 279.13Z" id="a3gie8xYd1"></path><path d="M457.39 193.59C448.65 193.59 441.54 200.7 441.54 209.44C441.54 216.81 441.54 275.84 441.54 283.22C441.54 291.96 448.65 299.06 457.39 299.06C474.06 299.06 607.48 299.06 624.15 299.06C632.89 299.06 640 291.96 640 283.22C640 275.84 640 216.81 640 209.44C640 200.7 632.89 193.59 624.15 193.59C590.8 193.59 474.06 193.59 457.39 193.59ZM461.48 279.13L461.48 213.53L620.06 213.53L620.06 279.13L620.06 279.13L461.48 279.13Z" id="a9OzjKfO8"></path><path d="M15.85 439.57C7.11 439.57 0 446.68 0 455.42C0 457.3 0 472.36 0 474.24C0 479.75 4.46 484.21 9.97 484.21C15.48 484.21 19.94 479.75 19.94 474.24C19.94 473.26 19.94 468.35 19.94 459.51L178.52 459.51L178.52 525.11L19.94 525.11C19.94 516.79 19.94 512.16 19.94 511.24C19.94 505.73 15.48 501.27 9.97 501.27C4.46 501.27 0 505.73 0 511.24C0 513.03 0 527.4 0 529.2C0 537.94 7.11 545.05 15.85 545.05C32.52 545.05 165.94 545.05 182.61 545.05C191.35 545.05 198.46 537.94 198.46 529.2C198.46 521.82 198.46 462.79 198.46 455.42C198.46 446.68 191.35 439.57 182.61 439.57C149.26 439.57 32.52 439.57 15.85 439.57Z" id="b37HTAipls"></path><path d="M236.62 439.57C227.88 439.57 220.77 446.68 220.77 455.42C220.77 462.79 220.77 521.82 220.77 529.2C220.77 537.94 227.88 545.05 236.62 545.05C253.29 545.05 386.71 545.05 403.38 545.05C412.12 545.05 419.23 537.94 419.23 529.2C419.23 521.82 419.23 462.79 419.23 455.42C419.23 446.68 412.12 439.57 403.38 439.57C370.03 439.57 253.29 439.57 236.62 439.57ZM240.71 525.11L240.71 459.51L399.29 459.51L399.29 525.11L240.71 525.11Z" id="b23asJhxHd"></path><path d="M457.39 439.57C448.65 439.57 441.54 446.68 441.54 455.42C441.54 462.79 441.54 521.82 441.54 529.2C441.54 537.94 448.65 545.05 457.39 545.05C474.06 545.05 607.48 545.05 624.15 545.05C632.89 545.05 640 537.94 640 529.2C640 521.82 640 462.79 640 455.42C640 446.68 632.89 439.57 624.15 439.57C590.8 439.57 474.06 439.57 457.39 439.57ZM461.48 525.11L461.48 459.51L620.06 459.51L620.06 525.11L620.06 525.11L461.48 525.11Z" id="b3Nz2ktAHg"></path><path d="M301 174.83C309.74 174.83 316.85 167.72 316.85 158.98C316.85 151.61 316.85 92.58 316.85 85.2C316.85 76.46 309.74 69.35 301 69.35C284.32 69.35 150.91 69.35 134.23 69.35C125.49 69.35 118.39 76.46 118.39 85.2C118.39 92.58 118.39 151.61 118.39 158.98C118.39 167.72 125.49 174.83 134.23 174.83C167.59 174.83 284.32 174.83 301 174.83ZM296.91 89.29L296.91 154.89L138.32 154.89L138.32 89.29L296.91 89.29Z" id="c4dp5tjCaU"></path><path d="M521.77 174.83C530.51 174.83 537.62 167.72 537.62 158.98C537.62 151.61 537.62 92.58 537.62 85.2C537.62 76.46 530.51 69.35 521.77 69.35C518.56 69.35 492.85 69.35 489.64 69.35C484.13 69.35 479.67 73.82 479.67 79.32C479.67 84.83 484.13 89.29 489.64 89.29C491.51 89.29 500.85 89.29 517.68 89.29L517.68 154.89L359.09 154.89L359.09 89.29C414.3 89.29 444.97 89.29 451.1 89.29C456.61 89.29 461.07 84.83 461.07 79.32C461.07 73.82 456.61 69.35 451.1 69.35C441.49 69.35 364.61 69.35 355 69.35C346.26 69.35 339.15 76.46 339.15 85.2C339.15 92.58 339.15 151.61 339.15 158.98C339.15 167.72 346.26 174.83 355 174.83C388.35 174.83 505.09 174.83 521.77 174.83Z" id="aqR99DdcM"></path><path d="M118.39 333.67C118.39 341.05 118.39 400.08 118.39 407.45C118.39 416.19 125.49 423.3 134.23 423.3C150.91 423.3 284.32 423.3 301 423.3C309.74 423.3 316.85 416.19 316.85 407.45C316.85 400.08 316.85 341.05 316.85 333.67C316.85 324.93 309.74 317.82 301 317.82C289.88 317.82 234.29 317.82 134.23 317.82C123.67 322.56 118.38 327.85 118.39 333.67ZM138.32 403.36L138.32 337.76L296.91 337.76L296.91 403.36L138.32 403.36Z" id="acpwWQMh5"></path><path d="M339.15 407.45C339.15 416.19 346.26 423.3 355 423.3C371.68 423.3 505.09 423.3 521.77 423.3C530.51 423.3 537.62 416.19 537.62 407.45C537.62 400.08 537.62 341.05 537.62 333.67C537.62 324.93 530.51 317.82 521.77 317.82C505.09 317.82 371.68 317.82 355 317.82C346.26 317.82 339.15 324.93 339.15 333.67C339.15 348.43 339.15 400.08 339.15 407.45ZM517.68 337.76L517.68 403.36L359.09 403.36L359.09 337.76L517.68 337.76Z" id="c3NWqX8t1"></path><path d="M575.77 69.35C567.03 69.35 559.92 76.46 559.92 85.2C559.92 92.58 559.92 151.61 559.92 158.98C559.92 167.72 567.03 174.83 575.77 174.83C580.61 174.83 619.31 174.83 624.15 174.83C632.89 174.83 640 167.72 640 158.98C640 151.61 640 92.58 640 85.2C640 76.46 632.89 69.35 624.15 69.35C614.48 69.35 580.61 69.35 575.77 69.35ZM579.86 154.89L579.86 89.29L620.06 89.29L620.06 154.89L620.06 154.89L579.86 154.89Z" id="bbjmTt7r0"></path><path d="M575.77 317.82C567.03 317.82 559.92 324.93 559.92 333.67C559.92 341.05 559.92 400.08 559.92 407.45C559.92 416.19 567.03 423.3 575.77 423.3C580.61 423.3 619.31 423.3 624.15 423.3C632.89 423.3 640 416.19 640 407.45C640 400.08 640 341.05 640 333.67C640 324.93 632.89 317.82 624.15 317.82C614.48 317.82 580.61 317.82 575.77 317.82ZM579.86 403.36L579.86 337.76L620.06 337.76L620.06 403.36L620.06 403.36L579.86 403.36Z" id="c6Plwc43h"></path><path d="M80.23 174.83C88.97 174.83 96.08 167.72 96.08 158.98C96.08 151.61 96.08 92.58 96.08 85.2C96.08 76.46 88.97 69.35 80.23 69.35C73.79 69.35 22.29 69.35 15.85 69.35C7.11 69.35 0 76.46 0 85.2C0 92.58 0 151.61 0 158.98C0 167.72 7.11 174.83 15.85 174.83C28.72 174.83 73.79 174.83 80.23 174.83ZM76.14 89.29L76.14 154.89L19.94 154.89L19.94 89.29L76.14 89.29Z" id="f7nESSYgK"></path><path d="M80.23 423.3C88.97 423.3 96.08 416.19 96.08 407.45C96.08 400.08 96.08 341.05 96.08 333.67C96.08 324.93 88.97 317.82 80.23 317.82C73.79 317.82 22.29 317.82 15.85 317.82C7.11 317.82 0 324.93 0 333.67C0 341.05 0 400.08 0 407.45C0 416.19 7.11 423.3 15.85 423.3C28.72 423.3 73.79 423.3 80.23 423.3ZM76.14 337.76L76.14 403.36L19.94 403.36L19.94 337.76L76.14 337.76Z" id="a1GTsf3HBy"></path></defs><g><g><use xlink:href="#a1ApycpQdi" opacity="1" fill="#e60120" fill-opacity="1"></use><g><use xlink:href="#a1ApycpQdi" opacity="1" fill-opacity="0" stroke="#000000" stroke-width="1" stroke-opacity="0"></use></g></g><g><use xlink:href="#d55gYDPQY1" opacity="1" fill="#fb0125" fill-opacity="1"></use><g><use xlink:href="#d55gYDPQY1" opacity="1" fill-opacity="0" stroke="#000000" stroke-width="1" stroke-opacity="0"></use></g></g><g><use xlink:href="#d1rBRwyfFA" opacity="1" fill="#cc111e" fill-opacity="1"></use><g><use xlink:href="#d1rBRwyfFA" opacity="1" fill-opacity="0" stroke="#000000" stroke-width="1" stroke-opacity="0"></use></g></g><g><use xlink:href="#b3CWsu1B5X" opacity="1" fill="#e60120" fill-opacity="1"></use><g><use xlink:href="#b3CWsu1B5X" opacity="1" fill-opacity="0" stroke="#000000" stroke-width="1" stroke-opacity="0"></use></g></g><g><use xlink:href="#fiC7z8dKS" opacity="1" fill="#fb0125" fill-opacity="1"></use><g><use xlink:href="#fiC7z8dKS" opacity="1" fill-opacity="0" stroke="#000000" stroke-width="1" stroke-opacity="0"></use></g></g><g><use xlink:href="#a5XsXInvX6" opacity="1" fill="#cc111e" fill-opacity="1"></use><g><use xlink:href="#a5XsXInvX6" opacity="1" fill-opacity="0" stroke="#000000" stroke-width="1" stroke-opacity="0"></use></g></g><g><use xlink:href="#h4Bo4UnZc1" opacity="1" fill="#e60120" fill-opacity="1"></use><g><use xlink:href="#h4Bo4UnZc1" opacity="1" fill-opacity="0" stroke="#000000" stroke-width="1" stroke-opacity="0"></use></g></g><g><use xlink:href="#bew7oLLvy" opacity="1" fill="#fb0125" fill-opacity="1"></use><g><use xlink:href="#bew7oLLvy" opacity="1" fill-opacity="0" stroke="#000000" stroke-width="1" stroke-opacity="0"></use></g></g><g><use xlink:href="#c1q4dDWQYo" opacity="1" fill="#e60120" fill-opacity="1"></use><g><use xlink:href="#c1q4dDWQYo" opacity="1" fill-opacity="0" stroke="#000000" stroke-width="1" stroke-opacity="0"></use></g></g><g><use xlink:href="#h5A2WKF1G6" opacity="1" fill="#fb0125" fill-opacity="1"></use><g><use xlink:href="#h5A2WKF1G6" opacity="1" fill-opacity="0" stroke="#000000" stroke-width="1" stroke-opacity="0"></use></g></g><g><use xlink:href="#a1tlgghjkK" opacity="1" fill="#e60120" fill-opacity="1"></use><g><use xlink:href="#a1tlgghjkK" opacity="1" fill-opacity="0" stroke="#000000" stroke-width="1" stroke-opacity="0"></use></g></g><g><use xlink:href="#e1SoJupky5" opacity="1" fill="#fb0125" fill-opacity="1"></use><g><use xlink:href="#e1SoJupky5" opacity="1" fill-opacity="0" stroke="#000000" stroke-width="1" stroke-opacity="0"></use></g></g><g><use xlink:href="#a1wxBVgxbn" opacity="1" fill="#e60120" fill-opacity="1"></use><g><use xlink:href="#a1wxBVgxbn" opacity="1" fill-opacity="0" stroke="#000000" stroke-width="1" stroke-opacity="0"></use></g></g><g><use xlink:href="#a1QVuGjpc" opacity="1" fill="#fb0125" fill-opacity="1"></use><g><use xlink:href="#a1QVuGjpc" opacity="1" fill-opacity="0" stroke="#000000" stroke-width="1" stroke-opacity="0"></use></g></g><g><use xlink:href="#ef3yRsBgx" opacity="1" fill="#e60120" fill-opacity="1"></use><g><use xlink:href="#ef3yRsBgx" opacity="1" fill-opacity="0" stroke="#000000" stroke-width="1" stroke-opacity="0"></use></g></g><g><use xlink:href="#g4iw5SQuBr" opacity="1" fill="#fb0125" fill-opacity="1"></use><g><use xlink:href="#g4iw5SQuBr" opacity="1" fill-opacity="0" stroke="#000000" stroke-width="1" stroke-opacity="0"></use></g></g><g><use xlink:href="#a6Djith5me" opacity="1" fill="#cc111e" fill-opacity="1"></use><g><use xlink:href="#a6Djith5me" opacity="1" fill-opacity="0" stroke="#000000" stroke-width="1" stroke-opacity="0"></use></g></g><g><use xlink:href="#f2tVXBZ28L" opacity="1" fill="#e60120" fill-opacity="1"></use><g><use xlink:href="#f2tVXBZ28L" opacity="1" fill-opacity="0" stroke="#000000" stroke-width="1" stroke-opacity="0"></use></g></g><g><use xlink:href="#k2bap77Xmm" opacity="1" fill="#fb0125" fill-opacity="1"></use><g><use xlink:href="#k2bap77Xmm" opacity="1" fill-opacity="0" stroke="#000000" stroke-width="1" stroke-opacity="0"></use></g></g><g><use xlink:href="#aQgtUucta" opacity="1" fill="#e60120" fill-opacity="1"></use><g><use xlink:href="#aQgtUucta" opacity="1" fill-opacity="0" stroke="#000000" stroke-width="1" stroke-opacity="0"></use></g></g><g><use xlink:href="#a2UnE8IVGz" opacity="1" fill="#fb0125" fill-opacity="1"></use><g><use xlink:href="#a2UnE8IVGz" opacity="1" fill-opacity="0" stroke="#000000" stroke-width="1" stroke-opacity="0"></use></g></g><g><use xlink:href="#b20WtsI8C" opacity="1" fill="#e60120" fill-opacity="1"></use><g><use xlink:href="#b20WtsI8C" opacity="1" fill-opacity="0" stroke="#000000" stroke-width="1" stroke-opacity="0"></use></g></g><g><use xlink:href="#aUhm2FhLa" opacity="1" fill="#fb0125" fill-opacity="1"></use><g><use xlink:href="#aUhm2FhLa" opacity="1" fill-opacity="0" stroke="#000000" stroke-width="1" stroke-opacity="0"></use></g></g><g><use xlink:href="#e440PUbLzk" opacity="1" fill="#e60120" fill-opacity="1"></use><g><use xlink:href="#e440PUbLzk" opacity="1" fill-opacity="0" stroke="#000000" stroke-width="1" stroke-opacity="0"></use></g></g><g><use xlink:href="#b3oEDipMX" opacity="1" fill="#fb0125" fill-opacity="1"></use><g><use xlink:href="#b3oEDipMX" opacity="1" fill-opacity="0" stroke="#000000" stroke-width="1" stroke-opacity="0"></use></g></g><g><use xlink:href="#bfKyiME3J" opacity="1" fill="#e60120" fill-opacity="1"></use><g><use xlink:href="#bfKyiME3J" opacity="1" fill-opacity="0" stroke="#000000" stroke-width="1" stroke-opacity="0"></use></g></g><g><use xlink:href="#a3kO6c9Py" opacity="1" fill="#fb0125" fill-opacity="1"></use><g><use xlink:href="#a3kO6c9Py" opacity="1" fill-opacity="0" stroke="#000000" stroke-width="1" stroke-opacity="0"></use></g></g><g><use xlink:href="#b3JmiUHOrL" opacity="1" fill="#e60120" fill-opacity="1"></use><g><use xlink:href="#b3JmiUHOrL" opacity="1" fill-opacity="0" stroke="#000000" stroke-width="1" stroke-opacity="0"></use></g></g><g><use xlink:href="#a2wpd1qNP" opacity="1" fill="#fb0125" fill-opacity="1"></use><g><use xlink:href="#a2wpd1qNP" opacity="1" fill-opacity="0" stroke="#000000" stroke-width="1" stroke-opacity="0"></use></g></g><g><use xlink:href="#bIUrGdP10" opacity="1" fill="#e60120" fill-opacity="1"></use><g><use xlink:href="#bIUrGdP10" opacity="1" fill-opacity="0" stroke="#000000" stroke-width="1" stroke-opacity="0"></use></g></g><g><use xlink:href="#eikztnoBl" opacity="1" fill="#fb0125" fill-opacity="1"></use><g><use xlink:href="#eikztnoBl" opacity="1" fill-opacity="0" stroke="#000000" stroke-width="1" stroke-opacity="0"></use></g></g><g><use xlink:href="#b9GH2r4j" opacity="1" fill="#cc111e" fill-opacity="1"></use><g><use xlink:href="#b9GH2r4j" opacity="1" fill-opacity="0" stroke="#000000" stroke-width="1" stroke-opacity="0"></use></g></g><g><use xlink:href="#a2EwcL05aD" opacity="1" fill="#cc111e" fill-opacity="1"></use><g><use xlink:href="#a2EwcL05aD" opacity="1" fill-opacity="0" stroke="#000000" stroke-width="1" stroke-opacity="0"></use></g></g><g><use xlink:href="#e1MKAt8J0C" opacity="1" fill="#cc111e" fill-opacity="1"></use><g><use xlink:href="#e1MKAt8J0C" opacity="1" fill-opacity="0" stroke="#000000" stroke-width="1" stroke-opacity="0"></use></g></g><g><use xlink:href="#a5yMZMzOtB" opacity="1" fill="#cc111e" fill-opacity="1"></use><g><use xlink:href="#a5yMZMzOtB" opacity="1" fill-opacity="0" stroke="#000000" stroke-width="1" stroke-opacity="0"></use></g></g><g><use xlink:href="#a1Bo4XjavL" opacity="1" fill="#cc111e" fill-opacity="1"></use><g><use xlink:href="#a1Bo4XjavL" opacity="1" fill-opacity="0" stroke="#000000" stroke-width="1" stroke-opacity="0"></use></g></g><g><use xlink:href="#c4pMVQsOu" opacity="1" fill="#cc111e" fill-opacity="1"></use><g><use xlink:href="#c4pMVQsOu" opacity="1" fill-opacity="0" stroke="#000000" stroke-width="1" stroke-opacity="0"></use></g></g><g><use xlink:href="#b252d04lsf" opacity="1" fill="#cc111e" fill-opacity="1"></use><g><use xlink:href="#b252d04lsf" opacity="1" fill-opacity="0" stroke="#000000" stroke-width="1" stroke-opacity="0"></use></g></g><g><use xlink:href="#azXWBMlK6" opacity="1" fill="#cc111e" fill-opacity="1"></use><g><use xlink:href="#azXWBMlK6" opacity="1" fill-opacity="0" stroke="#000000" stroke-width="1" stroke-opacity="0"></use></g></g><g><use xlink:href="#b56xQJbaKN" opacity="1" fill="#cc111e" fill-opacity="1"></use><g><use xlink:href="#b56xQJbaKN" opacity="1" fill-opacity="0" stroke="#000000" stroke-width="1" stroke-opacity="0"></use></g></g><g><use xlink:href="#a3lPo7WlW2" opacity="1" fill="#cc111e" fill-opacity="1"></use><g><use xlink:href="#a3lPo7WlW2" opacity="1" fill-opacity="0" stroke="#000000" stroke-width="1" stroke-opacity="0"></use></g></g><g><use xlink:href="#a10Rcbp4Bd" opacity="1" fill="#cc111e" fill-opacity="1"></use><g><use xlink:href="#a10Rcbp4Bd" opacity="1" fill-opacity="0" stroke="#000000" stroke-width="1" stroke-opacity="0"></use></g></g><g><use xlink:href="#a51zGr39W" opacity="1" fill="#1a1a1a" fill-opacity="1"></use><g><use xlink:href="#a51zGr39W" opacity="1" fill-opacity="0" stroke="#000000" stroke-width="1" stroke-opacity="0"></use></g></g><g><use xlink:href="#a3gie8xYd1" opacity="1" fill="#1a1a1a" fill-opacity="1"></use><g><use xlink:href="#a3gie8xYd1" opacity="1" fill-opacity="0" stroke="#000000" stroke-width="1" stroke-opacity="0"></use></g></g><g><use xlink:href="#a9OzjKfO8" opacity="1" fill="#1a1a1a" fill-opacity="1"></use><g><use xlink:href="#a9OzjKfO8" opacity="1" fill-opacity="0" stroke="#000000" stroke-width="1" stroke-opacity="0"></use></g></g><g><use xlink:href="#b37HTAipls" opacity="1" fill="#1a1a1a" fill-opacity="1"></use><g><use xlink:href="#b37HTAipls" opacity="1" fill-opacity="0" stroke="#000000" stroke-width="1" stroke-opacity="0"></use></g></g><g><use xlink:href="#b23asJhxHd" opacity="1" fill="#1a1a1a" fill-opacity="1"></use><g><use xlink:href="#b23asJhxHd" opacity="1" fill-opacity="0" stroke="#000000" stroke-width="1" stroke-opacity="0"></use></g></g><g><use xlink:href="#b3Nz2ktAHg" opacity="1" fill="#1a1a1a" fill-opacity="1"></use><g><use xlink:href="#b3Nz2ktAHg" opacity="1" fill-opacity="0" stroke="#000000" stroke-width="1" stroke-opacity="0"></use></g></g><g><use xlink:href="#c4dp5tjCaU" opacity="1" fill="#1a1a1a" fill-opacity="1"></use><g><use xlink:href="#c4dp5tjCaU" opacity="1" fill-opacity="0" stroke="#000000" stroke-width="1" stroke-opacity="0"></use></g></g><g><use xlink:href="#aqR99DdcM" opacity="1" fill="#1a1a1a" fill-opacity="1"></use><g><use xlink:href="#aqR99DdcM" opacity="1" fill-opacity="0" stroke="#000000" stroke-width="1" stroke-opacity="0"></use></g></g><g><use xlink:href="#acpwWQMh5" opacity="1" fill="#1a1a1a" fill-opacity="1"></use><g><use xlink:href="#acpwWQMh5" opacity="1" fill-opacity="0" stroke="#000000" stroke-width="1" stroke-opacity="0"></use></g></g><g><use xlink:href="#c3NWqX8t1" opacity="1" fill="#1a1a1a" fill-opacity="1"></use><g><use xlink:href="#c3NWqX8t1" opacity="1" fill-opacity="0" stroke="#000000" stroke-width="1" stroke-opacity="0"></use></g></g><g><use xlink:href="#bbjmTt7r0" opacity="1" fill="#1a1a1a" fill-opacity="1"></use><g><use xlink:href="#bbjmTt7r0" opacity="1" fill-opacity="0" stroke="#000000" stroke-width="1" stroke-opacity="0"></use></g></g><g><use xlink:href="#c6Plwc43h" opacity="1" fill="#1a1a1a" fill-opacity="1"></use><g><use xlink:href="#c6Plwc43h" opacity="1" fill-opacity="0" stroke="#000000" stroke-width="1" stroke-opacity="0"></use></g></g><g><use xlink:href="#f7nESSYgK" opacity="1" fill="#1a1a1a" fill-opacity="1"></use><g><use xlink:href="#f7nESSYgK" opacity="1" fill-opacity="0" stroke="#000000" stroke-width="1" stroke-opacity="0"></use></g></g><g><use xlink:href="#a1GTsf3HBy" opacity="1" fill="#1a1a1a" fill-opacity="1"></use><g><use xlink:href="#a1GTsf3HBy" opacity="1" fill-opacity="0" stroke="#000000" stroke-width="1" stroke-opacity="0"></use></g></g></g></svg>