<?xml version="1.0" encoding="iso-8859-1"?>
<!-- Generator: Adobe Illustrator 19.0.0, SVG Export Plug-In . SVG Version: 6.00 Build 0)  -->
<svg version="1.1" id="Layer_1" xmlns="http://www.w3.org/2000/svg" xmlns:xlink="http://www.w3.org/1999/xlink" x="0px" y="0px"
	 viewBox="0 0 512 512" style="enable-background:new 0 0 512 512;" xml:space="preserve">
<g>
	<g>
		<rect x="445.609" y="55.697" width="66.391" height="66.391"/>
	</g>
</g>
<g>
	<g>
		<rect y="167.1" width="66.391" height="66.391"/>
	</g>
</g>
<g>
	<g>
		<rect x="445.609" y="278.502" width="66.391" height="66.391"/>
	</g>
</g>
<g>
	<g>
		<rect y="389.904" width="66.391" height="66.391"/>
	</g>
</g>
<g>
	<g>
		<polygon points="0,55.705 0,122.096 88.897,122.096 177.793,122.096 177.793,55.705 		"/>
	</g>
</g>
<g>
	<g>
		<polygon points="88.897,278.509 0,278.509 0,344.9 88.897,344.9 177.793,344.9 177.793,278.509 		"/>
	</g>
</g>
<g>
	<g>
		<polygon points="200.299,167.107 111.402,167.107 111.402,233.498 200.299,233.498 289.197,233.498 289.197,167.107 		"/>
	</g>
</g>
<g>
	<g>
		<polygon points="200.299,389.911 111.402,389.911 111.402,456.303 289.197,456.303 289.197,389.911 		"/>
	</g>
</g>
<g>
	<g>
		<polygon points="222.804,55.705 222.804,122.096 311.703,122.096 400.598,122.096 400.598,55.705 		"/>
	</g>
</g>
<g>
	<g>
		<polygon points="311.703,278.509 222.804,278.509 222.804,344.9 311.703,344.9 400.598,344.9 400.598,278.509 		"/>
	</g>
</g>
<g>
	<g>
		<polygon points="423.103,167.107 334.208,167.107 334.208,233.498 423.103,233.498 512,233.498 512,167.107 		"/>
	</g>
</g>
<g>
	<g>
		<polygon points="423.103,389.911 334.208,389.911 334.208,456.303 512,456.303 512,389.911 		"/>
	</g>
</g>
<g>
</g>
<g>
</g>
<g>
</g>
<g>
</g>
<g>
</g>
<g>
</g>
<g>
</g>
<g>
</g>
<g>
</g>
<g>
</g>
<g>
</g>
<g>
</g>
<g>
</g>
<g>
</g>
<g>
</g>
</svg>
