<svg width="501.995" height="501.995" xmlns="http://www.w3.org/2000/svg" xml:space="preserve" version="1.1">

 <g>
  <title>Layer 1</title>
  <g id="svg_1">
   <g id="svg_2">
    <path id="svg_3" fill="#CCCCCC" d="m492,244.028l-153.75,0l0,-106.546l-328.25,0l0,180.723l0,55.296l45.82,0c0.709,-18.144 15.635,-32.638 33.953,-32.638s33.244,14.494 33.953,32.638l214.524,0l42.596,0c0.709,-18.144 15.635,-32.638 33.953,-32.638s33.244,14.494 33.953,32.638l43.248,0l0,-129.473z"/>
    <g id="svg_4">
     <path id="svg_5" fill="#333333" d="m89.773,340.863c-18.318,0 -33.244,14.494 -33.953,32.638c-0.017,0.448 -0.034,0.896 -0.034,1.349c0,18.77 15.216,33.987 33.987,33.987s33.987,-15.216 33.987,-33.987c0,-0.452 -0.017,-0.901 -0.034,-1.349c-0.71,-18.144 -15.635,-32.638 -33.953,-32.638z"/>
     <path id="svg_6" fill="#333333" d="m448.752,373.501c-0.709,-18.144 -15.635,-32.638 -33.953,-32.638s-33.244,14.494 -33.953,32.638c-0.017,0.448 -0.034,0.896 -0.034,1.349c0,18.77 15.216,33.987 33.987,33.987s33.987,-15.216 33.987,-33.987c0,-0.453 -0.016,-0.901 -0.034,-1.349z"/>
    </g>
   </g>
   <polygon id="svg_7" fill="#29ABE2" points="424.566,137.482 338.25,137.482 338.25,244.028 492,244.028  "/>
   <polygon id="svg_8" fill="#FBB03B" points="195.22,212.725 195.22,179.66 149.438,179.66 149.438,212.725 116.372,212.725    116.372,258.508 149.438,258.508 149.438,291.573 195.22,291.573 195.22,258.508 228.285,258.508 228.285,212.725  "/>
   <g id="svg_9">
    <rect id="svg_10" fill="#FBB03B" height="44" width="44" y="93.159" x="286"/>
    <g id="svg_11">
     <path id="svg_12" d="m501.995,243.849c-0.033,-1.816 -0.574,-3.633 -1.545,-5.17l-67.435,-106.546c-1.834,-2.896 -5.022,-4.652 -8.45,-4.652l-84.565,0l0,-34.322c0,-5.523 -4.478,-10 -10,-10l-44,0c-5.522,0 -10,4.477 -10,10l0,34.323l-266,0c-5.522,0 -10,4.477 -10,10l0,236.019c0,5.523 4.478,10 10,10l36.645,0c4.031,20.125 21.834,35.335 43.127,35.335c21.294,0 39.098,-15.21 43.128,-35.335l238.771,0c4.031,20.125 21.834,35.335 43.128,35.335c21.293,0 39.097,-15.21 43.127,-35.335l34.074,0c5.522,0 9.995,-4.477 9.995,-10l0,-129.652zm-28.159,-9.821l-125.586,0l0,-86.546l32.918,0l0,23.314c0,5.523 4.478,10 10,10s10,-4.477 10,-10l0,-23.314l17.892,0l54.776,86.546zm-177.836,-130.869l24,0l0,24l-24,0l0,-24zm-183.007,277.696c-2.715,10.448 -12.422,17.981 -23.221,17.981c-9.398,0 -18.124,-5.708 -21.933,-14.293c-4.379,-9.872 -1.417,-21.74 7.006,-28.457c7.653,-6.103 18.572,-6.9 27.021,-1.945c9.142,5.361 13.801,16.428 11.127,26.714zm325.027,0c-2.715,10.448 -12.421,17.981 -23.22,17.981c-9.398,0 -18.124,-5.707 -21.933,-14.293c-4.38,-9.873 -1.417,-21.74 7.007,-28.457c7.653,-6.102 18.572,-6.9 27.021,-1.945c9.14,5.361 13.798,16.428 11.125,26.714zm19.274,-17.354c-5.018,-18.771 -22.164,-32.638 -42.494,-32.638c-20.331,0 -37.477,13.868 -42.495,32.638l-240.037,0c-5.018,-18.771 -22.164,-32.638 -42.495,-32.638c-20.33,0 -37.476,13.868 -42.494,32.638l-27.279,0l0,-19.822l10.499,0c5.522,0 10,-4.477 10,-10s-4.478,-10 -10,-10l-10.499,0l0,-176.197l308.25,0l0,96.546c0,5.523 4.478,10 10,10l143.75,0l0,27.545l-14.377,0c-5.522,0 -10,4.477 -10,10s4.478,10 10,10l14.377,0l0,12.133l-14.377,0c-5.522,0 -10,4.477 -10,10s4.478,10 10,10l14.377,0l0,29.795l-24.706,0z"/>
     <path id="svg_13" d="m294.768,323.679l-140.722,0c-5.522,0 -10,4.477 -10,10s4.478,10 10,10l140.722,0c5.522,0 10,-4.477 10,-10s-4.478,-10 -10,-10z"/>
     <path id="svg_14" d="m353.494,323.679l-14.959,0c-5.522,0 -10,4.477 -10,10s4.478,10 10,10l14.959,0c5.522,0 10,-4.477 10,-10s-4.477,-10 -10,-10z"/>
     <path id="svg_15" d="m391.168,196.253c-5.522,0 -10,4.477 -10,10l0,3.324c0,5.523 4.478,10 10,10s10,-4.477 10,-10l0,-3.324c0,-5.523 -4.478,-10 -10,-10z"/>
     <path id="svg_16" d="m195.22,301.573c5.522,0 10,-4.477 10,-10l0,-23.065l23.065,0c5.522,0 10,-4.477 10,-10l0,-45.782c0,-5.523 -4.478,-10 -10,-10l-23.065,0l0,-23.066c0,-5.523 -4.478,-10 -10,-10l-45.782,0c-5.522,0 -10,4.477 -10,10l0,23.065l-23.065,0c-5.522,0 -10,4.477 -10,10l0,45.782c0,5.523 4.478,10 10,10l23.065,0l0,23.065c0,5.523 4.478,10 10,10l45.782,0.001l0,0zm-68.848,-53.065l0,-25.782l23.065,0c5.522,0 10,-4.477 10,-10l0,-23.066l25.782,0l0,23.065c0,5.523 4.478,10 10,10l23.065,0l0,25.782l-23.064,0c-5.522,0 -10,4.477 -10,10l0,23.065l-25.782,0l0,-23.065c0,-5.523 -4.478,-10 -10,-10l-23.066,0.001l0,0z"/>
    </g>
   </g>
  </g>
  <g id="svg_17"/>
  <g id="svg_18"/>
  <g id="svg_19"/>
  <g id="svg_20"/>
  <g id="svg_21"/>
  <g id="svg_22"/>
  <g id="svg_23"/>
  <g id="svg_24"/>
  <g id="svg_25"/>
  <g id="svg_26"/>
  <g id="svg_27"/>
  <g id="svg_28"/>
  <g id="svg_29"/>
  <g id="svg_30"/>
  <g id="svg_31"/>
 </g>
</svg>