<svg width="423.48" height="89.98" xmlns="http://www.w3.org/2000/svg" xmlns:undefined="http://www.inkscape.org/namespaces/inkscape" version="1.1" xml:space="preserve">

 <metadata>image/svg+xmlOpenclipart</metadata>
 <g>
  <title>Layer 1</title>
  <g transform="matrix(1.25 0 0 -1.25 0 89.98)" id="g10">
   <g id="g12">
    <path fill="#42210b" fill-rule="evenodd"  d="m335.05,49.66l3.738,-4.887c-3.06,-1.531 -10.66,-4.023 -22.81,-7.484c-24.3,-6.918 -59.14,-15.285 -104.51,-25.102c-45.34,-9.812 -93.77,-11.785 -145.3,-5.914c-25.787,2.981 -47.025,6.922 -63.717,11.828c-1.851,1.528 -2.656,3.238 -2.414,5.129l0.844,2.352c9.535,-4.102 24.117,-7.641 43.746,-10.618c39.34,-5.914 84.331,-6.035 134.97,-0.363c32.379,3.621 68,10.539 106.86,20.758c19.429,5.148 35.621,9.914 48.57,14.301l0.008,0l0.015,0z" id="path14"/>
    <path fill="#42210b" fill-rule="evenodd"  d="m321.95,68.847l3.442,-4.043c-2.618,-1.367 -9.536,-3.64 -20.758,-6.82c-22.481,-6.312 -55.289,-13.996 -98.406,-23.047c-43.082,-9.09 -89,-11.625 -137.75,-7.605c-24.34,1.972 -44.391,4.871 -60.161,8.691c-1.687,1.246 -2.414,2.652 -2.171,4.223l0.843,1.992c8.973,-3.258 22.731,-5.953 41.274,-8.086c37.129,-4.223 79.726,-3.5 127.8,2.172c30.726,3.66 64.277,10.176 100.64,19.551c18.141,4.664 33.231,8.988 45.254,12.972l-0.004,0l-0.003,0z" id="path16"/>
    <path fill="#754c24" fill-rule="evenodd"  d="m194.7,12.429l21.055,39.582l3.984,-6.394l2.352,-34.758l-25.824,-1.266l-1.567,2.836z" id="path18"/>
    <path fill="#8c6239" fill-rule="evenodd"  d="m194.98,12.363l-0.722,37.168l21.785,2.414l3.074,-38.316l-24.137,-1.266z" id="path20"/>
    <path fill="#603813" fill-rule="evenodd"  d="m199.7,9.414l-0.961,2.652l2.832,-2.414l-1.871,-0.238z" id="path22"/>
    <path fill="#603813" fill-rule="evenodd"  d="m200,12.972l2.777,0.063l0.543,-2.715l-3.32,2.652z" id="path24"/>
    <path fill="#603813" fill-rule="evenodd"  d="m211.05,10.257l-0.785,2.172l2.414,-2.172l-1.629,0z" id="path26"/>
    <path fill="#603813" fill-rule="evenodd"  d="m213.94,10.5l-1.265,2.894l1.386,0l1.208,-2.894l-1.329,0z" id="path28"/>
    <path fill="#603813" fill-rule="evenodd"  d="m215.75,52.011l3.984,-6.394l2.352,-34.758l-3.258,2.84l-3.078,38.312z" id="path30"/>
    <path fill="#754c24" fill-rule="evenodd"  d="m222.93,10.5l-1.391,4.222l18.887,41.032l3.679,-3.922l8.39,-36.145l-29.57,-5.187l0.005,0z" id="path32"/>
    <path fill="#8c6239" fill-rule="evenodd"  d="m221.66,14.593l2.715,37.231l16.168,3.801l7.664,-36.203l-26.547,-4.829z" id="path34"/>
    <path fill="#603813" fill-rule="evenodd"  d="m226.86,10.679l-0.906,3.922l3.082,-3.316l-2.176,-0.606z" id="path36"/>
    <path fill="#603813" fill-rule="evenodd"  d="m227.4,16.172l3.016,0.359l0.543,-3.981l-3.559,3.622z" id="path38"/>
    <path fill="#603813" fill-rule="evenodd"  d="m239.83,13.394l-1.086,3.199l2.961,-2.957l-1.875,-0.242z" id="path40"/>
    <path fill="#603813" fill-rule="evenodd"  d="m244.65,14.359l-1.504,-0.238l-1.816,4.222l1.512,0.18l1.808,-4.164z" id="path42"/>
    <path fill="#603813" fill-rule="evenodd"  d="m252.5,15.687l-4.406,3.863l-7.664,36.204l3.679,-3.922l8.391,-36.145z" id="path44"/>
    <path fill="#754c24" fill-rule="evenodd"  d="m29.305,11.222l33.007,32.766l2.11,-4.527l-4.824,-35.118l-30.473,2.657l0.18,4.222z" id="path46"/>
    <path fill="#8c6239" fill-rule="evenodd"  d="m29.543,11.175l15.988,33.368l17.016,-0.602l-5.672,-35.059l-27.332,2.293z" id="path48"/>
    <path fill="#603813" fill-rule="evenodd"  d="m32.988,6.214l0.543,3.801l1.75,-3.801l-2.293,0z" id="path50"/>
    <path fill="#603813" fill-rule="evenodd"  d="m35.461,11.043l3.078,-0.364l-0.906,-3.8l-2.172,4.164z" id="path52"/>
    <path fill="#603813" fill-rule="evenodd"  d="m46.441,5.429l0.121,3.2l1.813,-3.5l-1.934,0.3z" id="path54"/>
    <path fill="#603813" fill-rule="evenodd"  d="m49.703,9.535l1.567,-0.184l0.179,-4.281l-1.508,0.18l-0.238,4.285z" id="path56"/>
    <path fill="#603813" fill-rule="evenodd"  d="m62.312,43.988l2.11,-4.527l-4.824,-35.118l-2.957,4.586l5.671,35.059z" id="path58"/>
    <path fill="#754c24" fill-rule="evenodd"  d="m0.344,10.078l0.179,4.222l33.008,32.762l2.11,-4.523l-4.829,-35.117l-30.468,2.656z" id="path60"/>
    <path fill="#8c6239" fill-rule="evenodd"  d="m0.781,14.257l15.992,33.368l17.016,-0.606l-5.672,-34.996l-27.336,2.234z" id="path62"/>
    <path fill="#603813" fill-rule="evenodd"  d="m4.207,9.293l0.543,3.8l1.75,-3.8l-2.293,0z" id="path64"/>
    <path fill="#603813" fill-rule="evenodd"  d="m6.68,14.179l3.078,-0.422l-0.906,-3.8l-2.172,4.222z" id="path66"/>
    <path fill="#603813" fill-rule="evenodd"  d="m17.66,8.507l0.18,3.2l1.754,-3.442l-1.934,0.242z" id="path68"/>
    <path fill="#603813" fill-rule="evenodd"  d="m21.16,8.386l-0.242,4.223l1.57,-0.18l0.18,-4.285l-1.508,0.242z" id="path70"/>
    <path fill="#603813" fill-rule="evenodd"  d="m33.531,47.062l2.11,-4.523l-4.829,-35.117l-2.953,4.644l5.672,34.996z" id="path72"/>
    <path fill="#754c24" fill-rule="evenodd"  d="m66.234,4.464l24.621,38.438l3.2,-4.164l3.55,-36.203l-30.527,-2.293l-0.844,4.222z" id="path74"/>
    <path fill="#8c6239" fill-rule="evenodd"  d="m66.422,4.386l7.785,36.266l16.832,2.172l2.777,-36.203l-27.394,-2.235z" id="path76"/>
    <path fill="#603813" fill-rule="evenodd"  d="m71.062,0l-0.425,3.984l2.656,-3.562l-2.231,-0.422z" id="path78"/>
    <path fill="#603813" fill-rule="evenodd"  d="m72.328,5.371l3.137,0.058l0,-3.922l-3.137,3.864z" id="path80"/>
    <path fill="#603813" fill-rule="evenodd"  d="m84.453,1.449l-0.598,3.258l2.59,-3.2l-1.992,-0.058z" id="path82"/>
    <path fill="#603813" fill-rule="evenodd"  d="m86.688,6.156l1.566,0.058l1.207,-4.285l-1.566,-0.058l-1.207,4.285z" id="path84"/>
    <path fill="#603813" fill-rule="evenodd"  d="m90.855,42.902l3.2,-4.164l3.55,-36.203l-3.976,4.164l-2.774,36.203z" id="path86"/>
    <path fill="#754c24" fill-rule="evenodd"  d="m100.02,4.765l16.653,36.867l2.539,-4.043l4.223,-34.875l-22.633,-2.05l-0.782,4.101z" id="path88"/>
    <path fill="#8c6239" fill-rule="evenodd"  d="m100.14,4.714l4.226,34.879l12.43,1.993l3.621,-34.938l-20.277,-1.934z" id="path90"/>
    <path fill="#603813" fill-rule="evenodd"  d="m103.77,0.484l-0.426,3.801l2.113,-3.442l-1.687,-0.359z" id="path92"/>
    <path fill="#603813" fill-rule="evenodd"  d="m104.48,5.55l2.352,0.122l0.187,-3.864l-2.539,3.742z" id="path94"/>
    <path fill="#603813" fill-rule="evenodd"  d="m113.72,1.75l-0.602,3.136l2.047,-3.078l-1.445,-0.058z" id="path96"/>
    <path fill="#603813" fill-rule="evenodd"  d="m115.16,6.214l1.152,0.059l1.082,-4.101l-1.144,-0.059l-1.09,4.101z" id="path98"/>
    <path fill="#603813" fill-rule="evenodd"  d="m116.68,41.632l2.539,-4.043l4.223,-34.875l-3.145,3.985l-3.617,34.933z" id="path100"/>
    <path fill="#754c24" fill-rule="evenodd"  d="m125.55,5.492l15.984,38.617l3.504,-5.613l4.277,-35.117l-22.445,-1.028l-1.32,3.141z" id="path102"/>
    <path fill="#8c6239" fill-rule="evenodd"  d="m125.66,5.367l-0.602,35.84l16.594,2.777l4.645,-37.531l-20.637,-1.086z" id="path104"/>
    <path fill="#603813" fill-rule="evenodd"  d="m129.83,2.113l-0.902,2.894l2.472,-2.656l-1.57,-0.238z" id="path106"/>
    <path fill="#603813" fill-rule="evenodd"  d="m130.01,6.035l2.355,0l0.477,-2.957l-2.832,2.957z" id="path108"/>
    <path fill="#603813" fill-rule="evenodd"  d="m139.54,2.836l-0.785,2.472l2.238,-2.41l-1.453,-0.062z" id="path110"/>
    <path fill="#603813" fill-rule="evenodd"  d="m140.87,6.336l1.152,0l1.207,-3.2l-1.152,0l-1.207,3.2z" id="path112"/>
    <path fill="#603813" fill-rule="evenodd"  d="m141.54,44.109l3.504,-5.613l4.277,-35.117l-3.136,3.199l-4.645,37.531z" id="path114"/>
    <path fill="#754c24" fill-rule="evenodd"  d="m155.77,9.351l24.68,38.438l3.137,-4.223l3.558,-36.203l-30.527,-2.293l-0.848,4.281z" id="path116"/>
    <path fill="#8c6239" fill-rule="evenodd"  d="m156.02,9.308l7.844,36.203l16.836,2.235l2.774,-36.266l-27.454,-2.172z" id="path118"/>
    <path fill="#603813" fill-rule="evenodd"  d="m160.6,4.886l-0.367,3.922l2.657,-3.558l-2.29,-0.364z" id="path120"/>
    <path fill="#603813" fill-rule="evenodd"  d="m161.93,10.195l3.07,0.125l0,-3.984l-3.07,3.859z" id="path122"/>
    <path fill="#603813" fill-rule="evenodd"  d="m174.06,6.273l-0.664,3.32l2.59,-3.257l-1.926,-0.063z" id="path124"/>
    <path fill="#603813" fill-rule="evenodd"  d="m176.29,10.98l1.504,0.063l1.273,-4.286l-1.57,0l-1.207,4.223z" id="path126"/>
    <path fill="#603813" fill-rule="evenodd"  d="m180.45,47.789l3.137,-4.223l3.558,-36.203l-3.918,4.164l-2.777,36.262z" id="path128"/>
    <path fill="#754c24" fill-rule="evenodd"  d="m256.6,15.871l-2.296,4.043l8.929,44.226l4.407,-3.379l16.167,-35.058l-27.207,-9.832z" id="path130"/>
    <path fill="#8c6239" fill-rule="evenodd"  d="m254.56,19.797l-5.735,37.89l14.664,6.336l15.508,-35.297l-24.437,-8.929z" id="path132"/>
    <path fill="#603813" fill-rule="evenodd"  d="m260.34,16.652l-1.742,3.801l3.679,-2.832l-1.937,-0.969z" id="path134"/>
    <path fill="#603813" fill-rule="evenodd"  d="m259.62,22.265l2.832,0.844l1.391,-3.922l-4.223,3.078z" id="path136"/>
    <path fill="#603813" fill-rule="evenodd"  d="m272.16,21.359l-1.742,3.137l3.496,-2.594l-1.754,-0.543z" id="path138"/>
    <path fill="#603813" fill-rule="evenodd"  d="m272.54,26.609l1.383,0.422l2.656,-3.922l-1.383,-0.422l-2.656,3.922z" id="path140"/>
    <path fill="#603813" fill-rule="evenodd"  d="m267.64,60.761l16.167,-35.058l-5.062,3.14l-15.512,35.297l4.407,-3.379z" id="path142"/>
    <path fill="#754c24" fill-rule="evenodd"  d="m294.32,70.839l5.61,-5.613l12.008,-34.332l-24.016,-6.336l-2.297,2.594l8.695,43.687z" id="path144"/>
    <path fill="#8c6239" fill-rule="evenodd"  d="m285.86,27.097l-11.16,37.051l19.852,6.637l13.695,-37.715l-22.387,-5.973z" id="path146"/>
    <path fill="#603813" fill-rule="evenodd"  d="m291.24,25.101l-1.687,2.414l3.375,-1.812l-1.688,-0.602z" id="path148"/>
    <path fill="#603813" fill-rule="evenodd"  d="m290.51,28.722l2.601,0.602l1.266,-2.594l-3.867,1.992z" id="path150"/>
    <path fill="#603813" fill-rule="evenodd"  d="m301.68,28.117l-1.324,2.051l2.828,-1.688l-1.504,-0.363z" id="path152"/>
    <path fill="#603813" fill-rule="evenodd"  d="m302.34,31.617l1.328,0.301l1.875,-2.715l-1.211,-0.239l-1.992,2.653z" id="path154"/>
    <path fill="#603813" fill-rule="evenodd"  d="m299.93,65.226l12.008,-34.332l-3.922,2.231l-13.696,37.714l5.61,-5.613z" id="path156"/>
    <path fill="#754c24" fill-rule="evenodd"  d="m317.12,32.824l-2.414,2.777l0.848,36.383l4.464,-4.164l14.719,-28.176l-17.617,-6.82z" id="path158"/>
    <path fill="#8c6239" fill-rule="evenodd"  d="m314.93,35.597l-12.672,33.25l13.515,3.137l15.809,-30.23l-16.652,-6.157z" id="path160"/>
    <path fill="#603813" fill-rule="evenodd"  d="m319.84,33.488l-1.805,2.594l3.133,-1.93l-1.328,-0.664z" id="path162"/>
    <path fill="#603813" fill-rule="evenodd"  d="m318.57,37.351l2.047,0.602l1.512,-2.656l-3.559,2.054z" id="path164"/>
    <path fill="#603813" fill-rule="evenodd"  d="m327.68,36.867l-1.446,1.992l2.598,-1.629l-1.152,-0.363z" id="path166"/>
    <path fill="#603813" fill-rule="evenodd"  d="m327.5,40.308l0.906,0.301l2.047,-2.594l-0.902,-0.304l-2.051,2.597z" id="path168"/>
    <path fill="#603813" fill-rule="evenodd"  d="m320.02,67.82l14.719,-28.176l-3.375,2.11l-15.808,30.23l4.464,-4.164z" id="path170"/>
   </g>
  </g>
 </g>
</svg>