<svg width="512" height="350" xmlns="http://www.w3.org/2000/svg" preserveAspectRatio="xMidYMid meet" class="iconify iconify--fxemoji" role="img" aria-hidden="true">

 <g>
  <title>Layer 1</title>
  <path id="svg_1" d="m168.465,315.022l314.59,0c3.747,0 5.954,-4.206 3.825,-7.29l-157.295,-253.434c-1.848,-2.676 -5.803,-2.676 -7.651,0l-157.295,253.435c-2.128,3.083 0.079,7.289 3.826,7.289z" fill="#BFBCAF"/>
  <path id="svg_2" d="m202.068,247.393l4.403,0.034l243.105,0l-9.301,-14.786l-229.25,0l-8.957,14.752z" fill="#FF473E"/>
  <path id="svg_3" d="m191.954,263.723l-9.177,14.786l285.965,0l-9.177,-14.786l-267.611,0z" fill="#FF473E"/>
  <path id="svg_4" d="m325.76,87.418l-81.528,227.604l81.528,0l0,-227.604z" fill="#2B3B47"/>
  <path id="svg_5" d="m167.007,314.233a4.633,4.633 0 0 1 -3.442,-1.525l-18.192,-20.084a4.642,4.642 0 0 1 6.881,-6.233l18.192,20.084a4.642,4.642 0 0 1 -3.439,7.758zm320.948,-1.526l18.192,-20.084a4.642,4.642 0 0 0 -6.881,-6.233l-18.192,20.084a4.642,4.642 0 0 0 6.881,6.233zm-71.075,0l18.192,-20.084a4.642,4.642 0 0 0 -6.881,-6.233l-18.192,20.084a4.642,4.642 0 0 0 6.881,6.233z" fill="#8E6049"/>
  <path id="svg_6" d="m502.091,297.401l-10.192,0a1.85,1.85 0 0 1 0,-3.698l6.601,0l-172.74,-241.767l-172.74,241.768l7.689,0a1.848,1.848 0 0 1 0,3.698l-11.282,0a1.847,1.847 0 0 1 -1.504,-2.923l176.332,-246.795c0.693,-0.971 2.314,-0.971 3.008,0l176.332,246.795a1.85,1.85 0 0 1 0.14,1.92a1.851,1.851 0 0 1 -1.644,1.002z" fill="#BFBCAF"/>
  <path id="svg_7" d="m244.232,315.022l67.132,-187.414s-55.829,116.389 -104.42,152.532c-0.001,-0.001 13.877,34.882 37.288,34.882z" fill="#E5E4DF"/>
  <path id="svg_8" d="m431.632,297.401l-13.004,0a1.85,1.85 0 0 1 0,-3.698l10.2,0l-104.767,-244.217a1.848,1.848 0 1 1 3.397,-1.457l105.873,246.795a1.848,1.848 0 0 1 -1.699,2.577z" fill="#E5E4DF"/>
  <path id="svg_9" d="m66.544,309.448l0,-88.937c0,-7.432 6.026,-13.465 13.462,-13.465s13.462,6.033 13.462,13.465l0,88.937c0,7.432 -26.924,7.432 -26.924,0z" fill="#8E6049"/>
  <path id="svg_10" d="m153.405,274.217c0.645,-0.774 1.043,-1.521 1.221,-2.243c1.22,-3.166 0.919,-7.112 -1.688,-9.973c-12.92,-14.182 -26.929,-35.896 -39.542,-57.818c7.133,2.404 14.385,3.848 20.978,4.686c5.99,0.761 9.498,-7.81 5.093,-12.645c-11.27,-12.37 -23.536,-31.638 -34.411,-50.762c6.037,2.165 12.235,3.425 17.831,4.137c4.733,0.602 7.504,-6.171 4.024,-9.991c-14.949,-16.409 -32.118,-48.173 -42.569,-68.975c-0.419,-1.343 -1.237,-2.356 -2.226,-2.992l-0.045,-0.028a4.876,4.876 0 0 0 -0.926,-0.458a4.238,4.238 0 0 0 -1.063,-0.242a4.257,4.257 0 0 0 -0.844,0a4.238,4.238 0 0 0 -1.063,0.242a4.648,4.648 0 0 0 -0.926,0.458l-0.045,0.028c-0.99,0.636 -1.807,1.648 -2.226,2.992c-10.452,20.802 -27.62,52.566 -42.569,68.975c-3.48,3.82 -0.709,10.592 4.024,9.991c5.597,-0.711 11.795,-1.971 17.831,-4.137c-10.875,19.124 -23.141,38.392 -34.411,50.762c-4.405,4.835 -0.897,13.407 5.093,12.645c6.593,-0.838 13.844,-2.281 20.978,-4.686c-12.613,21.922 -26.622,43.636 -39.542,57.818c-4.044,4.44 -2.544,11.491 1.594,14.182c17.751,18.496 40.411,19.935 72.029,19.935c32.498,0 58.336,-5.34 72.388,-20.759a8.37,8.37 0 0 0 1.012,-1.142z" fill="#2BA52E"/>
 </g>
</svg>