<svg width="511.996" height="511.996" xmlns="http://www.w3.org/2000/svg" xml:space="preserve" version="1.1">

 <g>
  <title>Layer 1</title>
  <rect id="svg_1" fill="#FAC15C" height="16" width="208.003" y="168.499" x="151.996"/>
  <rect id="svg_2" fill="#CBBBA0" height="24" width="319.996" y="192.499" x="96"/>
  <path id="svg_3" fill="#FAC15C" d="m176,104.503c0,-44.182 35.817,-80 80,-80c44.183,0 80,35.817 80,80"/>
  <rect id="svg_4" fill="#CBBBA0" height="64.003" width="160.003" y="104.506" x="175.996"/>
  <rect id="svg_5" fill="#FAC15C" height="216" width="463.996" y="216.499" x="24"/>
  <g id="svg_6">
   <rect id="svg_7" fill="#FFFFFF" height="48" width="32" y="248.506" x="168"/>
   <rect id="svg_8" fill="#FFFFFF" height="48" width="32" y="248.506" x="240"/>
   <rect id="svg_9" fill="#FFFFFF" height="48" width="32" y="248.506" x="312"/>
  </g>
  <g id="svg_10">
   <rect id="svg_11" fill="#BE1622" height="112.003" width="48" y="248.506" x="72"/>
   <rect id="svg_12" fill="#BE1622" height="112.003" width="48" y="248.506" x="391.996"/>
  </g>
  <g id="svg_13">
   <rect id="svg_14" fill="#FFFFFF" height="40.003" width="48" y="360.498" x="72"/>
   <rect id="svg_15" fill="#FFFFFF" height="40.003" width="48" y="360.498" x="391.996"/>
  </g>
  <rect id="svg_16" fill="#CBBBA0" height="64.003" width="463.996" y="432.498" x="24"/>
  <rect id="svg_17" fill="#FFFFFF" height="72" width="79.996" y="384.498" x="216"/>
  <rect id="svg_18" fill="#BE1622" height="32" width="175.996" y="328.502" x="168"/>
  <g id="svg_19">
   <rect id="svg_20" fill="#1D1D1B" height="15.659" width="511.996" y="495.834"/>
   <rect id="svg_21" fill="#1D1D1B" height="15.659" width="511.996" y="209.619"/>
   <rect id="svg_22" fill="#1D1D1B" height="15.659" width="319.996" y="184.669" x="96"/>
  </g>
  <g id="svg_23">
   <rect id="svg_24" fill="#FFFFFF" height="15.659" width="16" y="128.673" x="216"/>
   <rect id="svg_25" fill="#FFFFFF" height="15.659" width="16" y="128.673" x="247.996"/>
   <rect id="svg_26" fill="#FFFFFF" height="15.659" width="16" y="128.673" x="280.003"/>
  </g>
  <g id="svg_27">
   <rect id="svg_28" fill="#1D1D1B" height="15.659" width="208.003" y="472.669" x="151.996"/>
   <path id="svg_29" fill="#1D1D1B" d="m207.83,304.333l-47.659,0l0,-63.659l47.659,0l0,63.659zm-32,-15.659l16.341,0l0,-32.341l-16.341,0l0,32.341z"/>
   <path id="svg_30" fill="#1D1D1B" d="m279.83,304.333l-47.66,0l0,-63.659l47.659,0l0,63.659l0.001,0zm-32.001,-15.659l16.341,0l0,-32.341l-16.341,0l0,32.341z"/>
   <path id="svg_31" fill="#1D1D1B" d="m351.829,304.333l-47.659,0l0,-63.659l47.659,0l0,63.659zm-32,-15.659l16.341,0l0,-32.341l-16.341,0l0,32.341z"/>
   <path id="svg_32" fill="#1D1D1B" d="m335.829,368.332l15.999,0l0,-47.659l-191.657,0l0,47.659l15.999,0l0,80.341l-8.17,0l0,15.659l176,0l0,-15.659l-8.17,0l0,-80.341l-0.001,0zm-159.999,-31.999l160.34,0l0,16.341l-160.34,0l0,-16.341zm16,31.999l128.34,0l0,80.341l-16.34,0l0,-72l-95.66,0l0,72l-16.34,0l0,-80.341zm71.999,24l24.341,0l0,56.341l-24.341,0l0,-56.341zm-15.658,56.341l-24.341,0l0,-56.341l24.34,0l0,56.341l0.001,0z"/>
   <polygon id="svg_33" fill="#1D1D1B" points="168.001,440.332 168.001,424.673 31.829,424.673 31.829,232.502 16.17,232.502    16.17,488.503 31.829,488.503 31.829,440.332  "/>
   <polygon id="svg_34" fill="#1D1D1B" points="480.171,232.502 480.171,424.673 343.999,424.673 343.999,440.332 480.171,440.332    480.171,488.503 495.829,488.503 495.829,232.502  "/>
   <path id="svg_35" fill="#1D1D1B" d="m127.829,240.673l-63.659,0l0,167.658l63.659,0l0,-167.658zm-15.659,15.659l0,96.341l-32.34,0l0,-96.341l32.34,0l0,0zm-32.34,136.341l0,-24.34l32.34,0l0,24.34l-32.34,0z"/>
   <path id="svg_36" fill="#1D1D1B" d="m447.828,240.673l-63.658,0l0,167.658l63.658,0l0,-167.658zm-15.658,15.659l0,96.341l-32.34,0l0,-96.341l32.34,0l0,0zm-32.34,136.341l0,-24.34l32.34,0l0,24.34l-32.34,0z"/>
   <path id="svg_37" fill="#1D1D1B" d="m168.171,160.673l-16.171,0l0,15.659l208,0l0,-15.659l-16.17,0l0,-56.171c0,-45.789 -35.227,-83.485 -80.001,-87.462l0,-16.537l-15.659,0l0,16.538c-44.772,3.976 -80,41.673 -80,87.462l0,56.17l0.001,0zm87.829,-128.34c37.15,0 67.834,28.214 71.748,64.341l-143.496,0c3.914,-36.127 34.599,-64.341 71.748,-64.341zm-72.17,79.999l144.34,0l0,48.341l-144.34,0l0,-48.341z"/>
  </g>
  <g id="svg_38"/>
  <g id="svg_39"/>
  <g id="svg_40"/>
  <g id="svg_41"/>
  <g id="svg_42"/>
  <g id="svg_43"/>
  <g id="svg_44"/>
  <g id="svg_45"/>
  <g id="svg_46"/>
  <g id="svg_47"/>
  <g id="svg_48"/>
  <g id="svg_49"/>
  <g id="svg_50"/>
  <g id="svg_51"/>
  <g id="svg_52"/>
 </g>
</svg>