<svg width="512" height="512" xmlns="http://www.w3.org/2000/svg" xml:space="preserve" version="1.1">

  <g>
    <title>Layer 1</title>
    <g id="svg_1">
      <polygon id="svg_2" fill="#F95428" points="351.214,52.626 258.008,59.93 258.008,102.539 351.214,109.843  " />
      <rect id="svg_3" fill="#F95428" height="58.586" width="129.516" y="51.938" x="128.487" />
      <path id="svg_4" fill="#F95428" d="m163.839,401.894l126.562,0l0,-243.007l-242.678,0c-13.903,0 -25.174,11.271 -25.174,25.174l0,217.833l23.793,0" />
    </g>
    <path id="svg_5" fill="#E03F20" d="m86.33,158.887l-38.607,0c-13.903,0 -25.174,11.271 -25.174,25.174l0,217.833l23.793,0l14.815,0l0,-217.834c0,-13.902 11.271,-25.173 25.173,-25.173z" />
    <path id="svg_6" fill="#F95428" d="m459.836,401.894l25.796,0l0,-223.49c0,-10.777 -8.729,-19.518 -19.506,-19.518l-175.725,0l0,243.007l51.939,0" />
    <g id="svg_7">
      <circle id="svg_8" fill="#666666" r="58.754" cy="401.888" cx="105.097" />
      <circle id="svg_9" fill="#666666" r="58.754" cy="401.888" cx="401.083" />
    </g>
    <g id="svg_10">
      <circle id="svg_11" fill="#FFFFFF" r="26.235" cy="401.888" cx="401.083" />
      <circle id="svg_12" fill="#FFFFFF" r="26.235" cy="401.888" cx="105.097" />
    </g>
    <polyline id="svg_13" fill="#E03F20" points="316.531,401.894 320.509,401.894 320.509,158.887 290.401,158.887 290.401,401.894   298.41,401.894 " />
    <rect id="svg_14" fill="#E6E6E6" height="76.873" width="87.23" y="193.932" x="398.409" />
    <polygon id="svg_15" fill="#F2F2F2" points="485.636,193.925 485.636,270.798 422.304,270.798 481.338,193.925 " />
    <rect id="svg_16" fill="#E6E6E6" height="76.873" width="52.039" y="193.932" x="317.272" />
    <rect id="svg_17" fill="#2BA5F7" height="31.957" width="42.343" y="126.93" x="398.588" />
    <rect id="svg_18" fill="#E6E6E6" height="76.873" width="189.233" y="193.932" x="61.523" />
    <g id="svg_19">
      <polygon id="svg_20" fill="#F2F2F2" points="251.037,193.925 251.037,270.798 187.705,270.798 246.739,193.925  " />
      <polygon id="svg_21" fill="#F2F2F2" points="187.251,193.925 187.251,270.798 123.92,270.798 182.954,193.925  " />
      <polygon id="svg_22" fill="#F2F2F2" points="125.142,193.925 125.142,270.798 61.81,270.798 120.844,193.925  " />
    </g>
    <rect id="svg_23" fill="#666666" height="48.357" width="79.458" y="110.524" x="152.727" />
    <path id="svg_24" fill="#2BA5F7" d="m483.433,64.88c-24.451,-9.06 -56.378,-8.818 -96.856,13.095c0,0 41.805,2.314 71.275,28.478c10.587,9.4 26.802,8.265 35.627,-2.806l0.488,-0.612c10.36,-12.995 5.049,-32.38 -10.534,-38.155z" />
    <path id="svg_25" d="m105.653,334.454c-34.181,0 -62.458,25.679 -66.601,58.754l-7.548,0l0,-209.44c0,-9.253 7.528,-16.78 16.78,-16.78l17.02,0c4.635,0 8.393,-3.758 8.393,-8.393c0,-4.635 -3.758,-8.393 -8.393,-8.393l-17.019,0c-18.509,0 -33.567,15.058 -33.567,33.567l0,209.44l-6.325,0c-4.635,0 -8.393,3.758 -8.393,8.393s3.758,8.393 8.393,8.393l30.658,0c4.147,33.072 32.422,58.747 66.601,58.747c37.024,0 67.144,-30.121 67.144,-67.145c0.002,-37.023 -30.12,-67.143 -67.143,-67.143zm0,117.502c-27.761,0 -50.348,-22.582 -50.357,-50.34c0,-0.004 0.001,-0.009 0.001,-0.013c0,-0.006 -0.001,-0.01 -0.001,-0.016c0.007,-27.762 22.594,-50.345 50.357,-50.345c27.768,0 50.357,22.591 50.357,50.357s-22.59,50.357 -50.357,50.357z" />
    <path id="svg_26" d="m401.646,366.969c-19.095,0 -34.628,15.535 -34.628,34.628s15.535,34.628 34.628,34.628s34.628,-15.535 34.628,-34.628s-15.533,-34.628 -34.628,-34.628zm0,52.47c-9.838,0 -17.841,-8.004 -17.841,-17.841s8.003,-17.841 17.841,-17.841s17.841,8.004 17.841,17.841s-8.002,17.841 -17.841,17.841z" />
    <path id="svg_27" d="m105.653,366.969c-19.095,0 -34.628,15.535 -34.628,34.628s15.535,34.628 34.628,34.628s34.628,-15.535 34.628,-34.628s-15.534,-34.628 -34.628,-34.628zm0,52.47c-9.838,0 -17.841,-8.004 -17.841,-17.841s8.004,-17.841 17.841,-17.841s17.841,8.004 17.841,17.841s-8.004,17.841 -17.841,17.841z" />
    <path id="svg_28" d="m503.607,393.208l-9.021,0l0,-215.096c0,-15.39 -12.516,-27.911 -27.9,-27.911l-16.797,0l0,-23.564c0,-4.635 -3.757,-8.393 -8.393,-8.393l-42.343,0c-4.637,0 -8.393,3.758 -8.393,8.393l0,23.564l-149.615,0l0,-31.573l17.425,0c4.268,0 7.785,-3.188 8.316,-7.311l84.234,6.602c0.218,0.017 0.439,0.026 0.656,0.026c2.105,0 4.142,-0.791 5.699,-2.232c1.718,-1.588 2.695,-3.823 2.695,-6.162l0,-57.217c0,-2.34 -0.977,-4.574 -2.695,-6.162c-1.717,-1.588 -4.022,-2.389 -6.354,-2.206l-84.234,6.602c-0.532,-4.123 -4.048,-7.311 -8.316,-7.311l-38.835,0c-4.635,0 -8.393,3.758 -8.393,8.393s3.758,8.393 8.393,8.393l30.441,0l0,41.799l-112.73,0l0,-41.799l55.431,0c4.635,0 8.393,-3.758 8.393,-8.393s-3.758,-8.393 -8.393,-8.393l-63.825,0c-4.635,0 -8.393,3.758 -8.393,8.393l0,58.586c0,4.635 3.758,8.393 8.393,8.393l15.847,0l0,31.573l-50.733,0c-4.635,0 -8.393,3.758 -8.393,8.393c0,4.635 3.758,8.393 8.393,8.393l188.403,0l0,165.054c0,4.635 3.757,8.393 8.393,8.393s8.393,-3.758 8.393,-8.393l0,-165.054l99.797,0l42.342,0l25.192,0c6.128,0 11.113,4.99 11.113,11.124l0,7.133l-78.831,0c-4.637,0 -8.393,3.758 -8.393,8.393l0,76.869c0,4.635 3.757,8.393 8.393,8.393l78.83,0l0,114.307l-9.552,0c-4.144,-33.076 -32.421,-58.754 -66.601,-58.754s-62.457,25.679 -66.601,58.754l-35.689,0l0,-30.951c0,-4.635 -3.757,-8.393 -8.393,-8.393s-8.393,3.758 -8.393,8.393l0,30.951l-93.049,0c-4.635,0 -8.393,3.758 -8.393,8.393c0,4.635 3.758,8.393 8.393,8.393l101.442,0l44.083,0c4.147,33.072 32.423,58.747 66.6,58.747s62.453,-25.675 66.6,-58.747l17.946,0l17.415,0c4.637,0 8.393,-3.758 8.393,-8.393c0,-4.633 -3.757,-8.392 -8.393,-8.392zm-160.225,-292.734l-76.419,-5.988l0,-27.087l76.419,-5.988l0,39.063zm-181.695,49.727l0,-31.573l62.671,0l0,31.573l-62.671,0zm245.859,0l0,-15.171l25.555,0l0,15.171l-25.555,0zm-0.184,111.913l0,-60.083l70.437,0l0,60.083l-70.437,0zm-5.716,189.842c-27.746,0 -50.323,-22.558 -50.356,-50.298c0,-0.019 0.003,-0.037 0.003,-0.056c0,-0.02 -0.003,-0.039 -0.003,-0.059c0.03,-27.742 22.607,-50.302 50.356,-50.302c27.768,0 50.357,22.591 50.357,50.357s-22.589,50.358 -50.357,50.358z" />
    <path id="svg_29" d="m369.88,278.901c4.637,0 8.393,-3.758 8.393,-8.393l0,-76.869c0,-4.635 -3.757,-8.393 -8.393,-8.393l-52.044,0c-4.637,0 -8.393,3.758 -8.393,8.393l0,76.869c0,4.635 3.757,8.393 8.393,8.393l52.044,0zm-43.65,-76.869l35.257,0l0,60.083l-35.257,0l0,-60.083z" />
    <path id="svg_30" d="m468.915,323.106l0,-19.025c0,-4.635 -3.757,-8.393 -8.393,-8.393s-8.393,3.758 -8.393,8.393l0,19.025c0,4.635 3.757,8.393 8.393,8.393s8.393,-3.757 8.393,-8.393z" />
    <path id="svg_31" d="m53.691,193.639l0,76.869c0,4.635 3.758,8.393 8.393,8.393l189.233,0c4.635,0 8.393,-3.758 8.393,-8.393l0,-76.869c0,-4.635 -3.758,-8.393 -8.393,-8.393l-189.232,0c-4.637,0 -8.394,3.758 -8.394,8.393zm79.773,68.475l0,-60.083l46.474,0l0,60.083l-46.474,0zm109.46,0l-46.199,0l0,-60.083l46.199,0l0,60.083l0,0zm-172.446,-60.082l46.2,0l0,60.083l-46.2,0l0,-60.083z" />
    <path id="svg_32" d="m386.675,86.064c0.388,0.021 39.195,2.428 66.166,26.373c6.141,5.452 14.108,8.459 22.215,8.459c0.931,0 1.864,-0.04 2.797,-0.12c9.023,-0.777 17.104,-5.105 22.751,-12.188l0.49,-0.613c6.655,-8.349 8.831,-19.04 5.966,-29.331c-2.852,-10.246 -10.195,-18.237 -20.148,-21.925c-30.993,-11.487 -65.904,-6.913 -103.769,13.584c-3.303,1.788 -5.016,5.552 -4.194,9.217c0.82,3.664 3.977,6.336 7.726,6.544zm94.402,-13.605l0,0c4.844,1.795 8.418,5.689 9.81,10.684c1.403,5.043 0.339,10.279 -2.919,14.365l-0.49,0.613c-2.747,3.446 -6.678,5.551 -11.066,5.929c-4.549,0.394 -8.96,-1.09 -12.427,-4.168c-15.548,-13.803 -34.048,-21.416 -48.954,-25.593c24.061,-8.558 46.199,-9.186 66.046,-1.83z" />
    <g id="svg_33" />
    <g id="svg_34" />
    <g id="svg_35" />
    <g id="svg_36" />
    <g id="svg_37" />
    <g id="svg_38" />
    <g id="svg_39" />
    <g id="svg_40" />
    <g id="svg_41" />
    <g id="svg_42" />
    <g id="svg_43" />
    <g id="svg_44" />
    <g id="svg_45" />
    <g id="svg_46" />
    <g id="svg_47" />
  </g>
</svg>