<svg width="504" height="400" xmlns="http://www.w3.org/2000/svg" xml:space="preserve" version="1.1">

 <g>
  <title>Layer 1</title>
  <path id="svg_1" fill="#FF7300" d="m448.8,78.8c0,1.6 -0.8,3.2 -2.4,4l-92.8,15.2c-1.6,0 -3.2,-0.8 -4,-2.4l-1.6,-8.8c0,-1.6 0.8,-3.2 2.4,-4l93.6,-15.2c1.6,0 3.2,0.8 4,2.4l0.8,8.8z"/>
  <path id="svg_2" fill="#FF9700" d="m348.8,86.8c0,-1.6 0.8,-3.2 2.4,-4l92.8,-15.2c1.6,0 3.2,0.8 4,2.4"/>
  <g id="svg_3">
   <circle id="svg_4" fill="#BF1111" r="2.39999" cy="89.2" cx="359.2"/>
   <circle id="svg_5" fill="#BF1111" r="2.39999" cy="86.8" cx="372"/>
   <circle id="svg_6" fill="#BF1111" r="2.39999" cy="85.2" cx="385.6"/>
   <circle id="svg_7" fill="#BF1111" r="2.39999" cy="82.8" cx="398.4"/>
   <circle id="svg_8" fill="#BF1111" r="2.39999" cy="80.4" cx="412"/>
   <circle id="svg_9" fill="#BF1111" r="2.39999" cy="78.8" cx="424.8"/>
   <circle id="svg_10" fill="#BF1111" r="2.39999" cy="76.4" cx="438.4"/>
  </g>
  <path id="svg_11" fill="#FF7300" d="m358.4,96.4c0.8,3.2 -1.6,5.6 -4.8,6.4l-151.2,24.8c-3.2,0.8 -5.6,-1.6 -6.4,-4.8l-2.4,-13.6c-0.8,-3.2 1.6,-5.6 4.8,-6.4l151.2,-24.8c3.2,-0.8 5.6,1.6 6.4,4.8l2.4,13.6z"/>
  <path id="svg_12" fill="#FF9700" d="m194.4,108.4c-0.8,-3.2 1.6,-5.6 4.8,-6.4l150.4,-24c3.2,-0.8 5.6,1.6 6.4,4.8"/>
  <g id="svg_13">
   <circle id="svg_14" fill="#BF1111" r="3.2" cy="113.2" cx="211.2"/>
   <circle id="svg_15" fill="#BF1111" r="3.2" cy="109.2" cx="232.8"/>
   <circle id="svg_16" fill="#BF1111" r="3.19998" cy="106" cx="254.4"/>
   <circle id="svg_17" fill="#BF1111" r="3.2" cy="102.8" cx="276"/>
   <circle id="svg_18" fill="#BF1111" r="3.2" cy="98.8" cx="297.6"/>
   <circle id="svg_19" fill="#BF1111" r="3.19999" cy="95.6" cx="319.2"/>
   <circle id="svg_20" fill="#BF1111" r="3.2" cy="92.4" cx="340.8"/>
  </g>
  <path id="svg_21" fill="#FF7300" d="m244.8,118c0.8,4 -2.4,8 -6.4,8.8l-220,36c-4,0.8 -8,-2.4 -8.8,-6.4l-3.2,-20c-0.8,-4 2.4,-8 6.4,-8.8l220,-35.2c4,-0.8 8,2.4 8.8,6.4l3.2,19.2z"/>
  <path id="svg_22" fill="#FF9700" d="m6.4,135.6c-0.8,-4 2.4,-8 6.4,-8.8l220,-35.2c4,-0.8 8,2.4 8.8,6.4"/>
  <g id="svg_23">
   <circle id="svg_24" fill="#BF1111" r="4.8" cy="142" cx="31.2"/>
   <circle id="svg_25" fill="#BF1111" r="4.8" cy="137.2" cx="62.4"/>
   <circle id="svg_26" fill="#BF1111" r="4.79999" cy="131.6" cx="94.4"/>
   <circle id="svg_27" fill="#BF1111" r="4.8" cy="126.8" cx="125.6"/>
   <circle id="svg_28" fill="#BF1111" r="4.8" cy="122" cx="156.8"/>
   <circle id="svg_29" fill="#BF1111" r="4.8" cy="116.4" cx="188"/>
   <circle id="svg_30" fill="#BF1111" r="4.8" cy="111.6" cx="220"/>
  </g>
  <path id="svg_31" fill="#FF9700" d="m188,209.2c0,4.8 -4,8 -8,8l-128.8,0c-4.8,0 -8,-4 -8,-8l0,-59.2c0,-4.8 4,-8 8,-8l128.8,0c4.8,0 8,4 8,8l0,59.2z"/>
  <path id="svg_32" fill="#BC043D" d="m8.8,287.6c0,2.4 -1.6,4 -4,4l0,0c-2.4,0 -4,-1.6 -4,-4l0,-11.2c0,-2.4 1.6,-4 4,-4l0,0c2.4,0 4,1.6 4,4l0,11.2z"/>
  <path id="svg_33" fill="#FEDA00" d="m8.8,302c0,1.6 -1.6,4 -4,4l0,0c-2.4,0 -4,-1.6 -4,-4l0,-11.2c0,-1.6 1.6,-4 4,-4l0,0c2.4,0 4,1.6 4,4l0,11.2z"/>
  <path id="svg_34" fill="#FF7F00" d="m500.8,307.6c0,4.8 -4,8 -8,8l-4.8,0c-4.8,0 -8,-4 -8,-8l0,-23.2c0,-4.8 4,-8 8,-8l4.8,0c4.8,0 8,4 8,8l0,23.2z"/>
  <path id="svg_35" fill="#E00E0E" d="m496.8,301.2c0,4.8 -4,8 -8,8l-476,0c-4.8,0 -8,-4 -8,-8l0,-129.6c0,-4.8 22.4,-21.6 27.2,-21.6l418.4,0c4.8,0 47.2,16 47.2,20.8l0,130.4l-0.8,0z"/>
  <path id="svg_36" fill="#BF1111" d="m4.8,262l0,39.2c0,4.8 4,8 8,8l476,0c4.8,0 8,-4 8,-8l0,-39.2l-492,0z"/>
  <path id="svg_37" fill="#9CBBBC" d="m342.4,306.8c0,4 -3.2,8 -8,8l-76,0c-4,0 -8,-3.2 -8,-8l0,-123.2c0,-4 3.2,-8 8,-8l76,0c4,0 8,3.2 8,8l0,123.2z"/>
  <path id="svg_38" fill="#BAD6D8" d="m334.4,182.8l-76,0c-4,0 -8,3.2 -8,8l0,116c0,4 3.2,8 8,8l76,0c4,0 8,-3.2 8,-8l0,-116c0,-4.8 -3.2,-8 -8,-8z"/>
  <path id="svg_39" fill="#9CBBBC" d="m251.2,262l0,44.8c0,0.8 0,2.4 0.8,3.2l90.4,0c0,-0.8 0.8,-1.6 0.8,-3.2l0,-44.8l-92,0z"/>
  <path id="svg_40" fill="#FF9700" d="m504,312.4c0,4 -3.2,7.2 -7.2,7.2l-489.6,0c-4,0 -7.2,-3.2 -7.2,-7.2l0,0c0,-4 3.2,-7.2 7.2,-7.2l490.4,0c3.2,0 6.4,3.2 6.4,7.2l0,0z"/>
  <path id="svg_41" d="m33.6,310c0,-20 16.8,-36.8 36.8,-36.8s36.8,16.8 36.8,36.8"/>
  <path id="svg_42" fill="#FF9700" d="m108,310l-3.2,0c0,-19.2 -16,-35.2 -35.2,-35.2s-35.2,16 -35.2,35.2l-2.4,0c0,-20.8 16.8,-38.4 38.4,-38.4c20.8,0 37.6,16.8 37.6,38.4z"/>
  <circle id="svg_43" fill="#203547" r="32.79999" cy="310.8" cx="70.4"/>
  <path id="svg_44" fill="#122130" d="m93.6,287.6c12.8,12.8 12.8,33.6 0,47.2c-12.8,12.8 -33.6,12.8 -47.2,0"/>
  <circle id="svg_45" fill="#FFA300" r="20.79999" cy="310.8" cx="70.4"/>
  <path id="svg_46" fill="#FF8500" d="m84.8,296.4c8,8 8,21.6 0,29.6s-21.6,8 -29.6,0"/>
  <circle id="svg_47" fill="#E00E0E" r="18.39999" cy="310.8" cx="69.6"/>
  <path id="svg_48" fill="#BF1111" d="m83.2,298c7.2,7.2 7.2,18.4 0,25.6s-18.4,7.2 -25.6,0"/>
  <path id="svg_49" fill="#888F91" opacity="0.2" d="m78.4,310.8c0,4.8 -4,9.6 -8.8,9.6s-8.8,-4.8 -8.8,-9.6c0,-4.8 4,-8.8 8.8,-8.8c4.8,0.8 8.8,4.8 8.8,8.8z"/>
  <circle id="svg_50" fill="#BF1111" r="8.79999" cy="310.8" cx="70.4"/>
  <path id="svg_51" fill="#E00E0E" d="m70.4,302.8c4.8,0 8.8,4 8.8,8.8s-4,8.8 -8.8,8.8"/>
  <path id="svg_52" fill="#666E70" d="m70.4,293.2c-0.8,0 -1.6,0 -2.4,0c0,2.4 1.6,4.8 2.4,4.8s2.4,-1.6 2.4,-4.8c-0.8,0 -1.6,0 -2.4,0z"/>
  <path id="svg_53" fill="#535A5B" d="m70.4,297.2c0.8,0 2.4,-1.6 2.4,-4.8c-0.8,0 -1.6,0 -2.4,0"/>
  <path id="svg_54" fill="#666E70" d="m67.2,329.2c1.6,0 3.2,0 4.8,0c0,-2.4 -1.6,-4.8 -2.4,-4.8c-0.8,0 -1.6,2.4 -2.4,4.8z"/>
  <path id="svg_55" fill="#535A5B" d="m72.8,329.2c0,-2.4 -1.6,-4.8 -2.4,-4.8"/>
  <path id="svg_56" fill="#666E70" d="m55.2,300.4c2.4,1.6 4.8,1.6 5.6,0.8s0,-3.2 -1.6,-4.8c-1.6,1.6 -2.4,2.4 -4,4z"/>
  <path id="svg_57" fill="#535A5B" d="m60.8,301.2c0.8,-0.8 0,-3.2 -1.6,-4.8"/>
  <path id="svg_58" fill="#666E70" d="m84.8,322c-2.4,-1.6 -4,-2.4 -4.8,-1.6s0,3.2 1.6,4.8c0.8,-0.8 1.6,-0.8 1.6,-1.6c0,0 0.8,-0.8 1.6,-1.6z"/>
  <path id="svg_59" fill="#535A5B" d="m83.2,324.4c0.8,-0.8 0.8,-1.6 1.6,-1.6c-2.4,-1.6 -4,-2.4 -4.8,-1.6"/>
  <path id="svg_60" fill="#666E70" d="m52,313.2c2.4,0 4.8,-1.6 4.8,-2.4s-1.6,-2.4 -4.8,-2.4c0,0.8 0,1.6 0,2.4s0,1.6 0,2.4z"/>
  <path id="svg_61" fill="#535A5B" d="m56.8,310.8c0,-0.8 -1.6,-2.4 -4.8,-2.4c0,0.8 0,1.6 0,2.4"/>
  <path id="svg_62" fill="#666E70" d="m83.2,310.8c0,0.8 1.6,2.4 4.8,2.4c0,-1.6 0,-3.2 0,-4.8c-2.4,0.8 -4.8,1.6 -4.8,2.4z"/>
  <path id="svg_63" fill="#535A5B" d="m88,308.4c-2.4,0 -4.8,1.6 -4.8,2.4"/>
  <path id="svg_64" fill="#666E70" d="m55.2,322c0.8,1.6 2.4,2.4 3.2,3.2c1.6,-2.4 2.4,-4 1.6,-4.8c0,-0.8 -2.4,0 -4.8,1.6z"/>
  <path id="svg_65" fill="#535A5B" d="m59.2,326c1.6,-2.4 2.4,-4 1.6,-4.8"/>
  <path id="svg_66" fill="#666E70" d="m80.8,296.4c-1.6,2.4 -2.4,4 -1.6,4.8s3.2,0 4.8,-1.6c-0.8,-0.8 -1.6,-1.6 -3.2,-3.2z"/>
  <path id="svg_67" fill="#535A5B" d="m80.8,296.4c-1.6,2.4 -2.4,4 -1.6,4.8"/>
  <path id="svg_68" d="m357.6,310c0,-20 16.8,-36.8 36.8,-36.8s36.8,16.8 36.8,36.8"/>
  <path id="svg_69" fill="#FF9700" d="m432.8,310l-3.2,0c0,-19.2 -16,-35.2 -35.2,-35.2s-35.2,16 -35.2,35.2l-3.2,0c0,-20.8 16.8,-38.4 38.4,-38.4c20.8,0 38.4,16.8 38.4,38.4z"/>
  <circle id="svg_70" fill="#203547" r="32.8" cy="310.8" cx="394.4"/>
  <path id="svg_71" fill="#122130" d="m417.6,287.6c12.8,12.8 12.8,33.6 0,47.2c-12.8,12.8 -33.6,12.8 -47.2,0"/>
  <path id="svg_72" fill="#FFA300" d="m415.2,310.8c0,11.2 -9.6,20.8 -20.8,20.8c-11.2,0 -20.8,-9.6 -20.8,-20.8c0,-11.2 9.6,-20.8 20.8,-20.8s20.8,9.6 20.8,20.8z"/>
  <path id="svg_73" fill="#FF8500" d="m408.8,296.4c8,8 8,21.6 0,29.6s-21.6,8 -29.6,0"/>
  <circle id="svg_74" fill="#E00E0E" r="18.39999" cy="310.8" cx="394.4"/>
  <path id="svg_75" fill="#BF1111" d="m407.2,298c7.2,7.2 7.2,18.4 0,25.6s-18.4,7.2 -25.6,0"/>
  <path id="svg_76" fill="#888F91" opacity="0.2" d="m403.2,310.8c0,4.8 -4,9.6 -8.8,9.6s-8.8,-4.8 -8.8,-9.6c0,-4.8 4,-8.8 8.8,-8.8c4.8,0.8 8.8,4.8 8.8,8.8z"/>
  <circle id="svg_77" fill="#BF1111" r="8.8" cy="310.8" cx="394.4"/>
  <path id="svg_78" fill="#E00E0E" d="m394.4,302.8c4.8,0 8.8,4 8.8,8.8s-4,8.8 -8.8,8.8"/>
  <path id="svg_79" fill="#666E70" d="m394.4,293.2c-0.8,0 -1.6,0 -2.4,0c0,2.4 1.6,4.8 2.4,4.8s2.4,-1.6 2.4,-4.8c-0.8,0 -1.6,0 -2.4,0z"/>
  <path id="svg_80" fill="#535A5B" d="m394.4,297.2c0.8,0 2.4,-1.6 2.4,-4.8c-0.8,0 -1.6,0 -2.4,0"/>
  <path id="svg_81" fill="#666E70" d="m392,329.2c1.6,0 3.2,0 4.8,0c0,-2.4 -1.6,-4.8 -2.4,-4.8c-0.8,0 -2.4,2.4 -2.4,4.8z"/>
  <path id="svg_82" fill="#535A5B" d="m396.8,329.2c0,-2.4 -1.6,-4.8 -2.4,-4.8"/>
  <path id="svg_83" fill="#666E70" d="m380,300.4c2.4,1.6 4,2.4 4.8,1.6s0,-3.2 -1.6,-4.8c-0.8,0.8 -2.4,1.6 -3.2,3.2z"/>
  <path id="svg_84" fill="#535A5B" d="m384.8,301.2c0.8,-0.8 0,-3.2 -1.6,-4.8"/>
  <path id="svg_85" fill="#666E70" d="m408.8,322c-2.4,-1.6 -4,-2.4 -4.8,-1.6s0,3.2 1.6,4.8c0.8,-0.8 1.6,-0.8 1.6,-1.6c0.8,0 0.8,-0.8 1.6,-1.6z"/>
  <path id="svg_86" fill="#535A5B" d="m407.2,324.4c0.8,-0.8 0.8,-1.6 1.6,-1.6c-2.4,-1.6 -4,-2.4 -4.8,-1.6"/>
  <path id="svg_87" fill="#666E70" d="m376,313.2c2.4,0 4.8,-1.6 4.8,-2.4s-1.6,-2.4 -4.8,-2.4c0,0.8 0,1.6 0,2.4s0,1.6 0,2.4z"/>
  <path id="svg_88" fill="#535A5B" d="m380.8,310.8c0,-0.8 -1.6,-2.4 -4.8,-2.4c0,0.8 0,1.6 0,2.4"/>
  <path id="svg_89" fill="#666E70" d="m408,310.8c0,0.8 1.6,2.4 4.8,2.4c0,-1.6 0,-3.2 0,-4.8c-3.2,0.8 -4.8,1.6 -4.8,2.4z"/>
  <path id="svg_90" fill="#535A5B" d="m412.8,308.4c-2.4,0 -4.8,1.6 -4.8,2.4"/>
  <path id="svg_91" fill="#666E70" d="m380,322c0.8,1.6 2.4,2.4 3.2,3.2c1.6,-2.4 2.4,-4 1.6,-4.8c-0.8,-0.8 -2.4,0 -4.8,1.6z"/>
  <path id="svg_92" fill="#535A5B" d="m383.2,326c1.6,-2.4 2.4,-4 1.6,-4.8"/>
  <path id="svg_93" fill="#666E70" d="m405.6,296.4c-1.6,2.4 -2.4,4 -1.6,4.8s3.2,0 4.8,-1.6c-0.8,-0.8 -2.4,-1.6 -3.2,-3.2z"/>
  <path id="svg_94" fill="#535A5B" d="m405.6,296.4c-1.6,2.4 -2.4,4 -1.6,4.8"/>
  <path id="svg_95" fill="#51859B" d="m496.8,175.6l-104,0c-4.8,0 -8,4 -8,8l0,34.4c0,4.8 4,8 8,8l104,0l0,-50.4z"/>
  <path id="svg_96" fill="#FFDA00" d="m500,276.4c0,2.4 -2.4,4.8 -4.8,4.8l0,0c-2.4,0 -4.8,-2.4 -4.8,-4.8l0,-9.6c0,-2.4 2.4,-4.8 4.8,-4.8l0,0c2.4,0 4.8,2.4 4.8,4.8l0,9.6z"/>
  <path id="svg_97" fill="#8E8E8E" d="m464.8,235.6c0,0.8 -0.8,1.6 -1.6,1.6l-10.4,0c-0.8,0 -1.6,-0.8 -1.6,-1.6l0,0c0,-0.8 0.8,-1.6 1.6,-1.6l10.4,0c0.8,-0.8 1.6,0 1.6,1.6l0,0z"/>
  <g id="svg_98">
   <path id="svg_99" fill="#81B6C9" d="m434.4,175.6l-48,48c1.6,1.6 4,3.2 6.4,3.2l1.6,0l51.2,-51.2l-11.2,0l0,0z"/>
   <polygon id="svg_100" fill="#81B6C9" points="492,175.60000610351562 483.20001220703125,175.60000610351562 432.79998779296875,226.79998779296875 441.6000061035156,226.79998779296875 "/>
   <polygon id="svg_101" fill="#81B6C9" points="470.3999938964844,175.60000610351562 452,175.60000610351562 400.79998779296875,226.79998779296875 419.20001220703125,226.79998779296875 "/>
   <path id="svg_102" fill="#81B6C9" d="m412.8,175.6l-20,0c-4.8,0 -8,4 -8,8l0,20l28,-28z"/>
   <polygon id="svg_103" fill="#81B6C9" points="475.20001220703125,226.79998779296875 496.79998779296875,226.79998779296875 496.79998779296875,204.39999389648438 "/>
  </g>
  <g id="svg_104">
   <rect id="svg_105" fill="#E00E0E" height="69.6" width="12.8" y="168.4" x="433.6"/>
   <rect id="svg_106" fill="#E00E0E" height="69.6" width="12.8" y="168.4" x="401.6"/>
  </g>
  <g id="svg_107">
   <path id="svg_108" fill="#7FA0A0" d="m339.2,193.2c0,0.8 -0.8,1.6 -1.6,1.6l-81.6,0c-0.8,0 -1.6,-0.8 -1.6,-1.6l0,0c0,-0.8 0.8,-1.6 1.6,-1.6l81.6,0c0.8,0 1.6,0.8 1.6,1.6l0,0z"/>
   <path id="svg_109" fill="#7FA0A0" d="m339.2,205.2c0,0.8 -0.8,1.6 -1.6,1.6l-81.6,0c-0.8,0 -1.6,-0.8 -1.6,-1.6l0,0c0,-0.8 0.8,-1.6 1.6,-1.6l81.6,0c0.8,0 1.6,0.8 1.6,1.6l0,0z"/>
   <path id="svg_110" fill="#7FA0A0" d="m339.2,217.2c0,0.8 -0.8,1.6 -1.6,1.6l-81.6,0c-0.8,0 -1.6,-0.8 -1.6,-1.6l0,0c0,-0.8 0.8,-1.6 1.6,-1.6l81.6,0c0.8,0 1.6,0.8 1.6,1.6l0,0z"/>
   <path id="svg_111" fill="#7FA0A0" d="m339.2,230c0,0.8 -0.8,1.6 -1.6,1.6l-81.6,0c-0.8,0 -1.6,-0.8 -1.6,-1.6l0,0c0,-0.8 0.8,-1.6 1.6,-1.6l81.6,0c0.8,0 1.6,0.8 1.6,1.6l0,0z"/>
   <path id="svg_112" fill="#7FA0A0" d="m339.2,242c0,0.8 -0.8,1.6 -1.6,1.6l-81.6,0c-0.8,0 -1.6,-0.8 -1.6,-1.6l0,0c0,-0.8 0.8,-1.6 1.6,-1.6l81.6,0c0.8,0 1.6,0.8 1.6,1.6l0,0z"/>
   <path id="svg_113" fill="#7FA0A0" d="m339.2,254c0,0.8 -0.8,1.6 -1.6,1.6l-81.6,0c-0.8,0 -1.6,-0.8 -1.6,-1.6l0,0c0,-0.8 0.8,-1.6 1.6,-1.6l81.6,0c0.8,0.8 1.6,0.8 1.6,1.6l0,0z"/>
   <path id="svg_114" fill="#7FA0A0" d="m339.2,266.8c0,0.8 -0.8,1.6 -1.6,1.6l-81.6,0c-0.8,0 -1.6,-0.8 -1.6,-1.6l0,0c0,-0.8 0.8,-1.6 1.6,-1.6l81.6,0c0.8,0 1.6,0.8 1.6,1.6l0,0z"/>
   <path id="svg_115" fill="#7FA0A0" d="m339.2,278.8c0,0.8 -0.8,1.6 -1.6,1.6l-81.6,0c-0.8,0 -1.6,-0.8 -1.6,-1.6l0,0c0,-0.8 0.8,-1.6 1.6,-1.6l81.6,0c0.8,0 1.6,0.8 1.6,1.6l0,0z"/>
   <path id="svg_116" fill="#7FA0A0" d="m339.2,291.6c0,0.8 -0.8,1.6 -1.6,1.6l-81.6,0c-0.8,0 -1.6,-0.8 -1.6,-1.6l0,0c0,-0.8 0.8,-1.6 1.6,-1.6l81.6,0c0.8,0 1.6,0.8 1.6,1.6l0,0z"/>
  </g>
  <g id="svg_117">
   <path id="svg_118" fill="#BAD6D8" d="m142.4,318.8c0,2.4 -2.4,4.8 -4.8,4.8l0,0c-2.4,0 -4.8,-2.4 -4.8,-4.8l0,-167.2c0,-2.4 2.4,-4.8 4.8,-4.8l0,0c2.4,0 4.8,2.4 4.8,4.8l0,167.2z"/>
   <path id="svg_119" fill="#BAD6D8" d="m187.2,318.8c0,2.4 -2.4,4.8 -4.8,4.8l0,0c-2.4,0 -4.8,-2.4 -4.8,-4.8l0,-167.2c0,-2.4 2.4,-4.8 4.8,-4.8l0,0c2.4,0 4.8,2.4 4.8,4.8l0,167.2z"/>
  </g>
  <g id="svg_120">
   <path id="svg_121" fill="#86A8A8" d="m181.6,161.2c0,1.6 -0.8,2.4 -2.4,2.4l-39.2,0c-1.6,0 -2.4,-0.8 -2.4,-2.4l0,0c0,-1.6 0.8,-2.4 2.4,-2.4l39.2,0c1.6,0 2.4,0.8 2.4,2.4l0,0z"/>
   <path id="svg_122" fill="#86A8A8" d="m181.6,178.8c0,1.6 -0.8,2.4 -2.4,2.4l-39.2,0c-1.6,0 -2.4,-0.8 -2.4,-2.4l0,0c0,-1.6 0.8,-2.4 2.4,-2.4l39.2,0c1.6,0 2.4,0.8 2.4,2.4l0,0z"/>
   <path id="svg_123" fill="#86A8A8" d="m181.6,196.4c0,1.6 -0.8,2.4 -2.4,2.4l-39.2,0c-1.6,0 -2.4,-0.8 -2.4,-2.4l0,0c0,-1.6 0.8,-2.4 2.4,-2.4l39.2,0c1.6,0 2.4,1.6 2.4,2.4l0,0z"/>
   <path id="svg_124" fill="#86A8A8" d="m181.6,214c0,1.6 -0.8,2.4 -2.4,2.4l-39.2,0c-1.6,0 -2.4,-0.8 -2.4,-2.4l0,0c0,-1.6 0.8,-2.4 2.4,-2.4l39.2,0c1.6,0.8 2.4,1.6 2.4,2.4l0,0z"/>
   <path id="svg_125" fill="#86A8A8" d="m181.6,231.6c0,1.6 -0.8,2.4 -2.4,2.4l-39.2,0c-1.6,0 -2.4,-0.8 -2.4,-2.4l0,0c0,-1.6 0.8,-2.4 2.4,-2.4l39.2,0c1.6,0.8 2.4,1.6 2.4,2.4l0,0z"/>
   <path id="svg_126" fill="#86A8A8" d="m181.6,250c0,1.6 -0.8,2.4 -2.4,2.4l-39.2,0c-1.6,0 -2.4,-0.8 -2.4,-2.4l0,0c0,-1.6 0.8,-2.4 2.4,-2.4l39.2,0c1.6,0 2.4,0.8 2.4,2.4l0,0z"/>
   <path id="svg_127" fill="#86A8A8" d="m181.6,267.6c0,1.6 -0.8,2.4 -2.4,2.4l-39.2,0c-1.6,0 -2.4,-0.8 -2.4,-2.4l0,0c0,-1.6 0.8,-2.4 2.4,-2.4l39.2,0c1.6,0 2.4,0.8 2.4,2.4l0,0z"/>
   <path id="svg_128" fill="#86A8A8" d="m181.6,285.2c0,1.6 -0.8,2.4 -2.4,2.4l-39.2,0c-1.6,0 -2.4,-0.8 -2.4,-2.4l0,0c0,-1.6 0.8,-2.4 2.4,-2.4l39.2,0c1.6,0 2.4,0.8 2.4,2.4l0,0z"/>
   <path id="svg_129" fill="#86A8A8" d="m181.6,302.8c0,1.6 -0.8,2.4 -2.4,2.4l-39.2,0c-1.6,0 -2.4,-0.8 -2.4,-2.4l0,0c0,-1.6 0.8,-2.4 2.4,-2.4l39.2,0c1.6,0 2.4,1.6 2.4,2.4l0,0z"/>
  </g>
  <path id="svg_130" fill="#85A7A8" d="m76,268.4c-19.2,0 -34.4,-15.2 -34.4,-34.4c0,-16 12.8,-28.8 28.8,-28.8c12.8,0 24,10.4 24,24c0,2.4 -1.6,4 -4,4s-4,-1.6 -4,-4c0,-8.8 -7.2,-16 -16,-16c-11.2,0 -20.8,9.6 -20.8,20.8c0,14.4 12,27.2 27.2,27.2c19.2,0 34.4,-15.2 34.4,-34.4c0,-24 -20,-44 -44,-44c-2.4,0 -4,-1.6 -4,-4s0.8,-4.8 3.2,-4.8c28.8,0 52,23.2 52,52c0,23.2 -19.2,42.4 -42.4,42.4z"/>
  <path id="svg_131" fill="#6D9191" d="m41.6,236.4c1.6,17.6 16,32 34.4,32c22.4,0 40.8,-17.6 42.4,-40.8c-2.4,-27.2 -24.8,-48 -52,-48c-0.8,0 -1.6,0 -2.4,0.8c0.8,0.8 1.6,1.6 2.4,1.6c24,0 44,20 44,44c0,0.8 0,1.6 0,1.6c0,1.6 0,2.4 0,4c0,19.2 -15.2,34.4 -34.4,34.4c-14.4,0 -27.2,-12 -27.2,-27.2c0,-0.8 0,-1.6 0,-3.2c0,-0.8 0,-1.6 0,-3.2c0,-11.2 9.6,-20.8 20.8,-20.8c8.8,0 16,7.2 16,16c0,2.4 1.6,4 4,4c1.6,0 3.2,-0.8 3.2,-2.4c-1.6,-11.2 -12,-19.2 -23.2,-19.2c-14.4,0.8 -26.4,12 -28,26.4z"/>
  <path id="svg_132" fill="#BF1111" d="m97.6,240.4c0,4 4,8 0,8l-36.8,0c-4,0 0,-3.2 0,-8l0,-7.2c0,-4 3.2,-8 8,-8l20.8,0c4,0 8,3.2 8,8c0,0 0,7.2 0,7.2z"/>
  <path id="svg_133" fill="#EA2424" d="m60.8,234c0,-4 3.2,-8 8,-8l20.8,0c4,0 8,3.2 8,8"/>
  <path id="svg_134" fill="#FF9700" d="m68.8,177.2c0,4.8 -4,8 -8,8s-28.8,-4 -28.8,-8c0,-4.8 24,-8 28.8,-8s8,4 8,8z"/>
  <path id="svg_135" fill="#FF7300" d="m68.8,177.2c0,4.8 -4,8 -8,8s-28.8,-4 -28.8,-8"/>
  <g id="svg_136"/>
  <g id="svg_137"/>
  <g id="svg_138"/>
  <g id="svg_139"/>
  <g id="svg_140"/>
  <g id="svg_141"/>
  <g id="svg_142"/>
  <g id="svg_143"/>
  <g id="svg_144"/>
  <g id="svg_145"/>
  <g id="svg_146"/>
  <g id="svg_147"/>
  <g id="svg_148"/>
  <g id="svg_149"/>
  <g id="svg_150"/>
 </g>
</svg>