<svg width="441.297" height="441.297" xmlns="http://www.w3.org/2000/svg" xml:space="preserve" version="1.1">

 <g>
  <title>Layer 1</title>
  <g id="svg_1">
   <rect id="svg_2" fill="#F93030" height="300" width="418" y="120.982" x="11.648"/>
   <rect id="svg_3" fill="#B52828" height="213" width="244" y="207.982" x="35.648"/>
   <rect id="svg_4" fill="#2D4151" height="208" width="234" y="212.982" x="40.648"/>
   <g id="svg_5">
    <rect id="svg_6" fill="#839BAA" height="208" width="234" y="212.982" x="40.648"/>
    <g id="svg_7">
     <g id="svg_8">
      <rect id="svg_9" fill="#678391" height="3" width="234" y="215.508" x="40.648"/>
     </g>
     <g id="svg_10">
      <rect id="svg_11" fill="#678391" height="3" width="234" y="222.613" x="40.648"/>
     </g>
     <g id="svg_12">
      <rect id="svg_13" fill="#678391" height="3" width="234" y="229.719" x="40.648"/>
     </g>
     <g id="svg_14">
      <rect id="svg_15" fill="#678391" height="3" width="234" y="236.824" x="40.648"/>
     </g>
     <g id="svg_16">
      <rect id="svg_17" fill="#678391" height="3" width="234" y="243.929" x="40.648"/>
     </g>
     <g id="svg_18">
      <rect id="svg_19" fill="#678391" height="3" width="234" y="251.034" x="40.648"/>
     </g>
     <g id="svg_20">
      <rect id="svg_21" fill="#678391" height="3" width="234" y="258.14" x="40.648"/>
     </g>
     <g id="svg_22">
      <rect id="svg_23" fill="#678391" height="3" width="234" y="265.245" x="40.648"/>
     </g>
     <g id="svg_24">
      <rect id="svg_25" fill="#678391" height="3" width="234" y="272.35" x="40.648"/>
     </g>
     <g id="svg_26">
      <rect id="svg_27" fill="#678391" height="3" width="234" y="286.561" x="40.648"/>
     </g>
     <g id="svg_28">
      <rect id="svg_29" fill="#678391" height="3" width="234" y="300.771" x="40.648"/>
     </g>
     <g id="svg_30">
      <rect id="svg_31" fill="#678391" height="3" width="234" y="314.982" x="40.648"/>
     </g>
     <g id="svg_32">
      <rect id="svg_33" fill="#678391" height="3" width="234" y="279.456" x="40.648"/>
     </g>
     <g id="svg_34">
      <rect id="svg_35" fill="#678391" height="3" width="234" y="293.666" x="40.648"/>
     </g>
     <g id="svg_36">
      <rect id="svg_37" fill="#678391" height="3" width="234" y="307.876" x="40.648"/>
     </g>
     <g id="svg_38">
      <rect id="svg_39" fill="#678391" height="3" width="234" y="322.087" x="40.648"/>
     </g>
     <g id="svg_40">
      <rect id="svg_41" fill="#678391" height="3" width="234" y="329.192" x="40.648"/>
     </g>
     <g id="svg_42">
      <rect id="svg_43" fill="#678391" height="3" width="234" y="336.297" x="40.648"/>
     </g>
     <g id="svg_44">
      <rect id="svg_45" fill="#678391" height="3" width="234" y="343.403" x="40.648"/>
     </g>
    </g>
    <g id="svg_46">
     <g id="svg_47">
      <rect id="svg_48" fill="#678391" height="3" width="234" y="350.508" x="40.648"/>
     </g>
     <g id="svg_49">
      <rect id="svg_50" fill="#678391" height="3" width="234" y="357.613" x="40.648"/>
     </g>
     <g id="svg_51">
      <rect id="svg_52" fill="#678391" height="3" width="234" y="364.719" x="40.648"/>
     </g>
     <g id="svg_53">
      <rect id="svg_54" fill="#678391" height="3" width="234" y="371.824" x="40.648"/>
     </g>
     <g id="svg_55">
      <rect id="svg_56" fill="#678391" height="3" width="234" y="378.929" x="40.648"/>
     </g>
     <g id="svg_57">
      <rect id="svg_58" fill="#678391" height="3" width="234" y="386.034" x="40.648"/>
     </g>
     <g id="svg_59">
      <rect id="svg_60" fill="#678391" height="3" width="234" y="393.14" x="40.648"/>
     </g>
     <g id="svg_61">
      <rect id="svg_62" fill="#678391" height="3" width="234" y="400.245" x="40.648"/>
     </g>
     <g id="svg_63">
      <rect id="svg_64" fill="#678391" height="3" width="234" y="414.456" x="40.648"/>
     </g>
     <g id="svg_65">
      <rect id="svg_66" fill="#678391" height="3" width="234" y="407.35" x="40.648"/>
     </g>
    </g>
   </g>
   <rect id="svg_67" fill="#B52828" height="59" width="86.667" y="207.982" x="307.478"/>
   <rect id="svg_68" fill="#FC5454" height="48.5" width="76.667" y="212.982" x="312.479"/>
   <g id="svg_69">
    <rect id="svg_70" fill="#2D4151" height="38.5" width="30.83" y="217.982" x="353.318"/>
    <rect id="svg_71" fill="#2D4151" height="38.5" width="30.84" y="217.982" x="317.479"/>
   </g>
   <rect id="svg_72" fill="#B52828" height="146" width="86.667" y="274.982" x="307.478"/>
   <rect id="svg_73" fill="#FC5454" height="141" width="76.667" y="279.982" x="312.479"/>
   <g id="svg_74">
    <rect id="svg_75" fill="#2D4151" height="38.5" width="30.83" y="284.982" x="353.318"/>
    <rect id="svg_76" fill="#2D4151" height="44" width="30.83" y="328.482" x="353.318"/>
    <rect id="svg_77" fill="#2D4151" height="38.5" width="30.83" y="377.482" x="353.318"/>
    <rect id="svg_78" fill="#2D4151" height="38.5" width="30.84" y="284.982" x="317.475"/>
    <rect id="svg_79" fill="#2D4151" height="44" width="30.84" y="328.482" x="317.475"/>
    <rect id="svg_80" fill="#2D4151" height="38.5" width="30.84" y="377.482" x="317.479"/>
   </g>
   <rect id="svg_81" fill="#B52828" height="51.667" width="374.667" y="142.315" x="35.648"/>
   <rect id="svg_82" fill="#2D4151" height="41.667" width="364.667" y="147.315" x="40.648"/>
   <g id="svg_83">
    <rect id="svg_84" fill="#B52828" height="46.667" width="5.174" y="144.815" x="361.808"/>
    <rect id="svg_85" fill="#B52828" height="46.667" width="5.174" y="144.815" x="314.67"/>
    <rect id="svg_86" fill="#B52828" height="46.667" width="5.174" y="144.815" x="267.532"/>
    <rect id="svg_87" fill="#B52828" height="46.667" width="5.174" y="144.815" x="220.395"/>
    <rect id="svg_88" fill="#B52828" height="46.667" width="5.174" y="144.815" x="173.257"/>
    <rect id="svg_89" fill="#B52828" height="46.667" width="5.174" y="144.815" x="126.119"/>
    <rect id="svg_90" fill="#B52828" height="46.667" width="5.174" y="144.815" x="78.982"/>
   </g>
   <rect id="svg_91" fill="#678391" height="15.5" width="441.297" y="111.982"/>
   <rect id="svg_92" fill="#F93030" height="82.84" width="121" y="29.141" x="293.948"/>
   <circle id="svg_93" fill="#B52828" r="28.112" cy="71.76" cx="354.453"/>
   <path id="svg_94" fill="#2D4151" d="m376.908,71.762c0,12.4 -10.05,22.46 -22.46,22.46c-7.26,0 -13.72,-3.45 -17.82,-8.8c-2.91,-3.78 -4.63,-8.52 -4.63,-13.66c0,-12.4 10.05,-22.46 22.45,-22.46c7.05,0 13.34,3.25 17.45,8.32c3.14,3.86 5.01,8.78 5.01,14.14z"/>
   <rect id="svg_95" fill="#678391" height="8.823" width="133.305" y="20.315" x="287.801"/>
   <rect id="svg_96" fill="#B52828" height="8.543" width="121" y="29.141" x="293.948"/>
   <rect id="svg_97" fill="#B52828" height="9.587" width="418" y="127.482" x="11.648"/>
   <path id="svg_98" fill="#FC5454" d="m329.232,354.982l-13.507,0l0,-6.667l13.507,0c1.841,0 3.333,1.492 3.333,3.333l0,0c0,1.841 -1.492,3.334 -3.333,3.334z"/>
   <g id="svg_99">
    <path id="svg_100" fill="#FFFFFF" d="m52.99,228.55l15.786,0l0,3.946l-10.908,0l0,6.925l9.122,0l0,3.872l-9.122,0l0,11.318l-4.878,0l0,-26.061z"/>
    <path id="svg_101" fill="#FFFFFF" d="m71.718,254.612l0,-26.062l4.84,0l0,26.062l-4.84,0z"/>
    <path id="svg_102" fill="#FFFFFF" d="m95.807,254.612c-0.187,-0.708 -0.298,-1.526 -0.298,-2.458l0,-2.606c0,-3.947 -1.266,-4.617 -4.729,-4.617l-3.872,0l0,9.68l-4.915,0l0,-26.061l9.531,0c5.138,0 9.047,1.489 9.047,7.037l0,1.377c0,3.463 -1.526,5.287 -3.761,6.292c2.681,0.708 3.574,2.569 3.574,5.398l0,3.5c0,0.968 0.075,1.787 0.335,2.458l-4.912,0zm-4.468,-13.664c3.723,0 4.393,-0.968 4.393,-4.095l0,-0.224c0,-3.127 -0.484,-4.095 -4.356,-4.095l-4.468,0l0,8.414l4.431,0z"/>
    <path id="svg_103" fill="#FFFFFF" d="m104.445,228.55l16.94,0l0,3.946l-12.063,0l0,7l10.127,0l0,3.872l-10.127,0l0,7.297l11.914,0l0,3.947l-16.792,0l0.001,-26.062l0,0z"/>
    <path id="svg_104" fill="#FFFFFF" d="m150.871,247.873c0,5.436 -3.909,6.925 -9.01,6.925l-0.447,0c-5.212,0 -9.494,-1.489 -9.494,-7.111l0,-0.968l4.803,0c0,3.202 1.229,4.133 4.803,4.133c3.425,0 4.505,-0.819 4.505,-3.574c0,0.037 0,0.074 0,0.074c0,-0.931 -0.41,-2.681 -2.681,-3.053l-3.388,-0.521c-4.468,-0.67 -7.446,-4.021 -7.446,-7.669l0,-0.67c0,-5.547 3.872,-7.074 9.047,-7.074l0.447,0c5.212,0 8.712,1.563 8.712,7.111l0,1.005l-4.803,0c0,-3.202 -0.447,-4.132 -4.021,-4.132l-0.111,0c-3.388,0 -4.394,0.782 -4.394,3.537c0,-0.037 0,-0.074 0,-0.074c0,1.08 0.596,2.755 3.165,3.202l3.314,0.559c4.766,0.819 6.999,3.76 6.999,7.297l0,1.003z"/>
    <path id="svg_105" fill="#FFFFFF" d="m158.132,232.496l-5.994,0l0,-3.946l16.94,0l0,3.946l-6.069,0l0,22.116l-4.877,0l0,-22.116z"/>
    <path id="svg_106" fill="#FFFFFF" d="m178.199,228.55l4.021,0l9.531,26.062l-5.138,0c-0.745,-2.122 -1.191,-3.537 -1.936,-5.696l-8.898,0c-0.596,1.936 -1.303,3.797 -1.973,5.696l-5.063,0c3.09,-8.675 6.291,-17.387 9.456,-26.062zm5.138,16.456c0.037,-0.111 -1.787,-5.473 -3.09,-11.021l-0.074,0c-0.894,3.649 -2.346,7.409 -3.127,11.021l6.291,0z"/>
    <path id="svg_107" fill="#FFFFFF" d="m197.373,232.496l-5.994,0l0,-3.946l16.94,0l0,3.946l-6.069,0l0,22.116l-4.877,0l0,-22.116z"/>
    <path id="svg_108" fill="#FFFFFF" d="m211.037,254.612l0,-26.062l4.839,0l0,26.062l-4.839,0z"/>
    <path id="svg_109" fill="#FFFFFF" d="m229.244,254.798c-5.176,0 -9.049,-1.526 -9.049,-7.074l0,-12.287c0,-5.547 3.873,-7.074 9.049,-7.074l0.445,0c5.176,0 9.086,1.526 9.086,7.074l0,12.287c0,5.547 -3.91,7.074 -9.086,7.074l-0.445,0zm0.371,-3.909c3.686,0 4.357,-0.968 4.357,-4.096l0,-10.35c0,-3.239 -0.783,-4.095 -4.357,-4.095l-0.111,0c-3.611,0 -4.467,0.856 -4.467,4.095l0,10.35c0,3.128 0.707,4.096 4.467,4.096l0.111,0z"/>
    <path id="svg_110" fill="#FFFFFF" d="m243.056,228.55l4.357,0c4.803,8.116 7.557,11.765 10.275,17.722l0.148,0c-0.186,-2.644 -0.186,-9.308 -0.186,-13.44l0,-4.282l4.654,0l0,26.062l-4.395,0c-3.871,-6.478 -7.297,-11.132 -10.238,-17.648l-0.148,0c0.186,3.649 0.186,7.819 0.186,11.356l0,6.292l-4.654,0l0,-26.062l0.001,0z"/>
   </g>
   <path id="svg_111" fill="#FCFAFA" opacity="0.2" d="m348.318,393.002l0,20.17l-28.16,0c0,0 13.64,-4.36 28.16,-20.17z"/>
   <path id="svg_112" fill="#FCFAFA" opacity="0.2" d="m381.628,305.722l0,17.76l-2.21,0c0.94,-5.58 1.69,-11.49 2.21,-17.76z"/>
   <path id="svg_113" fill="#FCFAFA" opacity="0.2" d="m378.508,328.482l3.12,0l0,44l-18.62,0c6.36,-11.41 11.961,-25.83 15.5,-44z"/>
   <path id="svg_114" fill="#FCFAFA" opacity="0.2" d="m360.068,377.482l21.56,0l0,35.69l-28.31,0l0,-26.06c2.28,-2.9 4.55,-6.1 6.75,-9.63z"/>
   <path id="svg_115" fill="#FCFAFA" opacity="0.2" d="m321.828,253.972c10.51,-0.88 19.24,-2.88 26.49,-5.51l0,5.51l-26.49,0z"/>
   <path id="svg_116" fill="#FCFAFA" opacity="0.2" d="m381.888,219.612l0,34.36l-28.57,0l0,-7.52c23.27,-10.28 28.57,-26.84 28.57,-26.84z"/>
   <path id="svg_117" fill="#FCFAFA" opacity="0.2" d="m374.388,72.282c0,10.848 -8.792,19.649 -19.649,19.649c-6.351,0 -12.003,-3.018 -15.59,-7.699c14.855,-7.567 24.618,-16.631 30.856,-24.321c2.747,3.378 4.383,7.682 4.383,12.371z"/>
   <g id="svg_118">
    <path id="svg_119" fill="#FCFAFA" opacity="0.2" d="m402.804,148.416l0,38.002l-21.739,0c-0.001,0 19.076,-6.103 21.739,-38.002z"/>
    <path id="svg_120" fill="#FCFAFA" opacity="0.2" d="m359.161,148.416l0,38.002l-21.739,0c-0.001,0 19.076,-6.103 21.739,-38.002z"/>
    <path id="svg_121" fill="#FCFAFA" opacity="0.2" d="m311.518,148.416l0,38.002l-21.739,0c0,0 19.076,-6.103 21.739,-38.002z"/>
    <path id="svg_122" fill="#FCFAFA" opacity="0.2" d="m264.208,148.416l0,38.002l-21.739,0c0,0 19.076,-6.103 21.739,-38.002z"/>
    <path id="svg_123" fill="#FCFAFA" opacity="0.2" d="m217.899,148.416l0,38.002l-21.739,0c0,0 19.076,-6.103 21.739,-38.002z"/>
    <path id="svg_124" fill="#FCFAFA" opacity="0.2" d="m170.923,148.416l0,38.002l-21.739,0c-0.001,0 19.076,-6.103 21.739,-38.002z"/>
    <path id="svg_125" fill="#FCFAFA" opacity="0.2" d="m123.946,148.416l0,38.002l-21.739,0c0,0 19.076,-6.103 21.739,-38.002z"/>
    <path id="svg_126" fill="#FCFAFA" opacity="0.2" d="m76.304,148.416l0,38.002l-21.74,0c0,0 19.077,-6.103 21.74,-38.002z"/>
   </g>
   <rect id="svg_127" fill="#B52828" height="50.5" width="4.5" y="46.232" x="352.203"/>
   <rect id="svg_128" fill="#B52828" height="4.5" width="50.5" y="69.232" x="329.203"/>
   <g id="svg_129">
    <circle id="svg_130" fill="#E5AB29" r="4.833" cy="306.815" cx="293.563"/>
    <path id="svg_131" fill="#2D4151" d="m293.563,265.648l0,0c-0.916,0 -1.658,0.742 -1.658,1.658l0,19.254l3.316,0l0,-19.254c0,-0.915 -0.742,-1.658 -1.658,-1.658z"/>
    <path id="svg_132" fill="#F9C032" d="m301.546,297.201l0,-9.421c0,-4.409 -3.574,-7.982 -7.982,-7.982s-7.982,3.574 -7.982,7.982l0,9.421c-2.176,1.029 -3.684,3.237 -3.684,5.803l0,3.811l23.333,0l0,-3.811c-0.001,-2.567 -1.51,-4.775 -3.685,-5.803z"/>
   </g>
  </g>
  <g id="svg_133"/>
  <g id="svg_134"/>
  <g id="svg_135"/>
  <g id="svg_136"/>
  <g id="svg_137"/>
  <g id="svg_138"/>
  <g id="svg_139"/>
  <g id="svg_140"/>
  <g id="svg_141"/>
  <g id="svg_142"/>
  <g id="svg_143"/>
  <g id="svg_144"/>
  <g id="svg_145"/>
  <g id="svg_146"/>
  <g id="svg_147"/>
 </g>
</svg>