<svg width="512" height="512" xmlns="http://www.w3.org/2000/svg" xml:space="preserve" version="1.1">

 <g>
  <title>Layer 1</title>
  <rect id="svg_1" fill="#FF7876" height="134.063" width="134.063" y="11.161" x="188.958"/>
  <path id="svg_2" fill="#80D0E1" d="m418.63,78.197l-95.596,0l0,67.034l-134.07,0l0,-67.034l-95.595,0c-17.397,0 -31.5,14.103 -31.5,31.5l0,391.144l388.261,0l0,-391.146c0,-17.396 -14.103,-31.498 -31.5,-31.498z"/>
  <g id="svg_3">
   <rect id="svg_4" fill="#FFDA79" height="81.842" width="81.842" y="418.989" x="174.152"/>
   <rect id="svg_5" fill="#FFDA79" height="81.842" width="81.842" y="418.989" x="255.997"/>
  </g>
  <g id="svg_6">
   <path id="svg_7" fill="#58595B" d="m418.63,67.034l-84.433,0l0,-55.873c0,-6.164 -4.996,-11.161 -11.161,-11.161l-134.072,0c-6.165,0 -11.161,4.997 -11.161,11.161l0,55.874l-84.433,0c-23.524,0 -42.661,19.137 -42.661,42.661l0,391.144c0,6.164 4.996,11.161 11.161,11.161c17.543,0 376.882,0 388.26,0c6.165,0 11.161,-4.997 11.161,-11.161l0,-391.145c0,-23.522 -19.139,-42.661 -42.661,-42.661zm-218.505,-44.713l111.75,0c0,16.216 0,95.554 0,111.749l-111.75,0c0,-16.204 0,-95.539 0,-111.749zm44.714,467.357l-59.521,0l0,-59.521l59.521,0l0,59.521zm22.322,0l0,-59.521l59.521,0l0,59.521l-59.521,0zm171.808,0l-89.966,0l0,-70.682c0,-6.164 -4.996,-11.161 -11.161,-11.161c-24.079,0 -139.369,0 -163.685,0c-6.165,0 -11.161,4.997 -11.161,11.161l0,70.682l-89.965,0l0,-379.983c0,-11.216 9.125,-20.339 20.339,-20.339l84.433,0l0,55.875c0,6.164 4.996,11.161 11.161,11.161l134.072,0c6.165,0 11.161,-4.997 11.161,-11.161l0,-55.875l84.433,0c11.214,0 20.339,9.124 20.339,20.339l0,379.983l0,0z"/>
   <path id="svg_8" fill="#58595B" d="m172.117,192.834l-52.619,0c-4.35,0 -7.875,3.525 -7.875,7.875l0,52.619c0,4.35 3.525,7.875 7.875,7.875l52.619,0c4.35,0 7.875,-3.525 7.875,-7.875l0,-52.619c0,-4.35 -3.525,-7.875 -7.875,-7.875z"/>
   <path id="svg_9" fill="#58595B" d="m282.31,192.834l-52.62,0c-4.35,0 -7.875,3.525 -7.875,7.875l0,52.619c0,4.35 3.525,7.875 7.875,7.875l52.619,0c4.35,0 7.875,-3.525 7.875,-7.875l0,-52.619c0.001,-4.35 -3.525,-7.875 -7.874,-7.875z"/>
   <path id="svg_10" fill="#58595B" d="m392.5,192.834l-52.619,0c-4.35,0 -7.875,3.525 -7.875,7.875l0,52.619c0,4.35 3.525,7.875 7.875,7.875l52.619,0c4.35,0 7.875,-3.525 7.875,-7.875l0,-52.619c0,-4.35 -3.525,-7.875 -7.875,-7.875z"/>
   <path id="svg_11" fill="#58595B" d="m172.117,303.025l-52.619,0c-4.35,0 -7.875,3.525 -7.875,7.875l0,52.619c0,4.35 3.525,7.875 7.875,7.875l52.619,0c4.35,0 7.875,-3.525 7.875,-7.875l0,-52.619c0,-4.349 -3.525,-7.875 -7.875,-7.875z"/>
   <path id="svg_12" fill="#58595B" d="m282.31,303.025l-52.62,0c-4.35,0 -7.875,3.525 -7.875,7.875l0,52.619c0,4.35 3.525,7.875 7.875,7.875l52.619,0c4.35,0 7.875,-3.525 7.875,-7.875l0,-52.619c0.001,-4.349 -3.525,-7.875 -7.874,-7.875z"/>
   <path id="svg_13" fill="#58595B" d="m392.5,303.025l-52.619,0c-4.35,0 -7.875,3.525 -7.875,7.875l0,52.619c0,4.35 3.525,7.875 7.875,7.875l52.619,0c4.35,0 7.875,-3.525 7.875,-7.875l0,-52.619c0,-4.349 -3.525,-7.875 -7.875,-7.875z"/>
   <path id="svg_14" fill="#58595B" d="m234.635,112.628c6.165,0 11.161,-4.997 11.161,-11.161l0,-12.111l20.406,0l0,12.112c0,6.164 4.996,11.161 11.161,11.161c6.165,0 11.161,-4.997 11.161,-11.161l0,-46.544c0,-6.164 -4.996,-11.161 -11.161,-11.161c-6.165,0 -11.161,4.997 -11.161,11.161l0,12.112l-20.406,0l0,-12.112c0,-6.164 -4.996,-11.161 -11.161,-11.161c-6.165,0 -11.161,4.997 -11.161,11.161l0,46.543c0.001,6.164 4.998,11.161 11.161,11.161z"/>
  </g>
  <g id="svg_15"/>
  <g id="svg_16"/>
  <g id="svg_17"/>
  <g id="svg_18"/>
  <g id="svg_19"/>
  <g id="svg_20"/>
  <g id="svg_21"/>
  <g id="svg_22"/>
  <g id="svg_23"/>
  <g id="svg_24"/>
  <g id="svg_25"/>
  <g id="svg_26"/>
  <g id="svg_27"/>
  <g id="svg_28"/>
  <g id="svg_29"/>
 </g>
</svg>