<svg width="480" height="300" xmlns="http://www.w3.org/2000/svg" xml:space="preserve" version="1.1">

  <g>
    <title>Layer 1</title>
    <g id="svg_1">
      <path id="svg_2" fill="#826E77" d="m363.871,93.871c0,-12.189 0,-32.469 0,-38.545c-40.631,-10.432 -82.251,-15.649 -123.871,-15.649s-83.24,5.217 -123.871,15.648c0,6.077 0,26.357 0,38.545l-116.129,0l0,7.742l116.129,0l38.71,0l170.323,0l38.71,0l116.128,0l0,-7.742l-116.129,0l0,0.001zm-240,0l0,-32.502c37.986,-9.259 77.024,-13.95 116.129,-13.95s78.143,4.691 116.129,13.95l0,32.502l-232.258,0z" />
      <path id="svg_3" fill="#DFD0C6" d="m325.161,101.613l0,139.355l154.839,0l0,-139.355l-116.129,0l-38.71,0zm81.291,73.548l0,-11.613l0,-46.452l61.935,0l0,46.452l0,11.613l0,46.452l-15.484,0l-46.452,0l0,-46.452l0.001,0zm-7.742,-11.613l0,11.613l0,46.452l-15.484,0l-46.452,0l0,-46.452l0,-11.613l0,-46.452l61.935,0l0,46.452l0.001,0z" />
      <path id="svg_4" fill="#DFD0C6" d="m154.839,101.613l-38.71,0l-116.129,0l0,139.355l154.839,0l0,-139.355zm-81.291,61.935l0,11.613l0,46.452l-15.483,0l-46.452,0l0,-46.452l0,-11.613l0,-46.452l61.935,0l0,46.452zm69.678,0l0,11.613l0,46.452l-15.484,0l-46.452,0l0,-46.452l0,-11.613l0,-46.452l61.935,0l0,46.452l0.001,0z" />
      <polygon id="svg_5" fill="#A08A8A" points="166.45199584960938,240.96798706054688 166.45199584960938,175.1610107421875 166.45199584960938,163.54800415039062 166.45199584960938,117.09700012207031 313.5480041503906,117.09700012207031 313.5480041503906,163.54800415039062 313.5480041503906,175.1610107421875 313.5480041503906,210 313.5480041503906,240.96798706054688 325.1610107421875,240.96798706054688 325.1610107421875,101.61300659179688 154.83900451660156,101.61300659179688 154.83900451660156,240.96798706054688 " />
      <polygon id="svg_6" fill="#95FFFF" points="11.61299991607666,117.09700012207031 11.61299991607666,163.54800415039062 58.064998626708984,163.54800415039062 " />
      <polygon id="svg_7" fill="#95FFFF" points="11.61299991607666,221.61300659179688 58.064998626708984,221.61300659179688 11.61299991607666,175.1610107421875 " />
      <polygon id="svg_8" fill="#95FFFF" points="81.29000091552734,221.61300659179688 127.74199676513672,221.61300659179688 81.29000091552734,175.1610107421875 " />
      <polygon id="svg_9" fill="#95FFFF" points="81.29000091552734,117.09700012207031 81.29000091552734,163.54800415039062 127.74199676513672,163.54800415039062 " />
      <polygon id="svg_10" fill="#95FFFF" points="313.5480041503906,210 278.7099914550781,175.1610107421875 278.7099914550781,240.96798706054688 278.7099914550781,260.322998046875 313.5480041503906,260.322998046875 313.5480041503906,240.96798706054688 " />
      <polygon id="svg_11" fill="#95FFFF" points="201.2899932861328,210 166.45199584960938,175.1610107421875 166.45199584960938,240.96798706054688 166.45199584960938,260.322998046875 201.2899932861328,260.322998046875 201.2899932861328,240.96798706054688 " />
      <polygon id="svg_12" fill="#95FFFF" points="212.9029998779297,163.54800415039062 166.45199584960938,117.09700012207031 166.45199584960938,163.54800415039062 201.2899932861328,163.54800415039062 " />
      <polygon id="svg_13" fill="#95FFFF" points="336.77398681640625,221.61300659179688 383.22601318359375,221.61300659179688 336.77398681640625,175.1610107421875 " />
      <polygon id="svg_14" fill="#95FFFF" points="336.77398681640625,117.09700012207031 336.77398681640625,163.54800415039062 383.22601318359375,163.54800415039062 " />
      <polygon id="svg_15" fill="#95FFFF" points="406.4519958496094,175.1610107421875 406.4519958496094,221.61300659179688 452.90301513671875,221.61300659179688 " />
      <polygon id="svg_16" fill="#95FFFF" points="406.4519958496094,117.09700012207031 406.4519958496094,163.54800415039062 452.90301513671875,163.54800415039062 " />
      <rect x="0" id="svg_17" fill="#C8B2A8" height="19.355" width="154.839" y="240.968" />
      <rect id="svg_18" fill="#C8B2A8" height="19.355" width="154.839" y="240.968" x="325.161" />
      <polygon id="svg_19" fill="#6EB1E2" points="11.61299991607666,163.54800415039062 11.61299991607666,175.1610107421875 73.5479965209961,175.1610107421875 73.5479965209961,163.54800415039062 58.064998626708984,163.54800415039062 " />
      <polygon id="svg_20" fill="#6EB1E2" points="81.29000091552734,163.54800415039062 81.29000091552734,175.1610107421875 143.2259979248047,175.1610107421875 143.2259979248047,163.54800415039062 127.74199676513672,163.54800415039062 " />
      <polygon id="svg_21" fill="#6EB1E2" points="336.77398681640625,163.54800415039062 336.77398681640625,175.1610107421875 398.7099914550781,175.1610107421875 398.7099914550781,163.54800415039062 383.22601318359375,163.54800415039062 " />
      <rect id="svg_22" fill="#6EB1E2" height="11.613" width="34.839" y="163.548" x="166.452" />
      <rect id="svg_23" fill="#6EB1E2" height="11.613" width="34.839" y="163.548" x="278.71" />
      <polygon id="svg_24" fill="#6EB1E2" points="468.3869934082031,163.54800415039062 452.90301513671875,163.54800415039062 406.4519958496094,163.54800415039062 406.4519958496094,175.1610107421875 468.3869934082031,175.1610107421875 " />
      <polygon id="svg_25" fill="#80D7F0" points="58.064998626708984,163.54800415039062 73.5479965209961,163.54800415039062 73.5479965209961,117.09700012207031 11.61299991607666,117.09700012207031 " />
      <polygon id="svg_26" fill="#80D7F0" points="127.74199676513672,163.54800415039062 143.2259979248047,163.54800415039062 143.2259979248047,117.09700012207031 81.29000091552734,117.09700012207031 " />
      <polygon id="svg_27" fill="#80D7F0" points="58.064998626708984,221.61300659179688 73.5479965209961,221.61300659179688 73.5479965209961,175.1610107421875 11.61299991607666,175.1610107421875 " />
      <polygon id="svg_28" fill="#80D7F0" points="127.74199676513672,221.61300659179688 143.2259979248047,221.61300659179688 143.2259979248047,175.1610107421875 81.29000091552734,175.1610107421875 " />
      <polygon id="svg_29" fill="#80D7F0" points="383.22601318359375,163.54800415039062 398.7099914550781,163.54800415039062 398.7099914550781,117.09700012207031 336.77398681640625,117.09700012207031 " />
      <polygon id="svg_30" fill="#80D7F0" points="468.3869934082031,163.54800415039062 468.3869934082031,117.09700012207031 406.4519958496094,117.09700012207031 452.90301513671875,163.54800415039062 " />
      <polygon id="svg_31" fill="#80D7F0" points="383.22601318359375,221.61300659179688 398.7099914550781,221.61300659179688 398.7099914550781,175.1610107421875 336.77398681640625,175.1610107421875 " />
      <polygon id="svg_32" fill="#80D7F0" points="468.3869934082031,221.61300659179688 468.3869934082031,175.1610107421875 406.4519958496094,175.1610107421875 452.90301513671875,221.61300659179688 " />
      <polygon id="svg_33" fill="#A08A8A" points="212.9029998779297,163.54800415039062 201.2899932861328,163.54800415039062 201.2899932861328,175.1610107421875 201.2899932861328,210 201.2899932861328,240.96798706054688 212.9029998779297,240.96798706054688 212.9029998779297,175.1610107421875 267.09698486328125,175.1610107421875 267.09698486328125,229.35501098632812 267.09698486328125,240.96798706054688 278.7099914550781,240.96798706054688 278.7099914550781,175.1610107421875 278.7099914550781,163.54800415039062 " />
      <polygon id="svg_34" fill="#80D7F0" points="212.9029998779297,175.1610107421875 267.09698486328125,229.35501098632812 267.09698486328125,175.1610107421875 " />
      <path id="svg_35" fill="#695A69" d="m240,47.419c-39.105,0 -78.143,4.691 -116.129,13.95l0,32.502l232.258,0l0,-32.502c-37.986,-9.258 -77.024,-13.95 -116.129,-13.95zm-93.303,35.043c-3.664,0 -6.136,-1.931 -6.296,-4.919l-0.013,-0.255l2.904,0l0.024,0.215c0.16,1.432 1.59,2.394 3.557,2.394c1.856,0 3.204,-0.93 3.204,-2.212c0,-1.113 -0.795,-1.763 -2.744,-2.243l-2.057,-0.495c-3.041,-0.734 -4.456,-2.17 -4.456,-4.517c0,-2.864 2.476,-4.865 6.021,-4.865c3.493,0 5.895,1.953 5.977,4.859l0.007,0.249l-2.87,0l-0.02,-0.22c-0.129,-1.433 -1.328,-2.322 -3.127,-2.322c-1.784,0 -2.984,0.858 -2.984,2.135c0,0.986 0.782,1.581 2.701,2.055l1.75,0.429c3.362,0.795 4.797,2.182 4.797,4.638c-0.002,3.129 -2.444,5.074 -6.375,5.074zm21.667,-0.265l-2.95,0l0,-7.035l-7.673,0l0,7.035l-2.95,0l0,-16.369l2.95,0l0,6.716l7.673,0l0,-6.716l2.95,0l0,16.369zm9.536,0.265c-4.739,0 -7.683,-3.235 -7.683,-8.443c0,-5.215 2.944,-8.454 7.683,-8.454c4.74,0 7.684,3.239 7.684,8.454c0,5.207 -2.945,8.443 -7.684,8.443zm15.919,-5.692l-3.435,0l0,5.427l-2.95,0l0,-16.369l6.462,0c3.228,0 5.482,2.245 5.482,5.46c0,3.228 -2.285,5.482 -5.559,5.482zm13.61,0l-3.435,0l0,5.427l-2.95,0l0,-16.369l6.462,0c3.228,0 5.482,2.245 5.482,5.46c0,3.228 -2.286,5.482 -5.559,5.482zm10.175,5.427l-2.95,0l0,-16.369l2.95,0l0,16.369zm15.882,0l-2.592,0l-7.966,-11.32l0,11.32l-2.884,0l0,-16.369l2.602,0l7.954,11.315l0,-11.315l2.884,0l0,16.369l0.002,0zm16.602,-6.847c0,4.453 -2.65,7.112 -7.089,7.112c-4.719,0 -7.65,-3.265 -7.65,-8.521c0,-5.167 2.919,-8.377 7.617,-8.377c3.618,0 6.43,2.195 6.997,5.462l0.049,0.284l-2.999,0l-0.052,-0.172c-0.562,-1.863 -2.015,-2.932 -3.985,-2.932c-2.895,0 -4.624,2.136 -4.624,5.713c0,3.639 1.789,5.901 4.668,5.901c2.451,0 4.119,-1.537 4.15,-3.823l0,-0.03l-4.106,0l0,-2.476l7.023,0l0,1.859l0.001,0zm21.043,1.707c-0.624,3.384 -3.236,5.405 -6.986,5.405c-4.637,0 -7.518,-3.24 -7.518,-8.455c0,-5.129 2.951,-8.443 7.518,-8.443c3.74,0 6.544,2.305 6.977,5.737l0.034,0.272l-2.913,0l-0.041,-0.191c-0.417,-1.93 -2.01,-3.177 -4.057,-3.177c-2.742,0 -4.514,2.277 -4.514,5.801c0,3.586 1.734,5.813 4.525,5.813c2.101,0 3.577,-1.045 4.048,-2.867l0.047,-0.181l2.933,0l-0.053,0.286zm12.303,-8.62l-7.618,0l0,4.162l7.21,0l0,2.531l-7.21,0l0,4.447l7.618,0l0,2.62l-10.568,0l0,-16.369l10.568,0l0,2.609zm15.481,13.76l-2.592,0l-7.965,-11.32l0,11.32l-2.884,0l0,-16.369l2.602,0l7.955,11.316l0,-11.316l2.884,0l0,16.369zm14.357,-13.76l-4.943,0l0,13.761l-2.95,0l0,-13.761l-4.954,0l0,-2.608l12.846,0l0,2.608l0.001,0zm12.09,0l-7.618,0l0,4.162l7.211,0l0,2.531l-7.211,0l0,4.447l7.618,0l0,2.62l-10.568,0l0,-16.369l10.568,0l0,2.609zm11.319,13.76l-3.236,-6.109l-3.091,0l0,6.109l-2.95,0l0,-16.369l6.484,0c3.37,0 5.548,2.001 5.548,5.097c0,2.164 -1.133,3.925 -2.977,4.666l3.628,6.606l-3.406,0z" />
      <path id="svg_36" fill="#695A69" d="m177.9,68.217c-2.886,0 -4.679,2.223 -4.679,5.802c0,3.572 1.793,5.79 4.679,5.79c2.879,0 4.668,-2.219 4.668,-5.79c0,-3.579 -1.789,-5.802 -4.668,-5.802z" />
      <path id="svg_37" fill="#695A69" d="m206.856,68.393l-2.862,0l0,5.824l2.862,0c2.016,0 3.127,-1.036 3.127,-2.917c0,-1.875 -1.11,-2.907 -3.127,-2.907z" />
      <path id="svg_38" fill="#695A69" d="m193.247,68.393l-2.862,0l0,5.824l2.862,0c2.016,0 3.127,-1.036 3.127,-2.917c0,-1.875 -1.111,-2.907 -3.127,-2.907z" />
      <path id="svg_39" fill="#695A69" d="m333.59,68.382l-3.237,0l0,5.229l3.303,0c1.782,0 2.763,-0.93 2.763,-2.62c0,-1.633 -1.058,-2.609 -2.829,-2.609z" />
      <rect id="svg_40" fill="#826E77" height="19.355" width="11.613" y="240.968" x="154.839" />
      <rect id="svg_41" fill="#826E77" height="19.355" width="11.613" y="240.968" x="313.548" />
      <rect id="svg_42" fill="#826E77" height="19.355" width="11.613" y="240.968" x="267.097" />
      <rect id="svg_43" fill="#826E77" height="19.355" width="11.613" y="240.968" x="201.29" />
      <polygon id="svg_44" fill="#80D7F0" points="278.7099914550781,163.54800415039062 313.5480041503906,163.54800415039062 313.5480041503906,117.09700012207031 166.45199584960938,117.09700012207031 212.9029998779297,163.54800415039062 " />
      <polygon id="svg_45" fill="#80D7F0" points="166.45199584960938,175.1610107421875 201.2899932861328,210 201.2899932861328,175.1610107421875 " />
      <polygon id="svg_46" fill="#80D7F0" points="278.7099914550781,175.1610107421875 313.5480041503906,210 313.5480041503906,175.1610107421875 " />
      <polygon id="svg_47" fill="#95FFFF" points="267.09698486328125,229.35501098632812 212.9029998779297,175.1610107421875 212.9029998779297,240.96798706054688 212.9029998779297,260.322998046875 267.09698486328125,260.322998046875 267.09698486328125,240.96798706054688 " />
      <path id="svg_48" fill="#FFF7E7" d="m148.274,72.748l-1.75,-0.429c-1.918,-0.474 -2.701,-1.069 -2.701,-2.055c0,-1.277 1.199,-2.135 2.984,-2.135c1.8,0 2.998,0.89 3.127,2.322l0.02,0.22l2.87,0l-0.007,-0.249c-0.082,-2.906 -2.484,-4.859 -5.977,-4.859c-3.545,0 -6.021,2.001 -6.021,4.865c0,2.348 1.416,3.783 4.456,4.517l2.057,0.495c1.949,0.48 2.744,1.129 2.744,2.243c0,1.282 -1.347,2.212 -3.204,2.212c-1.968,0 -3.398,-0.962 -3.557,-2.394l-0.024,-0.215l-2.904,0l0.013,0.255c0.161,2.988 2.632,4.919 6.296,4.919c3.931,0 6.373,-1.944 6.373,-5.075c0.001,-2.454 -1.434,-3.842 -4.795,-4.637z" />
      <polygon id="svg_49" fill="#FFF7E7" points="165.4149932861328,72.54400634765625 157.74099731445312,72.54400634765625 157.74099731445312,65.8280029296875 154.79200744628906,65.8280029296875 154.79200744628906,82.19700622558594 157.74099731445312,82.19700622558594 157.74099731445312,75.16299438476562 165.4149932861328,75.16299438476562 165.4149932861328,82.19700622558594 168.36399841308594,82.19700622558594 168.36399841308594,65.8280029296875 165.4149932861328,65.8280029296875 " />
      <path id="svg_50" fill="#FFF7E7" d="m177.9,65.565c-4.739,0 -7.683,3.239 -7.683,8.454c0,5.208 2.944,8.443 7.683,8.443c4.74,0 7.684,-3.235 7.684,-8.443c0,-5.215 -2.945,-8.454 -7.684,-8.454zm0,14.244c-2.886,0 -4.679,-2.219 -4.679,-5.79c0,-3.578 1.793,-5.802 4.679,-5.802c2.879,0 4.668,2.223 4.668,5.802c0,3.571 -1.789,5.79 -4.668,5.79z" />
      <path id="svg_51" fill="#FFF7E7" d="m193.896,65.828l-6.462,0l0,16.369l2.95,0l0,-5.427l3.435,0c3.273,0 5.559,-2.254 5.559,-5.482c0,-3.214 -2.254,-5.46 -5.482,-5.46zm-0.649,8.389l-2.862,0l0,-5.824l2.862,0c2.016,0 3.127,1.032 3.127,2.907c0,1.881 -1.111,2.917 -3.127,2.917z" />
      <path id="svg_52" fill="#FFF7E7" d="m207.506,65.828l-6.462,0l0,16.369l2.95,0l0,-5.427l3.435,0c3.273,0 5.559,-2.254 5.559,-5.482c0,-3.214 -2.254,-5.46 -5.482,-5.46zm-0.65,8.389l-2.862,0l0,-5.824l2.862,0c2.016,0 3.127,1.032 3.127,2.907c0,1.881 -1.11,2.917 -3.127,2.917z" />
      <rect id="svg_53" fill="#FFF7E7" height="16.369" width="2.95" y="65.828" x="214.654" />
      <polygon id="svg_54" fill="#FFF7E7" points="230.6020050048828,77.14300537109375 222.64700317382812,65.8280029296875 220.0449981689453,65.8280029296875 220.0449981689453,82.19700622558594 222.9290008544922,82.19700622558594 222.9290008544922,70.87699890136719 230.8939971923828,82.19700622558594 233.48599243164062,82.19700622558594 233.48599243164062,65.8280029296875 230.6020050048828,65.8280029296875 " />
      <path id="svg_55" fill="#FFF7E7" d="m243.065,75.966l4.106,0l0,0.03c-0.031,2.287 -1.699,3.823 -4.15,3.823c-2.879,0 -4.668,-2.261 -4.668,-5.901c0,-3.578 1.729,-5.713 4.624,-5.713c1.97,0 3.422,1.069 3.985,2.932l0.052,0.172l2.999,0l-0.049,-0.284c-0.567,-3.267 -3.379,-5.462 -6.997,-5.462c-4.698,0 -7.617,3.21 -7.617,8.377c0,5.256 2.931,8.521 7.65,8.521c4.439,0 7.089,-2.658 7.089,-7.112l0,-1.86l-7.023,0l0,2.477l-0.001,0z" />
      <path id="svg_56" fill="#FFF7E7" d="m268.204,76.953c-0.472,1.822 -1.947,2.867 -4.048,2.867c-2.791,0 -4.525,-2.227 -4.525,-5.813c0,-3.524 1.772,-5.801 4.514,-5.801c2.047,0 3.639,1.247 4.057,3.177l0.041,0.191l2.913,0l-0.034,-0.272c-0.433,-3.432 -3.237,-5.737 -6.977,-5.737c-4.567,0 -7.518,3.314 -7.518,8.443c0,5.215 2.881,8.455 7.518,8.455c3.75,0 6.362,-2.021 6.986,-5.405l0.053,-0.286l-2.933,0l-0.047,0.181z" />
      <polygon id="svg_57" fill="#FFF7E7" points="272.8659973144531,82.19700622558594 283.4339904785156,82.19700622558594 283.4339904785156,79.57699584960938 275.8160095214844,79.57699584960938 275.8160095214844,75.1300048828125 283.0260009765625,75.1300048828125 283.0260009765625,72.5989990234375 275.8160095214844,72.5989990234375 275.8160095214844,68.43699645996094 283.4339904785156,68.43699645996094 283.4339904785156,65.8280029296875 272.8659973144531,65.8280029296875 " />
      <polygon id="svg_58" fill="#FFF7E7" points="296.031005859375,77.14399719238281 288.0769958496094,65.8280029296875 285.4739990234375,65.8280029296875 285.4739990234375,82.19700622558594 288.3580017089844,82.19700622558594 288.3580017089844,70.87699890136719 296.322998046875,82.19700622558594 298.9150085449219,82.19700622558594 298.9150085449219,65.8280029296875 296.031005859375,65.8280029296875 " />
      <polygon id="svg_59" fill="#FFF7E7" points="300.4259948730469,68.43699645996094 305.3800048828125,68.43699645996094 305.3800048828125,82.19700622558594 308.3290100097656,82.19700622558594 308.3290100097656,68.43699645996094 313.2720031738281,68.43699645996094 313.2720031738281,65.8280029296875 300.4259948730469,65.8280029296875 " />
      <polygon id="svg_60" fill="#FFF7E7" points="314.7950134277344,82.19700622558594 325.36199951171875,82.19700622558594 325.36199951171875,79.57699584960938 317.7449951171875,79.57699584960938 317.7449951171875,75.1300048828125 324.9549865722656,75.1300048828125 324.9549865722656,72.5989990234375 317.7449951171875,72.5989990234375 317.7449951171875,68.43699645996094 325.36199951171875,68.43699645996094 325.36199951171875,65.8280029296875 314.7950134277344,65.8280029296875 " />
      <path id="svg_61" fill="#FFF7E7" d="m339.435,70.925c0,-3.096 -2.178,-5.097 -5.548,-5.097l-6.484,0l0,16.369l2.95,0l0,-6.109l3.091,0l3.236,6.109l3.406,0l-3.628,-6.606c1.844,-0.741 2.977,-2.502 2.977,-4.666zm-5.779,2.686l-3.303,0l0,-5.229l3.237,0c1.771,0 2.829,0.975 2.829,2.609c0,1.69 -0.981,2.62 -2.763,2.62z" />
    </g>
    <g id="svg_62" />
    <g id="svg_63" />
    <g id="svg_64" />
    <g id="svg_65" />
    <g id="svg_66" />
    <g id="svg_67" />
    <g id="svg_68" />
    <g id="svg_69" />
    <g id="svg_70" />
    <g id="svg_71" />
    <g id="svg_72" />
    <g id="svg_73" />
    <g id="svg_74" />
    <g id="svg_75" />
    <g id="svg_76" />
  </g>
</svg>