<svg xmlns="http://www.w3.org/2000/svg" xmlns:xlink="http://www.w3.org/1999/xlink" version="1.1" width="256" height="512" viewBox="0 0 256 512" xml:space="preserve">
  <desc>Created with Fabric.js 4.2.0</desc>
  <defs></defs>
  <rect x="0" y="0" width="100%" height="100%" fill="transparent"></rect>
  <g transform="matrix(1 0 0 1 128 256)" id="855f752e-dfd2-402d-b67c-0a0c60ec2715">
    <rect style="stroke: none; stroke-width: 1; stroke-dasharray: none; stroke-linecap: butt; stroke-dashoffset: 0; stroke-linejoin: miter; stroke-miterlimit: 4; fill: rgb(255,255,255); fill-opacity: 0; fill-rule: nonzero; opacity: 1;" vector-effect="non-scaling-stroke" x="-128" y="-256" rx="0" ry="0" width="256" height="512" />
  </g>
  <g transform="matrix(Infinity NaN NaN Infinity 0 0)" id="1710327a-bda8-437f-adfa-4d2ab1bdbf65"></g>
  <g transform="matrix(0.39 0 0 0.39 128 256)" id="path16023">
    <path style="stroke: rgb(0,0,0); stroke-width: 0; stroke-dasharray: none; stroke-linecap: butt; stroke-dashoffset: 0; stroke-linejoin: miter; stroke-miterlimit: 4; fill: rgb(0,0,0); fill-rule: nonzero; opacity: 1;" vector-effect="non-scaling-stroke" transform=" translate(-600, -600)" d="M 719.57 272.035 C 738.0310000000001 272.035 755.0210000000001 275.6 770.5450000000001 282.733 C 816.623 305.926 843.83 350.005 844.176 399.15700000000004 L 844.176 737.73 C 835.533 791.554 773.926 776.918 772.4340000000001 737.73 L 772.4340000000001 418.037 C 766.9440000000001 399.806 731.7410000000001 407.36499999999995 730.8990000000001 418.037 L 730.8990000000001 1151.822 C 721.9480000000001 1226.75 625.1260000000001 1204.7559999999999 622.6570000000002 1150.5639999999999 C 622.6570000000002 1000.7859999999998 622.6570000000002 851.0059999999999 622.6570000000002 701.2299999999998 C 616.4660000000001 672.2479999999998 575.7210000000001 685.4169999999998 574.8280000000002 702.4889999999998 C 576.5560000000002 851.8419999999999 576.0870000000002 1001.2039999999997 576.0870000000002 1150.5639999999999 C 566.4310000000003 1225.107 470.0800000000002 1206.0339999999999 467.8440000000002 1151.822 L 466.58600000000024 418.0369999999999 C 460.94300000000027 400.1989999999999 428.32300000000026 407.04099999999994 427.56700000000023 418.0369999999999 L 427.56700000000023 737.73 C 418.92300000000023 791.554 357.31700000000023 776.918 355.8250000000002 737.73 L 355.8250000000002 399.157 C 356.6960000000002 352.101 373.94200000000023 304.96 414.9810000000002 282.73299999999995 C 428.4070000000002 275.59999999999997 444.76900000000023 272.03399999999993 464.0680000000002 272.03399999999993 C 549.235 272.035 634.402 272.035 719.57 272.035 L 719.57 272.035 z M 718.301 118.277 C 718.301 183.6 665.346 236.555 600.023 236.555 C 534.701 236.555 481.74600000000004 183.60000000000002 481.74600000000004 118.277 C 481.745 52.955 534.7 0 600.021 0 C 665.346 0 718.301 52.955 718.301 118.277 z" stroke-linecap="round" />
  </g>
</svg>