<svg width="512.002" height="512.002" xmlns="http://www.w3.org/2000/svg" xml:space="preserve" version="1.1">

 <g>
  <title>Layer 1</title>
  <path id="svg_1" fill="#CCCCCC" d="m381.853,276.922l-326.214,0l-0.011,-0.011c0.922,-0.831 1.788,-1.72 2.608,-2.642c3.53,-3.997 6.15,-8.78 7.596,-14.042l6.275,-22.765c9.566,-34.779 41.191,-58.865 77.246,-58.865l135.291,0c38.481,0 72.634,24.621 84.796,61.12l12.413,37.205z"/>
  <path id="svg_2" fill="#E6E6E6" d="m381.853,276.922l-186.299,0l46.555,-98.325l42.535,0c38.481,0 72.634,24.621 84.796,61.12l12.413,37.205z"/>
  <polygon id="svg_3" fill="#F95428" points="277.419,119.055 229.026,119.055 223.448,178.601 282.996,178.601 "/>
  <g id="svg_4">
   <path id="svg_5" fill="#666666" d="m154.181,408.015c0.068,-1.048 0.102,-2.107 0.102,-3.166c0,-26.887 -21.797,-48.684 -48.684,-48.684c-26.899,0 -48.696,21.797 -48.696,48.684c0,1.059 0.034,2.118 0.102,3.166c1.629,25.418 22.754,45.53 48.593,45.53c25.829,0 46.954,-20.111 48.583,-45.53z"/>
   <path id="svg_6" fill="#666666" d="m452.277,408.015c0.068,-1.048 0.102,-2.107 0.102,-3.166c0,-26.887 -21.797,-48.684 -48.684,-48.684c-26.899,0 -48.696,21.797 -48.696,48.684c0,1.059 0.034,2.118 0.102,3.166c1.629,25.418 22.754,45.53 48.593,45.53c25.83,0 46.955,-20.111 48.583,-45.53z"/>
  </g>
  <path id="svg_7" fill="#F2F2F2" d="m452.38,404.849c0,-26.887 -21.797,-48.684 -48.684,-48.684c-26.899,0 -48.696,21.797 -48.696,48.684c0,1.059 0.034,2.118 0.102,3.166l-200.921,0c0.068,-1.048 0.102,-2.107 0.102,-3.166c0,-26.887 -21.797,-48.684 -48.684,-48.684c-26.899,0 -48.696,21.797 -48.696,48.684c0,1.059 0.034,2.118 0.102,3.166l-33.629,0l0,-91.754c0,-14.326 8.632,-27.24 21.865,-32.718c3.872,-1.594 7.368,-3.861 10.386,-6.628l0.011,0.011l326.214,0l83.669,6.195c21.546,1.594 36.989,21.478 33.185,42.751l-14.657,82.143l-31.773,0c0.069,-1.047 0.104,-2.106 0.104,-3.166z"/>
  <g id="svg_8">
   <path id="svg_9" fill="#CCCCCC" d="m105.594,424.829c-11.013,0 -19.974,-8.96 -19.974,-19.974c0,-11.013 8.96,-19.974 19.974,-19.974s19.974,8.96 19.974,19.974c0.001,11.012 -8.959,19.974 -19.974,19.974z"/>
   <path id="svg_10" fill="#CCCCCC" d="m403.692,424.829c-11.015,0 -19.974,-8.96 -19.974,-19.974c0,-11.013 8.96,-19.974 19.974,-19.974c11.013,0 19.973,8.96 19.973,19.974c-0.001,11.012 -8.961,19.974 -19.973,19.974z"/>
   <polygon id="svg_11" fill="#CCCCCC" points="254.644,299.836 269.525,324.495 297.576,331.027 278.722,352.8 281.177,381.497    254.644,370.294 228.11,381.497 230.566,352.8 211.711,331.027 239.763,324.495  "/>
  </g>
  <g id="svg_12">
   <path id="svg_13" fill="#4288BC" d="m465.522,283.117c21.546,1.594 36.989,21.478 33.185,42.751l-14.657,82.143l-31.773,0c0.068,-1.048 0.102,-2.107 0.102,-3.166c0,-26.887 -21.797,-48.684 -48.684,-48.684l0,-77.622l61.827,4.578z"/>
   <path id="svg_14" fill="#4288BC" d="m105.599,276.922l0,79.239c-26.899,0 -48.696,21.797 -48.696,48.684c0,1.059 0.034,2.118 0.102,3.166l-33.629,0l0,-91.754c0,-14.326 8.632,-27.24 21.865,-32.718c3.872,-1.594 7.368,-3.861 10.386,-6.628l0.011,0.011l49.961,0z"/>
  </g>
  <path id="svg_15" d="m76.968,405.471c0,15.724 12.791,28.515 28.514,28.515c15.725,0 28.516,-12.792 28.516,-28.515c0,-15.722 -12.791,-28.515 -28.516,-28.515c-15.723,0 -28.514,12.793 -28.514,28.515zm39.947,0c0,6.305 -5.129,11.433 -11.434,11.433c-6.303,0 -11.431,-5.129 -11.431,-11.433s5.128,-11.433 11.431,-11.433c6.305,0.001 11.434,5.13 11.434,11.433z"/>
  <path id="svg_16" d="m403.579,376.956c-15.724,0 -28.515,12.791 -28.515,28.515s12.791,28.515 28.515,28.515c15.723,0 28.514,-12.792 28.514,-28.515c0,-15.722 -12.793,-28.515 -28.514,-28.515zm0,39.949c-6.303,0 -11.433,-5.129 -11.433,-11.433s5.129,-11.433 11.433,-11.433s11.431,5.128 11.431,11.433s-5.128,11.433 -11.431,11.433z"/>
  <path id="svg_17" d="m503.459,372.764l-4.446,0l7.989,-44.776c2.238,-12.512 -0.949,-25.448 -8.743,-35.49c-7.795,-10.046 -19.539,-16.344 -32.219,-17.283l-77.996,-5.776l-10.613,-31.807c-12.693,-38.093 -47.09,-64.279 -86.748,-66.751l-4.871,-52.009c-0.411,-4.389 -4.096,-7.745 -8.505,-7.745l-48.394,0c-4.408,0 -8.092,3.355 -8.505,7.745l-4.851,51.798l-66.318,0c-20.386,0 -40.311,7.107 -56.105,20.011c-3.652,2.985 -4.194,8.366 -1.209,12.018c2.983,3.652 8.362,4.194 12.019,1.209c10.557,-8.627 23.402,-14.031 36.849,-15.64l0,80.726l-68.944,0c0.835,-1.913 1.551,-3.877 2.102,-5.884l6.276,-22.769c1.651,-6.006 4.076,-11.767 7.203,-17.126c2.379,-4.074 1.004,-9.304 -3.069,-11.682c-4.072,-2.379 -9.304,-1.004 -11.682,3.069c-3.875,6.637 -6.877,13.773 -8.921,21.204l-6.276,22.769c-1.078,3.921 -3.07,7.605 -5.742,10.629c-0.668,0.752 -1.305,1.398 -1.999,2.024c-2.348,2.152 -4.995,3.844 -7.881,5.031c-16.488,6.825 -27.14,22.765 -27.14,40.61l0,55.891l-6.179,0c-4.718,0 -8.541,3.824 -8.541,8.541s3.823,8.541 8.541,8.541l6.181,0l0,18.781c0,4.717 3.823,8.541 8.541,8.541l26.193,0c5.434,26.091 28.655,45.53 56.03,45.53c27.367,0 50.582,-19.44 56.017,-45.524l130.942,0c4.718,0 8.541,-3.824 8.541,-8.541c0,-4.717 -3.823,-8.541 -8.541,-8.541l-129.993,0c-2.452,-26.211 -22.646,-47.341 -48.425,-51.216l0,-62.797l139.13,0c0.026,0 0.051,0.003 0.077,0.003s0.051,-0.003 0.077,-0.003l128.113,0l13.616,1.008l0,61.789c-25.783,3.874 -45.983,25.005 -48.435,51.216l-28.535,0c-4.718,0 -8.541,3.824 -8.541,8.541c0,4.717 3.823,8.541 8.541,8.541l29.485,0c5.437,26.088 28.656,45.524 56.029,45.524c27.368,0 50.585,-19.44 56.018,-45.53l24.338,0c4.138,0 7.681,-2.967 8.409,-7.041l3.618,-20.281l7.495,0c4.718,0 8.541,-3.824 8.541,-8.541s-3.827,-8.537 -8.544,-8.537zm-266.768,-244.551l32.837,0l3.977,42.46l-40.789,0l3.975,-42.46zm-78.815,59.542l86.816,0.005l0,45.211c0,4.717 3.823,8.541 8.541,8.541c4.718,0 8.541,-3.824 8.541,-8.541l0,-45.211l22.755,-0.005c34.855,0 65.676,22.215 76.695,55.283l8.662,25.96l-108.111,0l0,-9.264c0,-4.717 -3.823,-8.541 -8.541,-8.541s-8.541,3.824 -8.541,8.541l0,9.264l-86.816,0l-0.001,-81.243l0,0zm-126.071,202.092l18.629,0c-0.938,3.304 -1.594,6.724 -1.923,10.24l-16.706,0l0,-10.24zm113.824,15.615c0,0.869 -0.028,1.748 -0.084,2.619c-1.349,21.048 -18.945,37.535 -40.059,37.535c-21.12,0 -38.721,-16.488 -40.07,-37.534c0,-0.005 0,-0.01 -0.001,-0.015c-0.056,-0.845 -0.083,-1.722 -0.083,-2.604c0,-22.135 18.013,-40.143 40.155,-40.143c22.133,-0.001 40.142,18.007 40.142,40.142zm-48.684,-56.585c-15.851,2.381 -29.585,11.291 -38.392,23.889l-26.748,0l0,-55.891c0,-10.91 6.513,-20.655 16.577,-24.82c3.677,-1.513 7.113,-3.528 10.237,-5.973l38.328,0l0,62.795l-0.002,0zm367.833,-56.625c7.982,0.591 15.079,4.398 19.986,10.72c4.905,6.319 6.829,14.136 5.421,22.013l-8.524,47.78l-31.155,0c-8.804,-12.596 -22.535,-21.507 -38.383,-23.888l0,-60.523l52.655,3.898zm-21.138,115.825c0,0.002 0,0.003 0,0.006c-1.349,21.048 -18.944,37.534 -40.059,37.534c-21.12,0 -38.721,-16.488 -40.07,-37.541c-0.056,-0.866 -0.084,-1.745 -0.084,-2.614c0,-22.135 18.013,-40.143 40.155,-40.143c22.135,0 40.143,18.008 40.143,40.143c0.001,0.869 -0.029,1.749 -0.085,2.615zm33.146,-7.99l-16.238,0c-0.329,-3.516 -0.984,-6.937 -1.923,-10.24l19.988,0l-1.827,10.24z"/>
  <path id="svg_18" d="m253.348,88.586c4.088,0 7.402,-3.314 7.402,-7.402l0,-24.475c0,-4.088 -3.314,-7.402 -7.402,-7.402s-7.402,3.314 -7.402,7.402l0,24.474c-0.001,4.089 3.313,7.403 7.402,7.403z"/>
  <path id="svg_19" d="m297.19,106.943c1.894,0 3.789,-0.723 5.235,-2.168l17.305,-17.307c2.89,-2.891 2.89,-7.578 -0.001,-10.468c-2.889,-2.891 -7.577,-2.89 -10.468,0l-17.305,17.307c-2.89,2.891 -2.89,7.578 0.001,10.468c1.444,1.446 3.339,2.168 5.233,2.168z"/>
  <path id="svg_20" d="m204.132,104.438c1.446,1.445 3.34,2.168 5.235,2.168c1.894,0 3.789,-0.723 5.234,-2.168c2.891,-2.89 2.891,-7.578 0.001,-10.468l-17.305,-17.307c-2.891,-2.89 -7.579,-2.891 -10.468,0c-2.891,2.89 -2.891,7.578 -0.001,10.468l17.304,17.307z"/>
  <path id="svg_21" d="m307.807,143.522c0,4.088 3.314,7.402 7.402,7.402l24.474,0c4.088,0 7.402,-3.314 7.402,-7.402c0,-4.088 -3.314,-7.402 -7.402,-7.402l-24.474,0c-4.088,0 -7.402,3.314 -7.402,7.402z"/>
  <path id="svg_22" d="m166.534,150.447l24.475,0c4.088,0 7.402,-3.314 7.402,-7.402c0,-4.088 -3.314,-7.402 -7.402,-7.402l-24.475,0c-4.088,0 -7.402,3.314 -7.402,7.402c-0.001,4.088 3.314,7.402 7.402,7.402z"/>
  <path id="svg_23" d="m299.399,323.326l-24.539,-5.715l-13.017,-21.571c-1.547,-2.562 -4.321,-4.128 -7.313,-4.128c-2.993,0 -5.766,1.566 -7.312,4.128l-13.019,21.571l-24.539,5.715c-2.914,0.679 -5.261,2.833 -6.186,5.679c-0.926,2.846 -0.293,5.969 1.666,8.23l16.492,19.047l-2.148,25.104c-0.255,2.981 1.068,5.88 3.489,7.638c1.483,1.077 3.244,1.631 5.021,1.631c1.123,0 2.254,-0.222 3.321,-0.673l23.212,-9.801l23.211,9.801c2.755,1.164 5.921,0.799 8.342,-0.959c2.421,-1.758 3.744,-4.657 3.489,-7.638l-2.148,-25.104l16.492,-19.047c1.959,-2.263 2.591,-5.384 1.666,-8.23c-0.919,-2.844 -3.266,-4.999 -6.18,-5.678zm-27.247,24.501c-1.509,1.744 -2.25,4.022 -2.053,6.319l1.249,14.595l-13.495,-5.697c-2.124,-0.897 -4.52,-0.897 -6.644,0l-13.496,5.697l1.249,-14.595c0.197,-2.297 -0.544,-4.577 -2.053,-6.319l-9.589,-11.073l14.266,-3.322c2.246,-0.523 4.184,-1.931 5.375,-3.905l7.569,-12.541l7.567,12.541c1.192,1.974 3.131,3.382 5.376,3.905l14.266,3.322l-9.587,11.073z"/>
  <path id="svg_24" d="m468.149,355.253c0.508,0.091 1.014,0.134 1.511,0.134c4.059,0 7.661,-2.905 8.398,-7.041l4.431,-24.819c0.83,-4.644 -2.263,-9.08 -6.906,-9.909c-4.647,-0.828 -9.082,2.264 -9.909,6.907l-4.431,24.819c-0.83,4.643 2.263,9.08 6.906,9.909z"/>
  <g id="svg_25"/>
  <g id="svg_26"/>
  <g id="svg_27"/>
  <g id="svg_28"/>
  <g id="svg_29"/>
  <g id="svg_30"/>
  <g id="svg_31"/>
  <g id="svg_32"/>
  <g id="svg_33"/>
  <g id="svg_34"/>
  <g id="svg_35"/>
  <g id="svg_36"/>
  <g id="svg_37"/>
  <g id="svg_38"/>
  <g id="svg_39"/>
 </g>
</svg>