<svg width="512" height="512" xmlns="http://www.w3.org/2000/svg" xml:space="preserve" version="1.1">

 <g>
  <title>Layer 1</title>
  <polygon id="svg_1" fill="#E6E6E6" points="503.104,106.43 503.104,243.653 482.249,243.653 482.249,243.641 33.475,243.641   33.475,243.653 16.599,243.653 16.599,113.078 16.611,113.066 "/>
  <g id="svg_2">
   <path id="svg_3" fill="#4288BC" d="m153.376,81.08c0,8.919 -1.623,17.465 -4.58,25.351c-10.265,27.334 -36.626,46.771 -67.541,46.771c-28.344,0 -52.865,-16.347 -64.645,-40.135c-4.784,-9.64 -7.477,-20.494 -7.477,-31.986c0,-39.835 32.286,-72.121 72.121,-72.121s72.122,32.285 72.122,72.12z"/>
   <rect id="svg_4" fill="#4288BC" height="258.086" width="448.774" y="243.649" x="33.475"/>
  </g>
  <rect id="svg_5" fill="#3679A3" height="31.252" width="448.774" y="239.442" x="33.475"/>
  <rect id="svg_6" fill="#808080" height="82.666" width="106.102" y="302.837" x="347.251"/>
  <rect id="svg_7" fill="#2BA5F7" height="82.663" width="106.102" y="302.837" x="62.384"/>
  <polygon id="svg_8" fill="#8FD3F9" points="168.486,302.84 168.486,385.503 113.71,385.503 132.305,302.84 "/>
  <rect id="svg_9" fill="#E6E6E6" height="198.898" width="115.081" y="302.837" x="200.316"/>
  <polygon id="svg_10" fill="#FCCC8B" points="81.256,40.352 94.786,62.772 120.29,68.711 103.148,88.507 105.381,114.597 81.256,104.412   57.133,114.597 59.365,88.507 42.223,68.711 67.728,62.772 "/>
  <path id="svg_11" d="m502.985,98.067l-342.378,0c1.095,-5.349 1.666,-10.807 1.666,-16.335c0,-21.675 -8.439,-42.05 -23.764,-57.374c-3.521,-3.521 -9.229,-3.52 -12.749,0c-3.521,3.521 -3.521,9.229 0,12.75c11.919,11.918 18.482,27.765 18.482,44.624c0,7.633 -1.347,15.097 -4.004,22.181c-9.193,24.478 -32.945,40.925 -59.102,40.925c-24.163,0 -45.838,-13.458 -56.569,-35.128c-4.337,-8.74 -6.537,-18.153 -6.537,-27.978c0,-34.796 28.309,-63.106 63.106,-63.106c8.524,0 16.789,1.667 24.563,4.955c4.588,1.94 9.876,-0.206 11.815,-4.791s-0.206,-9.876 -4.791,-11.815c-10.009,-4.232 -20.637,-6.379 -31.587,-6.379c-44.739,-0.001 -81.136,36.396 -81.136,81.135c0,11.869 2.533,23.267 7.465,33.931l0,128.642c0,4.979 4.036,9.015 9.015,9.015l7.861,0l0,249.07c0,4.979 4.036,9.015 9.015,9.015l448.774,0c4.979,0 9.015,-4.036 9.015,-9.015l0,-44.126c0,-4.979 -4.036,-9.015 -9.015,-9.015s-9.015,4.036 -9.015,9.015l0,35.111l-148.811,0l0,-189.883c0,-4.979 -4.036,-9.015 -9.015,-9.015l-115.087,0c-4.979,0 -9.015,4.036 -9.015,9.015l0,189.884l-148.816,0l0,-240.056l430.744,0l0,176.096c0,4.979 4.036,9.015 9.015,9.015s9.015,-4.036 9.015,-9.015l0,-176.096l11.84,0c4.979,0 9.015,-4.036 9.015,-9.015l0,-137.222c0,-4.979 -4.036,-9.015 -9.015,-9.015zm-293.768,214.439l97.056,0l0,180.869l-97.056,0l0,-180.869zm284.753,-77.217l-468.475,0l0,-94.426c14.761,13.952 34.455,22.004 55.641,22.004c31.499,0 60.282,-18.553 73.515,-46.771l339.319,0l0,119.193z"/>
  <path id="svg_12" d="m229.185,209.97c15.178,0 27.526,-12.348 27.526,-27.527l0,-13.508c0,-15.178 -12.348,-27.527 -27.526,-27.527c-15.178,0 -27.527,12.348 -27.527,27.527l0,13.508c0.001,15.177 12.349,27.527 27.527,27.527zm-9.496,-41.036c0,-5.236 4.26,-9.497 9.497,-9.497c5.237,0 9.496,4.26 9.496,9.497l0,13.508c0,5.236 -4.26,9.497 -9.496,9.497s-9.497,-4.26 -9.497,-9.497l0,-13.508z"/>
  <path id="svg_13" d="m390.716,209.97c11.086,0 21.041,-6.598 25.36,-16.809c1.939,-4.586 -0.206,-9.876 -4.791,-11.815c-4.584,-1.94 -9.875,0.206 -11.816,4.791c-1.49,3.526 -4.927,5.803 -8.754,5.803c-5.236,0 -9.497,-4.26 -9.497,-9.497l0,-13.508c0,-5.236 4.26,-9.497 9.497,-9.497c3.16,0 6.106,1.567 7.88,4.194c2.789,4.125 8.392,5.211 12.517,2.423c4.127,-2.787 5.211,-8.391 2.424,-12.517c-5.131,-7.596 -13.662,-12.131 -22.82,-12.131c-15.178,0 -27.527,12.348 -27.527,27.527l0,13.508c0,15.178 12.348,27.528 27.527,27.528z"/>
  <path id="svg_14" d="m280.472,209.97l21.657,0c4.979,0 9.015,-4.036 9.015,-9.015s-4.036,-9.015 -9.015,-9.015l-12.642,0l0,-41.517c0,-4.979 -4.036,-9.015 -9.015,-9.015s-9.015,4.036 -9.015,9.015l0,50.532c0,4.978 4.036,9.015 9.015,9.015z"/>
  <path id="svg_15" d="m332.987,209.97c4.979,0 9.015,-4.036 9.015,-9.015l0,-50.532c0,-4.979 -4.036,-9.015 -9.015,-9.015s-9.015,4.036 -9.015,9.015l0,50.532c0,4.978 4.036,9.015 9.015,9.015z"/>
  <path id="svg_16" d="m439.185,209.97l21.657,0c4.979,0 9.015,-4.036 9.015,-9.015s-4.036,-9.015 -9.015,-9.015l-12.642,0l0,-6.874l8.311,0c4.979,0 9.015,-4.036 9.015,-9.015s-4.036,-9.015 -9.015,-9.015l-8.311,0l0,-7.597l12.642,0c4.979,0 9.015,-4.036 9.015,-9.015s-4.036,-9.015 -9.015,-9.015l-21.657,0c-4.979,0 -9.015,4.036 -9.015,9.015l0,50.532c0,4.977 4.035,9.014 9.015,9.014z"/>
  <path id="svg_17" d="m146.397,150.423l0,50.532c0,4.979 4.036,9.015 9.015,9.015s9.015,-4.036 9.015,-9.015l0,-14.085l3.618,0c12.533,0 22.73,-10.197 22.73,-22.731c0,-12.535 -10.197,-22.73 -22.73,-22.73l-12.633,0c-4.978,-0.001 -9.015,4.035 -9.015,9.014zm18.031,9.015l3.618,0c2.592,0 4.7,2.108 4.7,4.701c0,2.593 -2.108,4.7 -4.7,4.7l-3.618,0l0,-9.401z"/>
  <path id="svg_18" d="m347.127,294.475c-4.979,0 -9.015,4.036 -9.015,9.015l0,82.665c0,4.979 4.036,9.015 9.015,9.015l106.101,0c4.979,0 9.015,-4.036 9.015,-9.015l0,-82.665c0,-4.979 -4.036,-9.015 -9.015,-9.015l-106.101,0l0,0zm97.086,41.333l-15.789,0l0,-23.302l15.789,0l0,23.302zm-54.253,0l0,-23.302l20.434,0l0,23.302l-20.434,0zm20.435,18.03l0,23.302l-20.435,0l0,-23.302l20.435,0zm-38.465,-41.332l0,23.302l-15.787,0l0,-23.302l15.787,0zm-15.787,41.332l15.787,0l0,23.302l-15.787,0l0,-23.302zm72.282,23.304l0,-23.304l15.789,0l0,23.302l-15.789,0l0,0.002z"/>
  <path id="svg_19" d="m62.263,294.475c-4.979,0 -9.015,4.036 -9.015,9.015l0,82.665c0,4.979 4.036,9.015 9.015,9.015l106.101,0c4.979,0 9.015,-4.036 9.015,-9.015l0,-82.665c0,-4.979 -4.036,-9.015 -9.015,-9.015l-106.101,0l0,0zm97.086,82.667l-88.07,0l0,-64.635l88.071,0l0,64.635l-0.001,0z"/>
  <path id="svg_20" d="m245.941,381.528l-16.23,0c-4.979,0 -9.015,4.036 -9.015,9.015s4.036,9.015 9.015,9.015l16.23,0c4.979,0 9.015,-4.036 9.015,-9.015s-4.035,-9.015 -9.015,-9.015z"/>
  <path id="svg_21" d="m128.745,66.577c-0.976,-3.004 -3.453,-5.278 -6.529,-5.994l-21.796,-5.076l-11.563,-19.16c-1.632,-2.705 -4.56,-4.357 -7.718,-4.357c-3.159,0 -6.087,1.653 -7.718,4.357l-11.563,19.16l-21.798,5.076c-3.076,0.716 -5.553,2.991 -6.529,5.994s-0.309,6.3 1.759,8.687l14.65,16.918l-1.908,22.297c-0.269,3.147 1.127,6.205 3.683,8.062c1.565,1.137 3.425,1.721 5.3,1.721c1.185,0 2.379,-0.234 3.506,-0.71l20.617,-8.705l20.618,8.705c2.91,1.228 6.25,0.845 8.806,-1.012c2.554,-1.857 3.952,-4.915 3.683,-8.062l-1.909,-22.296l14.65,-16.917c2.068,-2.388 2.735,-5.684 1.759,-8.688zm-32.532,16.68c-1.593,1.84 -2.375,4.246 -2.167,6.67l0.959,11.206l-10.363,-4.375c-1.12,-0.474 -2.314,-0.71 -3.506,-0.71c-1.192,0 -2.386,0.237 -3.506,0.71l-10.361,4.374l0.959,-11.206c0.208,-2.424 -0.575,-4.831 -2.167,-6.67l-7.362,-8.502l10.954,-2.551c2.37,-0.552 4.416,-2.039 5.674,-4.122l5.811,-9.629l5.811,9.629c1.257,2.083 3.304,3.57 5.674,4.122l10.954,2.551l-7.364,8.503z"/>
  <g id="svg_22"/>
  <g id="svg_23"/>
  <g id="svg_24"/>
  <g id="svg_25"/>
  <g id="svg_26"/>
  <g id="svg_27"/>
  <g id="svg_28"/>
  <g id="svg_29"/>
  <g id="svg_30"/>
  <g id="svg_31"/>
  <g id="svg_32"/>
  <g id="svg_33"/>
  <g id="svg_34"/>
  <g id="svg_35"/>
  <g id="svg_36"/>
 </g>
</svg>