<svg width="512" height="512" xmlns="http://www.w3.org/2000/svg" xml:space="preserve" version="1.1">

 <g>
  <title>Layer 1</title>
  <g id="svg_1">
   <g id="svg_2">
    <path id="svg_3" d="m469.335,273.067l-17.067,0l0,-17.067l17.067,0c4.233,0 7.825,-3.106 8.44,-7.296c0.623,-4.19 -1.929,-8.192 -5.99,-9.412l-164.582,-49.374l0,-84.582l103.996,31.198l-86.929,0c-4.719,0 -8.533,3.823 -8.533,8.533c0,4.71 3.814,8.533 8.533,8.533l110.933,0l0,17.067l-17.067,0c-4.719,0 -8.533,3.823 -8.533,8.533s3.814,8.533 8.533,8.533l51.2,0c4.719,0 8.533,-3.823 8.533,-8.533s-3.814,-8.533 -8.533,-8.533l-17.067,0l0,-17.067l17.067,0c4.233,0 7.825,-3.106 8.44,-7.296c0.623,-4.19 -1.929,-8.192 -5.99,-9.412l-167.1,-50.133l-40.313,-81.989c-1.425,-2.901 -4.369,-4.753 -7.603,-4.77l-0.06,0c-3.209,0 -6.153,1.801 -7.612,4.668l-43.375,85.333c-0.043,0.094 -0.026,0.188 -0.068,0.282c-0.247,0.512 -0.316,1.075 -0.461,1.63c-0.137,0.555 -0.316,1.101 -0.333,1.664c0,0.102 -0.06,0.188 -0.06,0.29l0,42.667l-102.878,0l88.218,-25.95c4.523,-1.323 7.108,-6.067 5.777,-10.59c-1.323,-4.514 -6.042,-7.117 -10.59,-5.786l-145.066,42.667c-4.07,1.203 -6.647,5.205 -6.042,9.412c0.606,4.198 4.207,7.313 8.448,7.313l17.067,0l0,17.067l-17.067,0c-4.719,0 -8.533,3.823 -8.533,8.533s3.814,8.533 8.533,8.533l51.2,0c4.719,0 8.533,-3.823 8.533,-8.533s-3.814,-8.533 -8.533,-8.533l-17.067,0l0,-17.067l128,0l0,85.333l-102.878,0l88.218,-25.95c4.523,-1.323 7.108,-6.067 5.777,-10.59c-1.323,-4.514 -6.042,-7.108 -10.59,-5.786l-145.066,42.668c-4.07,1.203 -6.647,5.205 -6.042,9.412c0.606,4.198 4.207,7.313 8.448,7.313l17.067,0l0,17.067l-17.067,0c-4.719,0 -8.533,3.823 -8.533,8.533s3.814,8.533 8.533,8.533l51.2,0c4.719,0 8.533,-3.823 8.533,-8.533s-3.814,-8.533 -8.533,-8.533l-17.067,0l0,-17.067l125.219,0l-63.394,221.867l-27.691,0c-4.719,0 -8.533,3.823 -8.533,8.533l0,17.067c0,4.71 3.814,8.533 8.533,8.533s8.533,-3.823 8.533,-8.533l0,-8.533l25.583,0l0.026,0l221.824,0l0.026,0l25.609,0l0,8.533c0,4.71 3.814,8.533 8.533,8.533s8.533,-3.823 8.533,-8.533l0,-17.067c0,-4.71 -3.814,-8.533 -8.533,-8.533l-27.691,0l-66.176,-231.595l0,-38.537l103.996,31.198l-86.929,0c-4.719,0 -8.533,3.823 -8.533,8.533s3.814,8.533 8.533,8.533l110.933,0l0,17.067l-17.067,0c-4.719,0 -8.533,3.823 -8.533,8.533s3.814,8.533 8.533,8.533l51.2,0c4.719,0 8.533,-3.823 8.533,-8.533s-3.814,-8.532 -8.533,-8.532zm-312.952,204.8l27.887,-97.587l55.842,35.524l-59.52,37.879c-3.977,2.526 -5.146,7.808 -2.62,11.785c1.63,2.551 4.386,3.951 7.211,3.951c1.57,0 3.149,-0.427 4.574,-1.34l66.244,-42.155l81.621,51.942l-181.239,0l0,0.001zm196.173,-10.735l-163.396,-103.979l19.43,-68.019l31.932,21.086l-31.889,21.052c-3.934,2.594 -5.018,7.893 -2.415,11.827c1.63,2.483 4.352,3.823 7.125,3.823c1.613,0 3.251,-0.452 4.693,-1.408l37.965,-25.071l61.116,40.354l-40.277,25.634c-3.968,2.534 -5.146,7.799 -2.611,11.784c1.621,2.552 4.386,3.951 7.211,3.951c1.562,0 3.149,-0.435 4.574,-1.34l41.719,-26.547l24.823,86.853zm-34.295,-120.03l-57.515,-37.973c-0.009,-0.009 -0.017,-0.017 -0.034,-0.026l-47.198,-31.172l6.263,-21.931l53.291,0c4.719,0 8.533,-3.823 8.533,-8.533s-3.814,-8.533 -8.533,-8.533l-51.2,0l0,-34.134l51.2,0c4.719,0 8.533,-3.823 8.533,-8.533s-3.814,-8.533 -8.533,-8.533l-51.2,0l0,-34.134l51.2,0c4.719,0 8.533,-3.823 8.533,-8.533c0,-4.71 -3.814,-8.533 -8.533,-8.533l-51.2,0l0,-34.134l42.667,0c4.719,0 8.533,-3.823 8.533,-8.533c0,-4.71 -3.814,-8.533 -8.533,-8.533l-37.291,0l29.338,-57.719l33.553,68.241l0,151.612c0,0.794 0.111,1.579 0.324,2.347l8.038,28.117l-21.299,14.063c-3.934,2.594 -5.009,7.893 -2.415,11.819c1.638,2.492 4.361,3.831 7.125,3.831c1.621,0 3.251,-0.452 4.693,-1.408l16.811,-11.102l14.849,51.967z"/>
   </g>
  </g>
  <g id="svg_4"/>
  <g id="svg_5"/>
  <g id="svg_6"/>
  <g id="svg_7"/>
  <g id="svg_8"/>
  <g id="svg_9"/>
  <g id="svg_10"/>
  <g id="svg_11"/>
  <g id="svg_12"/>
  <g id="svg_13"/>
  <g id="svg_14"/>
  <g id="svg_15"/>
  <g id="svg_16"/>
  <g id="svg_17"/>
  <g id="svg_18"/>
 </g>
</svg>