<svg width="507.425" height="507.425" xmlns="http://www.w3.org/2000/svg" xml:space="preserve" version="1.1">

 <g>
  <title>Layer 1</title>
  <path id="svg_1" fill="#FFC52F" d="m329.312,129.112l13.6,22l150.8,242.4c22.4,36 6,65.2 -36.8,65.2l-406.4,0c-42.4,0 -59.2,-29.6 -36.8,-65.6l198.8,-320.8c22.4,-36 58.8,-36 81.2,0l35.6,56.8z"/>
  <g id="svg_2">
   <path id="svg_3" fill="#F4EFEF" d="m253.712,343.512c-10.8,0 -20,-8.8 -20,-20l0,-143.2c0,-10.8 9.2,-20 20,-20s20,8.8 20,20l0,143.2c0,10.8 -9.2,20 -20,20z"/>
   <path id="svg_4" fill="#F4EFEF" d="m253.312,407.112c-5.2,0 -10.4,-2 -14,-6c-3.6,-3.6 -6,-8.8 -6,-14s2,-10.4 6,-14c3.6,-3.6 8.8,-6 14,-6s10.4,2 14,6c3.6,3.6 6,8.8 6,14s-2,10.4 -6,14c-3.6,3.6 -8.8,6 -14,6z"/>
  </g>
  <path id="svg_5" d="m456.912,465.512l-406.4,0c-22,0 -38.4,-7.6 -46,-21.6s-5.6,-32.8 6,-51.2l198.8,-321.6c11.6,-18.8 27.2,-29.2 44.4,-29.2l0,0c16.8,0 32.4,10 43.6,28.4l35.2,56.4l0,0l13.6,22l150.8,243.6c11.6,18.4 13.6,37.2 6,51.2c-7.6,14.4 -24,22 -46,22zm-203.6,-415.6l0,0c-14,0 -27.2,8.8 -37.6,25.2l-198.8,321.6c-10,16 -12,31.6 -5.6,43.2s20.4,17.6 39.2,17.6l406.4,0c18.8,0 32.8,-6.4 39.2,-17.6c6.4,-11.2 4.4,-27.2 -5.6,-43.2l-150.8,-243.6l-13.6,-22l-35.2,-56.4c-10.4,-16 -23.6,-24.8 -37.6,-24.8z"/>
  <path id="svg_6" d="m249.712,347.512c-13.2,0 -24,-10.8 -24,-24l0,-143.2c0,-13.2 10.8,-24 24,-24s24,10.8 24,24l0,143.2c0,13.2 -10.8,24 -24,24zm0,-183.2c-8.8,0 -16,7.2 -16,16l0,143.2c0,8.8 7.2,16 16,16s16,-7.2 16,-16l0,-143.2c0,-8.8 -7.2,-16 -16,-16z"/>
  <path id="svg_7" d="m249.712,411.112l0,0c-6.4,0 -12.4,-2.4 -16.8,-6.8c-4.4,-4.4 -6.8,-10.8 -6.8,-16.8c0,-6.4 2.4,-12.4 6.8,-16.8c4.4,-4.4 10.8,-7.2 16.8,-7.2c6.4,0 12.4,2.4 16.8,7.2c4.4,4.4 7.2,10.4 7.2,16.8s-2.4,12.4 -7.2,16.8c-4.4,4 -10.4,6.8 -16.8,6.8zm0,-40c-4,0 -8.4,1.6 -11.2,4.8c-2.8,2.8 -4.8,7.2 -4.8,11.2c0,4.4 1.6,8.4 4.8,11.2c2.8,2.8 7.2,4.8 11.2,4.8s8.4,-1.6 11.2,-4.8c2.8,-2.8 4.8,-7.2 4.8,-11.2s-1.6,-8.4 -4.8,-11.2c-2.8,-3.2 -7.2,-4.8 -11.2,-4.8z"/>
  <g id="svg_8"/>
  <g id="svg_9"/>
  <g id="svg_10"/>
  <g id="svg_11"/>
  <g id="svg_12"/>
  <g id="svg_13"/>
  <g id="svg_14"/>
  <g id="svg_15"/>
  <g id="svg_16"/>
  <g id="svg_17"/>
  <g id="svg_18"/>
  <g id="svg_19"/>
  <g id="svg_20"/>
  <g id="svg_21"/>
  <g id="svg_22"/>
 </g>
</svg>