<?xml version="1.0" encoding="UTF-8" standalone="no"?>
<!DOCTYPE svg PUBLIC "-//W3C//DTD SVG 1.1//EN" "http://www.w3.org/Graphics/SVG/1.1/DTD/svg11.dtd">
<svg version="1.1" xmlns="http://www.w3.org/2000/svg" xmlns:xlink="http://www.w3.org/1999/xlink" preserveAspectRatio="xMidYMid meet" viewBox="170.88754168551947 113.1337454700713 300.22491662896095 419.80097684686757" width="296.22" height="415.8">
  <defs>
    <path d="M394.26 195.12C394.03 197.95 392.23 220.73 392 223.57C391.82 225.87 389.81 227.59 387.49 227.4C385.2 227.22 383.48 225.22 383.67 222.9C383.9 220.06 385.71 197.29 385.93 194.45C386.12 192.14 388.12 190.43 390.43 190.61C392.73 190.8 394.45 192.81 394.26 195.12Z" id="b6X2MToyG"></path>
    <path d="M412.83 304.51C375.32 301.52 354.46 299.86 350.29 299.53C350.29 299.53 350.29 299.53 350.29 299.53C351.11 289.36 351.56 283.7 351.65 282.58C351.65 282.58 351.65 282.58 351.65 282.58C389.16 285.56 410.02 287.22 414.18 287.55C414.18 287.55 414.18 287.55 414.18 287.55C413.37 297.72 412.92 303.37 412.83 304.51C412.83 304.51 412.83 304.51 412.83 304.51Z" id="a3SodeIWm"></path>
    <path d="M329.87 285.32C333.06 245.35 334.81 223.14 335.17 218.7C335.79 210.91 342.61 205.11 350.39 205.72C352.97 205.93 365.82 206.94 388.98 208.79C412.13 210.64 425.01 211.66 427.57 211.85C435.36 212.48 441.18 219.29 440.55 227.08C439.84 235.96 438.08 258.17 435.25 293.7C432.39 293.48 425.25 292.91 413.83 292C401.32 291.01 357.55 287.53 351.29 287.03C338.44 286 331.3 285.43 329.87 285.32Z" id="aa6thnx3M"></path>
    <path d="M339.32 286.07C342.51 246.09 344.26 223.89 344.62 219.45C345.23 211.67 352.05 205.85 359.83 206.48C357.94 206.32 351.34 205.8 350.39 205.72C342.61 205.11 335.79 210.91 335.17 218.7C334.81 223.14 333.06 245.35 329.87 285.32C330.82 285.39 338.37 286 339.32 286.07Z" id="eeL8Fq5TT"></path>
    <path d="M343.63 464.61C333.86 463.83 328.44 463.39 327.35 463.31C327.35 463.31 327.35 463.31 327.35 463.31C332.41 399.76 335.21 364.45 335.77 357.4C335.77 357.4 335.77 357.4 335.77 357.4C345.55 358.17 350.97 358.6 352.06 358.69C352.06 358.69 352.06 358.69 352.06 358.69C347 422.24 344.18 457.55 343.63 464.61C343.63 464.61 343.63 464.61 343.63 464.61Z" id="c1VbbYAhKj"></path>
    <path d="M409.67 468.98C399.91 468.2 394.48 467.77 393.39 467.69C393.39 467.69 393.39 467.69 393.39 467.69C398.41 404.66 401.19 369.64 401.75 362.64C401.75 362.64 401.75 362.64 401.75 362.64C411.53 363.42 416.94 363.84 418.03 363.93C418.03 363.93 418.03 363.93 418.03 363.93C413.01 426.97 410.23 461.98 409.67 468.98C409.67 468.98 409.67 468.98 409.67 468.98Z" id="cvLz8nfmM"></path>
    <path d="M401.71 363.2L400.07 383.71L416.35 385L417.98 364.49L401.71 363.2ZM334.1 378.46L350.38 379.75L352.01 359.24L335.73 357.96L334.1 378.46Z" id="c1BaCa8YD5"></path>
    <path d="M454.98 335.23C436.76 333.79 426.65 332.98 424.63 332.83C424.63 332.83 424.63 332.83 424.63 332.83C425.45 322.54 425.9 316.83 425.99 315.68C425.99 315.68 425.99 315.68 425.99 315.68C444.21 317.13 454.32 317.93 456.34 318.1C456.34 318.1 456.34 318.1 456.34 318.1C455.53 328.39 455.08 334.09 454.98 335.23C454.98 335.23 454.98 335.23 454.98 335.23Z" id="c6cU8SkEC5"></path>
    <path d="M361.09 234.26C369.14 234.9 375.14 241.94 374.49 249.98C373.85 258.03 366.82 264.03 358.77 263.39C350.73 262.75 344.73 255.72 345.37 247.66C346.01 239.63 353.05 233.62 361.09 234.26Z" id="b5U6wv0Yb"></path>
    <path d="M412.5 238.35C420.54 238.98 426.55 246.03 425.91 254.07C425.26 262.12 418.22 268.12 410.18 267.48C402.12 266.84 396.13 259.81 396.78 251.75C397.41 243.72 404.45 237.71 412.5 238.35Z" id="aP7Jr4dAV"></path>
    <path d="M327.86 456.96L344.15 458.26L353.56 459.01L352 478.72L316.87 475.92L318.44 456.22L327.86 456.96Z" id="eiUVmaOKw"></path>
    <path d="M393.84 462.2L410.1 463.51L419.54 464.25L417.97 483.96L382.84 481.17L384.41 461.47L393.84 462.2Z" id="f1B1Fv8Eoe"></path>
    <path d="M401.23 369.22L401.22 369.23L351.53 365.28L351.53 365.27L335.25 363.97L335.25 363.98L323.68 363.07L326.71 325.03L328.09 307.89L329.1 295.05L350.52 296.74L413.07 301.73L434.48 303.43L433.45 316.28L432.09 333.42L432.09 333.42L429.07 371.45L417.5 370.53L417.5 370.52L401.23 369.22Z" id="dwb3zWdAo"></path>
    <path d="M342.22 364.53C331.11 363.65 324.92 363.15 323.68 363.06C323.68 363.06 323.68 363.06 323.68 363.06C326.94 322.26 328.73 299.59 329.1 295.05C329.1 295.05 329.1 295.05 329.1 295.05C340.21 295.93 346.4 296.42 347.64 296.52C347.64 296.52 347.64 296.52 347.64 296.52C344.39 337.33 342.59 360 342.22 364.53C342.22 364.53 342.22 364.53 342.22 364.53Z" id="a3vdkcRlAc"></path>
    <path d="M378.66 250.32C379.48 239.99 371.76 230.92 361.43 230.1C351.1 229.28 342.03 237 341.2 247.33C340.38 257.66 348.12 266.73 358.44 267.55C368.78 268.38 377.84 260.64 378.66 250.32ZM349.54 247.99C349.99 242.26 355.02 237.96 360.77 238.42C366.49 238.88 370.79 243.91 370.33 249.65C369.87 255.39 364.83 259.67 359.11 259.22C353.36 258.76 349.08 253.73 349.54 247.99Z" id="ecKPDrJHT"></path>
    <path d="M409.85 271.64C420.17 272.47 429.25 264.73 430.08 254.4C430.89 244.08 423.15 235 412.82 234.18C402.5 233.36 393.43 241.1 392.6 251.42C391.79 261.75 399.52 270.82 409.85 271.64ZM412.15 242.51C417.9 242.96 422.18 248 421.72 253.74C421.28 259.48 416.25 263.76 410.51 263.31C404.78 262.85 400.49 257.82 400.94 252.08C401.4 246.35 406.44 242.05 412.15 242.51Z" id="b4mVgtiJN"></path>
    <path d="M414.03 318.19C414.21 315.87 412.5 313.86 410.19 313.68C407.89 313.5 405.89 315.22 405.7 317.52C405.52 319.82 407.22 321.84 409.54 322.02C411.84 322.2 413.84 320.47 414.03 318.19Z" id="cQXnPajGt"></path>
    <path d="M355.28 313.51C355.47 311.21 353.75 309.2 351.45 309.01C349.15 308.82 347.15 310.54 346.96 312.85C346.77 315.14 348.48 317.16 350.79 317.34C353.09 317.53 355.11 315.81 355.28 313.51Z" id="f1SUcnmqFV"></path>
    <path d="M397.64 191.19C397.96 187.21 394.99 183.71 391 183.39C387.02 183.07 383.52 186.06 383.21 190.05C382.89 194.03 385.87 197.52 389.86 197.83C393.85 198.15 397.33 195.17 397.64 191.19Z" id="d78bo5uWit"></path>
    <path d="M195.79 292.38C203.73 293.69 216.49 296.43 226.09 295.93C241.05 295.16 254.31 293.01 254.31 293.01C254.31 293.01 257.3 289.11 254.01 275.28C232.21 277.07 231.86 278.55 215.48 277.28C196.45 275.81 185.44 254.08 179.69 265.08C177.77 268.75 177.47 289.35 195.79 292.38Z" id="ciHrsZQFR"></path>
    <path d="M401.31 346.48C392.06 345.74 359.67 343.17 355.05 342.8C355.48 337.41 357.73 332.59 361.13 328.9C365.8 323.86 372.64 320.92 380.01 321.51C392.79 322.53 402.32 333.72 401.31 346.48Z" id="a4sPBFEQGa"></path>
    <path d="M397.09 346.14C388.67 345.48 359.25 343.14 355.05 342.8C355.48 337.41 357.73 332.59 361.13 328.9C365.31 326.12 370.42 324.66 375.82 325.09C387.27 326 396.11 335.07 397.09 346.14Z" id="a3fIjWxes"></path>
    <path d="M271.98 252.84L242.7 268.4L242.7 345.15L313.82 387.39L383.92 345.15L383.92 268.4L313.82 230.47L289.11 243.68L283.75 249.7L271.98 252.84Z" id="c4fxnDC4yb"></path>
    <path d="M358.15 298.08L358.15 282.25L289.11 243.68L271.98 252.84L340.64 291.93L340.64 307.63L358.15 298.08Z" id="b3SD7iCSl1"></path>
    <path d="M241.38 345.15C241.38 337.49 241.38 276.08 241.38 268.4C241.38 267.87 241.65 267.48 242.04 267.22C242.43 266.96 242.95 266.96 243.34 267.22C250.45 271.02 307.37 301.34 314.48 305.15C315.14 305.54 315.4 306.31 315 306.97C314.61 307.63 313.82 307.89 313.17 307.63C308.56 305.17 285.51 292.82 243.99 270.62C243.99 275.54 243.99 300.12 243.99 344.38C250.97 348.52 306.84 381.68 313.82 385.82C355.09 360.96 378.03 347.13 382.6 344.38C382.6 298.78 382.6 273.46 382.6 268.4C382.6 267.61 383.13 267.09 383.92 267.09C384.7 267.09 385.23 267.61 385.23 268.4C385.23 276.08 385.23 337.49 385.23 345.15C385.23 345.68 384.97 346.07 384.58 346.33C377.56 350.56 321.49 384.34 314.48 388.58C314.35 388.71 314.09 388.71 313.82 388.71C313.56 388.71 313.3 388.71 313.17 388.58C306.06 384.34 249.15 350.56 242.04 346.33C241.65 346.07 241.38 345.54 241.38 345.15Z" id="b1lN1SX8s9"></path>
    <path d="M241.38 345.15C241.38 337.49 241.38 276.08 241.38 268.4C241.38 267.87 241.65 267.48 242.04 267.22C242.43 266.96 242.95 266.96 243.34 267.22C250.45 271.02 307.37 301.34 314.48 305.15C315.14 305.54 315.4 306.31 315 306.97C314.61 307.63 313.82 307.89 313.17 307.63C308.56 305.17 285.51 292.82 243.99 270.62C243.99 275.54 243.99 300.12 243.99 344.38C250.97 348.52 306.84 381.68 313.82 385.82C355.09 360.96 378.03 347.13 382.6 344.38C382.6 298.78 382.6 273.46 382.6 268.4C382.6 267.61 383.13 267.09 383.92 267.09C384.7 267.09 385.23 267.61 385.23 268.4C385.23 276.08 385.23 337.49 385.23 345.15C385.23 345.68 384.97 346.07 384.58 346.33C377.56 350.56 321.49 384.34 314.48 388.58C314.35 388.71 314.09 388.71 313.82 388.71C313.56 388.71 313.3 388.71 313.17 388.58C306.06 384.34 249.15 350.56 242.04 346.33C241.65 346.07 241.38 345.54 241.38 345.15Z" id="c2jtVmxo8"></path>
    <path d="M241.38 345.15C241.38 337.49 241.38 276.08 241.38 268.4C241.38 267.87 241.65 267.48 242.04 267.22C242.43 266.96 242.95 266.96 243.34 267.22C250.45 271.02 307.37 301.34 314.48 305.15C315.14 305.54 315.4 306.31 315 306.97C314.61 307.63 313.82 307.89 313.17 307.63C308.56 305.17 285.51 292.82 243.99 270.62C243.99 275.54 243.99 300.12 243.99 344.38C250.97 348.52 306.84 381.68 313.82 385.82C355.09 360.96 378.03 347.13 382.6 344.38C382.6 298.78 382.6 273.46 382.6 268.4C382.6 267.61 383.13 267.09 383.92 267.09C384.7 267.09 385.23 267.61 385.23 268.4C385.23 276.08 385.23 337.49 385.23 345.15C385.23 345.68 384.97 346.07 384.58 346.33C377.56 350.56 321.49 384.34 314.48 388.58C314.35 388.71 314.09 388.71 313.82 388.71C313.56 388.71 313.3 388.71 313.17 388.58C306.06 384.34 249.15 350.56 242.04 346.33C241.65 346.07 241.38 345.54 241.38 345.15Z" id="b4wY7r9FOr"></path>
    <path d="M241.38 345.15C241.38 337.49 241.38 276.08 241.38 268.4C241.38 267.87 241.65 267.48 242.04 267.22C242.43 266.96 242.95 266.96 243.34 267.22C250.45 271.02 307.37 301.34 314.48 305.15C315.14 305.54 315.4 306.31 315 306.97C314.61 307.63 313.82 307.89 313.17 307.63C308.56 305.17 285.51 292.82 243.99 270.62C243.99 275.54 243.99 300.12 243.99 344.38C250.97 348.52 306.84 381.68 313.82 385.82C355.09 360.96 378.03 347.13 382.6 344.38C382.6 298.78 382.6 273.46 382.6 268.4C382.6 267.61 383.13 267.09 383.92 267.09C384.7 267.09 385.23 267.61 385.23 268.4C385.23 276.08 385.23 337.49 385.23 345.15C385.23 345.68 384.97 346.07 384.58 346.33C377.56 350.56 321.49 384.34 314.48 388.58C314.35 388.71 314.09 388.71 313.82 388.71C313.56 388.71 313.3 388.71 313.17 388.58C306.06 384.34 249.15 350.56 242.04 346.33C241.65 346.07 241.38 345.54 241.38 345.15Z" id="cQt67mee"></path>
    <path d="M271.98 252.84L271.98 252.84L288.46 244.07L271.98 252.84Z" id="a531Xl64F"></path>
    <path d="M271.98 252.84L271.98 252.84L288.46 244.07L271.98 252.84Z" id="e1U2GBKu1d"></path>
    <path d="M271.98 252.84L271.98 252.84L288.46 244.07L271.98 252.84Z" id="b18bb93TrW"></path>
    <path d="M271.98 252.84L271.98 252.84L288.46 244.07L271.98 252.84Z" id="ajkHc1Jv"></path>
    <path d="M241.38 345.15C241.38 337.49 241.38 276.08 241.38 268.4C241.38 267.87 241.65 267.48 242.04 267.22C244.96 265.65 268.4 253.09 271.33 251.53C271.98 251.14 272.77 251.41 273.16 252.04C273.54 252.7 273.29 253.49 272.64 253.89C270.73 254.91 261.18 260.01 243.99 269.18C243.99 274.19 243.99 299.26 243.99 344.38C248.65 347.14 271.92 360.96 313.82 385.82L382.6 344.38C382.6 299.26 382.6 274.2 382.6 269.18C341.34 246.82 318.41 234.4 313.82 231.91C299.31 239.68 291.25 243.99 289.63 244.86C288.98 245.26 288.19 244.99 287.81 244.34C287.42 243.68 287.68 242.9 288.32 242.5C290.81 241.19 310.68 230.62 313.17 229.3C313.56 229.04 314.09 229.04 314.35 229.3C321.36 233.09 377.43 263.43 384.44 267.22C384.83 267.48 385.1 267.87 385.1 268.4C385.1 276.08 385.1 337.49 385.1 345.15C385.1 345.68 384.83 346.07 384.44 346.33C377.43 350.56 321.36 384.34 314.35 388.58C314.35 388.71 314.09 388.71 313.82 388.71C313.56 388.71 313.3 388.71 313.17 388.58C306.06 384.34 249.15 350.56 242.04 346.33C241.65 346.07 241.38 345.54 241.38 345.15Z" id="g2rAW3Ko32"></path>
    <path d="M339.33 292.59C298.53 269.37 275.86 256.47 271.33 253.89C270.94 253.62 270.67 253.23 270.67 252.7C270.67 252.18 270.94 251.79 271.33 251.53C273.03 250.63 286.63 243.41 288.32 242.5C288.71 242.24 289.24 242.24 289.63 242.5C296.56 246.37 351.89 277.22 358.81 281.09C359.2 281.34 359.46 281.73 359.46 282.25C359.46 283.84 359.46 296.5 359.46 298.08C359.46 298.61 359.2 299 358.81 299.27C357.05 300.22 343.04 307.85 341.29 308.81C341.16 308.93 340.89 308.93 340.64 308.93C340.37 308.93 340.11 308.93 339.98 308.81C339.59 308.54 339.33 308.15 339.33 307.63C339.33 306.62 339.33 301.61 339.33 292.59ZM341.93 305.54C342.93 304.99 347.9 302.29 356.85 297.43C356.85 296.47 356.85 291.68 356.85 283.05C316.21 260.37 293.63 247.78 289.11 245.26C280.49 249.81 275.69 252.34 274.73 252.84C314.67 275.6 336.85 288.23 341.29 290.76C341.69 291.02 341.93 291.41 341.93 291.93C341.93 292.84 341.93 297.37 341.93 305.54Z" id="c4dzwAlu39"></path>
    <path d="M241.38 345.15C241.38 337.49 241.38 276.08 241.38 268.4C241.38 267.87 241.65 267.48 242.04 267.22C242.43 266.96 242.95 266.96 243.34 267.22C248.05 269.73 271.53 282.28 313.82 304.88C329.21 296.56 337.75 291.94 339.45 291.02C340.11 290.64 340.89 290.89 341.29 291.54C341.69 292.2 341.42 292.98 340.77 293.37C338.13 294.8 317.12 306.2 314.48 307.63C314.09 307.89 313.56 307.89 313.3 307.63C308.68 305.17 285.58 292.82 243.99 270.62C243.99 275.54 243.99 300.12 243.99 344.38C248.65 347.14 271.92 360.96 313.82 385.82C355.09 360.96 378.02 347.14 382.6 344.38C382.6 300.12 382.6 275.54 382.6 270.62C368.41 278.31 360.52 282.58 358.95 283.44C358.29 283.83 357.5 283.57 357.1 282.91C356.71 282.25 356.97 281.47 357.63 281.09C360.2 279.69 380.7 268.6 383.26 267.22C383.65 266.96 384.18 266.96 384.58 267.22C384.97 267.48 385.23 267.87 385.23 268.4C385.23 276.08 385.23 337.49 385.23 345.15C385.23 345.68 384.97 346.07 384.58 346.33C377.56 350.56 321.49 384.34 314.48 388.58C314.35 388.71 314.09 388.71 313.82 388.71C313.56 388.71 313.3 388.71 313.17 388.58C306.06 384.34 249.15 350.56 242.04 346.33C241.65 346.07 241.38 345.54 241.38 345.15Z" id="a70e2F7nlF"></path>
    <path d="M271.33 251.66C272.96 250.79 286.03 243.78 287.68 242.9C288.32 242.5 289.11 242.77 289.51 243.42C289.63 243.55 289.63 243.82 289.63 244.07C289.63 244.6 289.37 244.99 288.98 245.26C287.35 246.13 274.27 253.13 272.64 254.01C272.5 254.01 272.25 254.14 271.98 254.14C271.45 254.14 271.06 253.89 270.81 253.49C270.67 253.36 270.67 253.09 270.67 252.84C270.67 252.31 270.94 251.92 271.33 251.66Z" id="c37hQErwkE"></path>
    <path d="M450.73 319.85C461.03 317.93 466.77 316.86 467.91 316.66C467.91 316.66 467.91 316.66 467.91 316.66C469.49 325.11 461.45 333.72 449.97 335.84C437.75 338.11 407.22 343.78 358.36 352.85C357.99 350.8 357.05 345.69 355.53 337.52C365.16 335.73 389.25 331.26 427.77 324.11C441.54 321.55 449.2 320.13 450.73 319.85Z" id="d1xLMGVKvd"></path>
    <path d="M313.82 305.15C314.61 305.15 315.14 305.66 315.14 306.45C315.14 314.55 315.14 379.29 315.14 387.39C315.14 388.19 314.61 388.71 313.82 388.71C313.04 388.71 312.52 388.19 312.52 387.39C312.52 379.29 312.52 314.55 312.52 306.45C312.52 305.66 313.04 305.15 313.82 305.15Z" id="bbweMhy0h"></path>
    <path d="M229.66 526.73C229.66 526.73 232.88 531.26 238.92 529.55C244.96 527.85 266.12 516.84 264.56 513.39C260.76 505 251.55 510.69 239.85 511.6C233.41 512.11 229.66 512.65 229.66 512.65C229.66 515.46 229.66 525.32 229.66 526.73Z" id="a19iky2f9G"></path>
    <path d="M195.23 508.62C195.23 508.62 198.45 513.14 204.49 511.44C210.53 509.73 232.23 498.43 230.13 495.28C224.81 487.3 217.12 492.58 205.42 493.49C198.98 493.99 195.23 494.53 195.23 494.53C195.23 497.35 195.23 507.21 195.23 508.62Z" id="d1dbFrcXFD"></path>
    <path d="M176.89 333.12C176.89 333.12 182.23 336.68 182.82 337.27C183.42 337.86 196.63 333.05 196.63 331.54C196.63 330.02 193.69 320.67 193.69 319.28C193.69 317.9 192.71 310.78 192.71 310.78C191.59 311.2 186.04 313.3 176.05 317.08C176.55 326.7 176.83 332.05 176.89 333.12Z" id="d1YRhWxQAc"></path>
    <path d="M172.27 206.03C172.09 215.74 171.18 231.43 173.03 242.91C175.92 260.81 179.92 276.49 179.92 276.49C179.92 276.49 184.22 279.6 197.47 273.91C192.61 247.92 191.1 247.68 190.04 227.83C188.81 204.75 208.81 188.8 197.09 183.25C193.17 181.4 172.69 183.61 172.27 206.03Z" id="dKjYnXMvn"></path>
    <path d="M176.55 353.85C177.72 372.57 193.27 424.38 193.27 424.38C188.75 467.6 194.67 496.99 194.67 496.99C194.67 496.99 196.21 500.14 202.1 499.99C207.01 499.87 209.91 496.31 209.91 496.31C210.28 485.78 213.23 401.57 213.6 391.04C218.6 413.69 227.7 443.34 227.7 443.34C223.18 486.56 229.1 515.95 229.1 515.95C229.1 515.95 231.08 519.2 236.63 519.03C241.54 518.89 244.34 515.26 244.34 515.26C244.77 502.93 246.94 441.25 250.83 330.24L185.5 306.97C178.44 320.72 175.45 336.35 176.55 353.85Z" id="b7Fk7D6OBI"></path>
    <path d="M189.78 274.29C193.5 252.19 178.56 226.18 178.56 214.59C178.56 188.53 189.74 182.28 198.19 182.44C198.19 182.44 232.02 192.54 258.13 215.64C258.13 215.64 264.1 236.62 262.79 244.11C261.29 252.65 246.49 264.71 246.49 273.9C246.49 285.9 254.7 331.21 254.7 331.21C243.31 352.42 196.46 352.69 176.05 324.88C178.79 314.76 184.94 303.01 189.78 274.29Z" id="klp1ccHwn"></path>
    <path d="M189.78 274.29C193.5 252.19 178.56 226.18 178.56 214.59C178.56 188.53 189.74 182.28 198.19 182.44C198.19 182.44 232.02 192.54 258.13 215.64C258.13 215.64 264.1 236.62 262.79 244.11C261.29 252.65 246.49 264.71 246.49 273.9C246.49 285.9 254.7 331.21 254.7 331.21C243.31 352.42 196.46 352.69 176.05 324.88C178.79 314.76 184.94 303.01 189.78 274.29Z" id="d2tobbp3uI"></path>
    <path d="M177.69 320.51C180.4 313 185.86 296.48 189.43 276.31C189.11 270.15 189.01 264.08 189.21 254.95C186.22 238.59 178.56 222.89 178.56 214.59C178.56 198.76 182.68 190.25 187.82 186.04C181.51 189.35 175.86 197.86 175.86 216.39C175.86 227.98 190.8 253.99 187.08 276.09C183.86 295.17 178.86 311.22 175.86 319.85C176.33 320.09 176.94 320.33 177.69 320.51Z" id="aEOBdlO0y"></path>
    <path d="M244.57 182.28C237.98 187.26 204.45 184.04 195.19 167.24C185.93 150.44 191.03 118.68 211.65 115.21C235.74 111.17 251.79 127.48 250.33 152.46C249.18 158.42 251.17 177.29 244.57 182.28Z" id="a1FEgTslFR"></path>
    <path d="M200.26 195.58C200.26 195.58 209.63 211.9 226.53 201.88C226.53 201.88 228.15 179.81 229.73 176.45C231.31 173.09 205.22 170.32 205.22 170.32C204.23 175.37 200.76 193.06 200.26 195.58Z" id="eHFxW9h8Q"></path>
    <path d="M228.58 115.41C189.89 106.36 183.76 147.82 183.89 167.83C184.11 205.24 189.65 232.76 203.15 267.65C212.21 254.28 230.1 209.07 230.85 181.84C234.64 172.33 241.29 167.23 245.42 157.82C249.88 147.68 254.89 137.34 243.72 123.12C240.14 118.57 234.22 116.72 228.58 115.41Z" id="b5Nf7xa6Rj"></path>
    <path d="M332.75 321.56C334.5 321.75 335.41 323.67 339.06 322.85C339.63 322.72 343.08 319.16 343.78 317.79C344.53 316.32 339.47 305.6 338.65 304.01C337.83 302.42 329.23 302.25 327.2 302.03C326.58 301.96 316.65 300.61 316.03 301.73C315.41 302.86 317.46 319.59 317.46 319.59C320.52 319.98 331.01 321.37 332.75 321.56Z" id="brGK2dF98"></path>
    <path d="M238.94 226.34C236.62 238.87 262.19 308.62 262.19 308.62C262.19 308.62 275.74 311.41 282.46 300.38C282.46 300.38 271.83 273.59 267.63 256.62C263.42 239.66 261.78 219.86 255.36 216.07C251.95 214.06 241.27 213.81 238.94 226.34Z" id="bnK2KyzFy"></path>
    <path d="M242.51 222.74C241.46 224.83 240.45 227.38 239.54 230.47C235.45 244.38 237.58 311.99 239.54 343.44C240.76 342.98 241.93 342.47 243.05 341.91C241.06 309.71 237.31 239.87 241.33 226.18C241.7 224.92 242.1 223.79 242.51 222.74Z" id="bCGXAz1Xi"></path>
    <path d="M264.7 311.64C271.9 318.6 326.56 322.26 326.56 322.26C326.56 322.26 333.48 311 328.92 300.62C328.92 300.62 307.63 299.94 295.09 297.22C282.56 294.49 269.17 288.34 264.3 292.72C261.71 295.05 257.51 304.68 264.7 311.64Z" id="jseC6QAwP"></path>
  </defs>
  <g>
    <g>
      <use xlink:href="#b6X2MToyG" opacity="1" fill="#2ba5f7" fill-opacity="1"></use>
      <g>
        <use xlink:href="#b6X2MToyG" opacity="1" fill-opacity="0" stroke="#000000" stroke-width="1" stroke-opacity="0"></use>
      </g>
    </g>
    <g>
      <use xlink:href="#a3SodeIWm" opacity="1" fill="#e09b2d" fill-opacity="1"></use>
      <g>
        <use xlink:href="#a3SodeIWm" opacity="1" fill-opacity="0" stroke="#000000" stroke-width="1" stroke-opacity="0"></use>
      </g>
    </g>
    <g>
      <use xlink:href="#aa6thnx3M" opacity="1" fill="#f95428" fill-opacity="1"></use>
      <g>
        <use xlink:href="#aa6thnx3M" opacity="1" fill-opacity="0" stroke="#000000" stroke-width="1" stroke-opacity="0"></use>
      </g>
    </g>
    <g>
      <use xlink:href="#eeL8Fq5TT" opacity="1" fill="#e54728" fill-opacity="1"></use>
      <g>
        <use xlink:href="#eeL8Fq5TT" opacity="1" fill-opacity="0" stroke="#000000" stroke-width="1" stroke-opacity="0"></use>
      </g>
    </g>
    <g>
      <use xlink:href="#c1VbbYAhKj" opacity="1" fill="#f7b239" fill-opacity="1"></use>
      <g>
        <use xlink:href="#c1VbbYAhKj" opacity="1" fill-opacity="0" stroke="#000000" stroke-width="1" stroke-opacity="0"></use>
      </g>
    </g>
    <g>
      <use xlink:href="#cvLz8nfmM" opacity="1" fill="#f7b239" fill-opacity="1"></use>
      <g>
        <use xlink:href="#cvLz8nfmM" opacity="1" fill-opacity="0" stroke="#000000" stroke-width="1" stroke-opacity="0"></use>
      </g>
    </g>
    <g>
      <use xlink:href="#c1BaCa8YD5" opacity="1" fill="#e09b2d" fill-opacity="1"></use>
      <g>
        <use xlink:href="#c1BaCa8YD5" opacity="1" fill-opacity="0" stroke="#000000" stroke-width="1" stroke-opacity="0"></use>
      </g>
    </g>
    <g>
      <use xlink:href="#c6cU8SkEC5" opacity="1" fill="#f7b239" fill-opacity="1"></use>
      <g>
        <use xlink:href="#c6cU8SkEC5" opacity="1" fill-opacity="0" stroke="#000000" stroke-width="1" stroke-opacity="0"></use>
      </g>
    </g>
    <g>
      <use xlink:href="#b5U6wv0Yb" opacity="1" fill="#f7b239" fill-opacity="1"></use>
      <g>
        <use xlink:href="#b5U6wv0Yb" opacity="1" fill-opacity="0" stroke="#000000" stroke-width="1" stroke-opacity="0"></use>
      </g>
    </g>
    <g>
      <use xlink:href="#aP7Jr4dAV" opacity="1" fill="#f7b239" fill-opacity="1"></use>
      <g>
        <use xlink:href="#aP7Jr4dAV" opacity="1" fill-opacity="0" stroke="#000000" stroke-width="1" stroke-opacity="0"></use>
      </g>
    </g>
    <g>
      <use xlink:href="#eiUVmaOKw" opacity="1" fill="#f95428" fill-opacity="1"></use>
      <g>
        <use xlink:href="#eiUVmaOKw" opacity="1" fill-opacity="0" stroke="#000000" stroke-width="1" stroke-opacity="0"></use>
      </g>
    </g>
    <g>
      <use xlink:href="#f1B1Fv8Eoe" opacity="1" fill="#f95428" fill-opacity="1"></use>
      <g>
        <use xlink:href="#f1B1Fv8Eoe" opacity="1" fill-opacity="0" stroke="#000000" stroke-width="1" stroke-opacity="0"></use>
      </g>
    </g>
    <g>
      <use xlink:href="#dwb3zWdAo" opacity="1" fill="#2ba5f7" fill-opacity="1"></use>
      <g>
        <use xlink:href="#dwb3zWdAo" opacity="1" fill-opacity="0" stroke="#000000" stroke-width="1" stroke-opacity="0"></use>
      </g>
    </g>
    <g>
      <use xlink:href="#a3vdkcRlAc" opacity="1" fill="#2197d8" fill-opacity="1"></use>
      <g>
        <use xlink:href="#a3vdkcRlAc" opacity="1" fill-opacity="0" stroke="#000000" stroke-width="1" stroke-opacity="0"></use>
      </g>
    </g>
    <g>
      <use xlink:href="#ecKPDrJHT" opacity="1" fill="#4d4d4d" fill-opacity="1"></use>
      <g>
        <use xlink:href="#ecKPDrJHT" opacity="1" fill-opacity="0" stroke="#000000" stroke-width="1" stroke-opacity="0"></use>
      </g>
    </g>
    <g>
      <use xlink:href="#b4mVgtiJN" opacity="1" fill="#4d4d4d" fill-opacity="1"></use>
      <g>
        <use xlink:href="#b4mVgtiJN" opacity="1" fill-opacity="0" stroke="#000000" stroke-width="1" stroke-opacity="0"></use>
      </g>
    </g>
    <g>
      <use xlink:href="#cQXnPajGt" opacity="1" fill="#4d4d4d" fill-opacity="1"></use>
      <g>
        <use xlink:href="#cQXnPajGt" opacity="1" fill-opacity="0" stroke="#000000" stroke-width="1" stroke-opacity="0"></use>
      </g>
    </g>
    <g>
      <use xlink:href="#f1SUcnmqFV" opacity="1" fill="#000000" fill-opacity="0"></use>
      <g>
        <use xlink:href="#f1SUcnmqFV" opacity="1" fill-opacity="0" stroke="#000000" stroke-width="1" stroke-opacity="0"></use>
      </g>
    </g>
    <g>
      <use xlink:href="#d78bo5uWit" opacity="1" fill="#f7b239" fill-opacity="1"></use>
      <g>
        <use xlink:href="#d78bo5uWit" opacity="1" fill-opacity="0" stroke="#000000" stroke-width="1" stroke-opacity="0"></use>
      </g>
    </g>
    <g>
      <use xlink:href="#ciHrsZQFR" opacity="1" fill="#0f83ff" fill-opacity="1"></use>
      <g>
        <use xlink:href="#ciHrsZQFR" opacity="1" fill-opacity="0" stroke="#000000" stroke-width="1" stroke-opacity="0"></use>
      </g>
    </g>
    <g>
      <use xlink:href="#a4sPBFEQGa" opacity="1" fill="#e09b2d" fill-opacity="1"></use>
      <g>
        <use xlink:href="#a4sPBFEQGa" opacity="1" fill-opacity="0" stroke="#000000" stroke-width="1" stroke-opacity="0"></use>
      </g>
    </g>
    <g>
      <use xlink:href="#a3fIjWxes" opacity="1" fill="#f7b239" fill-opacity="1"></use>
      <g>
        <use xlink:href="#a3fIjWxes" opacity="1" fill-opacity="0" stroke="#000000" stroke-width="1" stroke-opacity="0"></use>
      </g>
    </g>
    <g>
      <use xlink:href="#c4fxnDC4yb" opacity="1" fill="#d6ab7f" fill-opacity="1"></use>
      <g>
        <use xlink:href="#c4fxnDC4yb" opacity="1" fill-opacity="0" stroke="#000000" stroke-width="1" stroke-opacity="0"></use>
      </g>
    </g>
    <g>
      <use xlink:href="#b3SD7iCSl1" opacity="1" fill="#ffffff" fill-opacity="1"></use>
      <g>
        <use xlink:href="#b3SD7iCSl1" opacity="1" fill-opacity="0" stroke="#000000" stroke-width="1" stroke-opacity="0"></use>
      </g>
    </g>
    <g>
      <use xlink:href="#b1lN1SX8s9" opacity="1" fill="#62355c" fill-opacity="1"></use>
      <g>
        <use xlink:href="#b1lN1SX8s9" opacity="1" fill-opacity="0" stroke="#000000" stroke-width="1" stroke-opacity="0"></use>
      </g>
    </g>
    <g>
      <use xlink:href="#c2jtVmxo8" opacity="1" fill="#000000" fill-opacity="0"></use>
      <g>
        <use xlink:href="#c2jtVmxo8" opacity="1" fill-opacity="0" stroke="#000000" stroke-width="1" stroke-opacity="0"></use>
      </g>
    </g>
    <g>
      <use xlink:href="#b4wY7r9FOr" opacity="1" fill="#000000" fill-opacity="0"></use>
      <g>
        <use xlink:href="#b4wY7r9FOr" opacity="1" fill-opacity="0" stroke="#000000" stroke-width="1" stroke-opacity="0"></use>
      </g>
    </g>
    <g>
      <use xlink:href="#cQt67mee" opacity="1" fill="#000000" fill-opacity="0"></use>
      <g>
        <use xlink:href="#cQt67mee" opacity="1" fill-opacity="0" stroke="#000000" stroke-width="1" stroke-opacity="0"></use>
      </g>
    </g>
    <g>
      <use xlink:href="#a531Xl64F" opacity="1" fill="#ffffff" fill-opacity="1"></use>
      <g>
        <use xlink:href="#a531Xl64F" opacity="1" fill-opacity="0" stroke="#000000" stroke-width="1" stroke-opacity="0"></use>
      </g>
    </g>
    <g>
      <use xlink:href="#e1U2GBKu1d" opacity="1" fill="#000000" fill-opacity="0"></use>
      <g>
        <use xlink:href="#e1U2GBKu1d" opacity="1" fill-opacity="0" stroke="#000000" stroke-width="1" stroke-opacity="0"></use>
      </g>
    </g>
    <g>
      <use xlink:href="#b18bb93TrW" opacity="1" fill="#000000" fill-opacity="0"></use>
      <g>
        <use xlink:href="#b18bb93TrW" opacity="1" fill-opacity="0" stroke="#000000" stroke-width="1" stroke-opacity="0"></use>
      </g>
    </g>
    <g>
      <use xlink:href="#ajkHc1Jv" opacity="1" fill="#000000" fill-opacity="0"></use>
      <g>
        <use xlink:href="#ajkHc1Jv" opacity="1" fill-opacity="0" stroke="#000000" stroke-width="1" stroke-opacity="0"></use>
      </g>
    </g>
    <g>
      <use xlink:href="#g2rAW3Ko32" opacity="1" fill="#62355c" fill-opacity="1"></use>
      <g>
        <use xlink:href="#g2rAW3Ko32" opacity="1" fill-opacity="0" stroke="#000000" stroke-width="1" stroke-opacity="0"></use>
      </g>
    </g>
    <g>
      <use xlink:href="#c4dzwAlu39" opacity="1" fill="#62355c" fill-opacity="1"></use>
      <g>
        <use xlink:href="#c4dzwAlu39" opacity="1" fill-opacity="0" stroke="#000000" stroke-width="1" stroke-opacity="0"></use>
      </g>
    </g>
    <g>
      <use xlink:href="#a70e2F7nlF" opacity="1" fill="#62355c" fill-opacity="1"></use>
      <g>
        <use xlink:href="#a70e2F7nlF" opacity="1" fill-opacity="0" stroke="#000000" stroke-width="1" stroke-opacity="0"></use>
      </g>
    </g>
    <g>
      <use xlink:href="#c37hQErwkE" opacity="1" fill="#62355c" fill-opacity="1"></use>
      <g>
        <use xlink:href="#c37hQErwkE" opacity="1" fill-opacity="0" stroke="#000000" stroke-width="1" stroke-opacity="0"></use>
      </g>
    </g>
    <g>
      <use xlink:href="#d1xLMGVKvd" opacity="1" fill="#f95428" fill-opacity="1"></use>
      <g>
        <use xlink:href="#d1xLMGVKvd" opacity="1" fill-opacity="0" stroke="#000000" stroke-width="1" stroke-opacity="0"></use>
      </g>
    </g>
    <g>
      <use xlink:href="#bbweMhy0h" opacity="1" fill="#62355c" fill-opacity="1"></use>
      <g>
        <use xlink:href="#bbweMhy0h" opacity="1" fill-opacity="0" stroke="#000000" stroke-width="1" stroke-opacity="0"></use>
      </g>
    </g>
    <g>
      <use xlink:href="#a19iky2f9G" opacity="1" fill="#884d01" fill-opacity="1"></use>
      <g>
        <use xlink:href="#a19iky2f9G" opacity="1" fill-opacity="0" stroke="#000000" stroke-width="1" stroke-opacity="0"></use>
      </g>
    </g>
    <g>
      <use xlink:href="#d1dbFrcXFD" opacity="1" fill="#884d01" fill-opacity="1"></use>
      <g>
        <use xlink:href="#d1dbFrcXFD" opacity="1" fill-opacity="0" stroke="#000000" stroke-width="1" stroke-opacity="0"></use>
      </g>
    </g>
    <g>
      <use xlink:href="#d1YRhWxQAc" opacity="1" fill="#fec377" fill-opacity="1"></use>
      <g>
        <use xlink:href="#d1YRhWxQAc" opacity="1" fill-opacity="0" stroke="#000000" stroke-width="1" stroke-opacity="0"></use>
      </g>
    </g>
    <g>
      <use xlink:href="#dKjYnXMvn" opacity="1" fill="#0f83ff" fill-opacity="1"></use>
      <g>
        <use xlink:href="#dKjYnXMvn" opacity="1" fill-opacity="0" stroke="#000000" stroke-width="1" stroke-opacity="0"></use>
      </g>
    </g>
    <g>
      <use xlink:href="#b7Fk7D6OBI" opacity="1" fill="#3e3d43" fill-opacity="1"></use>
      <g>
        <use xlink:href="#b7Fk7D6OBI" opacity="1" fill-opacity="0" stroke="#000000" stroke-width="1" stroke-opacity="0"></use>
      </g>
    </g>
    <g>
      <use xlink:href="#klp1ccHwn" opacity="1" fill="#0f83ff" fill-opacity="1"></use>
      <g>
        <use xlink:href="#klp1ccHwn" opacity="1" fill-opacity="0" stroke="#000000" stroke-width="1" stroke-opacity="0"></use>
      </g>
    </g>
    <g>
      <use xlink:href="#d2tobbp3uI" opacity="1" fill="#0f83ff" fill-opacity="1"></use>
      <g>
        <use xlink:href="#d2tobbp3uI" opacity="1" fill-opacity="0" stroke="#000000" stroke-width="1" stroke-opacity="0"></use>
      </g>
    </g>
    <g>
      <use xlink:href="#aEOBdlO0y" opacity="1" fill="#eebf00" fill-opacity="1"></use>
      <g>
        <use xlink:href="#aEOBdlO0y" opacity="1" fill-opacity="0" stroke="#000000" stroke-width="1" stroke-opacity="0"></use>
      </g>
    </g>
    <g>
      <use xlink:href="#a1FEgTslFR" opacity="1" fill="#fec377" fill-opacity="1"></use>
      <g>
        <use xlink:href="#a1FEgTslFR" opacity="1" fill-opacity="0" stroke="#000000" stroke-width="1" stroke-opacity="0"></use>
      </g>
    </g>
    <g>
      <use xlink:href="#eHFxW9h8Q" opacity="1" fill="#fec377" fill-opacity="1"></use>
      <g>
        <use xlink:href="#eHFxW9h8Q" opacity="1" fill-opacity="0" stroke="#000000" stroke-width="1" stroke-opacity="0"></use>
      </g>
    </g>
    <g>
      <use xlink:href="#b5Nf7xa6Rj" opacity="1" fill="#791900" fill-opacity="1"></use>
      <g>
        <use xlink:href="#b5Nf7xa6Rj" opacity="1" fill-opacity="0" stroke="#000000" stroke-width="1" stroke-opacity="0"></use>
      </g>
    </g>
    <g>
      <use xlink:href="#brGK2dF98" opacity="1" fill="#fec377" fill-opacity="1"></use>
      <g>
        <use xlink:href="#brGK2dF98" opacity="1" fill-opacity="0" stroke="#000000" stroke-width="1" stroke-opacity="0"></use>
      </g>
    </g>
    <g>
      <use xlink:href="#bnK2KyzFy" opacity="1" fill="#0f83ff" fill-opacity="1"></use>
      <g>
        <use xlink:href="#bnK2KyzFy" opacity="1" fill-opacity="0" stroke="#000000" stroke-width="1" stroke-opacity="0"></use>
      </g>
    </g>
    <g>
      <use xlink:href="#bCGXAz1Xi" opacity="1" fill="#eebf00" fill-opacity="1"></use>
      <g>
        <use xlink:href="#bCGXAz1Xi" opacity="1" fill-opacity="0" stroke="#000000" stroke-width="1" stroke-opacity="0"></use>
      </g>
    </g>
    <g>
      <use xlink:href="#jseC6QAwP" opacity="1" fill="#0f83ff" fill-opacity="1"></use>
      <g>
        <use xlink:href="#jseC6QAwP" opacity="1" fill-opacity="0" stroke="#000000" stroke-width="1" stroke-opacity="0"></use>
      </g>
    </g>
  </g>
</svg>