<?xml version="1.0" encoding="UTF-8" standalone="no"?>
<!DOCTYPE svg PUBLIC "-//W3C//DTD SVG 1.1//EN" "http://www.w3.org/Graphics/SVG/1.1/DTD/svg11.dtd">
<svg version="1.1" xmlns="http://www.w3.org/2000/svg" xmlns:xlink="http://www.w3.org/1999/xlink" preserveAspectRatio="xMidYMid meet" viewBox="27.267110622847962 -1.000000000000007 582.6657787543041 644" width="578.67" height="640">
  <defs>
    <path d="M112.27 61.33C112.27 61.33 112.27 61.33 112.27 61.33C112.27 408.53 112.27 601.42 112.27 640C112.27 640 112.27 640 112.27 640C73.87 640 52.53 640 48.27 640C48.27 640 48.27 640 48.27 640C48.27 292.8 48.27 99.91 48.27 61.33C48.27 61.33 48.27 61.33 48.27 61.33C86.67 61.33 108 61.33 112.27 61.33Z" id="cKBbsAkai"></path>
    <path d="M606.93 473.33C448.27 356 290.93 576 132.27 486.67C125.6 482.67 118.93 478.67 112.27 473.33C112.27 437.33 112.27 149.33 112.27 113.33C118.93 118.67 125.6 122.67 132.27 126.67C290.93 217.33 448.27 -2.67 606.93 113.33C606.93 185.33 606.93 437.33 606.93 473.33Z" id="aYiypFq53"></path>
    <path d="M112.27 116C102.93 121.33 92.27 124 80.27 124C68.26 124 57.6 121.33 48.27 116C48.27 112.36 48.27 94.13 48.27 61.33L112.27 61.33C112.27 94.13 112.27 112.36 112.27 116Z" id="c5CaCb724"></path>
    <path d="M80.27 0C51.55 0 28.27 23.28 28.27 52C28.27 80.72 51.55 104 80.27 104C108.99 104 132.27 80.72 132.27 52C132.27 23.28 108.99 0 80.27 0Z" id="b2pubaHBV"></path>
    <path d="M132.27 486.67C125.6 482.67 118.93 478.67 112.27 473.33C112.27 437.33 112.27 149.33 112.27 113.33C118.93 118.67 125.6 122.67 132.27 126.67C132.27 198.67 132.27 450.67 132.27 486.67Z" id="adbTt99k4"></path>
  </defs>
  <g>
    <g>
      <use xlink:href="#cKBbsAkai" opacity="1" fill="#acb3ba" fill-opacity="1"></use>
      <g>
        <use xlink:href="#cKBbsAkai" opacity="1" fill-opacity="0" stroke="#000000" stroke-width="1" stroke-opacity="0"></use>
      </g>
    </g>
    <g>
      <use xlink:href="#aYiypFq53" opacity="1" fill="#ffd15c" fill-opacity="1"></use>
      <g>
        <use xlink:href="#aYiypFq53" opacity="1" fill-opacity="0" stroke="#000000" stroke-width="1" stroke-opacity="0"></use>
      </g>
    </g>
    <g>
      <use xlink:href="#c5CaCb724" opacity="1" fill="#9aa9b5" fill-opacity="1"></use>
      <g>
        <use xlink:href="#c5CaCb724" opacity="1" fill-opacity="0" stroke="#000000" stroke-width="1" stroke-opacity="0"></use>
      </g>
    </g>
    <g>
      <use xlink:href="#b2pubaHBV" opacity="1" fill="#ff7058" fill-opacity="1"></use>
      <g>
        <use xlink:href="#b2pubaHBV" opacity="1" fill-opacity="0" stroke="#000000" stroke-width="1" stroke-opacity="0"></use>
      </g>
    </g>
    <g>
      <use xlink:href="#adbTt99k4" opacity="1" fill="#f8b64c" fill-opacity="1"></use>
      <g>
        <use xlink:href="#adbTt99k4" opacity="1" fill-opacity="0" stroke="#000000" stroke-width="1" stroke-opacity="0"></use>
      </g>
    </g>
  </g>
</svg>