<svg width="512" height="512" xmlns="http://www.w3.org/2000/svg" xml:space="preserve" version="1.1">

 <g>
  <title>Layer 1</title>
  <g id="svg_1">
   <g id="svg_2">
    <path id="svg_3" fill="#5C546A" d="m472,344l-432,0c-8.837,0 -16,-7.163 -16,-16l0,-16l448,0l0,32z"/>
   </g>
   <g id="svg_4">
    <path id="svg_5" fill="#8A8895" d="m168,144l-120,0c-4.422,0 -8,3.582 -8,8l0,96c0,4.422 3.578,8 8,8l120,0c4.422,0 8,-3.578 8,-8l0,-96c0,-4.418 -3.578,-8 -8,-8z"/>
   </g>
   <g id="svg_6">
    <path id="svg_7" fill="#FFD100" d="m264,120l-120,0c-4.422,0 -8,3.582 -8,8l0,96c0,4.422 3.578,8 8,8l120,0c4.422,0 8,-3.578 8,-8l0,-96c0,-4.418 -3.578,-8 -8,-8z"/>
   </g>
   <g id="svg_8">
    <path id="svg_9" fill="#E7001E" d="m389.898,314.594l-88,-96c-1.515,-1.656 -3.656,-2.594 -5.898,-2.594l-280,0c-8.82,0 -16,7.18 -16,16l0,64c0,17.648 14.352,32 32,32l352,0c3.172,0 6.047,-1.875 7.32,-4.781c1.282,-2.899 0.719,-6.289 -1.422,-8.625z"/>
   </g>
   <g id="svg_10">
    <path id="svg_11" fill="#FF4F19" d="m485.727,216l-64.525,-12.547l-21.443,-59.695c-6.415,-14.434 -20.759,-23.758 -36.556,-23.758l-51.203,0c-13.234,0 -24,10.766 -24,24l0,136c0,26.469 21.531,48 48,48l152,0c13.234,0 24,-10.766 24,-24l0,-64c0,-15.469 -11.047,-21.227 -26.273,-24z"/>
   </g>
   <g id="svg_12">
    <path id="svg_13" fill="#FFD100" d="m512,264l-28,0c-6.627,0 -12,-5.373 -12,-12l0,0c0,-6.627 5.373,-12 12,-12l28,0"/>
   </g>
   <g id="svg_14">
    <g id="svg_15">
     <rect id="svg_16" fill="#5C546A" height="72" width="16" y="144" x="96"/>
    </g>
   </g>
   <g id="svg_17">
    <g id="svg_18">
     <rect id="svg_19" fill="#5C546A" height="72" width="16" y="144" x="64"/>
    </g>
   </g>
   <g id="svg_20">
    <path id="svg_21" fill="#FF4F19" d="m0,288c13.255,0 24,-10.745 24,-24l0,-24c0,-4.418 -3.582,-8 -8,-8l-16,0l0,56l0,0z"/>
   </g>
   <g id="svg_22">
    <g id="svg_23">
     <circle id="svg_24" fill="#5C546A" r="56" cy="336" cx="112.001"/>
    </g>
    <g id="svg_25">
     <circle id="svg_26" fill="#8A8895" r="32" cy="336" cx="112.001"/>
    </g>
   </g>
   <g id="svg_27">
    <g id="svg_28">
     <circle id="svg_29" fill="#5C546A" r="56" cy="336" cx="432"/>
    </g>
    <g id="svg_30">
     <circle id="svg_31" fill="#8A8895" r="32" cy="336" cx="432"/>
    </g>
   </g>
   <g id="svg_32">
    <path id="svg_33" fill="#5C546A" d="m399.758,143.758c-1.25,-2.813 -2.879,-5.364 -4.684,-7.758l-83.074,0l0,51.453c0,8.836 7.164,16 16,16l93.201,0l-21.443,-59.695z"/>
   </g>
   <g id="svg_34">
    <rect id="svg_35" fill="#FFFFFF" height="24" width="16" y="240" x="496"/>
   </g>
   <g id="svg_36">
    <rect id="svg_37" fill="#FF9500" height="16" width="136" y="144" x="136"/>
   </g>
   <g id="svg_38">
    <rect id="svg_39" fill="#FF9500" height="16" width="136" y="184" x="136"/>
   </g>
  </g>
  <g id="svg_40"/>
  <g id="svg_41"/>
  <g id="svg_42"/>
  <g id="svg_43"/>
  <g id="svg_44"/>
  <g id="svg_45"/>
  <g id="svg_46"/>
  <g id="svg_47"/>
  <g id="svg_48"/>
  <g id="svg_49"/>
  <g id="svg_50"/>
  <g id="svg_51"/>
  <g id="svg_52"/>
  <g id="svg_53"/>
  <g id="svg_54"/>
 </g>
</svg>