<?xml version="1.0" encoding="UTF-8" standalone="no"?>
<!DOCTYPE svg PUBLIC "-//W3C//DTD SVG 1.1//EN" "http://www.w3.org/Graphics/SVG/1.1/DTD/svg11.dtd">
<svg version="1.1" xmlns="http://www.w3.org/2000/svg" xmlns:xlink="http://www.w3.org/1999/xlink" preserveAspectRatio="xMidYMid meet" viewBox="331.0168146544604 139.53757735595676 158.11668124266652 403.4954302240699" width="154.12" height="399.5">
  <defs>
    <path d="M394.31 329.97C395.28 330.94 399.71 333.64 400.77 333.64C401.83 333.64 409.59 330.66 410.5 328.63C411.28 326.88 410.71 322.46 408.5 319.81C405.95 316.75 406.28 311.39 406.28 311.39C405.53 311.53 401.75 312.23 394.96 313.49C393.89 323.84 393.67 329.33 394.31 329.97Z" id="azfzDPksh"></path>
    <path d="M401.45 224.17C399.88 230.1 395.07 253.3 391.58 273.33C387.57 296.29 383.32 312.21 383.32 312.21C382.61 317.48 391.35 322.67 395.73 319.33C396.39 318.83 399.47 296.98 408.37 266.08C416.8 236.87 431.46 210.59 418.82 207.5C417 207.06 405.81 207.71 401.45 224.17Z" id="a43mqeeCt9"></path>
    <path d="M392.32 516.21C400.26 521.2 432.52 500.6 432.52 498.95C432.52 497.29 430.23 481.23 430.23 481.23C429.08 481.61 423.3 483.52 412.89 486.96C395.38 504.07 388.52 513.82 392.32 516.21Z" id="cwY1vbNiO"></path>
    <path d="M430.48 539.3C438.27 544.52 468.12 520.34 468.12 518.69C468.12 517.04 465.84 500.98 465.84 500.98C464.68 501.36 458.9 503.27 448.5 506.71C431.59 525.16 425.59 536.02 430.48 539.3Z" id="a2ZFRmGcIc"></path>
    <path d="M412.02 487.83C412.02 487.83 413.55 491.52 422.02 491.52C429.15 491.52 430.81 485.32 430.81 485.32C431.13 477.71 432.75 439.66 435.67 371.17L436.29 371.25C442.81 453.43 446.43 499.08 447.16 508.21C447.16 508.21 449.66 512.96 455.85 512.59C469.18 511.8 466.54 506.01 466.54 506.01C466.73 494.5 467.67 436.94 469.35 333.33L407.26 327.85C410.12 423.84 411.7 477.17 412.02 487.83Z" id="bflOGpwss"></path>
    <path d="M412.02 487.83C412.02 487.83 413.55 491.52 422.02 491.52C429.15 491.52 430.81 485.32 430.81 485.32C430.85 484.43 431.15 477.25 431.19 476.35C425.61 480.51 418.75 481.98 411.77 479.62C411.82 481.26 411.99 487.01 412.02 487.83Z" id="i2AJOdx3Yx"></path>
    <path d="M446.43 499.08C446.51 499.99 447.08 507.29 447.16 508.21C447.16 508.21 449.66 512.96 455.85 512.59C469.18 511.8 466.54 506.01 466.54 506.01C466.55 505.36 466.61 502.11 466.7 496.25C457.97 499.87 451.22 500.81 446.43 499.08Z" id="b2stHpPYDh"></path>
    <path d="M469.74 412.8C469.82 407.52 470.25 381.13 471.02 333.63L405.58 327.85C406.93 373.22 407.68 398.43 407.83 403.47C416.12 407.12 425.07 410.04 434.09 407.25C434.19 405 434.67 393.75 435.53 373.51L436.18 373.6C437.93 395.74 438.91 408.04 439.11 410.5C447.43 415.77 458.11 416.87 467.4 413.77C468.15 413.45 468.93 413.13 469.74 412.8Z" id="c5pmqAi7Jo"></path>
    <path d="M404.07 274.32C404.42 253.27 402.32 232.48 402.42 227.23C402.66 214.24 410.83 205.05 415.61 204.97C415.61 204.97 449.04 207.72 476.96 229.44C476.96 229.44 474.02 338.26 470.31 339.52C439.69 349.9 406.54 332.33 405.3 326.66C405.06 316.19 403.66 299.42 404.07 274.32Z" id="hv69W2l0b"></path>
    <path d="M425.92 219.36C425.3 224.76 434.84 228.24 442.14 225.95C449.43 223.65 452.37 218.26 452.37 218.26C448.93 206.67 449.16 189.88 449.16 189.88C447.78 190.47 440.9 193.44 428.52 198.77C427.35 207.63 426.48 214.49 425.92 219.36Z" id="dE5WjhvZZ"></path>
    <path d="M418.81 206.35C424.81 210.81 443.62 206.54 454.08 188.73C462.81 173.87 459.17 144.73 440.41 141.64C418.5 138.03 409.83 154.6 411.15 176.94C412.68 182.82 412.81 201.9 418.81 206.35Z" id="j3sMvgavj2"></path>
    <path d="M443.63 141.75C435.72 139.39 425.3 140.38 418.68 145.59C411.67 151.1 409.5 160.41 409.36 168.92C412.87 169.6 414.87 172.79 424.67 166.87C431.87 162.52 436.72 159.25 446.47 167.94C446.46 170.06 446.31 186.95 446.29 189.06C446.29 189.06 448.25 175.33 452.31 175.15C455.18 175.02 456.43 180.95 454.32 185.5C453.28 187.74 451.33 189.9 449.6 191.53C449.5 192.44 449.31 194.07 448.94 197C450.13 196.45 454.27 191.32 455.94 188.08C461.9 176.47 462.38 157.41 452.84 147.36C450.43 144.83 447.39 142.87 443.63 141.75Z" id="a1iErxuh4x"></path>
    <path d="M334.05 358.53C339.63 368.2 433.31 364.31 440.32 356.45C447.33 348.58 422.35 271.03 393.09 264.76C363.82 258.5 322.34 338.25 334.05 358.53Z" id="c1bCVdJmTm"></path>
    <path d="M395.62 255.39C402.41 251.52 413.07 246.38 418.47 250C423.96 253.68 414.96 258.87 417.47 265.34C418.03 271.58 415.02 276.62 412.32 274.3C412.32 274.3 404.77 265.1 399.42 263.25C396.71 262.31 392.02 266.56 390.83 263.62C389.33 259.91 391.92 257.47 395.62 255.39Z" id="aoaxps7W8"></path>
    <path d="M377.98 271.01C379.54 273.71 364.19 285.44 358.97 294.54C356.46 298.91 351.11 308.89 352.63 309.3C354.52 309.81 366.18 287.6 365.14 290.03C365.14 290.03 355.38 307.65 357.32 308.17C359.67 308.8 382.51 267.86 385.62 266.06C387.8 264.8 380.43 266.46 378.24 267.71C367.38 273.93 352.32 295.15 352.32 295.15C352.32 295.15 377.2 269.67 377.98 271.01Z" id="gqr7aAWce"></path>
    <path d="M367.47 310.26C367.45 310.42 367.57 310.46 367.57 310.46C368.43 310.25 374.6 300.31 375.29 302.18C375.85 303.72 374.16 308.99 376.59 310.17C377.56 310.65 379.31 307.53 379.45 308.61C380.42 315.72 377.5 324.63 379.63 324.06C383.11 323.13 388.65 295.1 389.52 283.6C389.67 281.71 385.47 288.92 385.01 287.08C384.03 283.2 392.93 269.46 391.68 268.77C390.42 268.07 386.18 278.61 384.92 277.35C384.05 276.48 390.19 262.97 388.4 265.37C380.25 276.29 369.97 288.16 367.47 310.26Z" id="i5HQcBdsWU"></path>
    <path d="M399.86 320.15C399.73 328.36 399.24 286.25 402.55 295.67C404.18 300.31 403.87 322.56 406.39 325.37C408.21 327.4 407.33 300.97 405.07 289.07C403.74 282.08 400.85 272.87 397.95 268.93C396.82 267.39 400.63 274.98 398.78 275.46C396.26 276.11 395.35 266.12 394.88 268.69C394.1 272.84 399.93 315.65 399.86 320.15Z" id="beAmT5spm"></path>
    <path d="M416.44 303.31C421.77 307.93 414.36 288.23 411.49 282.73C408.61 277.24 398.39 265.98 400.81 270.75C401.88 272.87 414.69 301.8 416.44 303.31Z" id="ck453WrUl"></path>
    <path d="M416.18 254C417.16 254.14 416.27 257.33 415.4 256.86C411.93 255.01 406.92 256.23 407.59 253.48C408.26 250.69 414.57 253.76 416.18 254Z" id="a5DSow378e"></path>
    <path d="M414.61 263.2C410.59 263.43 393.07 254.88 399.07 255.82C407.93 257.21 414.54 253.57 414.61 263.2Z" id="anJ7YfX7i"></path>
    <path d="M416.27 267.63C417.53 268.98 412.43 271.38 411.23 269.97C410.45 269.06 403.24 263.56 401.51 261.12C399.66 258.51 414.25 265.48 416.27 267.63Z" id="bHB9qFFsB"></path>
    <path d="M391.87 260.42C391.76 261.06 392.17 261.85 392.74 262.16C393.81 262.74 396.14 262.92 396.38 261.72C396.59 260.68 393.63 261.22 393.61 260.16C393.58 259.41 395.25 259.65 395.52 258.95C395.71 258.44 395.6 257.53 395.08 257.38C393.66 256.99 392.13 258.97 391.87 260.42Z" id="eWPjC04vC"></path>
    <path d="M409.19 332.96C407.44 333.52 405.98 335.74 405.98 335.74C405.98 335.74 401.63 336.28 400.66 338.16C399.69 340.04 406.01 348.99 407.78 350.23C410.28 351.97 425.36 346.85 425.36 346.85C425.36 346.85 428.57 332.29 420.35 331.15C418.11 331.51 410.93 332.4 409.19 332.96Z" id="c2DGxEA4aK"></path>
    <path d="M467.91 247.57C465.6 255.7 467.48 263.83 462.01 291.07C457.19 315.13 455.92 319.13 455.92 319.13C455.92 319.13 459.44 324.5 472.19 321.07C472.19 321.07 480.61 284.32 481.58 279.44C487.55 249.01 488.03 245.13 480.74 240.05C478.17 241.55 470.22 239.43 467.91 247.57Z" id="aXkFgeBHc"></path>
    <path d="M452.85 174.09C455.72 173.97 456.97 179.91 454.86 184.47C452.75 189.04 446.81 193.3 446.81 193.3C446.81 192.95 446.81 191.19 446.81 188.04C448.12 178.86 450.13 174.22 452.85 174.09Z" id="b1usPVocDE"></path>
    <path d="M461.68 275.18C461.68 275.18 480.11 279.17 484.97 275.03C484.97 275.03 490.58 237.16 477.15 229.85C472.35 227.23 464.72 237.2 464.2 243.7C463.22 255.92 462.18 268.88 461.68 275.18Z" id="eyJYfeX5d"></path>
    <path d="M398.68 237.08C399.4 203.61 414.18 205.23 414.18 205.23C413.73 207.93 411.46 221.45 407.39 245.79C402.75 241.14 399.84 238.24 398.68 237.08Z" id="dc3at7WZt"></path>
    <path d="M458.26 308.84C452.62 310.97 449.32 316.52 431.7 325.52C416.14 333.47 413.29 334.41 413.29 334.41C413.29 334.41 412.39 339.94 421.34 348.64C421.34 348.64 445.69 337.36 448.84 335.73C468.45 325.58 470.79 324.05 469.44 315.59C467.2 314.24 463.9 306.71 458.26 308.84Z" id="ahO5Kuuj3"></path>
  </defs>
  <g>
    <g>
      <use xlink:href="#azfzDPksh" opacity="1" fill="#ffb657" fill-opacity="1"></use>
      <g>
        <use xlink:href="#azfzDPksh" opacity="1" fill-opacity="0" stroke="#000000" stroke-width="1" stroke-opacity="0"></use>
      </g>
    </g>
    <g>
      <use xlink:href="#a43mqeeCt9" opacity="1" fill="#ffb657" fill-opacity="1"></use>
      <g>
        <use xlink:href="#a43mqeeCt9" opacity="1" fill-opacity="0" stroke="#000000" stroke-width="1" stroke-opacity="0"></use>
      </g>
    </g>
    <g>
      <use xlink:href="#cwY1vbNiO" opacity="1" fill="#ff3502" fill-opacity="1"></use>
      <g>
        <use xlink:href="#cwY1vbNiO" opacity="1" fill-opacity="0" stroke="#000000" stroke-width="1" stroke-opacity="0"></use>
      </g>
    </g>
    <g>
      <use xlink:href="#a2ZFRmGcIc" opacity="1" fill="#ff3502" fill-opacity="1"></use>
      <g>
        <use xlink:href="#a2ZFRmGcIc" opacity="1" fill-opacity="0" stroke="#000000" stroke-width="1" stroke-opacity="0"></use>
      </g>
    </g>
    <g>
      <use xlink:href="#bflOGpwss" opacity="1" fill="#ffb657" fill-opacity="1"></use>
      <g>
        <use xlink:href="#bflOGpwss" opacity="1" fill-opacity="0" stroke="#000000" stroke-width="1" stroke-opacity="0"></use>
      </g>
    </g>
    <g>
      <use xlink:href="#i2AJOdx3Yx" opacity="1" fill="#e0e0e2" fill-opacity="1"></use>
      <g>
        <use xlink:href="#i2AJOdx3Yx" opacity="1" fill-opacity="0" stroke="#000000" stroke-width="1" stroke-opacity="0"></use>
      </g>
    </g>
    <g>
      <use xlink:href="#b2stHpPYDh" opacity="1" fill="#e0e0e2" fill-opacity="1"></use>
      <g>
        <use xlink:href="#b2stHpPYDh" opacity="1" fill-opacity="0" stroke="#000000" stroke-width="1" stroke-opacity="0"></use>
      </g>
    </g>
    <g>
      <use xlink:href="#c5pmqAi7Jo" opacity="1" fill="#891d00" fill-opacity="1"></use>
      <g>
        <use xlink:href="#c5pmqAi7Jo" opacity="1" fill-opacity="0" stroke="#000000" stroke-width="1" stroke-opacity="0"></use>
      </g>
    </g>
    <g>
      <use xlink:href="#hv69W2l0b" opacity="1" fill="#0f83ff" fill-opacity="1"></use>
      <g>
        <use xlink:href="#hv69W2l0b" opacity="1" fill-opacity="0" stroke="#000000" stroke-width="1" stroke-opacity="0"></use>
      </g>
    </g>
    <g>
      <use xlink:href="#dE5WjhvZZ" opacity="1" fill="#ffb657" fill-opacity="1"></use>
      <g>
        <use xlink:href="#dE5WjhvZZ" opacity="1" fill-opacity="0" stroke="#000000" stroke-width="1" stroke-opacity="0"></use>
      </g>
    </g>
    <g>
      <use xlink:href="#j3sMvgavj2" opacity="1" fill="#fec377" fill-opacity="1"></use>
      <g>
        <use xlink:href="#j3sMvgavj2" opacity="1" fill-opacity="0" stroke="#000000" stroke-width="1" stroke-opacity="0"></use>
      </g>
    </g>
    <g>
      <use xlink:href="#a1iErxuh4x" opacity="1" fill="#3e3d43" fill-opacity="1"></use>
      <g>
        <use xlink:href="#a1iErxuh4x" opacity="1" fill-opacity="0" stroke="#000000" stroke-width="1" stroke-opacity="0"></use>
      </g>
    </g>
    <g>
      <use xlink:href="#c1bCVdJmTm" opacity="1" fill="#000000" fill-opacity="1"></use>
      <g>
        <use xlink:href="#c1bCVdJmTm" opacity="1" fill-opacity="0" stroke="#000000" stroke-width="1" stroke-opacity="0"></use>
      </g>
    </g>
    <g>
      <use xlink:href="#aoaxps7W8" opacity="1" fill="#000000" fill-opacity="1"></use>
      <g>
        <use xlink:href="#aoaxps7W8" opacity="1" fill-opacity="0" stroke="#000000" stroke-width="1" stroke-opacity="0"></use>
      </g>
    </g>
    <g>
      <use xlink:href="#gqr7aAWce" opacity="1" fill="#595758" fill-opacity="1"></use>
      <g>
        <use xlink:href="#gqr7aAWce" opacity="1" fill-opacity="0" stroke="#000000" stroke-width="1" stroke-opacity="0"></use>
      </g>
    </g>
    <g>
      <use xlink:href="#i5HQcBdsWU" opacity="1" fill="#595758" fill-opacity="1"></use>
      <g>
        <use xlink:href="#i5HQcBdsWU" opacity="1" fill-opacity="0" stroke="#000000" stroke-width="1" stroke-opacity="0"></use>
      </g>
    </g>
    <g>
      <use xlink:href="#beAmT5spm" opacity="1" fill="#595758" fill-opacity="1"></use>
      <g>
        <use xlink:href="#beAmT5spm" opacity="1" fill-opacity="0" stroke="#000000" stroke-width="1" stroke-opacity="0"></use>
      </g>
    </g>
    <g>
      <use xlink:href="#ck453WrUl" opacity="1" fill="#595758" fill-opacity="1"></use>
      <g>
        <use xlink:href="#ck453WrUl" opacity="1" fill-opacity="0" stroke="#000000" stroke-width="1" stroke-opacity="0"></use>
      </g>
    </g>
    <g>
      <use xlink:href="#a5DSow378e" opacity="1" fill="#595758" fill-opacity="1"></use>
      <g>
        <use xlink:href="#a5DSow378e" opacity="1" fill-opacity="0" stroke="#000000" stroke-width="1" stroke-opacity="0"></use>
      </g>
    </g>
    <g>
      <use xlink:href="#anJ7YfX7i" opacity="1" fill="#595758" fill-opacity="1"></use>
      <g>
        <use xlink:href="#anJ7YfX7i" opacity="1" fill-opacity="0" stroke="#000000" stroke-width="1" stroke-opacity="0"></use>
      </g>
    </g>
    <g>
      <use xlink:href="#bHB9qFFsB" opacity="1" fill="#595758" fill-opacity="1"></use>
      <g>
        <use xlink:href="#bHB9qFFsB" opacity="1" fill-opacity="0" stroke="#000000" stroke-width="1" stroke-opacity="0"></use>
      </g>
    </g>
    <g>
      <use xlink:href="#eWPjC04vC" opacity="1" fill="#595758" fill-opacity="1"></use>
      <g>
        <use xlink:href="#eWPjC04vC" opacity="1" fill-opacity="0" stroke="#000000" stroke-width="1" stroke-opacity="0"></use>
      </g>
    </g>
    <g>
      <use xlink:href="#c2DGxEA4aK" opacity="1" fill="#ffb657" fill-opacity="1"></use>
      <g>
        <use xlink:href="#c2DGxEA4aK" opacity="1" fill-opacity="0" stroke="#000000" stroke-width="1" stroke-opacity="0"></use>
      </g>
    </g>
    <g>
      <use xlink:href="#aXkFgeBHc" opacity="1" fill="#ffb657" fill-opacity="1"></use>
      <g>
        <use xlink:href="#aXkFgeBHc" opacity="1" fill-opacity="0" stroke="#000000" stroke-width="1" stroke-opacity="0"></use>
      </g>
    </g>
    <g>
      <use xlink:href="#b1usPVocDE" opacity="1" fill="#fec377" fill-opacity="1"></use>
      <g>
        <use xlink:href="#b1usPVocDE" opacity="1" fill-opacity="0" stroke="#000000" stroke-width="1" stroke-opacity="0"></use>
      </g>
    </g>
    <g>
      <use xlink:href="#eyJYfeX5d" opacity="1" fill="#0f83ff" fill-opacity="1"></use>
      <g>
        <use xlink:href="#eyJYfeX5d" opacity="1" fill-opacity="0" stroke="#000000" stroke-width="1" stroke-opacity="0"></use>
      </g>
    </g>
    <g>
      <use xlink:href="#dc3at7WZt" opacity="1" fill="#0f83ff" fill-opacity="1"></use>
      <g>
        <use xlink:href="#dc3at7WZt" opacity="1" fill-opacity="0" stroke="#000000" stroke-width="1" stroke-opacity="0"></use>
      </g>
    </g>
    <g>
      <use xlink:href="#ahO5Kuuj3" opacity="1" fill="#ffb657" fill-opacity="1"></use>
      <g>
        <use xlink:href="#ahO5Kuuj3" opacity="1" fill-opacity="0" stroke="#000000" stroke-width="1" stroke-opacity="0"></use>
      </g>
    </g>
  </g>
</svg>