<?xml version="1.0" encoding="UTF-8" standalone="no"?>
<!DOCTYPE svg PUBLIC "-//W3C//DTD SVG 1.1//EN" "http://www.w3.org/Graphics/SVG/1.1/DTD/svg11.dtd">
<svg version="1.1" xmlns="http://www.w3.org/2000/svg" xmlns:xlink="http://www.w3.org/1999/xlink" preserveAspectRatio="xMidYMid meet" viewBox="253.00523529571214 125.89389723284573 180.3413232703427 299.5713999996396" width="176.34" height="295.57">
  <defs>
    <path d="M355.25 166.43C355.07 168.69 353.09 170.38 350.82 170.19C348.56 170.01 346.87 168.05 347.05 165.77C347.28 162.97 349.06 140.58 349.28 137.79C349.47 135.52 351.44 133.84 353.7 134.02C355.96 134.2 357.65 136.18 357.47 138.45C357.25 141.23 355.47 163.63 355.25 166.43Z" id="a3YOcFkwZD"></path>
    <path d="M355.25 166.43C355.07 168.69 353.09 170.38 350.82 170.19C348.56 170.01 346.87 168.05 347.05 165.77C347.28 162.97 349.06 140.58 349.28 137.79C349.47 135.52 351.44 133.84 353.7 134.02C355.96 134.2 357.65 136.18 357.47 138.45C357.25 141.23 355.47 163.63 355.25 166.43Z" id="f6p7iIHfP"></path>
    <path d="M314.24 241.12C314.24 241.12 314.24 241.12 314.24 241.12C315.04 231.12 315.48 225.55 315.57 224.45C315.57 224.45 315.57 224.45 315.57 224.45C352.46 227.38 372.96 229.01 377.06 229.34C377.06 229.34 377.06 229.34 377.06 229.34C376.26 239.34 375.81 244.89 375.72 246.01C375.72 246.01 375.72 246.01 375.72 246.01C338.84 243.07 318.34 241.44 314.24 241.12Z" id="brvXzX2Ui"></path>
    <path d="M314.24 241.12C314.24 241.12 314.24 241.12 314.24 241.12C315.04 231.12 315.48 225.55 315.57 224.45C315.57 224.45 315.57 224.45 315.57 224.45C352.46 227.38 372.96 229.01 377.06 229.34C377.06 229.34 377.06 229.34 377.06 229.34C376.26 239.34 375.81 244.89 375.72 246.01C375.72 246.01 375.72 246.01 375.72 246.01C338.84 243.07 318.34 241.44 314.24 241.12Z" id="abG67EEal"></path>
    <path d="M299.37 161.64C299.98 153.98 306.68 148.27 314.34 148.87C316.86 149.08 329.51 150.07 352.28 151.89C375.05 153.71 387.7 154.71 390.22 154.9C397.89 155.52 403.6 162.22 402.98 169.88C402.29 178.61 400.55 200.45 397.78 235.38C394.97 235.17 387.95 234.61 376.71 233.71C364.41 232.74 321.37 229.32 315.22 228.83C302.58 227.81 295.57 227.25 294.15 227.14C297.29 187.84 299.02 166 299.37 161.64Z" id="d1jSj1pfVV"></path>
    <path d="M299.37 161.64C299.98 153.98 306.68 148.27 314.34 148.87C316.86 149.08 329.51 150.07 352.28 151.89C375.05 153.71 387.7 154.71 390.22 154.9C397.89 155.52 403.6 162.22 402.98 169.88C402.29 178.61 400.55 200.45 397.78 235.38C394.97 235.17 387.95 234.61 376.71 233.71C364.41 232.74 321.37 229.32 315.22 228.83C302.58 227.81 295.57 227.25 294.15 227.14C297.29 187.84 299.02 166 299.37 161.64Z" id="b4pyeZ1ReD"></path>
    <path d="M308.65 162.37C309.26 154.72 315.96 149 323.62 149.62C321.76 149.46 315.27 148.95 314.34 148.87C306.68 148.27 299.98 153.98 299.37 161.64C299.02 166 297.29 187.84 294.15 227.14C295.09 227.21 302.52 227.81 303.45 227.88C306.58 188.57 308.31 166.74 308.65 162.37Z" id="fkdx2VHx"></path>
    <path d="M308.65 162.37C309.26 154.72 315.96 149 323.62 149.62C321.76 149.46 315.27 148.95 314.34 148.87C306.68 148.27 299.98 153.98 299.37 161.64C299.02 166 297.29 187.84 294.15 227.14C295.09 227.21 302.52 227.81 303.45 227.88C306.58 188.57 308.31 166.74 308.65 162.37Z" id="abrbl52xt"></path>
    <path d="M291.67 402.16C291.67 402.16 291.67 402.16 291.67 402.16C296.65 339.67 299.41 304.95 299.96 298.02C299.96 298.02 299.96 298.02 299.96 298.02C309.57 298.78 314.9 299.2 315.97 299.29C315.97 299.29 315.97 299.29 315.97 299.29C310.99 361.78 308.23 396.5 307.68 403.44C307.68 403.44 307.68 403.44 307.68 403.44C298.07 402.67 292.74 402.24 291.67 402.16Z" id="b38WhCfYz"></path>
    <path d="M291.67 402.16C291.67 402.16 291.67 402.16 291.67 402.16C296.65 339.67 299.41 304.95 299.96 298.02C299.96 298.02 299.96 298.02 299.96 298.02C309.57 298.78 314.9 299.2 315.97 299.29C315.97 299.29 315.97 299.29 315.97 299.29C310.99 361.78 308.23 396.5 307.68 403.44C307.68 403.44 307.68 403.44 307.68 403.44C298.07 402.67 292.74 402.24 291.67 402.16Z" id="l1WuITUcgD"></path>
    <path d="M356.61 406.47C356.61 406.47 356.61 406.47 356.61 406.47C361.55 344.49 364.29 310.05 364.83 303.17C364.83 303.17 364.83 303.17 364.83 303.17C374.45 303.94 379.77 304.35 380.84 304.44C380.84 304.44 380.84 304.44 380.84 304.44C375.9 366.42 373.18 400.85 372.63 407.74C372.63 407.74 372.63 407.74 372.63 407.74C363.02 406.97 357.69 406.55 356.61 406.47Z" id="a2o10ORgZ6"></path>
    <path d="M356.61 406.47C356.61 406.47 356.61 406.47 356.61 406.47C361.55 344.49 364.29 310.05 364.83 303.17C364.83 303.17 364.83 303.17 364.83 303.17C374.45 303.94 379.77 304.35 380.84 304.44C380.84 304.44 380.84 304.44 380.84 304.44C375.9 366.42 373.18 400.85 372.63 407.74C372.63 407.74 372.63 407.74 372.63 407.74C363.02 406.97 357.69 406.55 356.61 406.47Z" id="bNxZ3t4m9"></path>
    <path d="M363.19 323.89L379.19 325.16L380.79 304.99L364.8 303.72L363.19 323.89ZM314.33 320L315.92 299.83L299.92 298.57L298.31 318.73L314.33 320Z" id="jssRG6inn"></path>
    <path d="M363.19 323.89L379.19 325.16L380.79 304.99L364.8 303.72L363.19 323.89ZM314.33 320L315.92 299.83L299.92 298.57L298.31 318.73L314.33 320Z" id="g1o7lOpoG"></path>
    <path d="M387.33 273.86C387.33 273.86 387.33 273.86 387.33 273.86C388.13 263.74 388.58 258.13 388.66 257C388.66 257 388.66 257 388.66 257C406.58 258.42 416.52 259.21 418.52 259.38C418.52 259.38 418.52 259.38 418.52 259.38C417.72 269.49 417.27 275.1 417.18 276.22C417.18 276.22 417.18 276.22 417.18 276.22C399.26 274.8 389.31 274.01 387.33 273.86Z" id="a1M2bFs9V"></path>
    <path d="M387.33 273.86C387.33 273.86 387.33 273.86 387.33 273.86C388.13 263.74 388.58 258.13 388.66 257C388.66 257 388.66 257 388.66 257C406.58 258.42 416.52 259.21 418.52 259.38C418.52 259.38 418.52 259.38 418.52 259.38C417.72 269.49 417.27 275.1 417.18 276.22C417.18 276.22 417.18 276.22 417.18 276.22C399.26 274.8 389.31 274.01 387.33 273.86Z" id="g3L2fVYpiV"></path>
    <path d="M268.35 264.39C268.35 264.39 268.35 264.39 268.35 264.39C269.14 254.27 269.59 248.66 269.68 247.53C269.68 247.53 269.68 247.53 269.68 247.53C287.84 248.97 297.92 249.78 299.94 249.94C299.94 249.94 299.94 249.94 299.94 249.94C299.13 260.05 298.68 265.67 298.59 266.79C298.59 266.79 298.59 266.79 298.59 266.79C280.44 265.35 270.36 264.55 268.35 264.39Z" id="c1RdnAzRQf"></path>
    <path d="M268.35 264.39C268.35 264.39 268.35 264.39 268.35 264.39C269.14 254.27 269.59 248.66 269.68 247.53C269.68 247.53 269.68 247.53 269.68 247.53C287.84 248.97 297.92 249.78 299.94 249.94C299.94 249.94 299.94 249.94 299.94 249.94C299.13 260.05 298.68 265.67 298.59 266.79C298.59 266.79 298.59 266.79 298.59 266.79C280.44 265.35 270.36 264.55 268.35 264.39Z" id="goiERUQqp"></path>
    <path d="M338.04 192.39C337.41 200.31 330.49 206.21 322.57 205.58C314.67 204.95 308.77 198.04 309.4 190.11C310.02 182.22 316.94 176.31 324.85 176.94C332.76 177.57 338.66 184.49 338.04 192.39Z" id="asjiW7Xx1"></path>
    <path d="M338.04 192.39C337.41 200.31 330.49 206.21 322.57 205.58C314.67 204.95 308.77 198.04 309.4 190.11C310.02 182.22 316.94 176.31 324.85 176.94C332.76 177.57 338.66 184.49 338.04 192.39Z" id="b1rKe2H45s"></path>
    <path d="M388.59 196.42C387.96 204.33 381.03 210.23 373.13 209.6C365.2 208.97 359.31 202.06 359.94 194.13C360.56 186.24 367.48 180.33 375.4 180.96C383.31 181.58 389.22 188.51 388.59 196.42Z" id="a1hST26d0"></path>
    <path d="M388.59 196.42C387.96 204.33 381.03 210.23 373.13 209.6C365.2 208.97 359.31 202.06 359.94 194.13C360.56 186.24 367.48 180.33 375.4 180.96C383.31 181.58 389.22 188.51 388.59 196.42Z" id="j4FZKey067"></path>
    <path d="M308.19 397.19L317.44 397.93L315.91 417.31L281.37 414.56L282.91 395.19L292.17 395.92L308.19 397.19Z" id="c46s8j92Nr"></path>
    <path d="M308.19 397.19L317.44 397.93L315.91 417.31L281.37 414.56L282.91 395.19L292.17 395.92L308.19 397.19Z" id="bJvLT075l"></path>
    <path d="M373.05 402.36L382.32 403.08L380.78 422.47L346.24 419.72L347.78 400.35L357.05 401.07L373.05 402.36Z" id="a11BrZQ4Oz"></path>
    <path d="M373.05 402.36L382.32 403.08L380.78 422.47L346.24 419.72L347.78 400.35L357.05 401.07L373.05 402.36Z" id="a2MKE37Wjc"></path>
    <path d="M364.32 309.65L315.45 305.77L315.45 305.76L299.45 304.48L299.45 304.49L288.07 303.6L291.05 266.19L292.4 249.34L293.39 236.71L314.46 238.37L375.96 243.28L397.01 244.95L396 257.59L394.66 274.44L394.66 274.44L391.69 311.84L380.32 310.93L380.32 310.92L364.33 309.64L364.32 309.65Z" id="e1r389gcQm"></path>
    <path d="M364.32 309.65L315.45 305.77L315.45 305.76L299.45 304.48L299.45 304.49L288.07 303.6L291.05 266.19L292.4 249.34L293.39 236.71L314.46 238.37L375.96 243.28L397.01 244.95L396 257.59L394.66 274.44L394.66 274.44L391.69 311.84L380.32 310.93L380.32 310.92L364.33 309.64L364.32 309.65Z" id="c2Pk0bjqqK"></path>
    <path d="M288.07 303.59C288.07 303.59 288.07 303.59 288.07 303.59C291.27 263.47 293.04 241.18 293.39 236.71C293.39 236.71 293.39 236.71 293.39 236.71C304.33 237.58 310.41 238.06 311.62 238.16C311.62 238.16 311.62 238.16 311.62 238.16C308.44 278.29 306.66 300.58 306.3 305.03C306.3 305.03 306.3 305.03 306.3 305.03C295.37 304.17 289.28 303.67 288.07 303.59Z" id="f119vyy60v"></path>
    <path d="M288.07 303.59C288.07 303.59 288.07 303.59 288.07 303.59C291.27 263.47 293.04 241.18 293.39 236.71C293.39 236.71 293.39 236.71 293.39 236.71C304.33 237.58 310.41 238.06 311.62 238.16C311.62 238.16 311.62 238.16 311.62 238.16C308.44 278.29 306.66 300.58 306.3 305.03C306.3 305.03 306.3 305.03 306.3 305.03C295.37 304.17 289.28 303.67 288.07 303.59Z" id="gdMXLcsS4"></path>
    <path d="M325.19 172.85C315.03 172.04 306.11 179.63 305.3 189.79C304.5 199.95 312.1 208.86 322.25 209.67C332.41 210.49 341.32 202.88 342.13 192.73C342.94 182.57 335.34 173.65 325.19 172.85ZM324.53 181.03C330.17 181.48 334.39 186.43 333.94 192.07C333.49 197.71 328.54 201.92 322.9 201.48C317.26 201.03 313.04 196.08 313.49 190.44C313.93 184.8 318.88 180.58 324.53 181.03Z" id="fyIP41Jne"></path>
    <path d="M325.19 172.85C315.03 172.04 306.11 179.63 305.3 189.79C304.5 199.95 312.1 208.86 322.25 209.67C332.41 210.49 341.32 202.88 342.13 192.73C342.94 182.57 335.34 173.65 325.19 172.85ZM324.53 181.03C330.17 181.48 334.39 186.43 333.94 192.07C333.49 197.71 328.54 201.92 322.9 201.48C317.26 201.03 313.04 196.08 313.49 190.44C313.93 184.8 318.88 180.58 324.53 181.03Z" id="a7n9FJsKZa"></path>
    <path d="M392.69 196.74C393.49 186.59 385.88 177.66 375.71 176.86C365.57 176.05 356.65 183.66 355.84 193.81C355.04 203.97 362.65 212.89 372.79 213.69C382.95 214.51 391.88 206.9 392.69 196.74ZM384.48 196.09C384.04 201.74 379.1 205.94 373.44 205.5C367.81 205.05 363.59 200.1 364.03 194.46C364.49 188.83 369.44 184.6 375.07 185.05C380.71 185.49 384.93 190.45 384.48 196.09Z" id="bKZ0IOWrN"></path>
    <path d="M392.69 196.74C393.49 186.59 385.88 177.66 375.71 176.86C365.57 176.05 356.65 183.66 355.84 193.81C355.04 203.97 362.65 212.89 372.79 213.69C382.95 214.51 391.88 206.9 392.69 196.74ZM384.48 196.09C384.04 201.74 379.1 205.94 373.44 205.5C367.81 205.05 363.59 200.1 364.03 194.46C364.49 188.83 369.44 184.6 375.07 185.05C380.71 185.49 384.93 190.45 384.48 196.09Z" id="bm6OhGNng"></path>
    <path d="M373.14 255.03C370.87 254.85 368.9 256.54 368.72 258.81C368.54 261.07 370.22 263.05 372.49 263.23C374.75 263.41 376.72 261.71 376.9 259.46C377.09 257.18 375.4 255.21 373.14 255.03Z" id="a3kTeCVzC9"></path>
    <path d="M373.14 255.03C370.87 254.85 368.9 256.54 368.72 258.81C368.54 261.07 370.22 263.05 372.49 263.23C374.75 263.41 376.72 261.71 376.9 259.46C377.09 257.18 375.4 255.21 373.14 255.03Z" id="bXCacQclj"></path>
    <path d="M315.38 250.44C313.11 250.25 311.14 251.94 310.96 254.21C310.78 256.47 312.45 258.45 314.73 258.63C316.98 258.82 318.97 257.12 319.15 254.86C319.33 252.6 317.64 250.63 315.38 250.44Z" id="b1YATsT0O"></path>
    <path d="M315.38 250.44C313.11 250.25 311.14 251.94 310.96 254.21C310.78 256.47 312.45 258.45 314.73 258.63C316.98 258.82 318.97 257.12 319.15 254.86C319.33 252.6 317.64 250.63 315.38 250.44Z" id="d1bORyvHMO"></path>
    <path d="M354.27 126.92C350.36 126.6 346.91 129.54 346.6 133.47C346.28 137.38 349.22 140.81 353.14 141.12C357.06 141.42 360.48 138.5 360.8 134.59C361.1 130.67 358.19 127.23 354.27 126.92Z" id="aUDeON9pV"></path>
    <path d="M354.27 126.92C350.36 126.6 346.91 129.54 346.6 133.47C346.28 137.38 349.22 140.81 353.14 141.12C357.06 141.42 360.48 138.5 360.8 134.59C361.1 130.67 358.19 127.23 354.27 126.92Z" id="b1c1Mes0o7"></path>
    <path d="M318.91 283.66C319.33 278.36 321.55 273.62 324.89 270C329.48 265.04 336.21 262.15 343.46 262.73C356.02 263.73 365.39 274.74 364.4 287.28C355.31 286.55 323.45 284.03 318.91 283.66Z" id="db0Jw909C"></path>
    <path d="M318.91 283.66C319.33 278.36 321.55 273.62 324.89 270C329.48 265.04 336.21 262.15 343.46 262.73C356.02 263.73 365.39 274.74 364.4 287.28C355.31 286.55 323.45 284.03 318.91 283.66Z" id="c11TmdPpFH"></path>
    <path d="M318.91 283.66C319.33 278.36 321.55 273.62 324.89 270C329.01 267.26 334.03 265.83 339.33 266.25C350.59 267.14 359.29 276.06 360.26 286.95C351.97 286.3 323.04 284 318.91 283.66Z" id="cT9bHCUw"></path>
    <path d="M318.91 283.66C319.33 278.36 321.55 273.62 324.89 270C329.01 267.26 334.03 265.83 339.33 266.25C350.59 267.14 359.29 276.06 360.26 286.95C351.97 286.3 323.04 284 318.91 283.66Z" id="a4oHPRlNg"></path>
    <path d="M261.62 313.59C260.15 276.89 259.34 256.5 259.18 252.42C258.87 244.75 265.75 238.24 274.54 237.89C274.54 237.89 274.54 237.89 274.54 237.89C274.57 238.66 274.72 242.49 275 249.38L275.61 264.7L277.53 312.96C267.98 313.34 262.68 313.55 261.62 313.59Z" id="aarX17aEt"></path>
    <path d="M255.59 331.8C259.95 339.36 333.17 336.32 338.65 330.17C344.13 324.03 324.61 263.41 301.74 258.51C278.86 253.62 246.44 315.95 255.59 331.8Z" id="afWwcZbUw"></path>
    <path d="M303.71 251.19C309.02 248.16 317.35 244.15 321.58 246.98C325.87 249.85 318.84 253.91 320.8 258.96C321.23 263.84 318.88 267.78 316.77 265.97C316.77 265.97 310.87 258.78 306.69 257.33C304.57 256.6 300.9 259.92 299.97 257.62C298.8 254.72 300.82 252.82 303.71 251.19Z" id="aycS94BSf"></path>
    <path d="M289.93 263.4C291.15 265.51 279.15 274.67 275.07 281.79C273.11 285.2 268.93 293.01 270.11 293.33C271.59 293.72 280.71 276.37 279.89 278.26C279.89 278.26 272.27 292.04 273.78 292.44C275.62 292.94 293.47 260.93 295.9 259.53C297.61 258.55 291.84 259.84 290.13 260.82C281.65 265.68 269.87 282.26 269.87 282.26C269.87 282.26 289.32 262.35 289.93 263.4Z" id="b1ewMJqU5L"></path>
    <path d="M281.72 294.07C281.7 294.2 281.79 294.23 281.79 294.23C282.47 294.07 287.28 286.3 287.82 287.76C288.27 288.96 286.95 293.08 288.84 294.01C289.61 294.38 290.97 291.94 291.08 292.78C291.83 298.34 289.56 305.31 291.22 304.86C293.94 304.13 298.27 282.23 298.95 273.24C299.07 271.76 295.79 277.39 295.42 275.96C294.66 272.92 301.62 262.19 300.64 261.64C299.65 261.1 296.34 269.34 295.36 268.36C294.68 267.68 299.47 257.11 298.07 258.99C291.7 267.53 283.67 276.8 281.72 294.07Z" id="b1EWwZPhMZ"></path>
    <path d="M307.03 301.81C306.93 308.23 306.55 275.31 309.13 282.67C310.41 286.3 310.16 303.69 312.14 305.89C313.55 307.47 312.87 286.81 311.1 277.52C310.06 272.05 307.81 264.85 305.54 261.77C304.65 260.57 307.64 266.5 306.19 266.88C304.22 267.39 303.51 259.58 303.14 261.58C302.53 264.83 307.09 298.29 307.03 301.81Z" id="b144NW8CID"></path>
    <path d="M319.99 288.64C324.15 292.26 318.37 276.86 316.12 272.56C313.87 268.27 305.88 259.47 307.77 263.2C308.61 264.85 318.62 287.46 319.99 288.64Z" id="bp6tDicwP"></path>
    <path d="M319.79 250.1C320.55 250.22 319.86 252.7 319.18 252.34C316.46 250.89 312.55 251.85 313.07 249.69C313.59 247.51 318.53 249.92 319.79 250.1Z" id="c24zzDnSy6"></path>
    <path d="M318.56 257.3C315.41 257.47 301.73 250.79 306.42 251.53C313.34 252.61 318.51 249.77 318.56 257.3Z" id="airfTM4bs"></path>
    <path d="M319.85 260.76C320.84 261.81 316.86 263.69 315.92 262.59C315.31 261.87 309.67 257.58 308.32 255.67C306.88 253.63 318.28 259.08 319.85 260.76Z" id="brwbYMyUn"></path>
    <path d="M300.79 255.12C300.7 255.62 301.02 256.24 301.46 256.48C302.31 256.93 304.13 257.08 304.31 256.14C304.48 255.33 302.17 255.75 302.14 254.92C302.13 254.33 303.42 254.52 303.64 253.97C303.79 253.57 303.7 252.86 303.3 252.75C302.19 252.44 300.99 253.99 300.79 255.12Z" id="aaAocwqFW"></path>
    <path d="M429.69 254.77C429.69 254.77 429.69 254.77 429.69 254.77C432.5 262.74 425.98 272.32 415.15 276.11C403.61 280.15 374.8 290.25 328.69 306.41C328.02 304.48 326.33 299.65 323.62 291.94C332.71 288.76 355.45 280.79 391.81 268.05C404.8 263.49 412.03 260.96 413.47 260.45C423.2 257.04 428.61 255.14 429.69 254.77Z" id="crYZaXbp0"></path>
  </defs>
  <g>
    <g>
      <use xlink:href="#a3YOcFkwZD" opacity="1" fill="#2ba5f7" fill-opacity="1"></use>
      <g>
        <use xlink:href="#a3YOcFkwZD" opacity="1" fill-opacity="0" stroke="#000000" stroke-width="1" stroke-opacity="0"></use>
      </g>
    </g>
    <g>
      <use xlink:href="#f6p7iIHfP" opacity="1" fill="#000000" fill-opacity="0"></use>
      <g>
        <use xlink:href="#f6p7iIHfP" opacity="1" fill-opacity="0" stroke="#000000" stroke-width="1" stroke-opacity="0"></use>
      </g>
    </g>
    <g>
      <use xlink:href="#brvXzX2Ui" opacity="1" fill="#e09b2d" fill-opacity="1"></use>
      <g>
        <use xlink:href="#brvXzX2Ui" opacity="1" fill-opacity="0" stroke="#000000" stroke-width="1" stroke-opacity="0"></use>
      </g>
    </g>
    <g>
      <use xlink:href="#abG67EEal" opacity="1" fill="#000000" fill-opacity="0"></use>
      <g>
        <use xlink:href="#abG67EEal" opacity="1" fill-opacity="0" stroke="#000000" stroke-width="1" stroke-opacity="0"></use>
      </g>
    </g>
    <g>
      <use xlink:href="#d1jSj1pfVV" opacity="1" fill="#f95428" fill-opacity="1"></use>
      <g>
        <use xlink:href="#d1jSj1pfVV" opacity="1" fill-opacity="0" stroke="#000000" stroke-width="1" stroke-opacity="0"></use>
      </g>
    </g>
    <g>
      <use xlink:href="#b4pyeZ1ReD" opacity="1" fill="#000000" fill-opacity="0"></use>
      <g>
        <use xlink:href="#b4pyeZ1ReD" opacity="1" fill-opacity="0" stroke="#000000" stroke-width="1" stroke-opacity="0"></use>
      </g>
    </g>
    <g>
      <use xlink:href="#fkdx2VHx" opacity="1" fill="#e54728" fill-opacity="1"></use>
      <g>
        <use xlink:href="#fkdx2VHx" opacity="1" fill-opacity="0" stroke="#000000" stroke-width="1" stroke-opacity="0"></use>
      </g>
    </g>
    <g>
      <use xlink:href="#abrbl52xt" opacity="1" fill="#000000" fill-opacity="0"></use>
      <g>
        <use xlink:href="#abrbl52xt" opacity="1" fill-opacity="0" stroke="#000000" stroke-width="1" stroke-opacity="0"></use>
      </g>
    </g>
    <g>
      <use xlink:href="#b38WhCfYz" opacity="1" fill="#f7b239" fill-opacity="1"></use>
      <g>
        <use xlink:href="#b38WhCfYz" opacity="1" fill-opacity="0" stroke="#000000" stroke-width="1" stroke-opacity="0"></use>
      </g>
    </g>
    <g>
      <use xlink:href="#l1WuITUcgD" opacity="1" fill="#000000" fill-opacity="0"></use>
      <g>
        <use xlink:href="#l1WuITUcgD" opacity="1" fill-opacity="0" stroke="#000000" stroke-width="1" stroke-opacity="0"></use>
      </g>
    </g>
    <g>
      <use xlink:href="#a2o10ORgZ6" opacity="1" fill="#f7b239" fill-opacity="1"></use>
      <g>
        <use xlink:href="#a2o10ORgZ6" opacity="1" fill-opacity="0" stroke="#000000" stroke-width="1" stroke-opacity="0"></use>
      </g>
    </g>
    <g>
      <use xlink:href="#bNxZ3t4m9" opacity="1" fill="#000000" fill-opacity="0"></use>
      <g>
        <use xlink:href="#bNxZ3t4m9" opacity="1" fill-opacity="0" stroke="#000000" stroke-width="1" stroke-opacity="0"></use>
      </g>
    </g>
    <g>
      <use xlink:href="#jssRG6inn" opacity="1" fill="#e09b2d" fill-opacity="1"></use>
      <g>
        <use xlink:href="#jssRG6inn" opacity="1" fill-opacity="0" stroke="#000000" stroke-width="1" stroke-opacity="0"></use>
      </g>
    </g>
    <g>
      <use xlink:href="#g1o7lOpoG" opacity="1" fill="#000000" fill-opacity="0"></use>
      <g>
        <use xlink:href="#g1o7lOpoG" opacity="1" fill-opacity="0" stroke="#000000" stroke-width="1" stroke-opacity="0"></use>
      </g>
    </g>
    <g>
      <use xlink:href="#a1M2bFs9V" opacity="1" fill="#f7b239" fill-opacity="1"></use>
      <g>
        <use xlink:href="#a1M2bFs9V" opacity="1" fill-opacity="0" stroke="#000000" stroke-width="1" stroke-opacity="0"></use>
      </g>
    </g>
    <g>
      <use xlink:href="#g3L2fVYpiV" opacity="1" fill="#000000" fill-opacity="0"></use>
      <g>
        <use xlink:href="#g3L2fVYpiV" opacity="1" fill-opacity="0" stroke="#000000" stroke-width="1" stroke-opacity="0"></use>
      </g>
    </g>
    <g>
      <use xlink:href="#c1RdnAzRQf" opacity="1" fill="#f7b239" fill-opacity="1"></use>
      <g>
        <use xlink:href="#c1RdnAzRQf" opacity="1" fill-opacity="0" stroke="#000000" stroke-width="1" stroke-opacity="0"></use>
      </g>
    </g>
    <g>
      <use xlink:href="#goiERUQqp" opacity="1" fill="#000000" fill-opacity="0"></use>
      <g>
        <use xlink:href="#goiERUQqp" opacity="1" fill-opacity="0" stroke="#000000" stroke-width="1" stroke-opacity="0"></use>
      </g>
    </g>
    <g>
      <use xlink:href="#asjiW7Xx1" opacity="1" fill="#f7b239" fill-opacity="1"></use>
      <g>
        <use xlink:href="#asjiW7Xx1" opacity="1" fill-opacity="0" stroke="#000000" stroke-width="1" stroke-opacity="0"></use>
      </g>
    </g>
    <g>
      <use xlink:href="#b1rKe2H45s" opacity="1" fill="#000000" fill-opacity="0"></use>
      <g>
        <use xlink:href="#b1rKe2H45s" opacity="1" fill-opacity="0" stroke="#000000" stroke-width="1" stroke-opacity="0"></use>
      </g>
    </g>
    <g>
      <use xlink:href="#a1hST26d0" opacity="1" fill="#f7b239" fill-opacity="1"></use>
      <g>
        <use xlink:href="#a1hST26d0" opacity="1" fill-opacity="0" stroke="#000000" stroke-width="1" stroke-opacity="0"></use>
      </g>
    </g>
    <g>
      <use xlink:href="#j4FZKey067" opacity="1" fill="#000000" fill-opacity="0"></use>
      <g>
        <use xlink:href="#j4FZKey067" opacity="1" fill-opacity="0" stroke="#000000" stroke-width="1" stroke-opacity="0"></use>
      </g>
    </g>
    <g>
      <use xlink:href="#c46s8j92Nr" opacity="1" fill="#f95428" fill-opacity="1"></use>
      <g>
        <use xlink:href="#c46s8j92Nr" opacity="1" fill-opacity="0" stroke="#000000" stroke-width="1" stroke-opacity="0"></use>
      </g>
    </g>
    <g>
      <use xlink:href="#bJvLT075l" opacity="1" fill="#000000" fill-opacity="0"></use>
      <g>
        <use xlink:href="#bJvLT075l" opacity="1" fill-opacity="0" stroke="#000000" stroke-width="1" stroke-opacity="0"></use>
      </g>
    </g>
    <g>
      <use xlink:href="#a11BrZQ4Oz" opacity="1" fill="#f95428" fill-opacity="1"></use>
      <g>
        <use xlink:href="#a11BrZQ4Oz" opacity="1" fill-opacity="0" stroke="#000000" stroke-width="1" stroke-opacity="0"></use>
      </g>
    </g>
    <g>
      <use xlink:href="#a2MKE37Wjc" opacity="1" fill="#000000" fill-opacity="0"></use>
      <g>
        <use xlink:href="#a2MKE37Wjc" opacity="1" fill-opacity="0" stroke="#000000" stroke-width="1" stroke-opacity="0"></use>
      </g>
    </g>
    <g>
      <use xlink:href="#e1r389gcQm" opacity="1" fill="#2ba5f7" fill-opacity="1"></use>
      <g>
        <use xlink:href="#e1r389gcQm" opacity="1" fill-opacity="0" stroke="#000000" stroke-width="1" stroke-opacity="0"></use>
      </g>
    </g>
    <g>
      <use xlink:href="#c2Pk0bjqqK" opacity="1" fill="#000000" fill-opacity="0"></use>
      <g>
        <use xlink:href="#c2Pk0bjqqK" opacity="1" fill-opacity="0" stroke="#000000" stroke-width="1" stroke-opacity="0"></use>
      </g>
    </g>
    <g>
      <use xlink:href="#f119vyy60v" opacity="1" fill="#2197d8" fill-opacity="1"></use>
      <g>
        <use xlink:href="#f119vyy60v" opacity="1" fill-opacity="0" stroke="#000000" stroke-width="1" stroke-opacity="0"></use>
      </g>
    </g>
    <g>
      <use xlink:href="#gdMXLcsS4" opacity="1" fill="#000000" fill-opacity="0"></use>
      <g>
        <use xlink:href="#gdMXLcsS4" opacity="1" fill-opacity="0" stroke="#000000" stroke-width="1" stroke-opacity="0"></use>
      </g>
    </g>
    <g>
      <use xlink:href="#fyIP41Jne" opacity="1" fill="#4d4d4d" fill-opacity="1"></use>
      <g>
        <use xlink:href="#fyIP41Jne" opacity="1" fill-opacity="0" stroke="#000000" stroke-width="1" stroke-opacity="0"></use>
      </g>
    </g>
    <g>
      <use xlink:href="#a7n9FJsKZa" opacity="1" fill="#000000" fill-opacity="0"></use>
      <g>
        <use xlink:href="#a7n9FJsKZa" opacity="1" fill-opacity="0" stroke="#000000" stroke-width="1" stroke-opacity="0"></use>
      </g>
    </g>
    <g>
      <use xlink:href="#bKZ0IOWrN" opacity="1" fill="#4d4d4d" fill-opacity="1"></use>
      <g>
        <use xlink:href="#bKZ0IOWrN" opacity="1" fill-opacity="0" stroke="#000000" stroke-width="1" stroke-opacity="0"></use>
      </g>
    </g>
    <g>
      <use xlink:href="#bm6OhGNng" opacity="1" fill="#000000" fill-opacity="0"></use>
      <g>
        <use xlink:href="#bm6OhGNng" opacity="1" fill-opacity="0" stroke="#000000" stroke-width="1" stroke-opacity="0"></use>
      </g>
    </g>
    <g>
      <use xlink:href="#a3kTeCVzC9" opacity="1" fill="#4d4d4d" fill-opacity="1"></use>
      <g>
        <use xlink:href="#a3kTeCVzC9" opacity="1" fill-opacity="0" stroke="#000000" stroke-width="1" stroke-opacity="0"></use>
      </g>
    </g>
    <g>
      <use xlink:href="#bXCacQclj" opacity="1" fill="#000000" fill-opacity="0"></use>
      <g>
        <use xlink:href="#bXCacQclj" opacity="1" fill-opacity="0" stroke="#000000" stroke-width="1" stroke-opacity="0"></use>
      </g>
    </g>
    <g>
      <use xlink:href="#b1YATsT0O" opacity="1" fill="#000000" fill-opacity="0"></use>
      <g>
        <use xlink:href="#b1YATsT0O" opacity="1" fill-opacity="0" stroke="#000000" stroke-width="1" stroke-opacity="0"></use>
      </g>
    </g>
    <g>
      <use xlink:href="#d1bORyvHMO" opacity="1" fill="#000000" fill-opacity="0"></use>
      <g>
        <use xlink:href="#d1bORyvHMO" opacity="1" fill-opacity="0" stroke="#000000" stroke-width="1" stroke-opacity="0"></use>
      </g>
    </g>
    <g>
      <use xlink:href="#aUDeON9pV" opacity="1" fill="#f7b239" fill-opacity="1"></use>
      <g>
        <use xlink:href="#aUDeON9pV" opacity="1" fill-opacity="0" stroke="#000000" stroke-width="1" stroke-opacity="0"></use>
      </g>
    </g>
    <g>
      <use xlink:href="#b1c1Mes0o7" opacity="1" fill="#000000" fill-opacity="0"></use>
      <g>
        <use xlink:href="#b1c1Mes0o7" opacity="1" fill-opacity="0" stroke="#000000" stroke-width="1" stroke-opacity="0"></use>
      </g>
    </g>
    <g>
      <use xlink:href="#db0Jw909C" opacity="1" fill="#e09b2d" fill-opacity="1"></use>
      <g>
        <use xlink:href="#db0Jw909C" opacity="1" fill-opacity="0" stroke="#000000" stroke-width="1" stroke-opacity="0"></use>
      </g>
    </g>
    <g>
      <use xlink:href="#c11TmdPpFH" opacity="1" fill="#000000" fill-opacity="0"></use>
      <g>
        <use xlink:href="#c11TmdPpFH" opacity="1" fill-opacity="0" stroke="#000000" stroke-width="1" stroke-opacity="0"></use>
      </g>
    </g>
    <g>
      <use xlink:href="#cT9bHCUw" opacity="1" fill="#f7b239" fill-opacity="1"></use>
      <g>
        <use xlink:href="#cT9bHCUw" opacity="1" fill-opacity="0" stroke="#000000" stroke-width="1" stroke-opacity="0"></use>
      </g>
    </g>
    <g>
      <use xlink:href="#a4oHPRlNg" opacity="1" fill="#000000" fill-opacity="0"></use>
      <g>
        <use xlink:href="#a4oHPRlNg" opacity="1" fill-opacity="0" stroke="#000000" stroke-width="1" stroke-opacity="0"></use>
      </g>
    </g>
    <g>
      <use xlink:href="#aarX17aEt" opacity="1" fill="#f95428" fill-opacity="1"></use>
      <g>
        <use xlink:href="#aarX17aEt" opacity="1" fill-opacity="0" stroke="#000000" stroke-width="1" stroke-opacity="0"></use>
      </g>
    </g>
    <g>
      <use xlink:href="#afWwcZbUw" opacity="1" fill="#000000" fill-opacity="1"></use>
      <g>
        <use xlink:href="#afWwcZbUw" opacity="1" fill-opacity="0" stroke="#000000" stroke-width="1" stroke-opacity="0"></use>
      </g>
    </g>
    <g>
      <use xlink:href="#aycS94BSf" opacity="1" fill="#000000" fill-opacity="1"></use>
      <g>
        <use xlink:href="#aycS94BSf" opacity="1" fill-opacity="0" stroke="#000000" stroke-width="1" stroke-opacity="0"></use>
      </g>
    </g>
    <g>
      <use xlink:href="#b1ewMJqU5L" opacity="1" fill="#595758" fill-opacity="1"></use>
      <g>
        <use xlink:href="#b1ewMJqU5L" opacity="1" fill-opacity="0" stroke="#000000" stroke-width="1" stroke-opacity="0"></use>
      </g>
    </g>
    <g>
      <use xlink:href="#b1EWwZPhMZ" opacity="1" fill="#595758" fill-opacity="1"></use>
      <g>
        <use xlink:href="#b1EWwZPhMZ" opacity="1" fill-opacity="0" stroke="#000000" stroke-width="1" stroke-opacity="0"></use>
      </g>
    </g>
    <g>
      <use xlink:href="#b144NW8CID" opacity="1" fill="#595758" fill-opacity="1"></use>
      <g>
        <use xlink:href="#b144NW8CID" opacity="1" fill-opacity="0" stroke="#000000" stroke-width="1" stroke-opacity="0"></use>
      </g>
    </g>
    <g>
      <use xlink:href="#bp6tDicwP" opacity="1" fill="#595758" fill-opacity="1"></use>
      <g>
        <use xlink:href="#bp6tDicwP" opacity="1" fill-opacity="0" stroke="#000000" stroke-width="1" stroke-opacity="0"></use>
      </g>
    </g>
    <g>
      <use xlink:href="#c24zzDnSy6" opacity="1" fill="#595758" fill-opacity="1"></use>
      <g>
        <use xlink:href="#c24zzDnSy6" opacity="1" fill-opacity="0" stroke="#000000" stroke-width="1" stroke-opacity="0"></use>
      </g>
    </g>
    <g>
      <use xlink:href="#airfTM4bs" opacity="1" fill="#595758" fill-opacity="1"></use>
      <g>
        <use xlink:href="#airfTM4bs" opacity="1" fill-opacity="0" stroke="#000000" stroke-width="1" stroke-opacity="0"></use>
      </g>
    </g>
    <g>
      <use xlink:href="#brwbYMyUn" opacity="1" fill="#595758" fill-opacity="1"></use>
      <g>
        <use xlink:href="#brwbYMyUn" opacity="1" fill-opacity="0" stroke="#000000" stroke-width="1" stroke-opacity="0"></use>
      </g>
    </g>
    <g>
      <use xlink:href="#aaAocwqFW" opacity="1" fill="#595758" fill-opacity="1"></use>
      <g>
        <use xlink:href="#aaAocwqFW" opacity="1" fill-opacity="0" stroke="#000000" stroke-width="1" stroke-opacity="0"></use>
      </g>
    </g>
    <g>
      <use xlink:href="#crYZaXbp0" opacity="1" fill="#f95428" fill-opacity="1"></use>
      <g>
        <use xlink:href="#crYZaXbp0" opacity="1" fill-opacity="0" stroke="#000000" stroke-width="1" stroke-opacity="0"></use>
      </g>
    </g>
  </g>
</svg>