<?xml version="1.0" encoding="UTF-8" standalone="no"?>
<!DOCTYPE svg PUBLIC "-//W3C//DTD SVG 1.1//EN" "http://www.w3.org/Graphics/SVG/1.1/DTD/svg11.dtd">
<svg version="1.1" xmlns="http://www.w3.org/2000/svg" xmlns:xlink="http://www.w3.org/1999/xlink" preserveAspectRatio="xMidYMid meet" viewBox="368.28375000000017 155.0980948835938 168.63249999999994 316.59613735780295" width="164.63" height="312.6">
  <defs>
    <path d="M447.21 198.1C447.21 195.1 447.21 171.1 447.21 168.1C447.21 165.68 449.17 163.71 451.6 163.71C454.03 163.71 455.99 165.68 455.99 168.1C455.99 171.1 455.99 195.1 455.99 198.1C455.99 200.52 454.03 202.49 451.6 202.49C449.17 202.49 447.21 200.53 447.21 198.1Z" id="bDZCeIXU5"></path>
    <path d="M484.56 263.27C484.56 263.27 484.56 263.27 484.56 263.27C484.56 273.99 484.56 279.95 484.56 281.14C484.56 281.14 484.56 281.14 484.56 281.14C445.01 281.14 423.03 281.14 418.64 281.14C418.64 281.14 418.64 281.14 418.64 281.14C418.64 270.42 418.64 264.46 418.64 263.27C418.64 263.27 418.64 263.27 418.64 263.27C458.19 263.27 480.17 263.27 484.56 263.27Z" id="b8jFeHxDc"></path>
    <path d="M507.14 267.96L484.56 267.96L418.64 267.96L396.06 267.96C396.06 225.82 396.06 202.41 396.06 197.73C396.06 189.52 402.71 182.87 410.92 182.87C413.63 182.87 427.19 182.87 451.6 182.87C476.01 182.87 489.57 182.87 492.28 182.87C500.49 182.87 507.14 189.52 507.14 197.73C507.14 207.09 507.14 230.5 507.14 267.96Z" id="eygHzn9AM"></path>
    <path d="M410.92 182.87C402.71 182.87 396.06 189.52 396.06 197.73C396.06 202.41 396.06 225.82 396.06 267.96L406.02 267.96C406.02 225.82 406.02 202.41 406.02 197.73C406.02 189.52 412.67 182.87 420.88 182.87C418.89 182.87 411.92 182.87 410.92 182.87Z" id="a3K0cBGSYn"></path>
    <path d="M425.41 342.96C425.41 342.96 425.41 342.96 425.41 342.96C425.41 409.95 425.41 447.17 425.41 454.61C425.41 454.61 425.41 454.61 425.41 454.61C415.12 454.61 409.39 454.61 408.25 454.61C408.25 454.61 408.25 454.61 408.25 454.61C408.25 387.62 408.25 350.4 408.25 342.96C408.25 342.96 408.25 342.96 408.25 342.96C418.55 342.96 424.27 342.96 425.41 342.96Z" id="bmNTrNlZu"></path>
    <path d="M494.95 342.96C494.95 342.96 494.95 342.96 494.95 342.96C494.95 409.4 494.95 446.31 494.95 453.69C494.95 453.69 494.95 453.69 494.95 453.69C484.66 453.69 478.94 453.69 477.79 453.69C477.79 453.69 477.79 453.69 477.79 453.69C477.79 387.25 477.79 350.34 477.79 342.96C477.79 342.96 477.79 342.96 477.79 342.96C488.09 342.96 493.81 342.96 494.95 342.96Z" id="b1egCUTeFy"></path>
    <path d="M477.79 365.17L494.95 365.17L494.95 343.55L477.79 343.55L477.79 365.17ZM425.41 365.17L425.41 343.55L408.25 343.55L408.25 365.17L425.41 365.17Z" id="f2S4iBpUho"></path>
    <path d="M531.27 291.75C531.27 291.75 531.27 291.75 531.27 291.75C531.27 302.59 531.27 308.61 531.27 309.82C531.27 309.82 531.27 309.82 531.27 309.82C512.07 309.82 501.4 309.82 499.27 309.82C499.27 309.82 499.27 309.82 499.27 309.82C499.27 298.98 499.27 292.96 499.27 291.75C499.27 291.75 499.27 291.75 499.27 291.75C518.47 291.75 529.13 291.75 531.27 291.75Z" id="bwnUm57X8"></path>
    <path d="M404.15 291.75C404.15 291.75 404.15 291.75 404.15 291.75C404.15 302.59 404.15 308.61 404.15 309.82C404.15 309.82 404.15 309.82 404.15 309.82C384.69 309.82 373.87 309.82 371.71 309.82C371.71 309.82 371.71 309.82 371.71 309.82C371.71 298.98 371.71 292.96 371.71 291.75C371.71 291.75 371.71 291.75 371.71 291.75C391.18 291.75 401.99 291.75 404.15 291.75Z" id="a2KnvobMxk"></path>
    <path d="M439.86 227.22C439.86 235.71 432.99 242.58 424.5 242.58C416.03 242.58 409.16 235.71 409.16 227.22C409.16 218.75 416.03 211.87 424.5 211.87C432.99 211.87 439.86 218.75 439.86 227.22Z" id="ayYvlMpZL"></path>
    <path d="M494.05 227.22C494.05 235.71 487.17 242.58 478.7 242.58C470.21 242.58 463.34 235.71 463.34 227.22C463.34 218.75 470.21 211.87 478.7 211.87C487.17 211.87 494.05 218.75 494.05 227.22Z" id="a13UoTpYdr"></path>
    <path d="M435.35 468.69L398.32 468.69L398.32 447.92L408.25 447.92L425.42 447.92L435.35 447.92L435.35 468.69Z" id="cESiQFQDm"></path>
    <path d="M504.89 468.69L467.86 468.69L467.86 447.92L477.8 447.92L494.95 447.92L504.89 447.92L504.89 468.69Z" id="a7nWOCKeU"></path>
    <path d="M533.92 398.33L517.54 398.33L517.54 321.11L517.54 296.59L517.54 278.21C517.54 278.21 517.54 278.21 517.54 278.21C526.58 278.21 533.92 288.16 533.92 300.44C533.92 313.49 533.92 346.12 533.92 398.33Z" id="aNzncqG05"></path>
    <path d="M385.66 398.33L369.28 398.33C369.28 339.59 369.28 306.96 369.28 300.44C369.28 288.16 376.62 278.21 385.66 278.21C385.66 278.21 385.66 278.21 385.66 278.21L385.66 296.59L385.66 321.11L385.66 398.33Z" id="bbJm6KZRw"></path>
    <path d="M507.14 349.91L494.95 349.91L494.95 349.9L477.79 349.9L477.79 349.91L425.41 349.91L425.41 349.9L408.25 349.9L408.25 349.91L396.06 349.91L396.06 309.82L396.06 291.75L396.06 278.21L418.64 278.21L484.57 278.21L507.14 278.21L507.14 291.75L507.14 309.82L507.14 309.82L507.14 349.91Z" id="a62zv0rp7y"></path>
    <path d="M415.6 278.21C415.6 278.21 415.6 278.21 415.6 278.21C415.6 321.22 415.6 345.12 415.6 349.9C415.6 349.9 415.6 349.9 415.6 349.9C403.88 349.9 397.36 349.9 396.06 349.9C396.06 349.9 396.06 349.9 396.06 349.9C396.06 306.89 396.06 282.99 396.06 278.21C396.06 278.21 396.06 278.21 396.06 278.21C407.78 278.21 414.3 278.21 415.6 278.21Z" id="i5a0vXzMiG"></path>
    <path d="M424.51 207.48C413.62 207.48 404.76 216.34 404.76 227.22C404.76 238.11 413.62 246.97 424.51 246.97C435.4 246.97 444.25 238.11 444.25 227.22C444.25 216.34 435.4 207.48 424.51 207.48ZM424.51 216.26C430.55 216.26 435.47 221.18 435.47 227.22C435.47 233.27 430.55 238.18 424.51 238.18C418.46 238.18 413.55 233.27 413.55 227.22C413.55 221.18 418.46 216.26 424.51 216.26Z" id="i5ygTu0x9"></path>
    <path d="M498.44 227.22C498.44 216.34 489.58 207.48 478.69 207.48C467.81 207.48 458.95 216.34 458.95 227.22C458.95 238.11 467.81 246.97 478.69 246.97C489.58 246.97 498.44 238.11 498.44 227.22ZM489.65 227.22C489.65 233.27 484.74 238.18 478.69 238.18C472.65 238.18 467.73 233.27 467.73 227.22C467.73 221.18 472.65 216.26 478.69 216.26C484.74 216.26 489.65 221.18 489.65 227.22Z" id="a4vPonE0nC"></path>
    <path d="M482.56 290.97C480.13 290.97 478.17 292.94 478.17 295.37C478.17 297.79 480.13 299.76 482.56 299.76C484.99 299.76 486.95 297.79 486.95 295.37C486.95 292.94 484.99 290.97 482.56 290.97Z" id="fbcSOJZNW"></path>
    <path d="M420.64 290.97C418.21 290.97 416.25 292.94 416.25 295.37C416.25 297.79 418.21 299.76 420.64 299.76C423.07 299.76 425.03 297.79 425.03 295.37C425.03 292.94 423.07 290.97 420.64 290.97Z" id="f1qTLjAp8c"></path>
    <path d="M451.6 156.1C447.4 156.1 443.99 159.51 443.99 163.71C443.99 167.91 447.4 171.32 451.6 171.32C455.81 171.32 459.21 167.91 459.21 163.71C459.21 159.51 455.81 156.1 451.6 156.1Z" id="c3LMdVKHQK"></path>
    <path d="M427.22 326.07C427.22 320.38 429.17 315.15 432.43 311C436.9 305.33 443.82 301.69 451.6 301.69C465.07 301.69 475.98 312.61 475.98 326.07C466.23 326.07 432.09 326.07 427.22 326.07Z" id="fBXEzOjMp"></path>
    <path d="M427.22 326.07C427.22 320.38 429.17 315.15 432.43 311C436.58 307.74 441.81 305.79 447.5 305.79C459.57 305.79 469.59 314.56 471.54 326.07C462.67 326.07 431.65 326.07 427.22 326.07Z" id="bNmcf2qk1"></path>
  </defs>
  <g>
    <g>
      <use xlink:href="#bDZCeIXU5" opacity="1" fill="#2ba5f7" fill-opacity="1"></use>
      <g>
        <use xlink:href="#bDZCeIXU5" opacity="1" fill-opacity="0" stroke="#000000" stroke-width="1" stroke-opacity="0"></use>
      </g>
    </g>
    <g>
      <use xlink:href="#b8jFeHxDc" opacity="1" fill="#e09b2d" fill-opacity="1"></use>
      <g>
        <use xlink:href="#b8jFeHxDc" opacity="1" fill-opacity="0" stroke="#000000" stroke-width="1" stroke-opacity="0"></use>
      </g>
    </g>
    <g>
      <use xlink:href="#eygHzn9AM" opacity="1" fill="#f95428" fill-opacity="1"></use>
      <g>
        <use xlink:href="#eygHzn9AM" opacity="1" fill-opacity="0" stroke="#000000" stroke-width="1" stroke-opacity="0"></use>
      </g>
    </g>
    <g>
      <use xlink:href="#a3K0cBGSYn" opacity="1" fill="#e54728" fill-opacity="1"></use>
      <g>
        <use xlink:href="#a3K0cBGSYn" opacity="1" fill-opacity="0" stroke="#000000" stroke-width="1" stroke-opacity="0"></use>
      </g>
    </g>
    <g>
      <use xlink:href="#bmNTrNlZu" opacity="1" fill="#f7b239" fill-opacity="1"></use>
      <g>
        <use xlink:href="#bmNTrNlZu" opacity="1" fill-opacity="0" stroke="#000000" stroke-width="1" stroke-opacity="0"></use>
      </g>
    </g>
    <g>
      <use xlink:href="#b1egCUTeFy" opacity="1" fill="#f7b239" fill-opacity="1"></use>
      <g>
        <use xlink:href="#b1egCUTeFy" opacity="1" fill-opacity="0" stroke="#000000" stroke-width="1" stroke-opacity="0"></use>
      </g>
    </g>
    <g>
      <use xlink:href="#f2S4iBpUho" opacity="1" fill="#e09b2d" fill-opacity="1"></use>
      <g>
        <use xlink:href="#f2S4iBpUho" opacity="1" fill-opacity="0" stroke="#000000" stroke-width="1" stroke-opacity="0"></use>
      </g>
    </g>
    <g>
      <use xlink:href="#bwnUm57X8" opacity="1" fill="#f7b239" fill-opacity="1"></use>
      <g>
        <use xlink:href="#bwnUm57X8" opacity="1" fill-opacity="0" stroke="#000000" stroke-width="1" stroke-opacity="0"></use>
      </g>
    </g>
    <g>
      <use xlink:href="#a2KnvobMxk" opacity="1" fill="#f7b239" fill-opacity="1"></use>
      <g>
        <use xlink:href="#a2KnvobMxk" opacity="1" fill-opacity="0" stroke="#000000" stroke-width="1" stroke-opacity="0"></use>
      </g>
    </g>
    <g>
      <use xlink:href="#ayYvlMpZL" opacity="1" fill="#f7b239" fill-opacity="1"></use>
      <g>
        <use xlink:href="#ayYvlMpZL" opacity="1" fill-opacity="0" stroke="#000000" stroke-width="1" stroke-opacity="0"></use>
      </g>
    </g>
    <g>
      <use xlink:href="#a13UoTpYdr" opacity="1" fill="#f7b239" fill-opacity="1"></use>
      <g>
        <use xlink:href="#a13UoTpYdr" opacity="1" fill-opacity="0" stroke="#000000" stroke-width="1" stroke-opacity="0"></use>
      </g>
    </g>
    <g>
      <use xlink:href="#cESiQFQDm" opacity="1" fill="#f95428" fill-opacity="1"></use>
      <g>
        <use xlink:href="#cESiQFQDm" opacity="1" fill-opacity="0" stroke="#000000" stroke-width="1" stroke-opacity="0"></use>
      </g>
    </g>
    <g>
      <use xlink:href="#a7nWOCKeU" opacity="1" fill="#f95428" fill-opacity="1"></use>
      <g>
        <use xlink:href="#a7nWOCKeU" opacity="1" fill-opacity="0" stroke="#000000" stroke-width="1" stroke-opacity="0"></use>
      </g>
    </g>
    <g>
      <use xlink:href="#aNzncqG05" opacity="1" fill="#f95428" fill-opacity="1"></use>
      <g>
        <use xlink:href="#aNzncqG05" opacity="1" fill-opacity="0" stroke="#000000" stroke-width="1" stroke-opacity="0"></use>
      </g>
    </g>
    <g>
      <use xlink:href="#bbJm6KZRw" opacity="1" fill="#f95428" fill-opacity="1"></use>
      <g>
        <use xlink:href="#bbJm6KZRw" opacity="1" fill-opacity="0" stroke="#000000" stroke-width="1" stroke-opacity="0"></use>
      </g>
    </g>
    <g>
      <use xlink:href="#a62zv0rp7y" opacity="1" fill="#2ba5f7" fill-opacity="1"></use>
      <g>
        <use xlink:href="#a62zv0rp7y" opacity="1" fill-opacity="0" stroke="#000000" stroke-width="1" stroke-opacity="0"></use>
      </g>
    </g>
    <g>
      <use xlink:href="#i5a0vXzMiG" opacity="1" fill="#2197d8" fill-opacity="1"></use>
      <g>
        <use xlink:href="#i5a0vXzMiG" opacity="1" fill-opacity="0" stroke="#000000" stroke-width="1" stroke-opacity="0"></use>
      </g>
    </g>
    <g>
      <use xlink:href="#i5ygTu0x9" opacity="1" fill="#4d4d4d" fill-opacity="1"></use>
      <g>
        <use xlink:href="#i5ygTu0x9" opacity="1" fill-opacity="0" stroke="#000000" stroke-width="1" stroke-opacity="0"></use>
      </g>
    </g>
    <g>
      <use xlink:href="#a4vPonE0nC" opacity="1" fill="#4d4d4d" fill-opacity="1"></use>
      <g>
        <use xlink:href="#a4vPonE0nC" opacity="1" fill-opacity="0" stroke="#000000" stroke-width="1" stroke-opacity="0"></use>
      </g>
    </g>
    <g>
      <use xlink:href="#fbcSOJZNW" opacity="1" fill="#4d4d4d" fill-opacity="1"></use>
      <g>
        <use xlink:href="#fbcSOJZNW" opacity="1" fill-opacity="0" stroke="#000000" stroke-width="1" stroke-opacity="0"></use>
      </g>
    </g>
    <g>
      <use xlink:href="#f1qTLjAp8c" opacity="1" fill="#4d4d4d" fill-opacity="1"></use>
      <g>
        <use xlink:href="#f1qTLjAp8c" opacity="1" fill-opacity="0" stroke="#000000" stroke-width="1" stroke-opacity="0"></use>
      </g>
    </g>
    <g>
      <use xlink:href="#c3LMdVKHQK" opacity="1" fill="#f7b239" fill-opacity="1"></use>
      <g>
        <use xlink:href="#c3LMdVKHQK" opacity="1" fill-opacity="0" stroke="#000000" stroke-width="1" stroke-opacity="0"></use>
      </g>
    </g>
    <g>
      <use xlink:href="#fBXEzOjMp" opacity="1" fill="#e09b2d" fill-opacity="1"></use>
      <g>
        <use xlink:href="#fBXEzOjMp" opacity="1" fill-opacity="0" stroke="#000000" stroke-width="1" stroke-opacity="0"></use>
      </g>
    </g>
    <g>
      <use xlink:href="#bNmcf2qk1" opacity="1" fill="#f7b239" fill-opacity="1"></use>
      <g>
        <use xlink:href="#bNmcf2qk1" opacity="1" fill-opacity="0" stroke="#000000" stroke-width="1" stroke-opacity="0"></use>
      </g>
    </g>
  </g>
</svg>