<?xml version="1.0" encoding="UTF-8" standalone="no"?>
<!DOCTYPE svg PUBLIC "-//W3C//DTD SVG 1.1//EN" "http://www.w3.org/Graphics/SVG/1.1/DTD/svg11.dtd">
<svg version="1.1" xmlns="http://www.w3.org/2000/svg" xmlns:xlink="http://www.w3.org/1999/xlink" preserveAspectRatio="xMidYMid meet" viewBox="250.4002134767898 109.86376284705727 211.93214890405395 307.13806659221865" width="211.93" height="307.14">
  <defs>
    <path d="M323.44 121.85C323.26 119.51 325.01 117.45 327.36 117.27C329.72 117.08 331.77 118.84 331.95 121.19C332.18 124.1 334 147.37 334.23 150.28C334.41 152.62 332.66 154.68 330.3 154.87C327.95 155.05 325.9 153.3 325.71 150.94C325.49 148.03 323.67 124.76 323.44 121.85Z" id="c4nYc6Boud"></path>
    <path d="M323.44 121.85C323.26 119.51 325.01 117.45 327.36 117.27C329.72 117.08 331.77 118.84 331.95 121.19C332.18 124.1 334 147.37 334.23 150.28C334.41 152.62 332.66 154.68 330.3 154.87C327.95 155.05 325.9 153.3 325.71 150.94C325.49 148.03 323.67 124.76 323.44 121.85Z" id="hMsuSnygf"></path>
    <path d="M366.86 211.3C367.68 221.69 368.13 227.47 368.22 228.63C368.22 228.63 368.22 228.63 368.22 228.63C329.87 231.62 308.56 233.29 304.3 233.62C304.3 233.62 304.3 233.62 304.3 233.62C303.49 223.23 303.04 217.45 302.95 216.29C302.95 216.29 302.95 216.29 302.95 216.29C341.3 213.3 362.61 211.63 366.86 211.3C366.86 211.3 366.86 211.3 366.86 211.3Z" id="b8tC29aGc"></path>
    <path d="M366.86 211.3C367.68 221.69 368.13 227.47 368.22 228.63C368.22 228.63 368.22 228.63 368.22 228.63C329.87 231.62 308.56 233.29 304.3 233.62C304.3 233.62 304.3 233.62 304.3 233.62C303.49 223.23 303.04 217.45 302.95 216.29C302.95 216.29 302.95 216.29 302.95 216.29C341.3 213.3 362.61 211.63 366.86 211.3C366.86 211.3 366.86 211.3 366.86 211.3Z" id="f3jeIIfK3"></path>
    <path d="M367.22 215.85L303.3 220.84C290.17 221.87 282.87 222.44 281.41 222.55C278.22 181.69 276.45 158.99 276.09 154.46C275.47 146.5 281.41 139.55 289.37 138.92C292 138.72 305.15 137.69 328.82 135.84C352.48 133.99 365.63 132.97 368.26 132.76C376.22 132.14 383.17 138.08 383.79 146.04C384.5 155.12 386.27 177.82 389.11 214.14C386.19 214.36 378.9 214.93 367.22 215.85Z" id="f2YIz9TB0T"></path>
    <path d="M367.22 215.85L303.3 220.84C290.17 221.87 282.87 222.44 281.41 222.55C278.22 181.69 276.45 158.99 276.09 154.46C275.47 146.5 281.41 139.55 289.37 138.92C292 138.72 305.15 137.69 328.82 135.84C352.48 133.99 365.63 132.97 368.26 132.76C376.22 132.14 383.17 138.08 383.79 146.04C384.5 155.12 386.27 177.82 389.11 214.14C386.19 214.36 378.9 214.93 367.22 215.85Z" id="a15JRU9gBd"></path>
    <path d="M276.09 154.46C276.45 158.99 278.22 181.69 281.41 222.55C282.38 222.47 290.1 221.87 291.07 221.8C287.88 180.94 286.1 158.24 285.75 153.7C285.13 145.74 291.07 138.79 299.03 138.17C297.1 138.32 290.34 138.85 289.37 138.92C281.41 139.55 275.47 146.5 276.09 154.46Z" id="beW8MmNKs"></path>
    <path d="M276.09 154.46C276.45 158.99 278.22 181.69 281.41 222.55C282.38 222.47 290.1 221.87 291.07 221.8C287.88 180.94 286.1 158.24 285.75 153.7C285.13 145.74 291.07 138.79 299.03 138.17C297.1 138.32 290.34 138.85 289.37 138.92C281.41 139.55 275.47 146.5 276.09 154.46Z" id="cyb9M1HLN"></path>
    <path d="M315.55 293.05C320.62 358 323.44 394.08 324.01 401.3C324.01 401.3 324.01 401.3 324.01 401.3C314.03 402.08 308.47 402.51 307.37 402.6C307.37 402.6 307.37 402.6 307.37 402.6C302.29 337.65 299.48 301.56 298.91 294.35C298.91 294.35 298.91 294.35 298.91 294.35C308.9 293.56 314.44 293.13 315.55 293.05C315.55 293.05 315.55 293.05 315.55 293.05Z" id="bemAQEjcm"></path>
    <path d="M315.55 293.05C320.62 358 323.44 394.08 324.01 401.3C324.01 401.3 324.01 401.3 324.01 401.3C314.03 402.08 308.47 402.51 307.37 402.6C307.37 402.6 307.37 402.6 307.37 402.6C302.29 337.65 299.48 301.56 298.91 294.35C298.91 294.35 298.91 294.35 298.91 294.35C308.9 293.56 314.44 293.13 315.55 293.05C315.55 293.05 315.55 293.05 315.55 293.05Z" id="i59UZd8Vea"></path>
    <path d="M382.97 287.78C388.01 352.2 390.8 387.98 391.36 395.14C391.36 395.14 391.36 395.14 391.36 395.14C381.38 395.92 375.84 396.35 374.72 396.44C374.72 396.44 374.72 396.44 374.72 396.44C369.69 332.02 366.89 296.23 366.34 289.08C366.34 289.08 366.34 289.08 366.34 289.08C376.32 288.3 381.87 287.86 382.97 287.78C382.97 287.78 382.97 287.78 382.97 287.78Z" id="aFyihOSax"></path>
    <path d="M382.97 287.78C388.01 352.2 390.8 387.98 391.36 395.14C391.36 395.14 391.36 395.14 391.36 395.14C381.38 395.92 375.84 396.35 374.72 396.44C374.72 396.44 374.72 396.44 374.72 396.44C369.69 332.02 366.89 296.23 366.34 289.08C366.34 289.08 366.34 289.08 366.34 289.08C376.32 288.3 381.87 287.86 382.97 287.78C382.97 287.78 382.97 287.78 382.97 287.78Z" id="bLjbA6Alo"></path>
    <path d="M384.66 309.31L383.02 288.35L366.38 289.65L368.02 310.61L384.66 309.31ZM315.59 293.62L298.96 294.92L300.59 315.88L317.23 314.58L315.59 293.62Z" id="a55ABpKmyZ"></path>
    <path d="M384.66 309.31L383.02 288.35L366.38 289.65L368.02 310.61L384.66 309.31ZM315.59 293.62L298.96 294.92L300.59 315.88L317.23 314.58L315.59 293.62Z" id="cNUlboLQM"></path>
    <path d="M414.31 235.37C415.13 245.88 415.59 251.72 415.68 252.89C415.68 252.89 415.68 252.89 415.68 252.89C397.06 254.35 386.72 255.16 384.65 255.32C384.65 255.32 384.65 255.32 384.65 255.32C383.83 244.81 383.37 238.97 383.28 237.8C383.28 237.8 383.28 237.8 383.28 237.8C401.9 236.34 412.23 235.54 414.31 235.37C414.31 235.37 414.31 235.37 414.31 235.37Z" id="aVoEJYDKf"></path>
    <path d="M414.31 235.37C415.13 245.88 415.59 251.72 415.68 252.89C415.68 252.89 415.68 252.89 415.68 252.89C397.06 254.35 386.72 255.16 384.65 255.32C384.65 255.32 384.65 255.32 384.65 255.32C383.83 244.81 383.37 238.97 383.28 237.8C383.28 237.8 383.28 237.8 383.28 237.8C401.9 236.34 412.23 235.54 414.31 235.37C414.31 235.37 414.31 235.37 414.31 235.37Z" id="a5sQ3s0wM"></path>
    <path d="M291.06 245C291.88 255.51 292.33 261.35 292.43 262.52C292.43 262.52 292.43 262.52 292.43 262.52C273.56 264 263.07 264.82 260.97 264.98C260.97 264.98 260.97 264.98 260.97 264.98C260.15 254.47 259.7 248.63 259.6 247.46C259.6 247.46 259.6 247.46 259.6 247.46C278.48 245.99 288.96 245.17 291.06 245C291.06 245 291.06 245 291.06 245Z" id="alqB3NwWE"></path>
    <path d="M291.06 245C291.88 255.51 292.33 261.35 292.43 262.52C292.43 262.52 292.43 262.52 292.43 262.52C273.56 264 263.07 264.82 260.97 264.98C260.97 264.98 260.97 264.98 260.97 264.98C260.15 254.47 259.7 248.63 259.6 247.46C259.6 247.46 259.6 247.46 259.6 247.46C278.48 245.99 288.96 245.17 291.06 245C291.06 245 291.06 245 291.06 245Z" id="axZQhw9aa"></path>
    <path d="M307.06 195.79C298.85 196.43 291.67 190.29 291.03 182.06C290.39 173.85 296.53 166.65 304.74 166.01C312.97 165.37 320.15 171.52 320.79 179.73C321.44 187.96 315.3 195.15 307.06 195.79Z" id="dozEQ9QLH"></path>
    <path d="M307.06 195.79C298.85 196.43 291.67 190.29 291.03 182.06C290.39 173.85 296.53 166.65 304.74 166.01C312.97 165.37 320.15 171.52 320.79 179.73C321.44 187.96 315.3 195.15 307.06 195.79Z" id="a2AWLu4JRa"></path>
    <path d="M359.61 191.68C351.38 192.33 344.2 186.19 343.56 177.95C342.92 169.74 349.06 162.55 357.29 161.91C365.5 161.27 372.69 167.42 373.33 175.63C373.98 183.86 367.83 191.04 359.61 191.68Z" id="ahNTYqh6N"></path>
    <path d="M359.61 191.68C351.38 192.33 344.2 186.19 343.56 177.95C342.92 169.74 349.06 162.55 357.29 161.91C365.5 161.27 372.69 167.42 373.33 175.63C373.98 183.86 367.83 191.04 359.61 191.68Z" id="n5havxeNYy"></path>
    <path d="M298.81 417L297.23 396.86L306.86 396.11L323.51 394.81L333.14 394.06L334.71 414.2L298.81 417Z" id="ach7lFag6"></path>
    <path d="M298.81 417L297.23 396.86L306.86 396.11L323.51 394.81L333.14 394.06L334.71 414.2L298.81 417Z" id="aSrqTWErE"></path>
    <path d="M366.23 411.73L364.66 391.6L374.3 390.84L390.92 389.54L400.56 388.79L402.14 408.93L366.23 411.73Z" id="a2IKSp5G4"></path>
    <path d="M366.23 411.73L364.66 391.6L374.3 390.84L390.92 389.54L400.56 388.79L402.14 408.93L366.23 411.73Z" id="d3BsD0MVw"></path>
    <path d="M409.07 339.75L403.22 264.88L401.36 241.11C400.53 230.41 400.06 224.47 399.97 223.29C399.97 223.29 399.97 223.29 399.97 223.29C408.74 222.6 416.61 231.69 417.54 243.6C418.53 256.25 421 287.89 424.95 338.51C422.83 338.68 417.54 339.09 409.07 339.75Z" id="bXuDOzggf"></path>
    <path d="M409.07 339.75L403.22 264.88L401.36 241.11C400.53 230.41 400.06 224.47 399.97 223.29C399.97 223.29 399.97 223.29 399.97 223.29C408.74 222.6 416.61 231.69 417.54 243.6C418.53 256.25 421 287.89 424.95 338.51C422.83 338.68 417.54 339.09 409.07 339.75Z" id="bfykujk2U"></path>
    <path d="M383.5 294.52L383.5 294.51L366.86 295.81L366.86 295.82L316.08 299.78L316.08 299.77L299.44 301.07L299.44 301.08L287.62 302.01L284.58 263.14L283.21 245.62L282.19 232.49L304.08 230.78L368 225.78L389.89 224.07L390.91 237.2L392.28 254.72L392.28 254.72L395.32 293.59L383.5 294.52Z" id="b2pKv1ZP8t"></path>
    <path d="M383.5 294.52L383.5 294.51L366.86 295.81L366.86 295.82L316.08 299.78L316.08 299.77L299.44 301.07L299.44 301.08L287.62 302.01L284.58 263.14L283.21 245.62L282.19 232.49L304.08 230.78L368 225.78L389.89 224.07L390.91 237.2L392.28 254.72L392.28 254.72L395.32 293.59L383.5 294.52Z" id="c5ofqIs8A"></path>
    <path d="M301.13 231.01C304.39 272.71 306.2 295.88 306.56 300.52C306.56 300.52 306.56 300.52 306.56 300.52C295.2 301.4 288.88 301.9 287.62 302C287.62 302 287.62 302 287.62 302C284.36 260.3 282.55 237.12 282.19 232.49C282.19 232.49 282.19 232.49 282.19 232.49C293.55 231.6 299.87 231.11 301.13 231.01C301.13 231.01 301.13 231.01 301.13 231.01Z" id="d7Qv5g8jq"></path>
    <path d="M301.13 231.01C304.39 272.71 306.2 295.88 306.56 300.52C306.56 300.52 306.56 300.52 306.56 300.52C295.2 301.4 288.88 301.9 287.62 302C287.62 302 287.62 302 287.62 302C284.36 260.3 282.55 237.12 282.19 232.49C282.19 232.49 282.19 232.49 282.19 232.49C293.55 231.6 299.87 231.11 301.13 231.01C301.13 231.01 301.13 231.01 301.13 231.01Z" id="a1FfSlkD7j"></path>
    <path d="M286.76 182.39C287.59 192.95 296.85 200.87 307.41 200.04C317.96 199.22 325.87 189.96 325.05 179.4C324.23 168.85 314.97 160.93 304.41 161.76C293.86 162.58 285.94 171.84 286.76 182.39ZM316.54 180.06C316.99 185.93 312.6 191.06 306.74 191.52C300.87 191.98 295.74 187.59 295.28 181.73C294.83 175.87 299.21 170.73 305.08 170.27C310.94 169.81 316.08 174.21 316.54 180.06Z" id="b1c76YakNU"></path>
    <path d="M286.76 182.39C287.59 192.95 296.85 200.87 307.41 200.04C317.96 199.22 325.87 189.96 325.05 179.4C324.23 168.85 314.97 160.93 304.41 161.76C293.86 162.58 285.94 171.84 286.76 182.39ZM316.54 180.06C316.99 185.93 312.6 191.06 306.74 191.52C300.87 191.98 295.74 187.59 295.28 181.73C294.83 175.87 299.21 170.73 305.08 170.27C310.94 169.81 316.08 174.21 316.54 180.06Z" id="dpeICgMQ"></path>
    <path d="M356.95 157.65C346.4 158.48 338.48 167.74 339.3 178.29C340.13 188.84 349.39 196.76 359.94 195.94C370.5 195.12 378.42 185.85 377.59 175.29C376.77 164.75 367.5 156.83 356.95 157.65ZM359.27 187.42C353.42 187.87 348.27 183.49 347.81 177.62C347.36 171.76 351.76 166.62 357.61 166.16C363.48 165.71 368.61 170.1 369.07 175.96C369.53 181.83 365.14 186.96 359.27 187.42Z" id="agFwBkbB4"></path>
    <path d="M356.95 157.65C346.4 158.48 338.48 167.74 339.3 178.29C340.13 188.84 349.39 196.76 359.94 195.94C370.5 195.12 378.42 185.85 377.59 175.29C376.77 164.75 367.5 156.83 356.95 157.65ZM359.27 187.42C353.42 187.87 348.27 183.49 347.81 177.62C347.36 171.76 351.76 166.62 357.61 166.16C363.48 165.71 368.61 170.1 369.07 175.96C369.53 181.83 365.14 186.96 359.27 187.42Z" id="bhFAaKy5f"></path>
    <path d="M363.1 242.91C363.28 245.25 365.33 247.01 367.69 246.83C370.04 246.65 371.8 244.59 371.61 242.24C371.43 239.89 369.38 238.12 367.02 238.31C364.67 238.49 362.92 240.55 363.1 242.91Z" id="a5RwSskf7"></path>
    <path d="M363.1 242.91C363.28 245.25 365.33 247.01 367.69 246.83C370.04 246.65 371.8 244.59 371.61 242.24C371.43 239.89 369.38 238.12 367.02 238.31C364.67 238.49 362.92 240.55 363.1 242.91Z" id="bEiJ2TVy2"></path>
    <path d="M303.06 247.6C303.25 249.94 305.3 251.7 307.65 251.52C310.01 251.34 311.76 249.28 311.58 246.93C311.39 244.58 309.34 242.81 306.99 243C304.63 243.18 302.88 245.24 303.06 247.6Z" id="f6TuWPOQu"></path>
    <path d="M303.06 247.6C303.25 249.94 305.3 251.7 307.65 251.52C310.01 251.34 311.76 249.28 311.58 246.93C311.39 244.58 309.34 242.81 306.99 243C304.63 243.18 302.88 245.24 303.06 247.6Z" id="cwi4DkbZh"></path>
    <path d="M319.99 117.84C320.3 121.91 323.87 124.96 327.94 124.64C332.02 124.32 335.06 120.76 334.74 116.69C334.43 112.62 330.87 109.57 326.79 109.89C322.72 110.2 319.67 113.77 319.99 117.84Z" id="aNTVEi72w"></path>
    <path d="M319.99 117.84C320.3 121.91 323.87 124.96 327.94 124.64C332.02 124.32 335.06 120.76 334.74 116.69C334.43 112.62 330.87 109.57 326.79 109.89C322.72 110.2 319.67 113.77 319.99 117.84Z" id="a1tYSMvWob"></path>
    <path d="M319.94 261.53C323.84 255.69 330.27 251.64 337.82 251.05C350.88 250.03 362.28 259.79 363.3 272.84C353.85 273.58 320.75 276.16 316.03 276.53C315.59 271.02 317.09 265.8 319.94 261.53Z" id="axVb8NL9"></path>
    <path d="M319.94 261.53C323.84 255.69 330.27 251.64 337.82 251.05C350.88 250.03 362.28 259.79 363.3 272.84C353.85 273.58 320.75 276.16 316.03 276.53C315.59 271.02 317.09 265.8 319.94 261.53Z" id="eglfR4ORU"></path>
    <path d="M319.94 261.53C323.71 258.05 328.64 255.76 334.15 255.33C345.85 254.42 356.23 262.16 359 273.17C350.4 273.85 320.32 276.2 316.03 276.53C315.59 271.02 317.09 265.8 319.94 261.53Z" id="bA5WbXvus"></path>
    <path d="M319.94 261.53C323.71 258.05 328.64 255.76 334.15 255.33C345.85 254.42 356.23 262.16 359 273.17C350.4 273.85 320.32 276.2 316.03 276.53C315.59 271.02 317.09 265.8 319.94 261.53Z" id="j1dIuwzCte"></path>
    <path d="M367.49 228.69L362.2 234.62L350.59 237.72L321.68 253.08L321.68 328.82L391.88 370.5L461.04 328.82L461.04 253.08L391.88 215.65L367.49 228.69Z" id="a1MQSOXzQb"></path>
    <path d="M418.33 276.3L418.33 291.79L435.62 282.37L435.62 266.75L367.49 228.69L350.59 237.72L418.33 276.3Z" id="e1vB7d4de7"></path>
    <path d="M391.23 371.66C384.21 367.49 328.06 334.15 321.04 329.98C320.65 329.72 320.39 329.21 320.39 328.82C320.39 321.25 320.39 260.65 320.39 253.08C320.39 252.56 320.65 252.17 321.04 251.91C321.42 251.66 321.94 251.66 322.33 251.91C329.35 255.66 385.5 285.59 392.52 289.34C393.17 289.72 393.43 290.5 393.04 291.14C392.65 291.79 391.88 292.05 391.23 291.79C386.68 289.35 363.93 277.18 322.97 255.27L322.97 328.05L391.88 368.95L459.75 328.05C459.75 283.06 459.75 258.07 459.75 253.08C459.75 252.3 460.27 251.79 461.04 251.79C461.82 251.79 462.33 252.3 462.33 253.08C462.33 260.65 462.33 321.25 462.33 328.82C462.33 329.34 462.07 329.72 461.69 329.98C454.77 334.15 399.44 367.49 392.52 371.66C392.39 371.79 392.14 371.79 391.88 371.79C391.62 371.79 391.36 371.79 391.23 371.66Z" id="aApqwUEka"></path>
    <path d="M350.59 237.72L366.84 229.07L350.59 237.72L350.59 237.72Z" id="aHWCNVRLT"></path>
    <path d="M391.23 371.66C384.21 367.49 328.06 334.15 321.04 329.98C320.65 329.72 320.39 329.21 320.39 328.82C320.39 321.25 320.39 260.65 320.39 253.08C320.39 252.56 320.65 252.17 321.04 251.91C323.93 250.37 347.05 237.98 349.94 236.43C350.59 236.04 351.36 236.3 351.75 236.95C352.13 237.59 351.88 238.37 351.23 238.75C349.35 239.76 339.93 244.79 322.97 253.85L322.97 328.05L391.88 368.95L459.75 328.05L459.75 253.85L391.88 217.07C377.55 224.74 369.6 229 368.01 229.85C367.36 230.24 366.59 229.98 366.2 229.33C365.81 228.69 366.07 227.91 366.71 227.53C369.17 226.22 388.78 215.8 391.23 214.49C391.62 214.24 392.14 214.24 392.39 214.49C399.31 218.24 454.64 248.17 461.56 251.91C461.95 252.17 462.2 252.56 462.2 253.08C462.2 260.65 462.2 321.25 462.2 328.82C462.2 329.34 461.95 329.72 461.56 329.98C454.64 334.15 399.31 367.49 392.39 371.66C392.39 371.79 392.14 371.79 391.88 371.79C391.62 371.79 391.36 371.79 391.23 371.66Z" id="f7jvFcRAV"></path>
    <path d="M417.69 292.95C417.3 292.69 417.04 292.3 417.04 291.79C417.04 290.8 417.04 285.85 417.04 276.95C376.78 254.03 354.41 241.3 349.94 238.75C349.55 238.49 349.29 238.11 349.29 237.59C349.29 237.07 349.55 236.69 349.94 236.43C351.62 235.54 365.04 228.42 366.71 227.53C367.1 227.27 367.62 227.27 368.01 227.53C374.83 231.33 429.44 261.79 436.27 265.59C436.65 265.85 436.91 266.24 436.91 266.75C436.91 268.32 436.91 280.81 436.91 282.37C436.91 282.88 436.65 283.27 436.27 283.53C434.54 284.47 420.7 292.01 418.98 292.95C418.85 293.08 418.59 293.08 418.33 293.08C418.07 293.08 417.81 293.08 417.69 292.95ZM418.98 275.14C419.36 275.4 419.62 275.79 419.62 276.3C419.62 277.2 419.62 281.67 419.62 289.72L434.33 281.72L434.33 267.53L367.49 230.24L353.29 237.72C392.7 260.17 414.6 272.65 418.98 275.14Z" id="cvkaqwBmR"></path>
    <path d="M391.23 371.66C384.21 367.49 328.06 334.15 321.04 329.98C320.65 329.72 320.39 329.21 320.39 328.82C320.39 321.25 320.39 260.65 320.39 253.08C320.39 252.56 320.65 252.17 321.04 251.91C321.42 251.66 321.94 251.66 322.33 251.91C326.96 254.39 350.15 266.78 391.88 289.08C407.05 280.87 415.48 276.31 417.17 275.4C417.81 275.01 418.59 275.27 418.98 275.92C419.36 276.56 419.1 277.33 418.46 277.72C415.87 279.13 395.12 290.38 392.52 291.79C392.14 292.05 391.62 292.05 391.36 291.79C386.8 289.35 364.01 277.18 322.97 255.27L322.97 328.05L391.88 368.95L459.75 328.05L459.75 255.27C445.74 262.86 437.95 267.07 436.4 267.91C435.75 268.3 434.98 268.04 434.59 267.4C434.2 266.75 434.46 265.98 435.11 265.59C437.63 264.22 457.87 253.28 460.4 251.91C460.78 251.66 461.3 251.66 461.69 251.91C462.07 252.17 462.33 252.56 462.33 253.08C462.33 260.65 462.33 321.25 462.33 328.82C462.33 329.34 462.07 329.72 461.69 329.98C454.77 334.15 399.44 367.49 392.52 371.66C392.39 371.79 392.14 371.79 391.88 371.79C391.62 371.79 391.36 371.79 391.23 371.66Z" id="b1ZBTpSgZH"></path>
    <path d="M327.35 333.89C286.04 294.42 263.1 272.5 258.51 268.12C249.88 259.87 247.81 248.03 253.89 241.67C253.89 241.67 253.89 241.67 253.89 241.67C254.75 242.49 259.06 246.61 266.81 254.02L284.05 270.49L338.35 322.37C331.75 329.28 328.08 333.12 327.35 333.89Z" id="a2ykp1aFeI"></path>
    <path d="M349.42 238.37C349.29 238.24 349.29 237.98 349.29 237.72C349.29 237.2 349.55 236.82 349.94 236.56C351.55 235.69 364.46 228.78 366.07 227.91C366.71 227.53 367.49 227.78 367.88 228.43C368.01 228.56 368.01 228.82 368.01 229.07C368.01 229.59 367.75 229.98 367.36 230.24C365.75 231.1 352.84 238.02 351.23 238.88C351.1 238.88 350.84 239.01 350.59 239.01C350.07 239.01 349.68 238.75 349.42 238.37Z" id="e3PLuqrHG"></path>
    <path d="M390.59 370.5C390.59 362.51 390.59 298.61 390.59 290.63C390.59 289.85 391.1 289.34 391.88 289.34C392.65 289.34 393.17 289.85 393.17 290.63C393.17 298.61 393.17 362.51 393.17 370.5C393.17 371.27 392.65 371.79 391.88 371.79C391.1 371.79 390.59 371.27 390.59 370.5Z" id="g2rSRoaqQy"></path>
  </defs>
  <g>
    <g>
      <g>
        <use xlink:href="#c4nYc6Boud" opacity="1" fill="#2ba5f7" fill-opacity="1"></use>
        <g>
          <use xlink:href="#c4nYc6Boud" opacity="1" fill-opacity="0" stroke="#000000" stroke-width="1" stroke-opacity="0"></use>
        </g>
      </g>
      <g>
        <use xlink:href="#hMsuSnygf" opacity="1" fill="#000000" fill-opacity="0"></use>
        <g>
          <use xlink:href="#hMsuSnygf" opacity="1" fill-opacity="0" stroke="#000000" stroke-width="1" stroke-opacity="0"></use>
        </g>
      </g>
      <g>
        <use xlink:href="#b8tC29aGc" opacity="1" fill="#e09b2d" fill-opacity="1"></use>
        <g>
          <use xlink:href="#b8tC29aGc" opacity="1" fill-opacity="0" stroke="#000000" stroke-width="1" stroke-opacity="0"></use>
        </g>
      </g>
      <g>
        <use xlink:href="#f3jeIIfK3" opacity="1" fill="#000000" fill-opacity="0"></use>
        <g>
          <use xlink:href="#f3jeIIfK3" opacity="1" fill-opacity="0" stroke="#000000" stroke-width="1" stroke-opacity="0"></use>
        </g>
      </g>
      <g>
        <use xlink:href="#f2YIz9TB0T" opacity="1" fill="#f95428" fill-opacity="1"></use>
        <g>
          <use xlink:href="#f2YIz9TB0T" opacity="1" fill-opacity="0" stroke="#000000" stroke-width="1" stroke-opacity="0"></use>
        </g>
      </g>
      <g>
        <use xlink:href="#a15JRU9gBd" opacity="1" fill="#000000" fill-opacity="0"></use>
        <g>
          <use xlink:href="#a15JRU9gBd" opacity="1" fill-opacity="0" stroke="#000000" stroke-width="1" stroke-opacity="0"></use>
        </g>
      </g>
      <g>
        <use xlink:href="#beW8MmNKs" opacity="1" fill="#e54728" fill-opacity="1"></use>
        <g>
          <use xlink:href="#beW8MmNKs" opacity="1" fill-opacity="0" stroke="#000000" stroke-width="1" stroke-opacity="0"></use>
        </g>
      </g>
      <g>
        <use xlink:href="#cyb9M1HLN" opacity="1" fill="#000000" fill-opacity="0"></use>
        <g>
          <use xlink:href="#cyb9M1HLN" opacity="1" fill-opacity="0" stroke="#000000" stroke-width="1" stroke-opacity="0"></use>
        </g>
      </g>
      <g>
        <use xlink:href="#bemAQEjcm" opacity="1" fill="#f7b239" fill-opacity="1"></use>
        <g>
          <use xlink:href="#bemAQEjcm" opacity="1" fill-opacity="0" stroke="#000000" stroke-width="1" stroke-opacity="0"></use>
        </g>
      </g>
      <g>
        <use xlink:href="#i59UZd8Vea" opacity="1" fill="#000000" fill-opacity="0"></use>
        <g>
          <use xlink:href="#i59UZd8Vea" opacity="1" fill-opacity="0" stroke="#000000" stroke-width="1" stroke-opacity="0"></use>
        </g>
      </g>
      <g>
        <use xlink:href="#aFyihOSax" opacity="1" fill="#f7b239" fill-opacity="1"></use>
        <g>
          <use xlink:href="#aFyihOSax" opacity="1" fill-opacity="0" stroke="#000000" stroke-width="1" stroke-opacity="0"></use>
        </g>
      </g>
      <g>
        <use xlink:href="#bLjbA6Alo" opacity="1" fill="#000000" fill-opacity="0"></use>
        <g>
          <use xlink:href="#bLjbA6Alo" opacity="1" fill-opacity="0" stroke="#000000" stroke-width="1" stroke-opacity="0"></use>
        </g>
      </g>
      <g>
        <use xlink:href="#a55ABpKmyZ" opacity="1" fill="#e09b2d" fill-opacity="1"></use>
        <g>
          <use xlink:href="#a55ABpKmyZ" opacity="1" fill-opacity="0" stroke="#000000" stroke-width="1" stroke-opacity="0"></use>
        </g>
      </g>
      <g>
        <use xlink:href="#cNUlboLQM" opacity="1" fill="#000000" fill-opacity="0"></use>
        <g>
          <use xlink:href="#cNUlboLQM" opacity="1" fill-opacity="0" stroke="#000000" stroke-width="1" stroke-opacity="0"></use>
        </g>
      </g>
      <g>
        <use xlink:href="#aVoEJYDKf" opacity="1" fill="#f7b239" fill-opacity="1"></use>
        <g>
          <use xlink:href="#aVoEJYDKf" opacity="1" fill-opacity="0" stroke="#000000" stroke-width="1" stroke-opacity="0"></use>
        </g>
      </g>
      <g>
        <use xlink:href="#a5sQ3s0wM" opacity="1" fill="#000000" fill-opacity="0"></use>
        <g>
          <use xlink:href="#a5sQ3s0wM" opacity="1" fill-opacity="0" stroke="#000000" stroke-width="1" stroke-opacity="0"></use>
        </g>
      </g>
      <g>
        <use xlink:href="#alqB3NwWE" opacity="1" fill="#f7b239" fill-opacity="1"></use>
        <g>
          <use xlink:href="#alqB3NwWE" opacity="1" fill-opacity="0" stroke="#000000" stroke-width="1" stroke-opacity="0"></use>
        </g>
      </g>
      <g>
        <use xlink:href="#axZQhw9aa" opacity="1" fill="#000000" fill-opacity="0"></use>
        <g>
          <use xlink:href="#axZQhw9aa" opacity="1" fill-opacity="0" stroke="#000000" stroke-width="1" stroke-opacity="0"></use>
        </g>
      </g>
      <g>
        <use xlink:href="#dozEQ9QLH" opacity="1" fill="#f7b239" fill-opacity="1"></use>
        <g>
          <use xlink:href="#dozEQ9QLH" opacity="1" fill-opacity="0" stroke="#000000" stroke-width="1" stroke-opacity="0"></use>
        </g>
      </g>
      <g>
        <use xlink:href="#a2AWLu4JRa" opacity="1" fill="#000000" fill-opacity="0"></use>
        <g>
          <use xlink:href="#a2AWLu4JRa" opacity="1" fill-opacity="0" stroke="#000000" stroke-width="1" stroke-opacity="0"></use>
        </g>
      </g>
      <g>
        <use xlink:href="#ahNTYqh6N" opacity="1" fill="#f7b239" fill-opacity="1"></use>
        <g>
          <use xlink:href="#ahNTYqh6N" opacity="1" fill-opacity="0" stroke="#000000" stroke-width="1" stroke-opacity="0"></use>
        </g>
      </g>
      <g>
        <use xlink:href="#n5havxeNYy" opacity="1" fill="#000000" fill-opacity="0"></use>
        <g>
          <use xlink:href="#n5havxeNYy" opacity="1" fill-opacity="0" stroke="#000000" stroke-width="1" stroke-opacity="0"></use>
        </g>
      </g>
      <g>
        <use xlink:href="#ach7lFag6" opacity="1" fill="#f95428" fill-opacity="1"></use>
        <g>
          <use xlink:href="#ach7lFag6" opacity="1" fill-opacity="0" stroke="#000000" stroke-width="1" stroke-opacity="0"></use>
        </g>
      </g>
      <g>
        <use xlink:href="#aSrqTWErE" opacity="1" fill="#000000" fill-opacity="0"></use>
        <g>
          <use xlink:href="#aSrqTWErE" opacity="1" fill-opacity="0" stroke="#000000" stroke-width="1" stroke-opacity="0"></use>
        </g>
      </g>
      <g>
        <use xlink:href="#a2IKSp5G4" opacity="1" fill="#f95428" fill-opacity="1"></use>
        <g>
          <use xlink:href="#a2IKSp5G4" opacity="1" fill-opacity="0" stroke="#000000" stroke-width="1" stroke-opacity="0"></use>
        </g>
      </g>
      <g>
        <use xlink:href="#d3BsD0MVw" opacity="1" fill="#000000" fill-opacity="0"></use>
        <g>
          <use xlink:href="#d3BsD0MVw" opacity="1" fill-opacity="0" stroke="#000000" stroke-width="1" stroke-opacity="0"></use>
        </g>
      </g>
      <g>
        <use xlink:href="#bXuDOzggf" opacity="1" fill="#f95428" fill-opacity="1"></use>
        <g>
          <use xlink:href="#bXuDOzggf" opacity="1" fill-opacity="0" stroke="#000000" stroke-width="1" stroke-opacity="0"></use>
        </g>
      </g>
      <g>
        <use xlink:href="#bfykujk2U" opacity="1" fill="#000000" fill-opacity="0"></use>
        <g>
          <use xlink:href="#bfykujk2U" opacity="1" fill-opacity="0" stroke="#000000" stroke-width="1" stroke-opacity="0"></use>
        </g>
      </g>
      <g>
        <use xlink:href="#b2pKv1ZP8t" opacity="1" fill="#2ba5f7" fill-opacity="1"></use>
        <g>
          <use xlink:href="#b2pKv1ZP8t" opacity="1" fill-opacity="0" stroke="#000000" stroke-width="1" stroke-opacity="0"></use>
        </g>
      </g>
      <g>
        <use xlink:href="#c5ofqIs8A" opacity="1" fill="#000000" fill-opacity="0"></use>
        <g>
          <use xlink:href="#c5ofqIs8A" opacity="1" fill-opacity="0" stroke="#000000" stroke-width="1" stroke-opacity="0"></use>
        </g>
      </g>
      <g>
        <use xlink:href="#d7Qv5g8jq" opacity="1" fill="#2197d8" fill-opacity="1"></use>
        <g>
          <use xlink:href="#d7Qv5g8jq" opacity="1" fill-opacity="0" stroke="#000000" stroke-width="1" stroke-opacity="0"></use>
        </g>
      </g>
      <g>
        <use xlink:href="#a1FfSlkD7j" opacity="1" fill="#000000" fill-opacity="0"></use>
        <g>
          <use xlink:href="#a1FfSlkD7j" opacity="1" fill-opacity="0" stroke="#000000" stroke-width="1" stroke-opacity="0"></use>
        </g>
      </g>
      <g>
        <use xlink:href="#b1c76YakNU" opacity="1" fill="#4d4d4d" fill-opacity="1"></use>
        <g>
          <use xlink:href="#b1c76YakNU" opacity="1" fill-opacity="0" stroke="#000000" stroke-width="1" stroke-opacity="0"></use>
        </g>
      </g>
      <g>
        <use xlink:href="#dpeICgMQ" opacity="1" fill="#000000" fill-opacity="0"></use>
        <g>
          <use xlink:href="#dpeICgMQ" opacity="1" fill-opacity="0" stroke="#000000" stroke-width="1" stroke-opacity="0"></use>
        </g>
      </g>
      <g>
        <use xlink:href="#agFwBkbB4" opacity="1" fill="#4d4d4d" fill-opacity="1"></use>
        <g>
          <use xlink:href="#agFwBkbB4" opacity="1" fill-opacity="0" stroke="#000000" stroke-width="1" stroke-opacity="0"></use>
        </g>
      </g>
      <g>
        <use xlink:href="#bhFAaKy5f" opacity="1" fill="#000000" fill-opacity="0"></use>
        <g>
          <use xlink:href="#bhFAaKy5f" opacity="1" fill-opacity="0" stroke="#000000" stroke-width="1" stroke-opacity="0"></use>
        </g>
      </g>
      <g>
        <use xlink:href="#a5RwSskf7" opacity="1" fill="#4d4d4d" fill-opacity="1"></use>
        <g>
          <use xlink:href="#a5RwSskf7" opacity="1" fill-opacity="0" stroke="#000000" stroke-width="1" stroke-opacity="0"></use>
        </g>
      </g>
      <g>
        <use xlink:href="#bEiJ2TVy2" opacity="1" fill="#000000" fill-opacity="0"></use>
        <g>
          <use xlink:href="#bEiJ2TVy2" opacity="1" fill-opacity="0" stroke="#000000" stroke-width="1" stroke-opacity="0"></use>
        </g>
      </g>
      <g>
        <use xlink:href="#f6TuWPOQu" opacity="1" fill="#4d4d4d" fill-opacity="1"></use>
        <g>
          <use xlink:href="#f6TuWPOQu" opacity="1" fill-opacity="0" stroke="#000000" stroke-width="1" stroke-opacity="0"></use>
        </g>
      </g>
      <g>
        <use xlink:href="#cwi4DkbZh" opacity="1" fill="#000000" fill-opacity="0"></use>
        <g>
          <use xlink:href="#cwi4DkbZh" opacity="1" fill-opacity="0" stroke="#000000" stroke-width="1" stroke-opacity="0"></use>
        </g>
      </g>
      <g>
        <use xlink:href="#aNTVEi72w" opacity="1" fill="#f7b239" fill-opacity="1"></use>
        <g>
          <use xlink:href="#aNTVEi72w" opacity="1" fill-opacity="0" stroke="#000000" stroke-width="1" stroke-opacity="0"></use>
        </g>
      </g>
      <g>
        <use xlink:href="#a1tYSMvWob" opacity="1" fill="#000000" fill-opacity="0"></use>
        <g>
          <use xlink:href="#a1tYSMvWob" opacity="1" fill-opacity="0" stroke="#000000" stroke-width="1" stroke-opacity="0"></use>
        </g>
      </g>
      <g>
        <use xlink:href="#axVb8NL9" opacity="1" fill="#e09b2d" fill-opacity="1"></use>
        <g>
          <use xlink:href="#axVb8NL9" opacity="1" fill-opacity="0" stroke="#000000" stroke-width="1" stroke-opacity="0"></use>
        </g>
      </g>
      <g>
        <use xlink:href="#eglfR4ORU" opacity="1" fill="#000000" fill-opacity="0"></use>
        <g>
          <use xlink:href="#eglfR4ORU" opacity="1" fill-opacity="0" stroke="#000000" stroke-width="1" stroke-opacity="0"></use>
        </g>
      </g>
      <g>
        <use xlink:href="#bA5WbXvus" opacity="1" fill="#f7b239" fill-opacity="1"></use>
        <g>
          <use xlink:href="#bA5WbXvus" opacity="1" fill-opacity="0" stroke="#000000" stroke-width="1" stroke-opacity="0"></use>
        </g>
      </g>
      <g>
        <use xlink:href="#j1dIuwzCte" opacity="1" fill="#000000" fill-opacity="0"></use>
        <g>
          <use xlink:href="#j1dIuwzCte" opacity="1" fill-opacity="0" stroke="#000000" stroke-width="1" stroke-opacity="0"></use>
        </g>
      </g>
      <g>
        <use xlink:href="#a1MQSOXzQb" opacity="1" fill="#d6ab7f" fill-opacity="1"></use>
        <g>
          <use xlink:href="#a1MQSOXzQb" opacity="1" fill-opacity="0" stroke="#000000" stroke-width="1" stroke-opacity="0"></use>
        </g>
      </g>
      <g>
        <use xlink:href="#e1vB7d4de7" opacity="1" fill="#ffffff" fill-opacity="1"></use>
        <g>
          <use xlink:href="#e1vB7d4de7" opacity="1" fill-opacity="0" stroke="#000000" stroke-width="1" stroke-opacity="0"></use>
        </g>
      </g>
      <g>
        <use xlink:href="#aApqwUEka" opacity="1" fill="#62355c" fill-opacity="1"></use>
        <g>
          <use xlink:href="#aApqwUEka" opacity="1" fill-opacity="0" stroke="#000000" stroke-width="1" stroke-opacity="0"></use>
        </g>
      </g>
      <g>
        <use xlink:href="#aHWCNVRLT" opacity="1" fill="#ffffff" fill-opacity="1"></use>
        <g>
          <use xlink:href="#aHWCNVRLT" opacity="1" fill-opacity="0" stroke="#000000" stroke-width="1" stroke-opacity="0"></use>
        </g>
      </g>
      <g>
        <use xlink:href="#f7jvFcRAV" opacity="1" fill="#62355c" fill-opacity="1"></use>
        <g>
          <use xlink:href="#f7jvFcRAV" opacity="1" fill-opacity="0" stroke="#000000" stroke-width="1" stroke-opacity="0"></use>
        </g>
      </g>
      <g>
        <use xlink:href="#cvkaqwBmR" opacity="1" fill="#62355c" fill-opacity="1"></use>
        <g>
          <use xlink:href="#cvkaqwBmR" opacity="1" fill-opacity="0" stroke="#000000" stroke-width="1" stroke-opacity="0"></use>
        </g>
      </g>
      <g>
        <use xlink:href="#b1ZBTpSgZH" opacity="1" fill="#62355c" fill-opacity="1"></use>
        <g>
          <use xlink:href="#b1ZBTpSgZH" opacity="1" fill-opacity="0" stroke="#000000" stroke-width="1" stroke-opacity="0"></use>
        </g>
      </g>
      <g>
        <use xlink:href="#a2ykp1aFeI" opacity="1" fill="#f95428" fill-opacity="1"></use>
        <g>
          <use xlink:href="#a2ykp1aFeI" opacity="1" fill-opacity="0" stroke="#000000" stroke-width="1" stroke-opacity="0"></use>
        </g>
      </g>
      <g>
        <use xlink:href="#e3PLuqrHG" opacity="1" fill="#62355c" fill-opacity="1"></use>
        <g>
          <use xlink:href="#e3PLuqrHG" opacity="1" fill-opacity="0" stroke="#000000" stroke-width="1" stroke-opacity="0"></use>
        </g>
      </g>
      <g>
        <use xlink:href="#g2rSRoaqQy" opacity="1" fill="#62355c" fill-opacity="1"></use>
        <g>
          <use xlink:href="#g2rSRoaqQy" opacity="1" fill-opacity="0" stroke="#000000" stroke-width="1" stroke-opacity="0"></use>
        </g>
      </g>
    </g>
  </g>
</svg>