<?xml version="1.0" encoding="UTF-8" standalone="no"?>
<!DOCTYPE svg PUBLIC "-//W3C//DTD SVG 1.1//EN" "http://www.w3.org/Graphics/SVG/1.1/DTD/svg11.dtd">
<svg version="1.1" xmlns="http://www.w3.org/2000/svg" xmlns:xlink="http://www.w3.org/1999/xlink" preserveAspectRatio="xMidYMid meet" viewBox="-0.9994114055140582 -0.3904091679412769 200.6006189007058 309.7821727882933" width="196.6" height="305.78"><defs><path d="M76.62 7.98C78.97 7.79 81.01 9.54 81.19 11.88C81.42 14.78 83.23 37.95 83.46 40.84C83.64 43.17 81.9 45.23 79.55 45.41C77.21 45.59 75.17 43.85 74.98 41.5C74.76 38.6 72.95 15.44 72.72 12.54C72.54 10.21 74.28 8.16 76.62 7.98Z" id="c13rf7xtE4"></path><path d="M76.62 7.98C78.97 7.79 81.01 9.54 81.19 11.88C81.42 14.78 83.23 37.95 83.46 40.84C83.64 43.17 81.9 45.23 79.55 45.41C77.21 45.59 75.17 43.85 74.98 41.5C74.76 38.6 72.95 15.44 72.72 12.54C72.54 10.21 74.28 8.16 76.62 7.98Z" id="fyh3q1UYr"></path><path d="M76.62 7.98C78.97 7.79 81.01 9.54 81.19 11.88C81.42 14.78 83.23 37.95 83.46 40.84C83.64 43.17 81.9 45.23 79.55 45.41C77.21 45.59 75.17 43.85 74.98 41.5C74.76 38.6 72.95 15.44 72.72 12.54C72.54 10.21 74.28 8.16 76.62 7.98Z" id="b4ccekisQI"></path><path d="M76.62 7.98C78.97 7.79 81.01 9.54 81.19 11.88C81.42 14.78 83.23 37.95 83.46 40.84C83.64 43.17 81.9 45.23 79.55 45.41C77.21 45.59 75.17 43.85 74.98 41.5C74.76 38.6 72.95 15.44 72.72 12.54C72.54 10.21 74.28 8.16 76.62 7.98Z" id="b2q6VURK2v"></path><path d="M117.3 118.85C117.3 118.85 117.3 118.85 117.3 118.85C79.12 121.83 57.9 123.49 53.66 123.82C53.66 123.82 53.66 123.82 53.66 123.82C52.86 113.47 52.41 107.72 52.32 106.56C52.32 106.56 52.32 106.56 52.32 106.56C90.5 103.59 111.72 101.93 115.95 101.6C115.95 101.6 115.95 101.6 115.95 101.6C116.76 111.94 117.21 117.7 117.3 118.85Z" id="cJco4RcO0"></path><path d="M117.3 118.85C117.3 118.85 117.3 118.85 117.3 118.85C79.12 121.83 57.9 123.49 53.66 123.82C53.66 123.82 53.66 123.82 53.66 123.82C52.86 113.47 52.41 107.72 52.32 106.56C52.32 106.56 52.32 106.56 52.32 106.56C90.5 103.59 111.72 101.93 115.95 101.6C115.95 101.6 115.95 101.6 115.95 101.6C116.76 111.94 117.21 117.7 117.3 118.85Z" id="a6ma95fHG1"></path><path d="M117.3 118.85C117.3 118.85 117.3 118.85 117.3 118.85C79.12 121.83 57.9 123.49 53.66 123.82C53.66 123.82 53.66 123.82 53.66 123.82C52.86 113.47 52.41 107.72 52.32 106.56C52.32 106.56 52.32 106.56 52.32 106.56C90.5 103.59 111.72 101.93 115.95 101.6C115.95 101.6 115.95 101.6 115.95 101.6C116.76 111.94 117.21 117.7 117.3 118.85Z" id="d2Bc06Mea9"></path><path d="M117.3 118.85C117.3 118.85 117.3 118.85 117.3 118.85C79.12 121.83 57.9 123.49 53.66 123.82C53.66 123.82 53.66 123.82 53.66 123.82C52.86 113.47 52.41 107.72 52.32 106.56C52.32 106.56 52.32 106.56 52.32 106.56C90.5 103.59 111.72 101.93 115.95 101.6C115.95 101.6 115.95 101.6 115.95 101.6C116.76 111.94 117.21 117.7 117.3 118.85Z" id="i5UVJVoF9d"></path><path d="M52.67 111.09C39.59 112.12 32.33 112.69 30.87 112.8C27.7 72.12 25.94 49.52 25.58 45.01C24.96 37.08 30.87 30.16 38.8 29.53C41.42 29.34 54.51 28.31 78.07 26.47C101.63 24.63 114.72 23.61 117.34 23.4C125.27 22.78 132.19 28.7 132.8 36.62C133.51 45.66 135.27 68.26 138.1 104.42C135.19 104.64 127.93 105.21 116.31 106.13C103.58 107.12 59.03 110.6 52.67 111.09Z" id="fdOOdrHh8"></path><path d="M52.67 111.09C39.59 112.12 32.33 112.69 30.87 112.8C27.7 72.12 25.94 49.52 25.58 45.01C24.96 37.08 30.87 30.16 38.8 29.53C41.42 29.34 54.51 28.31 78.07 26.47C101.63 24.63 114.72 23.61 117.34 23.4C125.27 22.78 132.19 28.7 132.8 36.62C133.51 45.66 135.27 68.26 138.1 104.42C135.19 104.64 127.93 105.21 116.31 106.13C103.58 107.12 59.03 110.6 52.67 111.09Z" id="g2CtF47Zgn"></path><path d="M52.67 111.09C39.59 112.12 32.33 112.69 30.87 112.8C27.7 72.12 25.94 49.52 25.58 45.01C24.96 37.08 30.87 30.16 38.8 29.53C41.42 29.34 54.51 28.31 78.07 26.47C101.63 24.63 114.72 23.61 117.34 23.4C125.27 22.78 132.19 28.7 132.8 36.62C133.51 45.66 135.27 68.26 138.1 104.42C135.19 104.64 127.93 105.21 116.31 106.13C103.58 107.12 59.03 110.6 52.67 111.09Z" id="c4SJuztTEP"></path><path d="M52.67 111.09C39.59 112.12 32.33 112.69 30.87 112.8C27.7 72.12 25.94 49.52 25.58 45.01C24.96 37.08 30.87 30.16 38.8 29.53C41.42 29.34 54.51 28.31 78.07 26.47C101.63 24.63 114.72 23.61 117.34 23.4C125.27 22.78 132.19 28.7 132.8 36.62C133.51 45.66 135.27 68.26 138.1 104.42C135.19 104.64 127.93 105.21 116.31 106.13C103.58 107.12 59.03 110.6 52.67 111.09Z" id="fu2lyU4bg"></path><path d="M30.87 112.8C31.84 112.72 39.53 112.12 40.49 112.05C37.31 71.37 35.54 48.77 35.19 44.25C34.58 36.32 40.49 29.41 48.42 28.79C46.49 28.94 39.76 29.47 38.8 29.53C30.87 30.16 24.96 37.08 25.58 45.01C25.94 49.52 27.7 72.12 30.87 112.8Z" id="c1i4JufxEm"></path><path d="M30.87 112.8C31.84 112.72 39.53 112.12 40.49 112.05C37.31 71.37 35.54 48.77 35.19 44.25C34.58 36.32 40.49 29.41 48.42 28.79C46.49 28.94 39.76 29.47 38.8 29.53C30.87 30.16 24.96 37.08 25.58 45.01C25.94 49.52 27.7 72.12 30.87 112.8Z" id="b1GRtOytso"></path><path d="M30.87 112.8C31.84 112.72 39.53 112.12 40.49 112.05C37.31 71.37 35.54 48.77 35.19 44.25C34.58 36.32 40.49 29.41 48.42 28.79C46.49 28.94 39.76 29.47 38.8 29.53C30.87 30.16 24.96 37.08 25.58 45.01C25.94 49.52 27.7 72.12 30.87 112.8Z" id="d1YEVmMFRC"></path><path d="M30.87 112.8C31.84 112.72 39.53 112.12 40.49 112.05C37.31 71.37 35.54 48.77 35.19 44.25C34.58 36.32 40.49 29.41 48.42 28.79C46.49 28.94 39.76 29.47 38.8 29.53C30.87 30.16 24.96 37.08 25.58 45.01C25.94 49.52 27.7 72.12 30.87 112.8Z" id="b3T3IFuyft"></path><path d="M73.29 290.76C73.29 290.76 73.29 290.76 73.29 290.76C63.35 291.54 57.81 291.97 56.72 292.06C56.72 292.06 56.72 292.06 56.72 292.06C51.66 227.39 48.86 191.46 48.3 184.28C48.3 184.28 48.3 184.28 48.3 184.28C58.24 183.49 63.76 183.07 64.86 182.99C64.86 182.99 64.86 182.99 64.86 182.99C69.91 247.65 72.72 283.57 73.29 290.76Z" id="b2HgpbSfcN"></path><path d="M73.29 290.76C73.29 290.76 73.29 290.76 73.29 290.76C63.35 291.54 57.81 291.97 56.72 292.06C56.72 292.06 56.72 292.06 56.72 292.06C51.66 227.39 48.86 191.46 48.3 184.28C48.3 184.28 48.3 184.28 48.3 184.28C58.24 183.49 63.76 183.07 64.86 182.99C64.86 182.99 64.86 182.99 64.86 182.99C69.91 247.65 72.72 283.57 73.29 290.76Z" id="a12hrJ1SSL"></path><path d="M73.29 290.76C73.29 290.76 73.29 290.76 73.29 290.76C63.35 291.54 57.81 291.97 56.72 292.06C56.72 292.06 56.72 292.06 56.72 292.06C51.66 227.39 48.86 191.46 48.3 184.28C48.3 184.28 48.3 184.28 48.3 184.28C58.24 183.49 63.76 183.07 64.86 182.99C64.86 182.99 64.86 182.99 64.86 182.99C69.91 247.65 72.72 283.57 73.29 290.76Z" id="aNsKOrptu"></path><path d="M73.29 290.76C73.29 290.76 73.29 290.76 73.29 290.76C63.35 291.54 57.81 291.97 56.72 292.06C56.72 292.06 56.72 292.06 56.72 292.06C51.66 227.39 48.86 191.46 48.3 184.28C48.3 184.28 48.3 184.28 48.3 184.28C58.24 183.49 63.76 183.07 64.86 182.99C64.86 182.99 64.86 182.99 64.86 182.99C69.91 247.65 72.72 283.57 73.29 290.76Z" id="a2VrK5CRW"></path><path d="M140.34 284.63C140.34 284.63 140.34 284.63 140.34 284.63C130.4 285.4 124.89 285.83 123.77 285.92C123.77 285.92 123.77 285.92 123.77 285.92C118.77 221.79 115.98 186.15 115.43 179.03C115.43 179.03 115.43 179.03 115.43 179.03C125.37 178.26 130.89 177.82 131.99 177.74C131.99 177.74 131.99 177.74 131.99 177.74C137 241.88 139.78 277.5 140.34 284.63Z" id="c1CLC7trzc"></path><path d="M140.34 284.63C140.34 284.63 140.34 284.63 140.34 284.63C130.4 285.4 124.89 285.83 123.77 285.92C123.77 285.92 123.77 285.92 123.77 285.92C118.77 221.79 115.98 186.15 115.43 179.03C115.43 179.03 115.43 179.03 115.43 179.03C125.37 178.26 130.89 177.82 131.99 177.74C131.99 177.74 131.99 177.74 131.99 177.74C137 241.88 139.78 277.5 140.34 284.63Z" id="b8UMLbPXi"></path><path d="M140.34 284.63C140.34 284.63 140.34 284.63 140.34 284.63C130.4 285.4 124.89 285.83 123.77 285.92C123.77 285.92 123.77 285.92 123.77 285.92C118.77 221.79 115.98 186.15 115.43 179.03C115.43 179.03 115.43 179.03 115.43 179.03C125.37 178.26 130.89 177.82 131.99 177.74C131.99 177.74 131.99 177.74 131.99 177.74C137 241.88 139.78 277.5 140.34 284.63Z" id="cEQPfFkCo"></path><path d="M140.34 284.63C140.34 284.63 140.34 284.63 140.34 284.63C130.4 285.4 124.89 285.83 123.77 285.92C123.77 285.92 123.77 285.92 123.77 285.92C118.77 221.79 115.98 186.15 115.43 179.03C115.43 179.03 115.43 179.03 115.43 179.03C125.37 178.26 130.89 177.82 131.99 177.74C131.99 177.74 131.99 177.74 131.99 177.74C137 241.88 139.78 277.5 140.34 284.63Z" id="c8dkuPDYTk"></path><path d="M132.04 178.31L115.47 179.6L117.1 200.47L133.67 199.18L132.04 178.31ZM48.35 184.85L49.97 205.72L66.54 204.42L64.9 183.55L48.35 184.85Z" id="btSWFdham"></path><path d="M132.04 178.31L115.47 179.6L117.1 200.47L133.67 199.18L132.04 178.31ZM48.35 184.85L49.97 205.72L66.54 204.42L64.9 183.55L48.35 184.85Z" id="gDao3c38"></path><path d="M132.04 178.31L115.47 179.6L117.1 200.47L133.67 199.18L132.04 178.31ZM48.35 184.85L49.97 205.72L66.54 204.42L64.9 183.55L48.35 184.85Z" id="a1TKNQnACO"></path><path d="M132.04 178.31L115.47 179.6L117.1 200.47L133.67 199.18L132.04 178.31ZM48.35 184.85L49.97 205.72L66.54 204.42L64.9 183.55L48.35 184.85Z" id="alYXOITOt"></path><path d="M164.55 143C164.55 143 164.55 143 164.55 143C146.01 144.46 135.72 145.26 133.66 145.42C133.66 145.42 133.66 145.42 133.66 145.42C132.84 134.96 132.38 129.14 132.3 127.98C132.3 127.98 132.3 127.98 132.3 127.98C150.83 126.53 161.12 125.73 163.19 125.56C163.19 125.56 163.19 125.56 163.19 125.56C164.01 136.02 164.46 141.84 164.55 143Z" id="a2IUoZ23FB"></path><path d="M164.55 143C164.55 143 164.55 143 164.55 143C146.01 144.46 135.72 145.26 133.66 145.42C133.66 145.42 133.66 145.42 133.66 145.42C132.84 134.96 132.38 129.14 132.3 127.98C132.3 127.98 132.3 127.98 132.3 127.98C150.83 126.53 161.12 125.73 163.19 125.56C163.19 125.56 163.19 125.56 163.19 125.56C164.01 136.02 164.46 141.84 164.55 143Z" id="b11iENzTmN"></path><path d="M164.55 143C164.55 143 164.55 143 164.55 143C146.01 144.46 135.72 145.26 133.66 145.42C133.66 145.42 133.66 145.42 133.66 145.42C132.84 134.96 132.38 129.14 132.3 127.98C132.3 127.98 132.3 127.98 132.3 127.98C150.83 126.53 161.12 125.73 163.19 125.56C163.19 125.56 163.19 125.56 163.19 125.56C164.01 136.02 164.46 141.84 164.55 143Z" id="dWlnYKPdz"></path><path d="M164.55 143C164.55 143 164.55 143 164.55 143C146.01 144.46 135.72 145.26 133.66 145.42C133.66 145.42 133.66 145.42 133.66 145.42C132.84 134.96 132.38 129.14 132.3 127.98C132.3 127.98 132.3 127.98 132.3 127.98C150.83 126.53 161.12 125.73 163.19 125.56C163.19 125.56 163.19 125.56 163.19 125.56C164.01 136.02 164.46 141.84 164.55 143Z" id="aBy1BXnDL"></path><path d="M41.84 152.59C41.84 152.59 41.84 152.59 41.84 152.59C23.06 154.06 12.61 154.88 10.52 155.04C10.52 155.04 10.52 155.04 10.52 155.04C9.71 144.58 9.26 138.76 9.16 137.6C9.16 137.6 9.16 137.6 9.16 137.6C27.96 136.13 38.39 135.32 40.48 135.15C40.48 135.15 40.48 135.15 40.48 135.15C41.3 145.61 41.75 151.43 41.84 152.59Z" id="b1rqpPvRa"></path><path d="M41.84 152.59C41.84 152.59 41.84 152.59 41.84 152.59C23.06 154.06 12.61 154.88 10.52 155.04C10.52 155.04 10.52 155.04 10.52 155.04C9.71 144.58 9.26 138.76 9.16 137.6C9.16 137.6 9.16 137.6 9.16 137.6C27.96 136.13 38.39 135.32 40.48 135.15C40.48 135.15 40.48 135.15 40.48 135.15C41.3 145.61 41.75 151.43 41.84 152.59Z" id="d5TUf2kIjk"></path><path d="M41.84 152.59C41.84 152.59 41.84 152.59 41.84 152.59C23.06 154.06 12.61 154.88 10.52 155.04C10.52 155.04 10.52 155.04 10.52 155.04C9.71 144.58 9.26 138.76 9.16 137.6C9.16 137.6 9.16 137.6 9.16 137.6C27.96 136.13 38.39 135.32 40.48 135.15C40.48 135.15 40.48 135.15 40.48 135.15C41.3 145.61 41.75 151.43 41.84 152.59Z" id="c4dp6fPVxG"></path><path d="M41.84 152.59C41.84 152.59 41.84 152.59 41.84 152.59C23.06 154.06 12.61 154.88 10.52 155.04C10.52 155.04 10.52 155.04 10.52 155.04C9.71 144.58 9.26 138.76 9.16 137.6C9.16 137.6 9.16 137.6 9.16 137.6C27.96 136.13 38.39 135.32 40.48 135.15C40.48 135.15 40.48 135.15 40.48 135.15C41.3 145.61 41.75 151.43 41.84 152.59Z" id="dBPlyJaKc"></path><path d="M40.45 72.49C39.81 64.31 45.93 57.14 54.1 56.51C62.29 55.87 69.44 61.99 70.08 70.17C70.73 78.36 64.61 85.52 56.41 86.15C48.24 86.79 41.09 80.68 40.45 72.49Z" id="d7PwwNbx3I"></path><path d="M40.45 72.49C39.81 64.31 45.93 57.14 54.1 56.51C62.29 55.87 69.44 61.99 70.08 70.17C70.73 78.36 64.61 85.52 56.41 86.15C48.24 86.79 41.09 80.68 40.45 72.49Z" id="fdOw1Gum"></path><path d="M40.45 72.49C39.81 64.31 45.93 57.14 54.1 56.51C62.29 55.87 69.44 61.99 70.08 70.17C70.73 78.36 64.61 85.52 56.41 86.15C48.24 86.79 41.09 80.68 40.45 72.49Z" id="ncFfNmpHv"></path><path d="M40.45 72.49C39.81 64.31 45.93 57.14 54.1 56.51C62.29 55.87 69.44 61.99 70.08 70.17C70.73 78.36 64.61 85.52 56.41 86.15C48.24 86.79 41.09 80.68 40.45 72.49Z" id="lTdjSWVan"></path><path d="M92.75 68.39C92.11 60.22 98.23 53.06 106.42 52.42C114.59 51.79 121.75 57.91 122.39 66.08C123.04 74.28 116.91 81.43 108.73 82.06C100.54 82.71 93.39 76.6 92.75 68.39Z" id="bcnF8WJIW"></path><path d="M92.75 68.39C92.11 60.22 98.23 53.06 106.42 52.42C114.59 51.79 121.75 57.91 122.39 66.08C123.04 74.28 116.91 81.43 108.73 82.06C100.54 82.71 93.39 76.6 92.75 68.39Z" id="gD3rIL7m5"></path><path d="M92.75 68.39C92.11 60.22 98.23 53.06 106.42 52.42C114.59 51.79 121.75 57.91 122.39 66.08C123.04 74.28 116.91 81.43 108.73 82.06C100.54 82.71 93.39 76.6 92.75 68.39Z" id="d40ykRyKR1"></path><path d="M92.75 68.39C92.11 60.22 98.23 53.06 106.42 52.42C114.59 51.79 121.75 57.91 122.39 66.08C123.04 74.28 116.91 81.43 108.73 82.06C100.54 82.71 93.39 76.6 92.75 68.39Z" id="c1O6tcGrZ"></path><path d="M46.62 286.34L56.21 285.59L72.79 284.3L82.38 283.55L83.94 303.6L48.2 306.39L46.62 286.34Z" id="aR0rnQUrT"></path><path d="M46.62 286.34L56.21 285.59L72.79 284.3L82.38 283.55L83.94 303.6L48.2 306.39L46.62 286.34Z" id="gHrIZwXyZ"></path><path d="M46.62 286.34L56.21 285.59L72.79 284.3L82.38 283.55L83.94 303.6L48.2 306.39L46.62 286.34Z" id="b7wrR7cN3j"></path><path d="M46.62 286.34L56.21 285.59L72.79 284.3L82.38 283.55L83.94 303.6L48.2 306.39L46.62 286.34Z" id="a45uOcxWG3"></path><path d="M113.76 281.1L123.35 280.35L139.9 279.05L149.5 278.31L151.07 298.36L115.32 301.14L113.76 281.1Z" id="ghy9jYvla"></path><path d="M113.76 281.1L123.35 280.35L139.9 279.05L149.5 278.31L151.07 298.36L115.32 301.14L113.76 281.1Z" id="a1CYP10szd"></path><path d="M113.76 281.1L123.35 280.35L139.9 279.05L149.5 278.31L151.07 298.36L115.32 301.14L113.76 281.1Z" id="cPz42a3V6"></path><path d="M113.76 281.1L123.35 280.35L139.9 279.05L149.5 278.31L151.07 298.36L115.32 301.14L113.76 281.1Z" id="a1uYSUP6v"></path><path d="M152.15 154.94C151.04 140.74 150.42 132.85 150.3 131.28C149.47 120.62 149 114.71 148.91 113.53C148.91 113.53 148.91 113.53 148.91 113.53C157.64 112.85 165.48 121.9 166.4 133.75C167.39 146.35 169.85 177.85 173.78 228.25C171.67 228.42 166.4 228.82 157.97 229.48C157.2 219.54 155.25 194.7 152.15 154.94Z" id="agE5L1T8J"></path><path d="M152.15 154.94C151.04 140.74 150.42 132.85 150.3 131.28C149.47 120.62 149 114.71 148.91 113.53C148.91 113.53 148.91 113.53 148.91 113.53C157.64 112.85 165.48 121.9 166.4 133.75C167.39 146.35 169.85 177.85 173.78 228.25C171.67 228.42 166.4 228.82 157.97 229.48C157.2 219.54 155.25 194.7 152.15 154.94Z" id="ehgOejr5v"></path><path d="M152.15 154.94C151.04 140.74 150.42 132.85 150.3 131.28C149.47 120.62 149 114.71 148.91 113.53C148.91 113.53 148.91 113.53 148.91 113.53C157.64 112.85 165.48 121.9 166.4 133.75C167.39 146.35 169.85 177.85 173.78 228.25C171.67 228.42 166.4 228.82 157.97 229.48C157.2 219.54 155.25 194.7 152.15 154.94Z" id="c3XMpFpVoM"></path><path d="M152.15 154.94C151.04 140.74 150.42 132.85 150.3 131.28C149.47 120.62 149 114.71 148.91 113.53C148.91 113.53 148.91 113.53 148.91 113.53C157.64 112.85 165.48 121.9 166.4 133.75C167.39 146.35 169.85 177.85 173.78 228.25C171.67 228.42 166.4 228.82 157.97 229.48C157.2 219.54 155.25 194.7 152.15 154.94Z" id="b2tb1AMREe"></path><path d="M132.51 184.44L115.95 185.73L115.95 185.74L65.39 189.69L65.39 189.68L48.82 190.97L48.82 190.98L37.06 191.91L34.03 153.21L32.67 135.77L31.65 122.69L53.44 120.99L117.08 116.01L138.88 114.31L139.89 127.38L141.26 144.83L141.26 144.83L144.28 183.52L132.51 184.45L132.51 184.44Z" id="a1kddGUCvu"></path><path d="M132.51 184.44L115.95 185.73L115.95 185.74L65.39 189.69L65.39 189.68L48.82 190.97L48.82 190.98L37.06 191.91L34.03 153.21L32.67 135.77L31.65 122.69L53.44 120.99L117.08 116.01L138.88 114.31L139.89 127.38L141.26 144.83L141.26 144.83L144.28 183.52L132.51 184.45L132.51 184.44Z" id="d1TxSGJgOa"></path><path d="M132.51 184.44L115.95 185.73L115.95 185.74L65.39 189.69L65.39 189.68L48.82 190.97L48.82 190.98L37.06 191.91L34.03 153.21L32.67 135.77L31.65 122.69L53.44 120.99L117.08 116.01L138.88 114.31L139.89 127.38L141.26 144.83L141.26 144.83L144.28 183.52L132.51 184.45L132.51 184.44Z" id="a1iImD0ana"></path><path d="M132.51 184.44L115.95 185.73L115.95 185.74L65.39 189.69L65.39 189.68L48.82 190.97L48.82 190.98L37.06 191.91L34.03 153.21L32.67 135.77L31.65 122.69L53.44 120.99L117.08 116.01L138.88 114.31L139.89 127.38L141.26 144.83L141.26 144.83L144.28 183.52L132.51 184.45L132.51 184.44Z" id="fkrFvGKbj"></path><path d="M55.91 190.42C55.91 190.42 55.91 190.42 55.91 190.42C44.6 191.3 38.31 191.8 37.06 191.9C37.06 191.9 37.06 191.9 37.06 191.9C33.81 150.38 32.01 127.3 31.65 122.69C31.65 122.69 31.65 122.69 31.65 122.69C42.96 121.81 49.25 121.32 50.51 121.22C50.51 121.22 50.51 121.22 50.51 121.22C53.75 162.74 55.55 185.8 55.91 190.42Z" id="f2qhGvO2qC"></path><path d="M55.91 190.42C55.91 190.42 55.91 190.42 55.91 190.42C44.6 191.3 38.31 191.8 37.06 191.9C37.06 191.9 37.06 191.9 37.06 191.9C33.81 150.38 32.01 127.3 31.65 122.69C31.65 122.69 31.65 122.69 31.65 122.69C42.96 121.81 49.25 121.32 50.51 121.22C50.51 121.22 50.51 121.22 50.51 121.22C53.75 162.74 55.55 185.8 55.91 190.42Z" id="a6r2IASZW5"></path><path d="M55.91 190.42C55.91 190.42 55.91 190.42 55.91 190.42C44.6 191.3 38.31 191.8 37.06 191.9C37.06 191.9 37.06 191.9 37.06 191.9C33.81 150.38 32.01 127.3 31.65 122.69C31.65 122.69 31.65 122.69 31.65 122.69C42.96 121.81 49.25 121.32 50.51 121.22C50.51 121.22 50.51 121.22 50.51 121.22C53.75 162.74 55.55 185.8 55.91 190.42Z" id="a1G2YuAB9J"></path><path d="M55.91 190.42C55.91 190.42 55.91 190.42 55.91 190.42C44.6 191.3 38.31 191.8 37.06 191.9C37.06 191.9 37.06 191.9 37.06 191.9C33.81 150.38 32.01 127.3 31.65 122.69C31.65 122.69 31.65 122.69 31.65 122.69C42.96 121.81 49.25 121.32 50.51 121.22C50.51 121.22 50.51 121.22 50.51 121.22C53.75 162.74 55.55 185.8 55.91 190.42Z" id="abCZwV6Mh"></path><path d="M56.76 90.39C67.26 89.57 75.14 80.35 74.32 69.84C73.51 59.33 64.29 51.45 53.77 52.27C43.27 53.09 35.38 62.31 36.2 72.81C37.03 83.33 46.25 91.21 56.76 90.39ZM56.09 81.9C50.25 82.36 45.14 77.99 44.68 72.16C44.23 66.32 48.6 61.2 54.44 60.75C60.27 60.29 65.39 64.67 65.85 70.49C66.3 76.34 61.93 81.45 56.09 81.9Z" id="a1KfPvHQgE"></path><path d="M56.76 90.39C67.26 89.57 75.14 80.35 74.32 69.84C73.51 59.33 64.29 51.45 53.77 52.27C43.27 53.09 35.38 62.31 36.2 72.81C37.03 83.33 46.25 91.21 56.76 90.39ZM56.09 81.9C50.25 82.36 45.14 77.99 44.68 72.16C44.23 66.32 48.6 61.2 54.44 60.75C60.27 60.29 65.39 64.67 65.85 70.49C66.3 76.34 61.93 81.45 56.09 81.9Z" id="b54XpjtKC"></path><path d="M56.76 90.39C67.26 89.57 75.14 80.35 74.32 69.84C73.51 59.33 64.29 51.45 53.77 52.27C43.27 53.09 35.38 62.31 36.2 72.81C37.03 83.33 46.25 91.21 56.76 90.39ZM56.09 81.9C50.25 82.36 45.14 77.99 44.68 72.16C44.23 66.32 48.6 61.2 54.44 60.75C60.27 60.29 65.39 64.67 65.85 70.49C66.3 76.34 61.93 81.45 56.09 81.9Z" id="a1GBSwEvv"></path><path d="M56.76 90.39C67.26 89.57 75.14 80.35 74.32 69.84C73.51 59.33 64.29 51.45 53.77 52.27C43.27 53.09 35.38 62.31 36.2 72.81C37.03 83.33 46.25 91.21 56.76 90.39ZM56.09 81.9C50.25 82.36 45.14 77.99 44.68 72.16C44.23 66.32 48.6 61.2 54.44 60.75C60.27 60.29 65.39 64.67 65.85 70.49C66.3 76.34 61.93 81.45 56.09 81.9Z" id="bPdlOHgTe"></path><path d="M88.51 68.73C89.34 79.24 98.55 87.12 109.06 86.3C119.57 85.49 127.46 76.26 126.63 65.74C125.81 55.25 116.58 47.37 106.08 48.18C95.58 49.01 87.69 58.23 88.51 68.73ZM96.98 68.06C96.53 62.23 100.91 57.11 106.74 56.66C112.58 56.21 117.69 60.58 118.15 66.41C118.61 72.26 114.24 77.36 108.39 77.82C102.57 78.27 97.44 73.91 96.98 68.06Z" id="ar9tAywWv"></path><path d="M88.51 68.73C89.34 79.24 98.55 87.12 109.06 86.3C119.57 85.49 127.46 76.26 126.63 65.74C125.81 55.25 116.58 47.37 106.08 48.18C95.58 49.01 87.69 58.23 88.51 68.73ZM96.98 68.06C96.53 62.23 100.91 57.11 106.74 56.66C112.58 56.21 117.69 60.58 118.15 66.41C118.61 72.26 114.24 77.36 108.39 77.82C102.57 78.27 97.44 73.91 96.98 68.06Z" id="f2x5Tw0gnt"></path><path d="M88.51 68.73C89.34 79.24 98.55 87.12 109.06 86.3C119.57 85.49 127.46 76.26 126.63 65.74C125.81 55.25 116.58 47.37 106.08 48.18C95.58 49.01 87.69 58.23 88.51 68.73ZM96.98 68.06C96.53 62.23 100.91 57.11 106.74 56.66C112.58 56.21 117.69 60.58 118.15 66.41C118.61 72.26 114.24 77.36 108.39 77.82C102.57 78.27 97.44 73.91 96.98 68.06Z" id="g1WwkyZfXk"></path><path d="M88.51 68.73C89.34 79.24 98.55 87.12 109.06 86.3C119.57 85.49 127.46 76.26 126.63 65.74C125.81 55.25 116.58 47.37 106.08 48.18C95.58 49.01 87.69 58.23 88.51 68.73ZM96.98 68.06C96.53 62.23 100.91 57.11 106.74 56.66C112.58 56.21 117.69 60.58 118.15 66.41C118.61 72.26 114.24 77.36 108.39 77.82C102.57 78.27 97.44 73.91 96.98 68.06Z" id="lwVX8WOGr"></path><path d="M116.77 136.97C119.11 136.79 120.87 134.74 120.68 132.4C120.5 130.06 118.46 128.3 116.11 128.49C113.77 128.67 112.02 130.72 112.2 133.07C112.38 135.4 114.42 137.15 116.77 136.97Z" id="fPZyygpH5"></path><path d="M116.77 136.97C119.11 136.79 120.87 134.74 120.68 132.4C120.5 130.06 118.46 128.3 116.11 128.49C113.77 128.67 112.02 130.72 112.2 133.07C112.38 135.4 114.42 137.15 116.77 136.97Z" id="bklSohwfS"></path><path d="M116.77 136.97C119.11 136.79 120.87 134.74 120.68 132.4C120.5 130.06 118.46 128.3 116.11 128.49C113.77 128.67 112.02 130.72 112.2 133.07C112.38 135.4 114.42 137.15 116.77 136.97Z" id="a3AS9a5gfT"></path><path d="M116.77 136.97C119.11 136.79 120.87 134.74 120.68 132.4C120.5 130.06 118.46 128.3 116.11 128.49C113.77 128.67 112.02 130.72 112.2 133.07C112.38 135.4 114.42 137.15 116.77 136.97Z" id="a5xvUxbR77"></path><path d="M57 141.64C59.35 141.46 61.09 139.41 60.91 137.07C60.72 134.73 58.68 132.97 56.34 133.16C53.99 133.34 52.25 135.39 52.43 137.74C52.62 140.07 54.66 141.82 57 141.64Z" id="clIUjgNLa"></path><path d="M57 141.64C59.35 141.46 61.09 139.41 60.91 137.07C60.72 134.73 58.68 132.97 56.34 133.16C53.99 133.34 52.25 135.39 52.43 137.74C52.62 140.07 54.66 141.82 57 141.64Z" id="aIHIFsB76"></path><path d="M57 141.64C59.35 141.46 61.09 139.41 60.91 137.07C60.72 134.73 58.68 132.97 56.34 133.16C53.99 133.34 52.25 135.39 52.43 137.74C52.62 140.07 54.66 141.82 57 141.64Z" id="eRdWwMqt9"></path><path d="M57 141.64C59.35 141.46 61.09 139.41 60.91 137.07C60.72 134.73 58.68 132.97 56.34 133.16C53.99 133.34 52.25 135.39 52.43 137.74C52.62 140.07 54.66 141.82 57 141.64Z" id="b25aecFr5"></path><path d="M77.2 15.32C81.26 15 84.29 11.45 83.97 7.4C83.66 3.35 80.12 0.31 76.05 0.63C72 0.94 68.97 4.5 69.28 8.55C69.59 12.6 73.15 15.64 77.2 15.32Z" id="cc6LdcEYw"></path><path d="M77.2 15.32C81.26 15 84.29 11.45 83.97 7.4C83.66 3.35 80.12 0.31 76.05 0.63C72 0.94 68.97 4.5 69.28 8.55C69.59 12.6 73.15 15.64 77.2 15.32Z" id="iPo2mZYMd"></path><path d="M77.2 15.32C81.26 15 84.29 11.45 83.97 7.4C83.66 3.35 80.12 0.31 76.05 0.63C72 0.94 68.97 4.5 69.28 8.55C69.59 12.6 73.15 15.64 77.2 15.32Z" id="dR6UCl1os"></path><path d="M77.2 15.32C81.26 15 84.29 11.45 83.97 7.4C83.66 3.35 80.12 0.31 76.05 0.63C72 0.94 68.97 4.5 69.28 8.55C69.59 12.6 73.15 15.64 77.2 15.32Z" id="ccGsh4KqN"></path><path d="M87.04 141.17C100.04 140.16 111.39 149.87 112.4 162.87C102.99 163.6 70.04 166.17 65.34 166.54C64.9 161.05 66.4 155.86 69.23 151.61C73.12 145.79 79.52 141.76 87.04 141.17Z" id="aNaa7431s"></path><path d="M87.04 141.17C100.04 140.16 111.39 149.87 112.4 162.87C102.99 163.6 70.04 166.17 65.34 166.54C64.9 161.05 66.4 155.86 69.23 151.61C73.12 145.79 79.52 141.76 87.04 141.17Z" id="d6Ae2CyDP"></path><path d="M87.04 141.17C100.04 140.16 111.39 149.87 112.4 162.87C102.99 163.6 70.04 166.17 65.34 166.54C64.9 161.05 66.4 155.86 69.23 151.61C73.12 145.79 79.52 141.76 87.04 141.17Z" id="a2ymImzM23"></path><path d="M87.04 141.17C100.04 140.16 111.39 149.87 112.4 162.87C102.99 163.6 70.04 166.17 65.34 166.54C64.9 161.05 66.4 155.86 69.23 151.61C73.12 145.79 79.52 141.76 87.04 141.17Z" id="c2U4us7LPj"></path><path d="M83.38 145.43C95.03 144.53 105.36 152.23 108.12 163.19C99.56 163.87 69.61 166.21 65.34 166.54C64.9 161.05 66.4 155.86 69.23 151.61C72.99 148.14 77.9 145.86 83.38 145.43Z" id="fD6Y3b7at"></path><path d="M83.38 145.43C95.03 144.53 105.36 152.23 108.12 163.19C99.56 163.87 69.61 166.21 65.34 166.54C64.9 161.05 66.4 155.86 69.23 151.61C72.99 148.14 77.9 145.86 83.38 145.43Z" id="d1LdqFTUdU"></path><path d="M83.38 145.43C95.03 144.53 105.36 152.23 108.12 163.19C99.56 163.87 69.61 166.21 65.34 166.54C64.9 161.05 66.4 155.86 69.23 151.61C72.99 148.14 77.9 145.86 83.38 145.43Z" id="b2lMGvblW"></path><path d="M70.37 227.65C76.93 239 186.97 234.44 195.2 225.2C203.44 215.96 174.1 124.87 139.72 117.5C105.35 110.15 56.62 203.83 70.37 227.65Z" id="a2ORNGoDMK"></path><path d="M142.7 106.5C150.67 101.95 163.19 95.91 169.54 100.16C175.99 104.49 165.42 110.58 168.37 118.18C169.02 125.51 165.49 131.43 162.31 128.71C162.31 128.71 153.45 117.9 147.17 115.73C143.98 114.63 138.46 119.62 137.07 116.16C135.31 111.8 138.35 108.94 142.7 106.5Z" id="a3OtlSKZmT"></path><path d="M121.98 124.85C123.81 128.02 105.78 141.79 99.64 152.48C96.7 157.61 90.42 169.34 92.2 169.82C94.42 170.42 108.12 144.33 106.89 147.18C106.89 147.18 95.44 167.89 97.71 168.49C100.47 169.23 127.3 121.14 130.95 119.03C133.52 117.55 124.85 119.5 122.28 120.97C109.53 128.27 91.84 153.2 91.84 153.2C91.84 153.2 121.07 123.27 121.98 124.85Z" id="gjywggZq2"></path><path d="M109.63 170.95C109.61 171.14 109.75 171.19 109.75 171.19C110.77 170.94 118 159.26 118.81 161.46C119.48 163.27 117.5 169.45 120.34 170.84C121.49 171.4 123.54 167.74 123.71 169.01C124.84 177.36 121.42 187.83 123.91 187.16C128.01 186.06 134.51 153.14 135.54 139.64C135.71 137.41 130.78 145.88 130.24 143.72C129.09 139.16 139.54 123.03 138.07 122.21C136.59 121.39 131.61 133.77 130.13 132.29C129.11 131.27 136.32 115.4 134.21 118.22C124.65 131.05 112.57 144.99 109.63 170.95Z" id="b1qcd7REnh"></path><path d="M147.68 182.57C147.53 192.21 146.95 142.75 150.84 153.81C152.76 159.26 152.39 185.39 155.35 188.7C157.48 191.08 156.46 160.03 153.8 146.06C152.23 137.84 148.84 127.03 145.44 122.4C144.1 120.59 148.59 129.51 146.42 130.07C143.45 130.84 142.39 119.11 141.83 122.11C140.92 127 147.76 177.28 147.68 182.57Z" id="aBQbTUr51"></path><path d="M167.15 162.79C173.41 168.22 164.71 145.07 161.34 138.62C157.96 132.16 145.96 118.94 148.79 124.54C150.05 127.03 165.1 161.01 167.15 162.79Z" id="aorqCbZ6a"></path><path d="M166.85 104.86C168 105.03 166.96 108.77 165.93 108.23C161.86 106.05 155.98 107.49 156.75 104.25C157.54 100.97 164.96 104.58 166.85 104.86Z" id="b40ORqcz7g"></path><path d="M165.01 115.67C160.28 115.94 139.71 105.9 146.76 107C157.15 108.63 164.93 104.36 165.01 115.67Z" id="bbSX0Utww"></path><path d="M166.95 120.87C168.44 122.46 162.45 125.28 161.03 123.63C160.12 122.55 151.65 116.1 149.61 113.22C147.45 110.17 164.59 118.35 166.95 120.87Z" id="dcKtxGsfg"></path><path d="M138.29 112.41C138.16 113.16 138.64 114.09 139.31 114.45C140.58 115.13 143.31 115.35 143.6 113.94C143.84 112.71 140.37 113.35 140.33 112.1C140.31 111.22 142.26 111.5 142.58 110.67C142.8 110.08 142.68 109.01 142.07 108.84C140.4 108.37 138.59 110.7 138.29 112.41Z" id="d33KSZQc4L"></path><path d="M83.38 145.43C95.03 144.53 105.36 152.23 108.12 163.19C99.56 163.87 69.61 166.21 65.34 166.54C64.9 161.05 66.4 155.86 69.23 151.61C72.99 148.14 77.9 145.86 83.38 145.43Z" id="fJRlKEUut"></path><path d="M115.93 119.29L99.75 127.9L99.75 127.9L115.93 119.29Z" id="aTfOhI1pg"></path><path d="M115.93 119.29L99.75 127.9L99.75 127.9L115.93 119.29Z" id="c1HaLavYl"></path><path d="M8.07 158.17C-0.52 149.95 -2.58 138.16 3.47 131.83C3.47 131.83 3.47 131.83 3.47 131.83C4.33 132.65 8.62 136.75 16.34 144.13C17.48 145.22 23.2 150.69 33.5 160.53C65.94 191.52 83.96 208.73 87.56 212.18C80.99 219.06 77.34 222.88 76.61 223.65C35.48 184.35 12.64 162.53 8.07 158.17Z" id="cjGjhhbTt"></path><path d="M8.07 158.17C-0.52 149.95 -2.58 138.16 3.47 131.83C3.47 131.83 3.47 131.83 3.47 131.83C4.33 132.65 8.62 136.75 16.34 144.13C17.48 145.22 23.2 150.69 33.5 160.53C65.94 191.52 83.96 208.73 87.56 212.18C80.99 219.06 77.34 222.88 76.61 223.65C35.48 184.35 12.64 162.53 8.07 158.17Z" id="dww3mlTuM"></path></defs><g><g><use xlink:href="#c13rf7xtE4" opacity="1" fill="#2ba5f7" fill-opacity="1"></use><g><use xlink:href="#c13rf7xtE4" opacity="1" fill-opacity="0" stroke="#000000" stroke-width="1" stroke-opacity="0"></use></g></g><g><use xlink:href="#fyh3q1UYr" opacity="1" fill="#000000" fill-opacity="0"></use><g><use xlink:href="#fyh3q1UYr" opacity="1" fill-opacity="0" stroke="#000000" stroke-width="1" stroke-opacity="0"></use></g></g><g><use xlink:href="#b4ccekisQI" opacity="1" fill="#000000" fill-opacity="0"></use><g><use xlink:href="#b4ccekisQI" opacity="1" fill-opacity="0" stroke="#000000" stroke-width="1" stroke-opacity="0"></use></g></g><g><use xlink:href="#b2q6VURK2v" opacity="1" fill="#000000" fill-opacity="0"></use><g><use xlink:href="#b2q6VURK2v" opacity="1" fill-opacity="0" stroke="#000000" stroke-width="1" stroke-opacity="0"></use></g></g><g><use xlink:href="#cJco4RcO0" opacity="1" fill="#e09b2d" fill-opacity="1"></use><g><use xlink:href="#cJco4RcO0" opacity="1" fill-opacity="0" stroke="#000000" stroke-width="1" stroke-opacity="0"></use></g></g><g><use xlink:href="#a6ma95fHG1" opacity="1" fill="#000000" fill-opacity="0"></use><g><use xlink:href="#a6ma95fHG1" opacity="1" fill-opacity="0" stroke="#000000" stroke-width="1" stroke-opacity="0"></use></g></g><g><use xlink:href="#d2Bc06Mea9" opacity="1" fill="#000000" fill-opacity="0"></use><g><use xlink:href="#d2Bc06Mea9" opacity="1" fill-opacity="0" stroke="#000000" stroke-width="1" stroke-opacity="0"></use></g></g><g><use xlink:href="#i5UVJVoF9d" opacity="1" fill="#000000" fill-opacity="0"></use><g><use xlink:href="#i5UVJVoF9d" opacity="1" fill-opacity="0" stroke="#000000" stroke-width="1" stroke-opacity="0"></use></g></g><g><use xlink:href="#fdOOdrHh8" opacity="1" fill="#f95428" fill-opacity="1"></use><g><use xlink:href="#fdOOdrHh8" opacity="1" fill-opacity="0" stroke="#000000" stroke-width="1" stroke-opacity="0"></use></g></g><g><use xlink:href="#g2CtF47Zgn" opacity="1" fill="#000000" fill-opacity="0"></use><g><use xlink:href="#g2CtF47Zgn" opacity="1" fill-opacity="0" stroke="#000000" stroke-width="1" stroke-opacity="0"></use></g></g><g><use xlink:href="#c4SJuztTEP" opacity="1" fill="#000000" fill-opacity="0"></use><g><use xlink:href="#c4SJuztTEP" opacity="1" fill-opacity="0" stroke="#000000" stroke-width="1" stroke-opacity="0"></use></g></g><g><use xlink:href="#fu2lyU4bg" opacity="1" fill="#000000" fill-opacity="0"></use><g><use xlink:href="#fu2lyU4bg" opacity="1" fill-opacity="0" stroke="#000000" stroke-width="1" stroke-opacity="0"></use></g></g><g><use xlink:href="#c1i4JufxEm" opacity="1" fill="#e54728" fill-opacity="1"></use><g><use xlink:href="#c1i4JufxEm" opacity="1" fill-opacity="0" stroke="#000000" stroke-width="1" stroke-opacity="0"></use></g></g><g><use xlink:href="#b1GRtOytso" opacity="1" fill="#000000" fill-opacity="0"></use><g><use xlink:href="#b1GRtOytso" opacity="1" fill-opacity="0" stroke="#000000" stroke-width="1" stroke-opacity="0"></use></g></g><g><use xlink:href="#d1YEVmMFRC" opacity="1" fill="#000000" fill-opacity="0"></use><g><use xlink:href="#d1YEVmMFRC" opacity="1" fill-opacity="0" stroke="#000000" stroke-width="1" stroke-opacity="0"></use></g></g><g><use xlink:href="#b3T3IFuyft" opacity="1" fill="#000000" fill-opacity="0"></use><g><use xlink:href="#b3T3IFuyft" opacity="1" fill-opacity="0" stroke="#000000" stroke-width="1" stroke-opacity="0"></use></g></g><g><use xlink:href="#b2HgpbSfcN" opacity="1" fill="#f7b239" fill-opacity="1"></use><g><use xlink:href="#b2HgpbSfcN" opacity="1" fill-opacity="0" stroke="#000000" stroke-width="1" stroke-opacity="0"></use></g></g><g><use xlink:href="#a12hrJ1SSL" opacity="1" fill="#000000" fill-opacity="0"></use><g><use xlink:href="#a12hrJ1SSL" opacity="1" fill-opacity="0" stroke="#000000" stroke-width="1" stroke-opacity="0"></use></g></g><g><use xlink:href="#aNsKOrptu" opacity="1" fill="#000000" fill-opacity="0"></use><g><use xlink:href="#aNsKOrptu" opacity="1" fill-opacity="0" stroke="#000000" stroke-width="1" stroke-opacity="0"></use></g></g><g><use xlink:href="#a2VrK5CRW" opacity="1" fill="#000000" fill-opacity="0"></use><g><use xlink:href="#a2VrK5CRW" opacity="1" fill-opacity="0" stroke="#000000" stroke-width="1" stroke-opacity="0"></use></g></g><g><use xlink:href="#c1CLC7trzc" opacity="1" fill="#f7b239" fill-opacity="1"></use><g><use xlink:href="#c1CLC7trzc" opacity="1" fill-opacity="0" stroke="#000000" stroke-width="1" stroke-opacity="0"></use></g></g><g><use xlink:href="#b8UMLbPXi" opacity="1" fill="#000000" fill-opacity="0"></use><g><use xlink:href="#b8UMLbPXi" opacity="1" fill-opacity="0" stroke="#000000" stroke-width="1" stroke-opacity="0"></use></g></g><g><use xlink:href="#cEQPfFkCo" opacity="1" fill="#000000" fill-opacity="0"></use><g><use xlink:href="#cEQPfFkCo" opacity="1" fill-opacity="0" stroke="#000000" stroke-width="1" stroke-opacity="0"></use></g></g><g><use xlink:href="#c8dkuPDYTk" opacity="1" fill="#000000" fill-opacity="0"></use><g><use xlink:href="#c8dkuPDYTk" opacity="1" fill-opacity="0" stroke="#000000" stroke-width="1" stroke-opacity="0"></use></g></g><g><use xlink:href="#btSWFdham" opacity="1" fill="#e09b2d" fill-opacity="1"></use><g><use xlink:href="#btSWFdham" opacity="1" fill-opacity="0" stroke="#000000" stroke-width="1" stroke-opacity="0"></use></g></g><g><use xlink:href="#gDao3c38" opacity="1" fill="#000000" fill-opacity="0"></use><g><use xlink:href="#gDao3c38" opacity="1" fill-opacity="0" stroke="#000000" stroke-width="1" stroke-opacity="0"></use></g></g><g><use xlink:href="#a1TKNQnACO" opacity="1" fill="#000000" fill-opacity="0"></use><g><use xlink:href="#a1TKNQnACO" opacity="1" fill-opacity="0" stroke="#000000" stroke-width="1" stroke-opacity="0"></use></g></g><g><use xlink:href="#alYXOITOt" opacity="1" fill="#000000" fill-opacity="0"></use><g><use xlink:href="#alYXOITOt" opacity="1" fill-opacity="0" stroke="#000000" stroke-width="1" stroke-opacity="0"></use></g></g><g><use xlink:href="#a2IUoZ23FB" opacity="1" fill="#f7b239" fill-opacity="1"></use><g><use xlink:href="#a2IUoZ23FB" opacity="1" fill-opacity="0" stroke="#000000" stroke-width="1" stroke-opacity="0"></use></g></g><g><use xlink:href="#b11iENzTmN" opacity="1" fill="#000000" fill-opacity="0"></use><g><use xlink:href="#b11iENzTmN" opacity="1" fill-opacity="0" stroke="#000000" stroke-width="1" stroke-opacity="0"></use></g></g><g><use xlink:href="#dWlnYKPdz" opacity="1" fill="#000000" fill-opacity="0"></use><g><use xlink:href="#dWlnYKPdz" opacity="1" fill-opacity="0" stroke="#000000" stroke-width="1" stroke-opacity="0"></use></g></g><g><use xlink:href="#aBy1BXnDL" opacity="1" fill="#000000" fill-opacity="0"></use><g><use xlink:href="#aBy1BXnDL" opacity="1" fill-opacity="0" stroke="#000000" stroke-width="1" stroke-opacity="0"></use></g></g><g><use xlink:href="#b1rqpPvRa" opacity="1" fill="#f7b239" fill-opacity="1"></use><g><use xlink:href="#b1rqpPvRa" opacity="1" fill-opacity="0" stroke="#000000" stroke-width="1" stroke-opacity="0"></use></g></g><g><use xlink:href="#d5TUf2kIjk" opacity="1" fill="#000000" fill-opacity="0"></use><g><use xlink:href="#d5TUf2kIjk" opacity="1" fill-opacity="0" stroke="#000000" stroke-width="1" stroke-opacity="0"></use></g></g><g><use xlink:href="#c4dp6fPVxG" opacity="1" fill="#000000" fill-opacity="0"></use><g><use xlink:href="#c4dp6fPVxG" opacity="1" fill-opacity="0" stroke="#000000" stroke-width="1" stroke-opacity="0"></use></g></g><g><use xlink:href="#dBPlyJaKc" opacity="1" fill="#000000" fill-opacity="0"></use><g><use xlink:href="#dBPlyJaKc" opacity="1" fill-opacity="0" stroke="#000000" stroke-width="1" stroke-opacity="0"></use></g></g><g><use xlink:href="#d7PwwNbx3I" opacity="1" fill="#f7b239" fill-opacity="1"></use><g><use xlink:href="#d7PwwNbx3I" opacity="1" fill-opacity="0" stroke="#000000" stroke-width="1" stroke-opacity="0"></use></g></g><g><use xlink:href="#fdOw1Gum" opacity="1" fill="#000000" fill-opacity="0"></use><g><use xlink:href="#fdOw1Gum" opacity="1" fill-opacity="0" stroke="#000000" stroke-width="1" stroke-opacity="0"></use></g></g><g><use xlink:href="#ncFfNmpHv" opacity="1" fill="#000000" fill-opacity="0"></use><g><use xlink:href="#ncFfNmpHv" opacity="1" fill-opacity="0" stroke="#000000" stroke-width="1" stroke-opacity="0"></use></g></g><g><use xlink:href="#lTdjSWVan" opacity="1" fill="#000000" fill-opacity="0"></use><g><use xlink:href="#lTdjSWVan" opacity="1" fill-opacity="0" stroke="#000000" stroke-width="1" stroke-opacity="0"></use></g></g><g><use xlink:href="#bcnF8WJIW" opacity="1" fill="#f7b239" fill-opacity="1"></use><g><use xlink:href="#bcnF8WJIW" opacity="1" fill-opacity="0" stroke="#000000" stroke-width="1" stroke-opacity="0"></use></g></g><g><use xlink:href="#gD3rIL7m5" opacity="1" fill="#000000" fill-opacity="0"></use><g><use xlink:href="#gD3rIL7m5" opacity="1" fill-opacity="0" stroke="#000000" stroke-width="1" stroke-opacity="0"></use></g></g><g><use xlink:href="#d40ykRyKR1" opacity="1" fill="#000000" fill-opacity="0"></use><g><use xlink:href="#d40ykRyKR1" opacity="1" fill-opacity="0" stroke="#000000" stroke-width="1" stroke-opacity="0"></use></g></g><g><use xlink:href="#c1O6tcGrZ" opacity="1" fill="#000000" fill-opacity="0"></use><g><use xlink:href="#c1O6tcGrZ" opacity="1" fill-opacity="0" stroke="#000000" stroke-width="1" stroke-opacity="0"></use></g></g><g><use xlink:href="#aR0rnQUrT" opacity="1" fill="#f95428" fill-opacity="1"></use><g><use xlink:href="#aR0rnQUrT" opacity="1" fill-opacity="0" stroke="#000000" stroke-width="1" stroke-opacity="0"></use></g></g><g><use xlink:href="#gHrIZwXyZ" opacity="1" fill="#000000" fill-opacity="0"></use><g><use xlink:href="#gHrIZwXyZ" opacity="1" fill-opacity="0" stroke="#000000" stroke-width="1" stroke-opacity="0"></use></g></g><g><use xlink:href="#b7wrR7cN3j" opacity="1" fill="#000000" fill-opacity="0"></use><g><use xlink:href="#b7wrR7cN3j" opacity="1" fill-opacity="0" stroke="#000000" stroke-width="1" stroke-opacity="0"></use></g></g><g><use xlink:href="#a45uOcxWG3" opacity="1" fill="#000000" fill-opacity="0"></use><g><use xlink:href="#a45uOcxWG3" opacity="1" fill-opacity="0" stroke="#000000" stroke-width="1" stroke-opacity="0"></use></g></g><g><use xlink:href="#ghy9jYvla" opacity="1" fill="#f95428" fill-opacity="1"></use><g><use xlink:href="#ghy9jYvla" opacity="1" fill-opacity="0" stroke="#000000" stroke-width="1" stroke-opacity="0"></use></g></g><g><use xlink:href="#a1CYP10szd" opacity="1" fill="#000000" fill-opacity="0"></use><g><use xlink:href="#a1CYP10szd" opacity="1" fill-opacity="0" stroke="#000000" stroke-width="1" stroke-opacity="0"></use></g></g><g><use xlink:href="#cPz42a3V6" opacity="1" fill="#000000" fill-opacity="0"></use><g><use xlink:href="#cPz42a3V6" opacity="1" fill-opacity="0" stroke="#000000" stroke-width="1" stroke-opacity="0"></use></g></g><g><use xlink:href="#a1uYSUP6v" opacity="1" fill="#000000" fill-opacity="0"></use><g><use xlink:href="#a1uYSUP6v" opacity="1" fill-opacity="0" stroke="#000000" stroke-width="1" stroke-opacity="0"></use></g></g><g><use xlink:href="#agE5L1T8J" opacity="1" fill="#f95428" fill-opacity="1"></use><g><use xlink:href="#agE5L1T8J" opacity="1" fill-opacity="0" stroke="#000000" stroke-width="1" stroke-opacity="0"></use></g></g><g><use xlink:href="#ehgOejr5v" opacity="1" fill="#000000" fill-opacity="0"></use><g><use xlink:href="#ehgOejr5v" opacity="1" fill-opacity="0" stroke="#000000" stroke-width="1" stroke-opacity="0"></use></g></g><g><use xlink:href="#c3XMpFpVoM" opacity="1" fill="#000000" fill-opacity="0"></use><g><use xlink:href="#c3XMpFpVoM" opacity="1" fill-opacity="0" stroke="#000000" stroke-width="1" stroke-opacity="0"></use></g></g><g><use xlink:href="#b2tb1AMREe" opacity="1" fill="#000000" fill-opacity="0"></use><g><use xlink:href="#b2tb1AMREe" opacity="1" fill-opacity="0" stroke="#000000" stroke-width="1" stroke-opacity="0"></use></g></g><g><use xlink:href="#a1kddGUCvu" opacity="1" fill="#2ba5f7" fill-opacity="1"></use><g><use xlink:href="#a1kddGUCvu" opacity="1" fill-opacity="0" stroke="#000000" stroke-width="1" stroke-opacity="0"></use></g></g><g><use xlink:href="#d1TxSGJgOa" opacity="1" fill="#000000" fill-opacity="0"></use><g><use xlink:href="#d1TxSGJgOa" opacity="1" fill-opacity="0" stroke="#000000" stroke-width="1" stroke-opacity="0"></use></g></g><g><use xlink:href="#a1iImD0ana" opacity="1" fill="#000000" fill-opacity="0"></use><g><use xlink:href="#a1iImD0ana" opacity="1" fill-opacity="0" stroke="#000000" stroke-width="1" stroke-opacity="0"></use></g></g><g><use xlink:href="#fkrFvGKbj" opacity="1" fill="#000000" fill-opacity="0"></use><g><use xlink:href="#fkrFvGKbj" opacity="1" fill-opacity="0" stroke="#000000" stroke-width="1" stroke-opacity="0"></use></g></g><g><use xlink:href="#f2qhGvO2qC" opacity="1" fill="#2197d8" fill-opacity="1"></use><g><use xlink:href="#f2qhGvO2qC" opacity="1" fill-opacity="0" stroke="#000000" stroke-width="1" stroke-opacity="0"></use></g></g><g><use xlink:href="#a6r2IASZW5" opacity="1" fill="#000000" fill-opacity="0"></use><g><use xlink:href="#a6r2IASZW5" opacity="1" fill-opacity="0" stroke="#000000" stroke-width="1" stroke-opacity="0"></use></g></g><g><use xlink:href="#a1G2YuAB9J" opacity="1" fill="#000000" fill-opacity="0"></use><g><use xlink:href="#a1G2YuAB9J" opacity="1" fill-opacity="0" stroke="#000000" stroke-width="1" stroke-opacity="0"></use></g></g><g><use xlink:href="#abCZwV6Mh" opacity="1" fill="#000000" fill-opacity="0"></use><g><use xlink:href="#abCZwV6Mh" opacity="1" fill-opacity="0" stroke="#000000" stroke-width="1" stroke-opacity="0"></use></g></g><g><use xlink:href="#a1KfPvHQgE" opacity="1" fill="#4d4d4d" fill-opacity="1"></use><g><use xlink:href="#a1KfPvHQgE" opacity="1" fill-opacity="0" stroke="#000000" stroke-width="1" stroke-opacity="0"></use></g></g><g><use xlink:href="#b54XpjtKC" opacity="1" fill="#000000" fill-opacity="0"></use><g><use xlink:href="#b54XpjtKC" opacity="1" fill-opacity="0" stroke="#000000" stroke-width="1" stroke-opacity="0"></use></g></g><g><use xlink:href="#a1GBSwEvv" opacity="1" fill="#000000" fill-opacity="0"></use><g><use xlink:href="#a1GBSwEvv" opacity="1" fill-opacity="0" stroke="#000000" stroke-width="1" stroke-opacity="0"></use></g></g><g><use xlink:href="#bPdlOHgTe" opacity="1" fill="#000000" fill-opacity="0"></use><g><use xlink:href="#bPdlOHgTe" opacity="1" fill-opacity="0" stroke="#000000" stroke-width="1" stroke-opacity="0"></use></g></g><g><use xlink:href="#ar9tAywWv" opacity="1" fill="#4d4d4d" fill-opacity="1"></use><g><use xlink:href="#ar9tAywWv" opacity="1" fill-opacity="0" stroke="#000000" stroke-width="1" stroke-opacity="0"></use></g></g><g><use xlink:href="#f2x5Tw0gnt" opacity="1" fill="#000000" fill-opacity="0"></use><g><use xlink:href="#f2x5Tw0gnt" opacity="1" fill-opacity="0" stroke="#000000" stroke-width="1" stroke-opacity="0"></use></g></g><g><use xlink:href="#g1WwkyZfXk" opacity="1" fill="#000000" fill-opacity="0"></use><g><use xlink:href="#g1WwkyZfXk" opacity="1" fill-opacity="0" stroke="#000000" stroke-width="1" stroke-opacity="0"></use></g></g><g><use xlink:href="#lwVX8WOGr" opacity="1" fill="#000000" fill-opacity="0"></use><g><use xlink:href="#lwVX8WOGr" opacity="1" fill-opacity="0" stroke="#000000" stroke-width="1" stroke-opacity="0"></use></g></g><g><use xlink:href="#fPZyygpH5" opacity="1" fill="#4d4d4d" fill-opacity="1"></use><g><use xlink:href="#fPZyygpH5" opacity="1" fill-opacity="0" stroke="#000000" stroke-width="1" stroke-opacity="0"></use></g></g><g><use xlink:href="#bklSohwfS" opacity="1" fill="#000000" fill-opacity="0"></use><g><use xlink:href="#bklSohwfS" opacity="1" fill-opacity="0" stroke="#000000" stroke-width="1" stroke-opacity="0"></use></g></g><g><use xlink:href="#a3AS9a5gfT" opacity="1" fill="#000000" fill-opacity="0"></use><g><use xlink:href="#a3AS9a5gfT" opacity="1" fill-opacity="0" stroke="#000000" stroke-width="1" stroke-opacity="0"></use></g></g><g><use xlink:href="#a5xvUxbR77" opacity="1" fill="#000000" fill-opacity="0"></use><g><use xlink:href="#a5xvUxbR77" opacity="1" fill-opacity="0" stroke="#000000" stroke-width="1" stroke-opacity="0"></use></g></g><g><use xlink:href="#clIUjgNLa" opacity="1" fill="#4d4d4d" fill-opacity="1"></use><g><use xlink:href="#clIUjgNLa" opacity="1" fill-opacity="0" stroke="#000000" stroke-width="1" stroke-opacity="0"></use></g></g><g><use xlink:href="#aIHIFsB76" opacity="1" fill="#000000" fill-opacity="0"></use><g><use xlink:href="#aIHIFsB76" opacity="1" fill-opacity="0" stroke="#000000" stroke-width="1" stroke-opacity="0"></use></g></g><g><use xlink:href="#eRdWwMqt9" opacity="1" fill="#000000" fill-opacity="0"></use><g><use xlink:href="#eRdWwMqt9" opacity="1" fill-opacity="0" stroke="#000000" stroke-width="1" stroke-opacity="0"></use></g></g><g><use xlink:href="#b25aecFr5" opacity="1" fill="#000000" fill-opacity="0"></use><g><use xlink:href="#b25aecFr5" opacity="1" fill-opacity="0" stroke="#000000" stroke-width="1" stroke-opacity="0"></use></g></g><g><use xlink:href="#cc6LdcEYw" opacity="1" fill="#f7b239" fill-opacity="1"></use><g><use xlink:href="#cc6LdcEYw" opacity="1" fill-opacity="0" stroke="#000000" stroke-width="1" stroke-opacity="0"></use></g></g><g><use xlink:href="#iPo2mZYMd" opacity="1" fill="#000000" fill-opacity="0"></use><g><use xlink:href="#iPo2mZYMd" opacity="1" fill-opacity="0" stroke="#000000" stroke-width="1" stroke-opacity="0"></use></g></g><g><use xlink:href="#dR6UCl1os" opacity="1" fill="#000000" fill-opacity="0"></use><g><use xlink:href="#dR6UCl1os" opacity="1" fill-opacity="0" stroke="#000000" stroke-width="1" stroke-opacity="0"></use></g></g><g><use xlink:href="#ccGsh4KqN" opacity="1" fill="#000000" fill-opacity="0"></use><g><use xlink:href="#ccGsh4KqN" opacity="1" fill-opacity="0" stroke="#000000" stroke-width="1" stroke-opacity="0"></use></g></g><g><use xlink:href="#aNaa7431s" opacity="1" fill="#e09b2d" fill-opacity="1"></use><g><use xlink:href="#aNaa7431s" opacity="1" fill-opacity="0" stroke="#000000" stroke-width="1" stroke-opacity="0"></use></g></g><g><use xlink:href="#d6Ae2CyDP" opacity="1" fill="#000000" fill-opacity="0"></use><g><use xlink:href="#d6Ae2CyDP" opacity="1" fill-opacity="0" stroke="#000000" stroke-width="1" stroke-opacity="0"></use></g></g><g><use xlink:href="#a2ymImzM23" opacity="1" fill="#000000" fill-opacity="0"></use><g><use xlink:href="#a2ymImzM23" opacity="1" fill-opacity="0" stroke="#000000" stroke-width="1" stroke-opacity="0"></use></g></g><g><use xlink:href="#c2U4us7LPj" opacity="1" fill="#000000" fill-opacity="0"></use><g><use xlink:href="#c2U4us7LPj" opacity="1" fill-opacity="0" stroke="#000000" stroke-width="1" stroke-opacity="0"></use></g></g><g><use xlink:href="#fD6Y3b7at" opacity="1" fill="#f7b239" fill-opacity="1"></use><g><use xlink:href="#fD6Y3b7at" opacity="1" fill-opacity="0" stroke="#000000" stroke-width="1" stroke-opacity="0"></use></g></g><g><use xlink:href="#d1LdqFTUdU" opacity="1" fill="#000000" fill-opacity="0"></use><g><use xlink:href="#d1LdqFTUdU" opacity="1" fill-opacity="0" stroke="#000000" stroke-width="1" stroke-opacity="0"></use></g></g><g><use xlink:href="#b2lMGvblW" opacity="1" fill="#000000" fill-opacity="0"></use><g><use xlink:href="#b2lMGvblW" opacity="1" fill-opacity="0" stroke="#000000" stroke-width="1" stroke-opacity="0"></use></g></g><g><use xlink:href="#a2ORNGoDMK" opacity="1" fill="#000000" fill-opacity="1"></use><g><use xlink:href="#a2ORNGoDMK" opacity="1" fill-opacity="0" stroke="#000000" stroke-width="1" stroke-opacity="0"></use></g></g><g><use xlink:href="#a3OtlSKZmT" opacity="1" fill="#000000" fill-opacity="1"></use><g><use xlink:href="#a3OtlSKZmT" opacity="1" fill-opacity="0" stroke="#000000" stroke-width="1" stroke-opacity="0"></use></g></g><g><use xlink:href="#gjywggZq2" opacity="1" fill="#595758" fill-opacity="1"></use><g><use xlink:href="#gjywggZq2" opacity="1" fill-opacity="0" stroke="#000000" stroke-width="1" stroke-opacity="0"></use></g></g><g><use xlink:href="#b1qcd7REnh" opacity="1" fill="#595758" fill-opacity="1"></use><g><use xlink:href="#b1qcd7REnh" opacity="1" fill-opacity="0" stroke="#000000" stroke-width="1" stroke-opacity="0"></use></g></g><g><use xlink:href="#aBQbTUr51" opacity="1" fill="#595758" fill-opacity="1"></use><g><use xlink:href="#aBQbTUr51" opacity="1" fill-opacity="0" stroke="#000000" stroke-width="1" stroke-opacity="0"></use></g></g><g><use xlink:href="#aorqCbZ6a" opacity="1" fill="#595758" fill-opacity="1"></use><g><use xlink:href="#aorqCbZ6a" opacity="1" fill-opacity="0" stroke="#000000" stroke-width="1" stroke-opacity="0"></use></g></g><g><use xlink:href="#b40ORqcz7g" opacity="1" fill="#595758" fill-opacity="1"></use><g><use xlink:href="#b40ORqcz7g" opacity="1" fill-opacity="0" stroke="#000000" stroke-width="1" stroke-opacity="0"></use></g></g><g><use xlink:href="#bbSX0Utww" opacity="1" fill="#595758" fill-opacity="1"></use><g><use xlink:href="#bbSX0Utww" opacity="1" fill-opacity="0" stroke="#000000" stroke-width="1" stroke-opacity="0"></use></g></g><g><use xlink:href="#dcKtxGsfg" opacity="1" fill="#595758" fill-opacity="1"></use><g><use xlink:href="#dcKtxGsfg" opacity="1" fill-opacity="0" stroke="#000000" stroke-width="1" stroke-opacity="0"></use></g></g><g><use xlink:href="#d33KSZQc4L" opacity="1" fill="#595758" fill-opacity="1"></use><g><use xlink:href="#d33KSZQc4L" opacity="1" fill-opacity="0" stroke="#000000" stroke-width="1" stroke-opacity="0"></use></g></g><g><use xlink:href="#fJRlKEUut" opacity="1" fill="#000000" fill-opacity="0"></use><g><use xlink:href="#fJRlKEUut" opacity="1" fill-opacity="0" stroke="#000000" stroke-width="1" stroke-opacity="0"></use></g></g><g><use xlink:href="#aTfOhI1pg" opacity="1" fill="#ffffff" fill-opacity="1"></use><g><use xlink:href="#aTfOhI1pg" opacity="1" fill-opacity="0" stroke="#000000" stroke-width="1" stroke-opacity="0"></use></g></g><g><use xlink:href="#c1HaLavYl" opacity="1" fill="#000000" fill-opacity="0"></use><g><use xlink:href="#c1HaLavYl" opacity="1" fill-opacity="0" stroke="#000000" stroke-width="1" stroke-opacity="0"></use></g></g><g><use xlink:href="#cjGjhhbTt" opacity="1" fill="#f95428" fill-opacity="1"></use><g><use xlink:href="#cjGjhhbTt" opacity="1" fill-opacity="0" stroke="#000000" stroke-width="1" stroke-opacity="0"></use></g></g><g><use xlink:href="#dww3mlTuM" opacity="1" fill="#000000" fill-opacity="0"></use><g><use xlink:href="#dww3mlTuM" opacity="1" fill-opacity="0" stroke="#000000" stroke-width="1" stroke-opacity="0"></use></g></g></g></svg>