<?xml version="1.0" encoding="iso-8859-1"?>
<!-- Generator: Adobe Illustrator 19.0.0, SVG Export Plug-In . SVG Version: 6.00 Build 0)  -->
<svg version="1.1" id="Layer_1" xmlns="http://www.w3.org/2000/svg" xmlns:xlink="http://www.w3.org/1999/xlink" x="0px" y="0px"
	 viewBox="0 0 512 512" style="enable-background:new 0 0 512 512;" xml:space="preserve">
<g>
	<g>
		<path d="M469.492,350.304c-27.2-38.193-64.762-66.834-108.626-82.828c-0.001,0-0.003-0.001-0.004-0.002
			c-25.204-9.189-51.699-13.849-78.75-13.849c-27.051,0-53.547,4.659-78.75,13.849c-0.002,0-0.003,0.001-0.005,0.002
			c-11.876,4.331-23.381,9.674-34.397,15.914v-78.67c0-5.656-4.584-10.24-10.24-10.24H10.24C4.584,194.48,0,199.065,0,204.72v209.92
			c0,5.656,4.584,10.24,10.24,10.24h49.537c-5.013,19.055-7.553,38.721-7.553,58.633c0,5.656,4.584,10.24,10.24,10.24H501.76
			c5.656,0,10.24-4.584,10.24-10.24C512,435.416,497.302,389.354,469.492,350.304z M70.819,214.96h27.322v10.24H70.819V214.96z
			 M20.48,404.4V214.96h29.859v20.48c0,5.656,4.584,10.24,10.24,10.24h47.803c5.656,0,10.24-4.584,10.24-10.24v-20.48h29.858V404.4
			H20.48z M271.873,473.273H72.95c0.793-16.461,3.505-32.674,8.08-48.393h77.69c5.656,0,10.24-4.584,10.24-10.24V307.281
			c10.369-6.67,21.305-12.412,32.655-17.144c6.798,12.837,16.565,23.86,28.646,32.243c12.453,8.641,26.674,13.957,41.611,15.627
			V473.273z M221.131,283.123c19.688-5.988,40.151-9.017,60.981-9.017c20.83,0,41.293,3.029,60.981,9.017
			c-12.52,21.547-35.447,34.976-60.981,34.976S233.651,304.669,221.131,283.123z M292.352,473.272V338.007
			c14.937-1.669,29.157-6.986,41.611-15.627c12.081-8.384,21.848-19.407,28.646-32.244c74.348,30.983,124.701,102.7,128.659,183.136
			H292.352z"/>
	</g>
</g>
<g>
	<g>
		<path d="M388.05,128.635c0-0.002,0-0.003,0-0.005c-0.306-60.867-50.072-110.383-110.943-110.383
			c-57.441,0-104.985,44.094-110.419,100.209H90.717c-5.656,0-10.24,4.584-10.24,10.24c0,5.656,4.584,10.241,10.24,10.241h75.871
			c4.949,56.633,52.621,101.211,110.517,101.211c61.178,0,110.95-49.772,110.95-110.95L388.05,128.635z M277.106,38.727
			c46.162,0,84.489,34.918,89.829,79.729H187.277C192.616,73.645,230.945,38.727,277.106,38.727z M277.106,219.667
			c-16.585,0-32.13-4.505-45.51-12.331h13.274c5.656,0,10.24-4.584,10.24-10.24c0-5.656-4.584-10.24-10.24-10.24h-37.394
			c-4.52-5.451-8.405-11.441-11.563-17.858h6.035c5.656,0,10.24-4.584,10.24-10.24c0-5.656-4.584-10.24-10.24-10.24h-13.202
			c-0.687-3.14-1.231-6.331-1.582-9.583h179.89C362.185,184.261,323.703,219.667,277.106,219.667z"/>
	</g>
</g>
<g>
	<g>
		<path d="M316.416,357.376c-5.656,0-10.24,4.584-10.24,10.24v13.312c0,5.656,4.584,10.24,10.24,10.24s10.24-4.584,10.24-10.24
			v-13.312C326.656,361.96,322.072,357.376,316.416,357.376z"/>
	</g>
</g>
<g>
	<g>
		<path d="M316.416,420.864c-5.656,0-10.24,4.584-10.24,10.24v13.312c0,5.656,4.584,10.24,10.24,10.24s10.24-4.584,10.24-10.24
			v-13.312C326.656,425.448,322.072,420.864,316.416,420.864z"/>
	</g>
</g>
<g>
	<g>
		<path d="M40.96,302.08c-5.656,0-10.24,4.584-10.24,10.24V384c0,5.656,4.584,10.24,10.24,10.24c5.656,0,10.24-4.584,10.24-10.24
			v-71.68C51.2,306.664,46.616,302.08,40.96,302.08z"/>
	</g>
</g>
<g>
	<g>
		<path d="M40.96,265.216c-5.656,0-10.24,4.584-10.24,10.24v6.144c0,5.656,4.584,10.24,10.24,10.24c5.656,0,10.24-4.584,10.24-10.24
			v-6.144C51.2,269.8,46.616,265.216,40.96,265.216z"/>
	</g>
</g>
<g>
</g>
<g>
</g>
<g>
</g>
<g>
</g>
<g>
</g>
<g>
</g>
<g>
</g>
<g>
</g>
<g>
</g>
<g>
</g>
<g>
</g>
<g>
</g>
<g>
</g>
<g>
</g>
<g>
</g>
</svg>
