<?xml version="1.0" encoding="UTF-8" standalone="no"?>
<!DOCTYPE svg PUBLIC "-//W3C//DTD SVG 1.1//EN" "http://www.w3.org/Graphics/SVG/1.1/DTD/svg11.dtd">
<svg version="1.1" xmlns="http://www.w3.org/2000/svg" xmlns:xlink="http://www.w3.org/1999/xlink" preserveAspectRatio="xMidYMid meet" viewBox="44 13.749999999999996 554 614.25" width="550" height="610.25"><defs><path d="M227.5 70.5L207 93.5L162 105.5L50 165L50 458.5L322 620L590 458.5L590 165L322 20L227.5 70.5Z" id="fkJO5NMA8"></path><path d="M424.5 255L424.5 315L491.5 278.5L491.5 218L227.5 70.5L162 105.5L424.5 255Z" id="d4ktFqmmXK"></path><path d="M319.5 624.5C292.3 608.35 74.7 479.15 47.5 463C46 462 45 460 45 458.5C45 429.15 45 194.35 45 165C45 163 46 161.5 47.5 160.5C49 159.5 51 159.5 52.5 160.5C79.7 175 297.3 291 324.5 305.5C327 307 328 310 326.5 312.5C325 315 322 316 319.5 315C301.87 305.57 213.7 258.4 55 173.5L55 455.5L322 614L585 455.5C585 281.2 585 184.37 585 165C585 162 587 160 590 160C593 160 595 162 595 165C595 194.35 595 429.15 595 458.5C595 460.5 594 462 592.5 463C565.7 479.15 351.3 608.35 324.5 624.5C324 625 323 625 322 625C321 625 320 625 319.5 624.5Z" id="a1HErOLvEI"></path><path d="M590 458.5L590 165L322 310.5L322 620L590 458.5Z" id="f1Z4WrIKBy"></path><path d="M162 105.5L225 72L162 105.5L162 105.5Z" id="cOcf87jIW"></path><path d="M319.5 624.5C292.3 608.35 74.7 479.15 47.5 463C46 462 45 460 45 458.5C45 429.15 45 194.35 45 165C45 163 46 161.5 47.5 160.5C58.7 154.5 148.3 106.5 159.5 100.5C162 99 165 100 166.5 102.5C168 105 167 108 164.5 109.5C157.2 113.4 120.7 132.9 55 168L55 455.5L322 614L585 455.5L585 168L322 25.5C266.5 55.2 235.67 71.7 229.5 75C227 76.5 224 75.5 222.5 73C221 70.5 222 67.5 224.5 66C234 60.95 310 20.55 319.5 15.5C321 14.5 323 14.5 324 15.5C350.8 30 565.2 146 592 160.5C593.5 161.5 594.5 163 594.5 165C594.5 194.35 594.5 429.15 594.5 458.5C594.5 460.5 593.5 462 592 463C565.2 479.15 350.8 608.35 324 624.5C324 625 323 625 322 625C321 625 320 625 319.5 624.5Z" id="d10pPNP9ul"></path><path d="M422 319.5C420.5 318.5 419.5 317 419.5 315C419.5 311.17 419.5 292 419.5 257.5C263.5 168.7 176.83 119.37 159.5 109.5C158 108.5 157 107 157 105C157 103 158 101.5 159.5 100.5C166 97.05 218 69.45 224.5 66C226 65 228 65 229.5 66C255.95 80.75 467.55 198.75 494 213.5C495.5 214.5 496.5 216 496.5 218C496.5 224.05 496.5 272.45 496.5 278.5C496.5 280.5 495.5 282 494 283C487.3 286.65 433.7 315.85 427 319.5C426.5 320 425.5 320 424.5 320C423.5 320 422.5 320 422 319.5ZM427 250.5C428.5 251.5 429.5 253 429.5 255C429.5 258.47 429.5 275.8 429.5 307L486.5 276L486.5 221L227.5 76.5L172.5 105.5C325.2 192.5 410.03 240.83 427 250.5Z" id="cyKTRlZ3Y"></path><path d="M319.5 624.5C292.3 608.35 74.7 479.15 47.5 463C46 462 45 460 45 458.5C45 429.15 45 194.35 45 165C45 163 46 161.5 47.5 160.5C49 159.5 51 159.5 52.5 160.5C70.47 170.1 160.3 218.1 322 304.5C380.8 272.7 413.47 255.03 420 251.5C422.5 250 425.5 251 427 253.5C428.5 256 427.5 259 425 260.5C414.95 265.95 334.55 309.55 324.5 315C323 316 321 316 320 315C302.33 305.57 214 258.4 55 173.5L55 455.5L322 614L585 455.5L585 173.5C530.7 202.9 500.53 219.23 494.5 222.5C492 224 489 223 487.5 220.5C486 218 487 215 489.5 213.5C499.3 208.2 577.7 165.8 587.5 160.5C589 159.5 591 159.5 592.5 160.5C594 161.5 595 163 595 165C595 194.35 595 429.15 595 458.5C595 460.5 594 462 592.5 463C565.7 479.15 351.3 608.35 324.5 624.5C324 625 323 625 322 625C321 625 320 625 319.5 624.5Z" id="g9BkEL1v7"></path><path d="M157.5 108C157 107.5 157 106.5 157 105.5C157 103.5 158 102 159.5 101C165.75 97.65 215.75 70.85 222 67.5C224.5 66 227.5 67 229 69.5C229.5 70 229.5 71 229.5 72C229.5 74 228.5 75.5 227 76.5C220.75 79.85 170.75 106.65 164.5 110C164 110 163 110.5 162 110.5C160 110.5 158.5 109.5 157.5 108Z" id="e1NmUmSidL"></path><path d="M317 620C317 589.05 317 341.45 317 310.5C317 307.5 319 305.5 322 305.5C325 305.5 327 307.5 327 310.5C327 341.45 327 589.05 327 620C327 623 325 625 322 625C319 625 317 623 317 620Z" id="j1ADGyOuVH"></path></defs><g><g><use xlink:href="#fkJO5NMA8" opacity="1" fill="#d6ab7f" fill-opacity="1"></use><g><use xlink:href="#fkJO5NMA8" opacity="1" fill-opacity="0" stroke="#000000" stroke-width="1" stroke-opacity="0"></use></g></g><g><use xlink:href="#d4ktFqmmXK" opacity="1" fill="#ffffff" fill-opacity="1"></use><g><use xlink:href="#d4ktFqmmXK" opacity="1" fill-opacity="0" stroke="#000000" stroke-width="1" stroke-opacity="0"></use></g></g><g><use xlink:href="#a1HErOLvEI" opacity="1" fill="#62355c" fill-opacity="1"></use><g><use xlink:href="#a1HErOLvEI" opacity="1" fill-opacity="0" stroke="#000000" stroke-width="1" stroke-opacity="0"></use></g></g><g><use xlink:href="#f1Z4WrIKBy" opacity="0.24" fill="#121519" fill-opacity="1"></use><g><use xlink:href="#f1Z4WrIKBy" opacity="0.24" fill-opacity="0" stroke="#000000" stroke-width="1" stroke-opacity="0"></use></g></g><g><use xlink:href="#cOcf87jIW" opacity="1" fill="#ffffff" fill-opacity="1"></use><g><use xlink:href="#cOcf87jIW" opacity="1" fill-opacity="0" stroke="#000000" stroke-width="1" stroke-opacity="0"></use></g></g><g><use xlink:href="#d10pPNP9ul" opacity="1" fill="#62355c" fill-opacity="1"></use><g><use xlink:href="#d10pPNP9ul" opacity="1" fill-opacity="0" stroke="#000000" stroke-width="1" stroke-opacity="0"></use></g></g><g><use xlink:href="#cyKTRlZ3Y" opacity="1" fill="#62355c" fill-opacity="1"></use><g><use xlink:href="#cyKTRlZ3Y" opacity="1" fill-opacity="0" stroke="#000000" stroke-width="1" stroke-opacity="0"></use></g></g><g><use xlink:href="#g9BkEL1v7" opacity="1" fill="#62355c" fill-opacity="1"></use><g><use xlink:href="#g9BkEL1v7" opacity="1" fill-opacity="0" stroke="#000000" stroke-width="1" stroke-opacity="0"></use></g></g><g><use xlink:href="#e1NmUmSidL" opacity="1" fill="#62355c" fill-opacity="1"></use><g><use xlink:href="#e1NmUmSidL" opacity="1" fill-opacity="0" stroke="#000000" stroke-width="1" stroke-opacity="0"></use></g></g><g><use xlink:href="#j1ADGyOuVH" opacity="1" fill="#62355c" fill-opacity="1"></use><g><use xlink:href="#j1ADGyOuVH" opacity="1" fill-opacity="0" stroke="#000000" stroke-width="1" stroke-opacity="0"></use></g></g></g></svg>