<?xml version="1.0" encoding="UTF-8" standalone="no"?>
<!DOCTYPE svg PUBLIC "-//W3C//DTD SVG 1.1//EN" "http://www.w3.org/Graphics/SVG/1.1/DTD/svg11.dtd">
<svg version="1.1" xmlns="http://www.w3.org/2000/svg" xmlns:xlink="http://www.w3.org/1999/xlink" preserveAspectRatio="xMidYMid meet" viewBox="240.94067168971046 36.49918183474185 150.6606478981099 606.5017593379938" width="146.66" height="602.5"><defs><path d="M246.47 323.2C247.92 324.65 254.61 328.72 256.21 328.72C257.81 328.72 269.52 324.24 270.89 321.17C272.06 318.54 271.2 311.87 267.86 307.86C264.03 303.26 264.52 295.17 264.52 295.17C263.38 295.38 257.69 296.44 247.45 298.34C245.83 313.94 245.5 322.23 246.47 323.2Z" id="a1VmRi5vNb"></path><path d="M256.86 163.09C255.71 172.26 253.18 207.91 251.98 238.56C250.61 273.67 247.45 298.33 247.45 298.33C247.45 306.35 261.56 312.35 267.44 306.47C268.32 305.59 268.53 272.31 275.63 224.35C282.35 178.98 298.99 136.75 279.47 134.69C276.66 134.39 260.07 137.62 256.86 163.09Z" id="a1cxN9Quy6"></path><path d="M243.47 604.07C255.44 611.6 304.09 580.53 304.09 578.04C304.09 575.54 300.64 551.32 300.64 551.32C298.9 551.9 290.18 554.78 274.49 559.96C248.08 585.77 237.74 600.47 243.47 604.07Z" id="k15ijHNx84"></path><path d="M301.01 638.89C312.76 646.76 357.79 610.31 357.79 607.81C357.79 605.32 354.34 581.1 354.34 581.1C352.6 581.68 343.88 584.56 328.19 589.74C302.7 617.57 293.64 633.95 301.01 638.89Z" id="b1sFiKsKSF"></path><path d="M273.17 561.27C273.17 561.27 275.49 566.84 288.27 566.84C299.01 566.84 301.51 557.49 301.51 557.49C302 546.01 304.45 488.62 308.85 385.32L309.78 385.46C319.62 509.38 325.08 578.23 326.17 592C326.17 592 329.95 599.17 339.28 598.62C359.39 597.42 355.41 588.69 355.41 588.69C355.69 571.33 357.1 484.52 359.64 328.26L266 320C270.31 464.76 272.69 545.19 273.17 561.27Z" id="a1muH1Nf0"></path><path d="M273.17 561.27C273.17 561.27 275.49 566.84 288.27 566.84C299.01 566.84 301.51 557.49 301.51 557.49C301.57 556.14 302.03 545.31 302.09 543.95C293.67 550.23 283.33 552.45 272.8 548.89C272.88 551.37 273.14 560.04 273.17 561.27Z" id="a7aR3XjiI"></path><path d="M325.08 578.23C325.19 579.61 326.06 590.63 326.17 592C326.17 592 329.94 599.17 339.28 598.62C359.38 597.42 355.41 588.69 355.41 588.69C355.42 587.71 355.5 582.81 355.64 573.98C342.48 579.43 332.29 580.85 325.08 578.23Z" id="dI8fSwUiU"></path><path d="M360.23 448.11C360.36 440.15 361 400.35 362.17 328.71L263.47 320C265.5 388.43 266.63 426.44 266.86 434.05C279.36 439.55 292.86 443.95 306.46 439.74C306.61 436.35 307.33 419.38 308.63 388.85L309.61 388.99C312.26 422.38 313.73 440.93 314.03 444.64C326.58 452.59 342.69 454.25 356.71 449.57C357.83 449.09 359.01 448.61 360.23 448.11Z" id="c2m3BDafIK"></path><path d="M261.19 239.27C261.72 207.51 258.56 176.16 258.7 168.25C259.06 148.66 271.38 134.79 278.59 134.67C278.59 134.67 329.01 138.82 371.12 171.57C371.12 171.57 366.69 335.69 361.09 337.59C314.91 353.26 264.92 326.75 263.05 318.19C262.68 302.41 260.57 277.12 261.19 239.27Z" id="cXtsv10ww"></path><path d="M294.14 156.37C293.21 164.52 307.6 169.77 318.6 166.31C329.6 162.85 334.04 154.71 334.04 154.71C328.85 137.24 329.19 111.92 329.19 111.92C327.11 112.81 316.74 117.28 298.06 125.33C296.29 138.69 294.99 149.03 294.14 156.37Z" id="b2ntD9u2XL"></path><path d="M283.42 136.76C292.47 143.48 320.84 137.04 336.61 110.18C349.78 87.77 344.28 43.83 315.99 39.17C282.95 33.72 269.88 58.71 271.86 92.4C274.17 101.27 274.37 130.04 283.42 136.76Z" id="aoe0yjiHH"></path><path d="M320.85 39.33C308.92 35.76 293.21 37.26 283.22 45.11C272.64 53.43 269.38 67.47 269.17 80.31C274.46 81.32 277.48 86.14 292.26 77.22C303.12 70.66 310.42 65.72 325.14 78.83C325.11 82.02 324.89 107.49 324.87 110.68C324.87 110.67 327.81 89.98 333.95 89.7C338.27 89.51 340.15 98.44 336.97 105.31C335.41 108.69 332.46 111.95 329.86 114.4C329.71 115.77 329.42 118.23 328.86 122.65C330.65 121.82 336.9 114.09 339.42 109.19C348.41 91.69 349.13 62.94 334.74 47.8C331.11 43.98 326.52 41.02 320.85 39.33Z" id="c6aW9hviq"></path><path d="M360.42 371.24C360.82 373.97 363.77 376.68 363.77 376.68C363.77 376.68 363.5 383.3 366.07 385.2C368.63 387.11 383.49 379.89 385.77 377.55C388.98 374.26 385.05 350.56 385.05 350.56C385.05 350.56 364.16 342.22 360.45 354.19C360.45 357.6 360.01 368.5 360.42 371.24Z" id="i1R025Ti2"></path><path d="M354.69 193.95C353.95 212.61 359.38 229.28 360.25 290.68C361.01 344.96 360.45 354.19 360.45 354.19C360.45 354.19 367.41 364.1 385.05 350.56C385.05 350.56 385.43 267.2 385.24 256.2C384.09 187.65 383.52 179.05 371.12 171.57C367.83 176.05 355.44 175.29 354.69 193.95Z" id="a22S0WXRhK"></path><path d="M334.75 88.11C339.09 87.91 340.98 96.87 337.79 103.76C334.6 110.65 325.65 117.07 325.65 117.07C325.65 116.54 325.65 113.9 325.65 109.14C327.62 95.3 330.65 88.29 334.75 88.11Z" id="aDMFaUzV6"></path><path d="M353.32 241.58C353.32 241.58 381.52 245.36 388.32 238.56C388.32 238.56 392.2 180.95 371.12 171.57C363.59 168.22 353.32 184.12 353.32 193.95C353.32 212.44 353.32 232.05 353.32 241.58Z" id="bkGrLhQmo"></path><path d="M253.07 183.1C254.15 132.63 276.44 135.06 276.44 135.06C275.76 139.14 272.34 159.53 266.19 196.23C259.19 189.23 254.82 184.85 253.07 183.1Z" id="a1hEiF1M2"></path></defs><g><g><use xlink:href="#a1VmRi5vNb" opacity="1" fill="#ffb657" fill-opacity="1"></use><g><use xlink:href="#a1VmRi5vNb" opacity="1" fill-opacity="0" stroke="#000000" stroke-width="1" stroke-opacity="0"></use></g></g><g><use xlink:href="#a1cxN9Quy6" opacity="1" fill="#ffb657" fill-opacity="1"></use><g><use xlink:href="#a1cxN9Quy6" opacity="1" fill-opacity="0" stroke="#000000" stroke-width="1" stroke-opacity="0"></use></g></g><g><use xlink:href="#k15ijHNx84" opacity="1" fill="#ff3502" fill-opacity="1"></use><g><use xlink:href="#k15ijHNx84" opacity="1" fill-opacity="0" stroke="#000000" stroke-width="1" stroke-opacity="0"></use></g></g><g><use xlink:href="#b1sFiKsKSF" opacity="1" fill="#ff3502" fill-opacity="1"></use><g><use xlink:href="#b1sFiKsKSF" opacity="1" fill-opacity="0" stroke="#000000" stroke-width="1" stroke-opacity="0"></use></g></g><g><use xlink:href="#a1muH1Nf0" opacity="1" fill="#ffb657" fill-opacity="1"></use><g><use xlink:href="#a1muH1Nf0" opacity="1" fill-opacity="0" stroke="#000000" stroke-width="1" stroke-opacity="0"></use></g></g><g><use xlink:href="#a7aR3XjiI" opacity="1" fill="#e0e0e2" fill-opacity="1"></use><g><use xlink:href="#a7aR3XjiI" opacity="1" fill-opacity="0" stroke="#000000" stroke-width="1" stroke-opacity="0"></use></g></g><g><use xlink:href="#dI8fSwUiU" opacity="1" fill="#e0e0e2" fill-opacity="1"></use><g><use xlink:href="#dI8fSwUiU" opacity="1" fill-opacity="0" stroke="#000000" stroke-width="1" stroke-opacity="0"></use></g></g><g><use xlink:href="#c2m3BDafIK" opacity="1" fill="#891d00" fill-opacity="1"></use><g><use xlink:href="#c2m3BDafIK" opacity="1" fill-opacity="0" stroke="#000000" stroke-width="1" stroke-opacity="0"></use></g></g><g><use xlink:href="#cXtsv10ww" opacity="1" fill="#0f83ff" fill-opacity="1"></use><g><use xlink:href="#cXtsv10ww" opacity="1" fill-opacity="0" stroke="#000000" stroke-width="1" stroke-opacity="0"></use></g></g><g><use xlink:href="#b2ntD9u2XL" opacity="1" fill="#ffb657" fill-opacity="1"></use><g><use xlink:href="#b2ntD9u2XL" opacity="1" fill-opacity="0" stroke="#000000" stroke-width="1" stroke-opacity="0"></use></g></g><g><use xlink:href="#aoe0yjiHH" opacity="1" fill="#fec377" fill-opacity="1"></use><g><use xlink:href="#aoe0yjiHH" opacity="1" fill-opacity="0" stroke="#000000" stroke-width="1" stroke-opacity="0"></use></g></g><g><use xlink:href="#c6aW9hviq" opacity="1" fill="#3e3d43" fill-opacity="1"></use><g><use xlink:href="#c6aW9hviq" opacity="1" fill-opacity="0" stroke="#000000" stroke-width="1" stroke-opacity="0"></use></g></g><g><use xlink:href="#i1R025Ti2" opacity="1" fill="#ffb657" fill-opacity="1"></use><g><use xlink:href="#i1R025Ti2" opacity="1" fill-opacity="0" stroke="#000000" stroke-width="1" stroke-opacity="0"></use></g></g><g><use xlink:href="#a22S0WXRhK" opacity="1" fill="#ffb657" fill-opacity="1"></use><g><use xlink:href="#a22S0WXRhK" opacity="1" fill-opacity="0" stroke="#000000" stroke-width="1" stroke-opacity="0"></use></g></g><g><use xlink:href="#aDMFaUzV6" opacity="1" fill="#fec377" fill-opacity="1"></use><g><use xlink:href="#aDMFaUzV6" opacity="1" fill-opacity="0" stroke="#000000" stroke-width="1" stroke-opacity="0"></use></g></g><g><use xlink:href="#bkGrLhQmo" opacity="1" fill="#0f83ff" fill-opacity="1"></use><g><use xlink:href="#bkGrLhQmo" opacity="1" fill-opacity="0" stroke="#000000" stroke-width="1" stroke-opacity="0"></use></g></g><g><use xlink:href="#a1hEiF1M2" opacity="1" fill="#0f83ff" fill-opacity="1"></use><g><use xlink:href="#a1hEiF1M2" opacity="1" fill-opacity="0" stroke="#000000" stroke-width="1" stroke-opacity="0"></use></g></g></g></svg>