<?xml version="1.0" encoding="UTF-8"?>
<svg width="155.25mm" height="163.74mm" version="1.1" viewBox="0 0 155.25 163.74" xmlns="http://www.w3.org/2000/svg" xmlns:cc="http://creativecommons.org/ns#" xmlns:dc="http://purl.org/dc/elements/1.1/" xmlns:rdf="http://www.w3.org/1999/02/22-rdf-syntax-ns#">
<metadata>
<rdf:RDF>
<cc:Work rdf:about="">
<dc:format>image/svg+xml</dc:format>
<dc:type rdf:resource="http://purl.org/dc/dcmitype/StillImage"/>
<dc:title/>
</cc:Work>
</rdf:RDF>
</metadata>
<g transform="translate(-77.051 -60.417)">
<g transform="matrix(.94644 0 0 .94644 8.2849 7.6213)">
<path d="m163.64 83.098c-41.494-8.885-100.31 104.2-83.71 132.95 7.9125 13.705 140.74 8.1992 150.68-2.9545 9.9396-11.154-25.473-121.11-66.968-130z"/>
<path d="m160.44 81.472c-2.122-5.2584 1.5409-8.7091 6.7896-11.664 9.6271-5.4938 24.741-12.776 32.401-7.6457 7.7922 5.2187-4.9702 12.58-1.4128 21.747 0.79192 8.8534-3.4719 16-7.3119 12.709 0 0-10.695-13.046-18.28-15.668-3.8427-1.3287-10.503 4.6942-12.186 0.52228z"/>
<path d="m105.84 126.18s35.283-36.124 36.381-34.222c2.212 3.8313-19.557 20.453-26.959 33.361-3.551 6.1921-11.132 20.353-8.9865 20.927 2.6837 0.71909 19.216-30.764 17.735-27.329 0 0-13.826 24.995-11.088 25.728 3.333 0.89306 35.727-57.161 40.131-59.705 3.0952-1.787-7.3618 0.56362-10.464 2.3389-15.396 8.8116-36.75 38.9-36.75 38.9z" fill="#595758"/>
<path d="m156.99 83.96c-11.549 15.483-26.128 32.312-29.668 63.644-0.0259 0.22912 0.13638 0.29034 0.13638 0.29034 1.2279-0.30075 9.9648-14.392 10.943-11.739 0.80346 2.1794-1.5894 9.6448 1.8465 11.325 1.3856 0.67773 3.8551-3.7443 4.0624-2.2158 1.3672 10.08-2.7647 22.719 0.24622 21.912 4.9426-1.3243 12.79-41.064 14.034-57.366 0.20476-2.6842-5.7434 7.5345-6.4013 4.9241-1.3858-5.4982 11.236-24.971 9.4552-25.962-1.7806-0.99115-7.7986 13.954-9.5783 12.175-1.2311-1.2311 7.4667-20.397 4.9241-16.988z" fill="#595758"/>
<path d="m166.18 88.661c-1.0979 5.8936 7.1637 66.59 7.0652 72.976-0.17936 11.64-0.87894-48.069 3.8162-34.715 2.3111 6.5733 1.8649 38.123 5.4438 42.116 2.5728 2.8702 1.336-34.606-1.8738-51.472-1.8878-9.919-5.9805-22.976-10.094-28.56-1.6065-2.1807 3.8043 8.5756 1.1826 9.2564-3.5765 0.92875-4.863-13.235-5.5396-9.602z" fill="#595758"/>
<path d="m174.59 91.592c1.5189 3.0029 19.684 44.017 22.158 46.163 7.5565 6.5535-2.9403-21.383-7.0168-29.175s-18.565-23.757-15.142-16.988z" fill="#595758"/>
<path d="m184.2 67.095c0.94977-3.9575 9.9086 0.40046 12.187 0.73861 1.3884 0.20605 0.13062 4.7226-1.1079 4.0624-4.9217-2.6233-12.017-0.8928-11.079-4.801z" fill="#595758"/>
<path d="m172.13 70.419c12.553 1.9627 21.934-3.1874 22.035 10.464-5.7105 0.32627-30.545-11.794-22.035-10.464z" fill="#595758"/>
<path d="m175.58 77.928c-2.6114-3.6915 18.075 6.1877 20.927 9.2327 1.7947 1.916-5.4373 5.3219-7.1399 3.3238-1.1062-1.2981-11.332-9.0856-13.787-12.556z" fill="#595758"/>
<path d="m166.47 72.634c-2.0136-0.55969-4.1914 2.2505-4.5548 4.3086-0.15958 0.90358 0.42332 2.0267 1.231 2.462 1.5278 0.82344 4.8307 1.0865 5.1703-0.61551 0.2948-1.4774-3.8984-0.70982-3.9393-2.2158-0.0291-1.0696 2.3248-0.72448 2.7083-1.7234 0.27475-0.71565 0.12305-2.0105-0.61551-2.2158z" fill="#595758"/>
</g>
</g>
</svg>